<?xml version="1.0" encoding="utf-8"?>
<!-- Generator: Adobe Illustrator 16.0.4, SVG Export Plug-In . SVG Version: 6.00 Build 0)  -->
<!DOCTYPE svg PUBLIC "-//W3C//DTD SVG 1.1//EN" "http://www.w3.org/Graphics/SVG/1.1/DTD/svg11.dtd">
<svg version="1.1" id="Layer_1" xmlns="http://www.w3.org/2000/svg" xmlns:xlink="http://www.w3.org/1999/xlink" x="0px" y="0px"
	 width="640px" height="640px" viewBox="0 0 640 640" enable-background="new 0 0 640 640" xml:space="preserve">
<linearGradient id="SVGID_1_" gradientUnits="userSpaceOnUse" x1="214.6992" y1="-68.835" x2="422.842" y2="707.9647">
	<stop  offset="0" style="stop-color:#9A6046"/>
	<stop  offset="0.5" style="stop-color:#6E2405"/>
	<stop  offset="1" style="stop-color:#4E0000"/>
</linearGradient>
<polygon display="none" fill="url(#SVGID_1_)" fill-opacity="0.9" stroke="#000000" stroke-miterlimit="10" points="648.5,647.5 
	-10.994,647.5 -10.478,-8.5 648.5,-8.5 "/>
<g>
	<g>
		<g>
			<g opacity="0.9">
				<path fill="#FFFFFF" d="M547.546,368.093c0.138-0.361,0.262-0.727,0.375-1.094c0.051-0.165,0.101-0.329,0.146-0.496
					c0.12-0.438,0.228-0.88,0.312-1.323c0.027-0.141,0.046-0.283,0.069-0.425c0.062-0.375,0.113-0.75,0.151-1.127
					c0.015-0.145,0.032-0.287,0.043-0.432c0.036-0.484,0.051-0.969,0.048-1.454c-0.001-0.121,0.207-0.244,0.203-0.366
					c-0.015-0.525,0.105-1.051,0.105-1.574c0-0.001,0-0.003,0-0.004c0-0.006-0.215-0.011-0.216-0.017
					c-0.062-0.518-0.261-1.031-0.369-1.542c-0.025-0.117-0.103-0.235-0.13-0.353c-0.109-0.471-0.264-0.938-0.413-1.399
					c-0.047-0.145-0.112-0.286-0.163-0.429c-0.121-0.344-0.26-0.685-0.402-1.021c-0.062-0.146-0.123-0.293-0.188-0.437
					c-0.183-0.399-0.386-0.792-0.6-1.18c-0.096-0.173-0.196-0.343-0.298-0.512c-0.059-0.098-0.111-0.198-0.172-0.295L352.33,41.745
					c-0.003-0.005-0.007-0.01-0.011-0.016c-0.072-0.115-0.151-0.225-0.226-0.338c-0.205-0.312-0.42-0.617-0.644-0.914
					c-0.092-0.121-0.182-0.243-0.276-0.362c-0.294-0.371-0.602-0.729-0.923-1.073c-0.068-0.073-0.141-0.142-0.21-0.214
					c-0.3-0.309-0.609-0.605-0.93-0.891c-0.07-0.063-0.139-0.128-0.211-0.189c-0.374-0.323-0.762-0.628-1.16-0.917
					c-0.077-0.055-0.155-0.107-0.232-0.162c-0.369-0.258-0.746-0.502-1.133-0.73c-0.061-0.036-0.119-0.074-0.18-0.109
					c-0.42-0.241-0.851-0.461-1.289-0.667c-0.118-0.056-0.238-0.109-0.358-0.162c-0.395-0.174-0.795-0.337-1.202-0.482
					c-0.094-0.034-0.188-0.068-0.283-0.1c-0.412-0.139-0.83-0.258-1.253-0.366c-0.161-0.042-0.323-0.081-0.486-0.118
					c-0.444-0.1-0.893-0.188-1.347-0.254c-0.132-0.019-0.266-0.029-0.399-0.045c-0.377-0.045-0.757-0.079-1.14-0.1
					c-0.153-0.008-0.306-0.019-0.459-0.023c-0.06-0.001-0.118-0.008-0.178-0.009c-0.431-0.008-0.859,0.005-1.285,0.028
					c-0.109,0.006-0.218,0.017-0.327,0.025c-0.512,0.038-1.02,0.093-1.521,0.174c-0.019,0.003-0.037,0.003-0.056,0.006
					c-0.006,0.001-0.012,0.003-0.018,0.004c-0.541,0.09-1.073,0.21-1.601,0.349c-0.083,0.022-0.167,0.044-0.25,0.067
					c-0.508,0.143-1.008,0.303-1.499,0.49c-0.061,0.023-0.12,0.05-0.181,0.074c-0.441,0.173-0.875,0.366-1.3,0.574
					c-0.076,0.038-0.154,0.072-0.23,0.111c-0.443,0.226-0.876,0.472-1.298,0.735c-0.092,0.057-0.182,0.117-0.272,0.175
					c-0.407,0.264-0.807,0.541-1.192,0.839c-0.017,0.013-0.035,0.025-0.053,0.039c-0.398,0.311-0.778,0.644-1.149,0.989
					c-0.076,0.071-0.151,0.142-0.227,0.214c-0.363,0.35-0.716,0.712-1.05,1.096c-0.012,0.013-0.021,0.026-0.033,0.04
					c-0.315,0.364-0.613,0.747-0.9,1.14c-0.066,0.091-0.133,0.182-0.198,0.275c-0.061,0.086-0.126,0.168-0.185,0.255L77.597,404.407
					c-0.035,0.052-0.061,0.107-0.096,0.159c-0.229,0.347-0.437,0.707-0.642,1.069c-0.086,0.152-0.182,0.3-0.263,0.455
					c-0.558,1.063-1.009,2.187-1.34,3.355c-0.002,0.008-0.003,0.016-0.005,0.023c-0.158,0.562-0.287,1.135-0.388,1.716
					c-0.024,0.136-0.034,0.272-0.055,0.408c-0.067,0.447-0.127,0.896-0.159,1.353c-0.016,0.217-0.014,0.435-0.021,0.651
					c-0.013,0.374-0.025,0.747-0.013,1.125c0.008,0.271,0.035,0.543,0.056,0.814c0.019,0.246,0.021,0.49,0.05,0.738
					c0.011,0.091,0.033,0.178,0.045,0.268c0.031,0.229,0.074,0.455,0.114,0.684c0.065,0.371,0.137,0.738,0.224,1.101
					c0.023,0.094,0.033,0.188,0.058,0.282c0.029,0.111,0.073,0.216,0.104,0.326c0.109,0.392,0.232,0.776,0.367,1.156
					c0.061,0.17,0.121,0.34,0.187,0.508c0.164,0.418,0.345,0.824,0.539,1.225c0.06,0.123,0.114,0.248,0.176,0.37
					c0.257,0.5,0.534,0.986,0.835,1.456c0.012,0.018,0.021,0.037,0.033,0.055c0.325,0.502,0.675,0.985,1.048,1.449
					c0.061,0.076,0.13,0.146,0.192,0.221c0.302,0.363,0.615,0.716,0.944,1.053c0.135,0.138,0.277,0.268,0.416,0.4
					c0.276,0.265,0.558,0.521,0.85,0.768c0.164,0.137,0.33,0.27,0.498,0.401c0.3,0.233,0.607,0.454,0.921,0.668
					c0.165,0.112,0.327,0.226,0.495,0.332c0.389,0.245,0.79,0.473,1.198,0.688c0.083,0.044,0.16,0.098,0.244,0.14l0.148,0.074
					c0.02,0.01,0.039,0.021,0.058,0.03l333.424,168.414c0.077,0.039,0.157,0.072,0.235,0.11c0.142,0.068,0.284,0.135,0.427,0.2
					c0.294,0.133,0.591,0.257,0.89,0.374c0.143,0.055,0.284,0.112,0.429,0.165c0.352,0.126,0.706,0.238,1.062,0.341
					c0.178,0.052,0.356,0.099,0.536,0.144c0.275,0.07,0.552,0.132,0.829,0.188c0.2,0.041,0.399,0.081,0.602,0.115
					c0.348,0.058,0.697,0.104,1.048,0.142c0.175,0.018,0.351,0.033,0.526,0.046c0.353,0.026,0.706,0.043,1.061,0.048
					c0.075,0.001,0.148,0.01,0.224,0.01c0.654,0,1.316-0.046,1.979-0.12c0.302-0.033,0.603-0.105,0.902-0.105
					c0.002,0,0.003,0,0.005,0c0.013,0,0.024-0.013,0.036-0.015c0.519-0.087,1.032-0.206,1.544-0.341
					c0.2-0.053,0.396-0.117,0.593-0.177c0.204-0.062,0.41-0.112,0.612-0.182c0.092-0.031,0.177-0.075,0.268-0.107
					c0.33-0.118,0.65-0.25,0.97-0.387c0.207-0.089,0.414-0.176,0.617-0.272c0.33-0.156,0.65-0.327,0.969-0.503
					c0.184-0.103,0.369-0.202,0.549-0.312c0.312-0.188,0.612-0.388,0.91-0.594c0.177-0.122,0.354-0.242,0.527-0.371
					c0.278-0.208,0.546-0.429,0.811-0.652c0.177-0.149,0.354-0.296,0.525-0.451c0.241-0.222,0.471-0.453,0.698-0.688
					c0.175-0.178,0.351-0.354,0.518-0.539c0.208-0.232,0.403-0.475,0.599-0.717c0.164-0.204,0.33-0.404,0.485-0.615
					c0.185-0.252,0.354-0.513,0.524-0.773c0.142-0.216,0.287-0.428,0.42-0.649c0.173-0.292,0.327-0.594,0.483-0.895
					c0.087-0.168,0.187-0.326,0.269-0.497l105.47-220.854c0.159-0.334,0.308-0.672,0.444-1.014
					C547.475,368.297,547.507,368.193,547.546,368.093z M433.89,525.021l-12.417-74.816l40.788,15.406L433.89,525.021z
					 M327.402,97.174l29.03,174.917l-127.43-29.27L327.402,97.174z M396.672,300.772l-27.53-165.87l132.638,212.85l-71.519,8.523
					L396.672,300.772z M208.557,273.085l62.081,102.216l-142.622,16.998L208.557,273.085z M305.485,406.395l78.136,29.514
					l19.192,115.635L151.733,424.721L305.485,406.395z M477.331,434.056l-27.175-44.903l51.553-6.145L477.331,434.056z"/>
			</g>
		</g>
		<g>
			<g opacity="0.9">
				<linearGradient id="SVGID_2_" gradientUnits="userSpaceOnUse" x1="224.7041" y1="63.1064" x2="372.6024" y2="615.0708">
					<stop  offset="0.302" style="stop-color:#A74223"/>
					<stop  offset="0.4552" style="stop-color:#9F3C1F"/>
					<stop  offset="0.6952" style="stop-color:#892C13"/>
					<stop  offset="0.9907" style="stop-color:#641301"/>
					<stop  offset="1" style="stop-color:#631200"/>
				</linearGradient>
				<path fill="url(#SVGID_2_)" d="M547.546,368.093c0.138-0.361,0.262-0.727,0.375-1.094c0.051-0.165,0.101-0.329,0.146-0.496
					c0.12-0.438,0.228-0.88,0.312-1.323c0.027-0.141,0.046-0.283,0.069-0.425c0.062-0.375,0.113-0.75,0.151-1.127
					c0.015-0.145,0.032-0.287,0.043-0.432c0.036-0.484,0.051-0.969,0.048-1.454c-0.001-0.121,0.207-0.244,0.203-0.366
					c-0.015-0.525,0.105-1.051,0.105-1.574c0-0.001,0-0.003,0-0.004c0-0.006-0.215-0.011-0.216-0.017
					c-0.062-0.518-0.261-1.031-0.369-1.542c-0.025-0.117-0.103-0.235-0.13-0.353c-0.109-0.471-0.264-0.938-0.413-1.399
					c-0.047-0.145-0.112-0.286-0.163-0.429c-0.121-0.344-0.26-0.685-0.402-1.021c-0.062-0.146-0.123-0.293-0.188-0.437
					c-0.183-0.399-0.386-0.792-0.6-1.18c-0.096-0.173-0.196-0.343-0.298-0.512c-0.059-0.098-0.111-0.198-0.172-0.295L352.33,41.745
					c-0.003-0.005-0.007-0.01-0.011-0.016c-0.072-0.115-0.151-0.225-0.226-0.338c-0.205-0.312-0.42-0.617-0.644-0.914
					c-0.092-0.121-0.182-0.243-0.276-0.362c-0.294-0.371-0.602-0.729-0.923-1.073c-0.068-0.073-0.141-0.142-0.21-0.214
					c-0.3-0.309-0.609-0.605-0.93-0.891c-0.07-0.063-0.139-0.128-0.211-0.189c-0.374-0.323-0.762-0.628-1.16-0.917
					c-0.077-0.055-0.155-0.107-0.232-0.162c-0.369-0.258-0.746-0.502-1.133-0.73c-0.061-0.036-0.119-0.074-0.18-0.109
					c-0.42-0.241-0.851-0.461-1.289-0.667c-0.118-0.056-0.238-0.109-0.358-0.162c-0.395-0.174-0.795-0.337-1.202-0.482
					c-0.094-0.034-0.188-0.068-0.283-0.1c-0.412-0.139-0.83-0.258-1.253-0.366c-0.161-0.042-0.323-0.081-0.486-0.118
					c-0.444-0.1-0.893-0.188-1.347-0.254c-0.132-0.019-0.266-0.029-0.399-0.045c-0.377-0.045-0.757-0.079-1.14-0.1
					c-0.153-0.008-0.306-0.019-0.459-0.023c-0.06-0.001-0.118-0.008-0.178-0.009c-0.431-0.008-0.859,0.005-1.285,0.028
					c-0.109,0.006-0.218,0.017-0.327,0.025c-0.512,0.038-1.02,0.093-1.521,0.174c-0.019,0.003-0.037,0.003-0.056,0.006
					c-0.006,0.001-0.012,0.003-0.018,0.004c-0.541,0.09-1.073,0.21-1.601,0.349c-0.083,0.022-0.167,0.044-0.25,0.067
					c-0.508,0.143-1.008,0.303-1.499,0.49c-0.061,0.023-0.12,0.05-0.181,0.074c-0.441,0.173-0.875,0.366-1.3,0.574
					c-0.076,0.038-0.154,0.072-0.23,0.111c-0.443,0.226-0.876,0.472-1.298,0.735c-0.092,0.057-0.182,0.117-0.272,0.175
					c-0.407,0.264-0.807,0.541-1.192,0.839c-0.017,0.013-0.035,0.025-0.053,0.039c-0.398,0.311-0.778,0.644-1.149,0.989
					c-0.076,0.071-0.151,0.142-0.227,0.214c-0.363,0.35-0.716,0.712-1.05,1.096c-0.012,0.013-0.021,0.026-0.033,0.04
					c-0.315,0.364-0.613,0.747-0.9,1.14c-0.066,0.091-0.133,0.182-0.198,0.275c-0.061,0.086-0.126,0.168-0.185,0.255L77.597,404.407
					c-0.035,0.052-0.061,0.107-0.096,0.159c-0.229,0.347-0.437,0.707-0.642,1.069c-0.086,0.152-0.182,0.3-0.263,0.455
					c-0.558,1.063-1.009,2.187-1.34,3.355c-0.002,0.008-0.003,0.016-0.005,0.023c-0.158,0.562-0.287,1.135-0.388,1.716
					c-0.024,0.136-0.034,0.272-0.055,0.408c-0.067,0.447-0.127,0.896-0.159,1.353c-0.016,0.217-0.014,0.435-0.021,0.651
					c-0.013,0.374-0.025,0.747-0.013,1.125c0.008,0.271,0.035,0.543,0.056,0.814c0.019,0.246,0.021,0.49,0.05,0.738
					c0.011,0.091,0.033,0.178,0.045,0.268c0.031,0.229,0.074,0.455,0.114,0.684c0.065,0.371,0.137,0.738,0.224,1.101
					c0.023,0.094,0.033,0.188,0.058,0.282c0.029,0.111,0.073,0.216,0.104,0.326c0.109,0.392,0.232,0.776,0.367,1.156
					c0.061,0.17,0.121,0.34,0.187,0.508c0.164,0.418,0.345,0.824,0.539,1.225c0.06,0.123,0.114,0.248,0.176,0.37
					c0.257,0.5,0.534,0.986,0.835,1.456c0.012,0.018,0.021,0.037,0.033,0.055c0.325,0.502,0.675,0.985,1.048,1.449
					c0.061,0.076,0.13,0.146,0.192,0.221c0.302,0.363,0.615,0.716,0.944,1.053c0.135,0.138,0.277,0.268,0.416,0.4
					c0.276,0.265,0.558,0.521,0.85,0.768c0.164,0.137,0.33,0.27,0.498,0.401c0.3,0.233,0.607,0.454,0.921,0.668
					c0.165,0.112,0.327,0.226,0.495,0.332c0.389,0.245,0.79,0.473,1.198,0.688c0.083,0.044,0.16,0.098,0.244,0.14l0.148,0.074
					c0.02,0.01,0.039,0.021,0.058,0.03l333.424,168.414c0.077,0.039,0.157,0.072,0.235,0.11c0.142,0.068,0.284,0.135,0.427,0.2
					c0.294,0.133,0.591,0.257,0.89,0.374c0.143,0.055,0.284,0.112,0.429,0.165c0.352,0.126,0.706,0.238,1.062,0.341
					c0.178,0.052,0.356,0.099,0.536,0.144c0.275,0.07,0.552,0.132,0.829,0.188c0.2,0.041,0.399,0.081,0.602,0.115
					c0.348,0.058,0.697,0.104,1.048,0.142c0.175,0.018,0.351,0.033,0.526,0.046c0.353,0.026,0.706,0.043,1.061,0.048
					c0.075,0.001,0.148,0.01,0.224,0.01c0.654,0,1.316-0.046,1.979-0.12c0.302-0.033,0.603-0.105,0.902-0.105
					c0.002,0,0.003,0,0.005,0c0.013,0,0.024-0.013,0.036-0.015c0.519-0.087,1.032-0.206,1.544-0.341
					c0.2-0.053,0.396-0.117,0.593-0.177c0.204-0.062,0.41-0.112,0.612-0.182c0.092-0.031,0.177-0.075,0.268-0.107
					c0.33-0.118,0.65-0.25,0.97-0.387c0.207-0.089,0.414-0.176,0.617-0.272c0.33-0.156,0.65-0.327,0.969-0.503
					c0.184-0.103,0.369-0.202,0.549-0.312c0.312-0.188,0.612-0.388,0.91-0.594c0.177-0.122,0.354-0.242,0.527-0.371
					c0.278-0.208,0.546-0.429,0.811-0.652c0.177-0.149,0.354-0.296,0.525-0.451c0.241-0.222,0.471-0.453,0.698-0.688
					c0.175-0.178,0.351-0.354,0.518-0.539c0.208-0.232,0.403-0.475,0.599-0.717c0.164-0.204,0.33-0.404,0.485-0.615
					c0.185-0.252,0.354-0.513,0.524-0.773c0.142-0.216,0.287-0.428,0.42-0.649c0.173-0.292,0.327-0.594,0.483-0.895
					c0.087-0.168,0.187-0.326,0.269-0.497l105.47-220.854c0.159-0.334,0.308-0.672,0.444-1.014
					C547.475,368.297,547.507,368.193,547.546,368.093z M433.89,525.021l-12.417-74.816l40.788,15.406L433.89,525.021z
					 M327.402,97.174l29.03,174.917l-127.43-29.27L327.402,97.174z M359.974,293.426l19.862,119.675l-81.549-30.803l-72.729-119.747
					L359.974,293.426z M417.688,427.397L405.506,354l53.971,89.182L417.688,427.397z M396.672,300.772l-27.53-165.87l132.638,212.85
					l-71.519,8.523L396.672,300.772z M208.557,273.085l62.081,102.216l-142.622,16.998L208.557,273.085z M305.485,406.395
					l78.136,29.514l19.192,115.635L151.733,424.721L305.485,406.395z M477.331,434.056l-27.175-44.903l51.553-6.145L477.331,434.056
					z"/>
			</g>
		</g>
		<g>
			<g opacity="0.4">
				<linearGradient id="SVGID_3_" gradientUnits="userSpaceOnUse" x1="312.1045" y1="239.3613" x2="372.9318" y2="466.3718">
					<stop  offset="0" style="stop-color:#E38573"/>
					<stop  offset="0.5112" style="stop-color:#A74223"/>
					<stop  offset="1" style="stop-color:#631200"/>
				</linearGradient>
				<path fill="url(#SVGID_3_)" d="M459.477,443.182l-41.789-15.784L405.506,354L459.477,443.182z M298.287,382.298l81.549,30.803
					l-19.862-119.675l-134.415-30.875L298.287,382.298z"/>
			</g>
		</g>
		<g display="none">
			<linearGradient id="SVGID_4_" gradientUnits="userSpaceOnUse" x1="406.416" y1="396.4297" x2="419.2491" y2="391.7588">
				<stop  offset="0" style="stop-color:#B5B5B5"/>
				<stop  offset="0.2067" style="stop-color:#CFCFCF"/>
				<stop  offset="0.6233" style="stop-color:#FFFFFF"/>
			</linearGradient>
			<polygon display="inline" fill="url(#SVGID_4_)" points="428.001,431.335 417.688,427.397 405.506,354 			"/>
		</g>
		<g display="none">
			<linearGradient id="SVGID_5_" gradientUnits="userSpaceOnUse" x1="347.1836" y1="354.0576" x2="377.7368" y2="352.9907">
				<stop  offset="0.329" style="stop-color:#FFFFFF"/>
				<stop  offset="0.5238" style="stop-color:#ECECEC"/>
				<stop  offset="0.9167" style="stop-color:#BBBBBB"/>
				<stop  offset="1" style="stop-color:#B0B0B0"/>
			</linearGradient>
			<polygon display="inline" fill="url(#SVGID_5_)" points="348.834,401.334 379.836,413.101 359.974,293.426 			"/>
		</g>
	</g>
</g>
</svg>
