<?xml version="1.0" encoding="utf-8"?>
<!-- Generator: Adobe Illustrator 21.1.0, SVG Export Plug-In . SVG Version: 6.00 Build 0)  -->
<svg version="1.1" id="Layer_1" xmlns="http://www.w3.org/2000/svg" xmlns:xlink="http://www.w3.org/1999/xlink" x="0px" y="0px"
	 viewBox="0 0 492 158" enable-background="new 0 0 492 158" xml:space="preserve">
<filter  id="AI_GaussianBlur_4">
	<feGaussianBlur  stdDeviation="4"></feGaussianBlur>
</filter>
<g>
	<path fill="#1B1464" d="M199.88,33.44c0-2.64-0.05-5.229-0.15-7.77c-0.1-2.54-0.21-5.13-0.33-7.77c1.16,0.081,2.3,0.15,3.42,0.21
		c1.12,0.06,2.26,0.09,3.42,0.09c1.16,0,2.299-0.05,3.42-0.15c1.119-0.099,2.259-0.15,3.42-0.15c1.68,0,3.279,0.161,4.8,0.48
		c1.52,0.321,2.85,0.851,3.99,1.59c1.14,0.74,2.04,1.71,2.7,2.91c0.66,1.2,0.99,2.7,0.99,4.5c0,1.92-0.43,3.57-1.29,4.95
		c-0.861,1.38-1.911,2.52-3.15,3.42c-1.24,0.9-2.571,1.6-3.99,2.1c-1.42,0.5-2.71,0.831-3.87,0.99c0.48,0.6,1.14,1.44,1.98,2.52
		c0.84,1.08,1.779,2.271,2.82,3.57c1.04,1.3,2.12,2.661,3.24,4.08c1.12,1.42,2.2,2.781,3.24,4.08c1.04,1.3,2.02,2.49,2.94,3.57
		c0.92,1.08,1.659,1.9,2.22,2.46c-0.6-0.081-1.2-0.12-1.8-0.12s-1.2,0-1.8,0c-0.561,0-1.14,0-1.74,0s-1.18,0.04-1.74,0.12
		c-0.6-0.84-1.51-2.1-2.73-3.78c-1.221-1.68-2.571-3.48-4.05-5.4c-1.48-1.92-2.99-3.83-4.53-5.73c-1.541-1.899-2.95-3.51-4.23-4.83
		h-2.28v4.38c0,2.64,0.05,5.241,0.15,7.8c0.099,2.56,0.21,5.08,0.33,7.56c-0.92-0.081-1.9-0.12-2.94-0.12
		c-1.041,0-2.02,0.04-2.94,0.12c0.12-2.48,0.23-5,0.33-7.56c0.1-2.56,0.15-5.16,0.15-7.8V33.44z M204.8,36.86
		c0.56,0.12,1.17,0.201,1.83,0.24c0.66,0.04,1.39,0.06,2.19,0.06c1.24,0,2.53-0.14,3.87-0.42c1.34-0.28,2.57-0.77,3.69-1.47
		c1.12-0.699,2.049-1.64,2.79-2.82c0.74-1.18,1.11-2.67,1.11-4.47c0-1.56-0.291-2.85-0.87-3.87c-0.581-1.02-1.331-1.83-2.25-2.43
		c-0.921-0.6-1.92-1.01-3-1.23c-1.08-0.22-2.141-0.33-3.18-0.33c-1.4,0-2.56,0.03-3.48,0.09c-0.92,0.06-1.701,0.13-2.34,0.21
		c-0.081,2.2-0.161,4.38-0.24,6.54c-0.081,2.16-0.12,4.32-0.12,6.48V36.86z"/>
	<path fill="#1B1464" d="M232.76,45.8c0-4.92,1.17-8.779,3.51-11.58c2.34-2.8,5.75-4.2,10.23-4.2c2.12,0,3.95,0.33,5.49,0.99
		c1.54,0.66,2.829,1.541,3.87,2.64c1.039,1.101,1.811,2.391,2.311,3.87c0.5,1.48,0.75,3.06,0.75,4.74c0,0.4-0.01,0.791-0.029,1.17
		c-0.021,0.38-0.051,0.771-0.092,1.17c-2.158-0.04-4.299-0.08-6.419-0.12c-2.121-0.04-4.26-0.06-6.42-0.06
		c-1.32,0-2.63,0.021-3.93,0.06c-1.3,0.041-2.61,0.081-3.93,0.12c-0.04,0.201-0.06,0.5-0.06,0.9v0.78c0,1.56,0.23,3.021,0.69,4.38
		c0.459,1.36,1.13,2.53,2.01,3.51c0.879,0.98,1.959,1.761,3.24,2.34c1.28,0.581,2.76,0.87,4.44,0.87c0.8,0,1.62-0.109,2.46-0.33
		c0.84-0.219,1.659-0.519,2.46-0.9c0.799-0.379,1.549-0.83,2.25-1.35c0.699-0.519,1.309-1.08,1.83-1.68l0.299,0.18l-0.359,2.94
		c-1.199,0.96-2.689,1.78-4.47,2.46s-3.63,1.02-5.55,1.02c-2.16,0-4.131-0.33-5.91-0.99c-1.78-0.66-3.321-1.62-4.62-2.88
		c-1.3-1.26-2.3-2.75-3-4.47C233.109,49.661,232.76,47.801,232.76,45.8z M246.62,31.94c-1.48,0-2.73,0.34-3.75,1.02
		c-1.02,0.681-1.86,1.53-2.52,2.55c-0.66,1.02-1.161,2.141-1.5,3.36c-0.34,1.221-0.55,2.37-0.63,3.45
		c1.239,0.041,2.529,0.081,3.87,0.12c1.339,0.041,2.649,0.06,3.93,0.06c1.32,0,2.66-0.02,4.02-0.06c1.359-0.04,2.68-0.08,3.96-0.12
		c0-1.08-0.09-2.22-0.27-3.42c-0.181-1.2-0.541-2.319-1.081-3.36c-0.54-1.04-1.29-1.899-2.25-2.58
		C249.439,32.28,248.18,31.94,246.62,31.94z"/>
	<path fill="#1B1464" d="M263.659,39.8c0-1.68,0.3-3.129,0.9-4.35c0.6-1.22,1.43-2.229,2.489-3.03c1.06-0.8,2.28-1.399,3.66-1.8
		c1.38-0.399,2.851-0.6,4.41-0.6c0.76,0,1.489,0.021,2.19,0.06c0.699,0.04,1.59,0.1,2.67,0.18c0.919,0.081,1.739,0.141,2.46,0.18
		c0.72,0.041,1.299,0.06,1.739,0.06c2.24,0,3.86-0.1,4.86-0.3c-0.04,0.2-0.07,0.411-0.09,0.63c-0.021,0.22-0.03,0.43-0.03,0.63
		c0,0.201,0.01,0.411,0.03,0.63c0.02,0.221,0.05,0.431,0.09,0.63c-1.16-0.08-2.29-0.17-3.39-0.27c-1.101-0.1-2.19-0.17-3.271-0.21
		l-0.12,0.12c1.24,0.681,2.24,1.731,3,3.15c0.76,1.42,1.141,2.891,1.141,4.41c0,3-1.011,5.351-3.03,7.05
		c-2.021,1.7-4.73,2.55-8.13,2.55c-0.561,0-1.11-0.02-1.65-0.06c-0.54-0.04-1.09-0.06-1.649-0.06c-0.721,0-1.391,0.261-2.011,0.78
		c-0.62,0.52-0.93,1.18-0.93,1.98c0,1.041,0.25,1.8,0.75,2.28s1.43,0.741,2.79,0.78c1.119,0.04,2.22,0.07,3.3,0.09
		c1.08,0.021,2.18,0.051,3.301,0.09c1.839,0.041,3.409,0.261,4.71,0.66c1.299,0.4,2.359,0.94,3.18,1.62
		c0.819,0.681,1.419,1.459,1.8,2.34c0.38,0.879,0.57,1.839,0.57,2.88c0,1.4-0.271,2.82-0.811,4.26s-1.38,2.739-2.52,3.9
		c-1.141,1.16-2.61,2.12-4.41,2.88c-1.8,0.759-3.96,1.14-6.48,1.14c-3.88,0-6.939-0.771-9.18-2.31
		c-2.24-1.541-3.359-3.651-3.359-6.33c0-1.041,0.188-2,0.569-2.88c0.38-0.88,0.87-1.66,1.47-2.34c0.601-0.681,1.28-1.221,2.04-1.62
		c0.76-0.4,1.54-0.7,2.341-0.9v-0.12c-1.24-0.36-2.181-0.96-2.82-1.8c-0.641-0.84-0.96-1.839-0.96-3c0-0.68,0.129-1.299,0.39-1.86
		c0.26-0.56,0.59-1.059,0.99-1.5c0.399-0.439,0.859-0.8,1.38-1.08c0.52-0.279,1.021-0.459,1.5-0.54v-0.12
		c-1.84-0.8-3.28-1.93-4.32-3.39C264.179,43.83,263.659,42,263.659,39.8z M284.959,65.48c0-2.4-0.7-4.08-2.1-5.04
		c-1.4-0.96-3.72-1.44-6.96-1.44c-3,0-5.32,0.489-6.96,1.47c-1.641,0.979-2.46,2.75-2.46,5.31c0,1.359,0.229,2.52,0.689,3.48
		c0.46,0.96,1.08,1.74,1.86,2.34s1.71,1.04,2.79,1.32c1.08,0.279,2.239,0.42,3.479,0.42c1.2,0,2.38-0.16,3.54-0.48
		c1.16-0.32,2.19-0.8,3.09-1.44c0.9-0.64,1.63-1.45,2.19-2.43C284.679,68.009,284.959,66.839,284.959,65.48z M281.719,39.5
		c0-2.52-0.6-4.44-1.8-5.76c-1.2-1.32-2.78-1.98-4.74-1.98c-2.159,0-3.84,0.73-5.039,2.19c-1.2,1.46-1.801,3.411-1.801,5.85
		c0,2.52,0.55,4.511,1.65,5.97c1.1,1.46,2.81,2.19,5.13,2.19c1.16,0,2.149-0.229,2.97-0.69c0.819-0.459,1.5-1.08,2.04-1.86
		c0.54-0.78,0.939-1.68,1.2-2.7C281.589,41.69,281.719,40.62,281.719,39.5z"/>
	<path fill="#1B1464" d="M295.939,20.18c0-0.84,0.3-1.56,0.899-2.16c0.601-0.6,1.32-0.9,2.16-0.9s1.561,0.3,2.16,0.9
		s0.9,1.32,0.9,2.16c0,0.84-0.301,1.56-0.9,2.16c-0.6,0.6-1.32,0.9-2.16,0.9s-1.56-0.3-2.16-0.9
		C296.239,21.74,295.939,21.02,295.939,20.18z M296.779,41.84c0-1.8-0.03-3.69-0.09-5.67c-0.061-1.98-0.19-3.83-0.391-5.55
		c1.12,0.201,2.02,0.3,2.7,0.3c0.68,0,1.58-0.099,2.7-0.3c-0.2,1.72-0.33,3.57-0.39,5.55c-0.061,1.98-0.091,3.87-0.091,5.67v6.24
		c0,1.8,0.03,3.69,0.091,5.67c0.06,1.98,0.189,3.771,0.39,5.37c-0.921-0.081-1.82-0.12-2.7-0.12s-1.78,0.04-2.7,0.12
		c0.2-1.6,0.33-3.39,0.391-5.37c0.06-1.98,0.09-3.87,0.09-5.67V41.84z"/>
	<path fill="#1B1464" d="M329.72,35.45c-1.16-1.54-2.76-2.31-4.8-2.31c-2.801,0-4.851,0.86-6.15,2.58
		c-1.3,1.72-1.949,4.14-1.949,7.26v5.1c0,1.8,0.029,3.69,0.09,5.67c0.06,1.98,0.189,3.771,0.39,5.37
		c-0.921-0.081-1.82-0.12-2.7-0.12s-1.78,0.04-2.7,0.12c0.2-1.6,0.33-3.39,0.391-5.37c0.06-1.98,0.09-3.87,0.09-5.67v-6.24
		c0-1.8-0.03-3.69-0.09-5.67c-0.061-1.98-0.19-3.83-0.391-5.55c1.12,0.201,2.02,0.3,2.7,0.3c0.32,0,0.67-0.03,1.05-0.09
		s0.83-0.129,1.351-0.21c-0.12,1.6-0.18,3.201-0.18,4.8h0.119c1.12-1.719,2.46-3.05,4.021-3.99c1.56-0.939,3.42-1.41,5.58-1.41
		c1.119,0,2.25,0.16,3.39,0.48c1.141,0.321,2.17,0.87,3.09,1.65c0.92,0.78,1.67,1.84,2.25,3.18c0.58,1.34,0.87,3.051,0.87,5.13
		c0,1.72-0.04,3.49-0.12,5.31c-0.08,1.821-0.12,3.75-0.12,5.79v3.9c0,0.64,0.01,1.271,0.03,1.89c0.02,0.621,0.05,1.21,0.09,1.77
		c-0.801-0.081-1.641-0.12-2.52-0.12c-0.84,0-1.66,0.04-2.46,0.12c0.079-2.08,0.17-4.22,0.27-6.42c0.1-2.2,0.15-4.46,0.15-6.78
		v-3.66C331.46,39.26,330.88,36.99,329.72,35.45z"/>
	<path fill="#1B1464" d="M345.859,33.5c1.8-1.359,3.459-2.28,4.979-2.76c1.521-0.48,3.08-0.72,4.681-0.72
		c1.439,0,2.76,0.21,3.96,0.63s2.22,1.02,3.06,1.8c0.84,0.78,1.5,1.72,1.98,2.82c0.479,1.101,0.72,2.31,0.72,3.63
		c0,2.28-0.04,4.551-0.12,6.81c-0.08,2.26-0.12,4.65-0.12,7.17c0,0.48,0.01,0.99,0.03,1.53c0.02,0.54,0.109,1.02,0.27,1.44
		s0.391,0.771,0.69,1.05c0.3,0.28,0.75,0.42,1.35,0.42c0.2,0,0.41-0.009,0.63-0.03c0.22-0.02,0.43-0.09,0.631-0.21v1.32
		c-0.441,0.201-0.99,0.36-1.65,0.48s-1.391,0.18-2.19,0.18c-1.28,0-2.26-0.33-2.939-0.99c-0.681-0.66-1.08-1.509-1.2-2.55
		c-1.439,1.44-2.86,2.5-4.26,3.18c-1.4,0.68-3.12,1.02-5.16,1.02c-1,0-1.98-0.141-2.94-0.42c-0.96-0.28-1.81-0.739-2.55-1.38
		c-0.74-0.639-1.341-1.41-1.8-2.31c-0.46-0.9-0.69-1.929-0.69-3.09c0-2.4,0.75-4.26,2.25-5.58s3.57-2.199,6.211-2.64
		c2.159-0.36,3.849-0.669,5.069-0.93c1.22-0.26,2.12-0.53,2.7-0.81c0.579-0.279,0.93-0.609,1.05-0.99
		c0.12-0.379,0.181-0.87,0.181-1.47c0-1-0.12-1.959-0.36-2.88c-0.24-0.92-0.621-1.72-1.14-2.4c-0.521-0.68-1.2-1.23-2.04-1.65
		c-0.841-0.42-1.86-0.63-3.061-0.63c-1.601,0-3.09,0.36-4.47,1.08c-1.38,0.72-2.41,1.72-3.09,3h-0.66V33.5z M360.68,44.18
		c-0.681,0.24-1.471,0.44-2.37,0.6c-0.9,0.161-1.811,0.33-2.73,0.51c-0.921,0.18-1.83,0.411-2.729,0.69
		c-0.9,0.28-1.701,0.66-2.4,1.14c-0.7,0.48-1.26,1.08-1.68,1.8c-0.42,0.72-0.63,1.641-0.63,2.76c0,1.88,0.54,3.3,1.619,4.26
		c1.08,0.96,2.28,1.44,3.601,1.44c1.52,0,2.91-0.42,4.17-1.26c1.26-0.84,2.229-1.82,2.91-2.94L360.68,44.18z"/>
</g>
<g>
	<path fill="#594100" d="M199.34,105.805c0.216,0.295,0.48,0.563,0.792,0.803c0.312,0.24,0.676,0.437,1.092,0.588
		c0.416,0.152,0.879,0.229,1.392,0.229c0.528,0,1.004-0.092,1.428-0.275s0.784-0.433,1.08-0.744c0.296-0.312,0.524-0.68,0.684-1.104
		c0.16-0.423,0.24-0.876,0.24-1.356c0-0.735-0.188-1.319-0.564-1.752c-0.376-0.432-0.844-0.791-1.404-1.08
		c-0.561-0.287-1.164-0.551-1.812-0.791s-1.252-0.541-1.812-0.9c-0.561-0.359-1.028-0.82-1.404-1.38s-0.564-1.312-0.564-2.256
		c0-0.673,0.12-1.284,0.36-1.836c0.24-0.552,0.588-1.028,1.044-1.429c0.456-0.399,1.004-0.711,1.644-0.936
		c0.64-0.224,1.359-0.336,2.16-0.336c0.768,0,1.432,0.092,1.992,0.275c0.56,0.185,1.08,0.469,1.56,0.853
		c-0.144,0.272-0.264,0.56-0.36,0.864c-0.096,0.304-0.192,0.688-0.288,1.152h-0.288c-0.08-0.225-0.188-0.469-0.324-0.732
		s-0.32-0.508-0.552-0.732c-0.232-0.224-0.508-0.412-0.828-0.564c-0.32-0.151-0.704-0.227-1.152-0.227
		c-0.448,0-0.86,0.071-1.236,0.215c-0.376,0.145-0.705,0.349-0.984,0.612c-0.28,0.265-0.496,0.58-0.648,0.948
		c-0.152,0.368-0.228,0.768-0.228,1.199c0,0.753,0.188,1.345,0.564,1.777c0.376,0.432,0.844,0.795,1.404,1.092
		c0.56,0.296,1.164,0.56,1.812,0.791c0.648,0.232,1.251,0.517,1.812,0.853c0.56,0.336,1.028,0.769,1.404,1.296
		c0.376,0.528,0.564,1.232,0.564,2.112c0,0.735-0.132,1.433-0.396,2.088c-0.264,0.656-0.648,1.228-1.152,1.716
		s-1.12,0.864-1.848,1.128s-1.556,0.396-2.484,0.396c-0.992,0-1.796-0.133-2.412-0.396c-0.616-0.264-1.132-0.563-1.548-0.899
		c0.144-0.368,0.244-0.7,0.3-0.996c0.056-0.297,0.108-0.676,0.156-1.141h0.288C198.952,105.216,199.124,105.508,199.34,105.805z"/>
	<path fill="#594100" d="M209.84,102.384c0-1.088,0.172-2.012,0.516-2.772c0.344-0.76,0.796-1.375,1.356-1.848
		c0.56-0.471,1.188-0.815,1.884-1.031c0.696-0.217,1.388-0.324,2.076-0.324c0.704,0,1.4,0.107,2.088,0.324
		c0.688,0.216,1.312,0.561,1.872,1.031c0.56,0.473,1.012,1.088,1.356,1.848c0.344,0.761,0.516,1.685,0.516,2.772
		c0,1.089-0.172,2.013-0.516,2.772s-0.796,1.376-1.356,1.848c-0.56,0.473-1.184,0.805-1.872,0.996
		c-0.688,0.192-1.384,0.288-2.088,0.288c-0.688,0-1.38-0.096-2.076-0.288c-0.696-0.191-1.324-0.523-1.884-0.996
		c-0.56-0.472-1.012-1.088-1.356-1.848C210.012,104.396,209.84,103.473,209.84,102.384z M211.952,102.384
		c0,0.673,0.06,1.32,0.18,1.944c0.12,0.624,0.324,1.18,0.612,1.668s0.672,0.876,1.152,1.164s1.072,0.432,1.776,0.432
		s1.296-0.144,1.776-0.432c0.48-0.288,0.864-0.676,1.152-1.164s0.492-1.044,0.612-1.668s0.18-1.271,0.18-1.944
		c0-0.672-0.06-1.319-0.18-1.944c-0.12-0.623-0.324-1.18-0.612-1.668c-0.288-0.487-0.672-0.875-1.152-1.164
		c-0.48-0.287-1.072-0.432-1.776-0.432s-1.296,0.145-1.776,0.432c-0.48,0.289-0.864,0.677-1.152,1.164
		c-0.288,0.488-0.492,1.045-0.612,1.668C212.012,101.064,211.952,101.712,211.952,102.384z"/>
	<path fill="#594100" d="M227.936,91.584c-0.352,0-0.652,0.068-0.9,0.204s-0.452,0.312-0.612,0.528
		c-0.16,0.216-0.276,0.468-0.348,0.756c-0.072,0.287-0.108,0.592-0.108,0.912c0,0.287,0.028,0.704,0.084,1.248
		c0.056,0.544,0.124,1.064,0.204,1.56c0.416,0,0.828-0.004,1.236-0.013c0.408-0.008,0.82-0.012,1.236-0.012
		c-0.016,0.08-0.028,0.16-0.036,0.24c-0.008,0.08-0.012,0.16-0.012,0.24s0.004,0.16,0.012,0.24c0.008,0.08,0.02,0.16,0.036,0.24
		c-0.416-0.016-0.828-0.032-1.236-0.049c-0.408-0.016-0.82-0.023-1.236-0.023c0,1.744,0.003,3.477,0.012,5.195
		c0.008,1.721,0.036,3.453,0.084,5.196C226.175,108.016,226,108,225.824,108c-0.176,0-0.344,0-0.504,0
		c-0.336,0-0.688,0.016-1.056,0.048c0.112-1.743,0.176-3.468,0.192-5.172s0.024-3.444,0.024-5.22c-0.288,0-0.576,0.008-0.864,0.023
		c-0.288,0.017-0.576,0.033-0.864,0.049c0.016-0.08,0.027-0.16,0.036-0.24c0.008-0.08,0.012-0.16,0.012-0.24s-0.004-0.16-0.012-0.24
		c-0.008-0.08-0.02-0.16-0.036-0.24c0.288,0,0.58,0.004,0.876,0.012c0.296,0.009,0.58,0.013,0.852,0.013
		c0-0.464,0.048-0.968,0.144-1.513c0.096-0.543,0.236-1.079,0.42-1.607c0.184-0.527,0.404-1.027,0.66-1.5
		c0.256-0.472,0.544-0.867,0.864-1.188c0.288-0.289,0.652-0.544,1.092-0.769c0.44-0.224,0.892-0.336,1.356-0.336
		c0.176,0,0.336,0.024,0.48,0.072c-0.016,0.32-0.036,0.64-0.06,0.96c-0.024,0.32-0.036,0.641-0.036,0.96l-0.144,0.071
		C228.872,91.704,228.432,91.584,227.936,91.584z"/>
	<path fill="#594100" d="M233.024,93.432c-0.048,0.608-0.084,1.205-0.108,1.789s-0.052,1.172-0.084,1.764
		c0.176,0,0.504-0.004,0.984-0.012s1-0.028,1.56-0.061c-0.016,0.048-0.024,0.137-0.024,0.264v0.24v0.264
		c0,0.112,0.008,0.192,0.024,0.24c-0.208-0.016-0.424-0.027-0.648-0.036c-0.224-0.008-0.464-0.012-0.72-0.012h-1.176
		c-0.016,0.063-0.036,0.32-0.06,0.769c-0.024,0.447-0.044,0.979-0.06,1.596c-0.016,0.615-0.028,1.26-0.036,1.932
		c-0.008,0.672-0.012,1.271-0.012,1.8c0,0.448,0.012,0.888,0.036,1.32s0.1,0.819,0.228,1.164c0.128,0.345,0.32,0.62,0.576,0.827
		c0.256,0.209,0.624,0.312,1.104,0.312c0.128,0,0.3-0.016,0.516-0.048c0.216-0.032,0.404-0.071,0.564-0.12V108
		c-0.272,0.048-0.572,0.108-0.9,0.18c-0.328,0.072-0.644,0.108-0.948,0.108c-1.008,0-1.752-0.248-2.232-0.744
		c-0.48-0.495-0.72-1.224-0.72-2.185c0-0.432,0.008-0.899,0.024-1.403c0.016-0.504,0.036-1.056,0.06-1.656
		c0.024-0.6,0.044-1.264,0.06-1.991c0.016-0.729,0.024-1.541,0.024-2.437h-0.768c-0.128,0-0.264,0.004-0.408,0.012
		c-0.144,0.009-0.296,0.021-0.456,0.036c0.016-0.096,0.027-0.188,0.036-0.275c0.008-0.088,0.012-0.181,0.012-0.276
		c0-0.08-0.004-0.16-0.012-0.24c-0.008-0.079-0.02-0.159-0.036-0.239c0.72,0.047,1.248,0.071,1.584,0.071
		c-0.016-0.319-0.028-0.72-0.036-1.2c-0.008-0.48-0.028-0.976-0.06-1.488l1.992-0.84H233.024z"/>
	<path fill="#594100" d="M240.32,108.048c-0.192-0.592-0.448-1.344-0.768-2.256c-0.32-0.912-0.668-1.884-1.044-2.916
		s-0.768-2.088-1.176-3.168c-0.408-1.08-0.812-2.101-1.212-3.06c0.192,0.031,0.38,0.06,0.564,0.084
		c0.184,0.023,0.372,0.035,0.564,0.035c0.176,0,0.352-0.012,0.528-0.035c0.176-0.024,0.368-0.053,0.576-0.084
		c0.416,1.504,0.876,3.012,1.38,4.523s1.068,3.068,1.692,4.668c0.192-0.447,0.424-1.039,0.695-1.775
		c0.273-0.736,0.553-1.528,0.842-2.377c0.287-0.848,0.574-1.711,0.863-2.592c0.287-0.879,0.543-1.695,0.768-2.447
		c0.289,0.08,0.527,0.119,0.721,0.119c0.127,0,0.24-0.012,0.336-0.035c0.096-0.024,0.207-0.053,0.336-0.084
		c0.398,1.535,0.863,3.052,1.393,4.547c0.527,1.497,1.078,3.045,1.654,4.645c0.209-0.512,0.453-1.14,0.732-1.884
		s0.572-1.528,0.877-2.353c0.303-0.823,0.611-1.668,0.924-2.531c0.312-0.864,0.604-1.672,0.875-2.424
		c0.32,0.08,0.576,0.119,0.768,0.119c0.209,0,0.449-0.039,0.721-0.119c-0.912,1.936-1.764,3.848-2.557,5.735
		c-0.791,1.888-1.531,3.776-2.219,5.664c-0.176-0.032-0.385-0.048-0.625-0.048c-0.111,0-0.223,0-0.336,0
		c-0.111,0-0.207,0.016-0.287,0.048c-0.416-1.424-0.873-2.856-1.369-4.296s-1.062-2.952-1.703-4.536
		c-0.191,0.479-0.424,1.077-0.695,1.788c-0.273,0.713-0.553,1.477-0.84,2.292c-0.289,0.815-0.576,1.644-0.865,2.483
		c-0.287,0.841-0.543,1.597-0.768,2.269c-0.191-0.032-0.416-0.048-0.672-0.048C240.736,108,240.512,108.016,240.32,108.048z"/>
	<path fill="#594100" d="M255.992,97.8c0.72-0.544,1.383-0.911,1.991-1.104c0.608-0.191,1.232-0.287,1.872-0.287
		c0.576,0,1.104,0.084,1.584,0.252c0.48,0.168,0.889,0.408,1.225,0.72s0.6,0.688,0.792,1.128c0.191,0.44,0.288,0.924,0.288,1.452
		c0,0.912-0.017,1.82-0.049,2.724c-0.032,0.904-0.048,1.86-0.048,2.868c0,0.192,0.004,0.396,0.013,0.612
		c0.008,0.216,0.043,0.408,0.107,0.576c0.063,0.168,0.156,0.309,0.276,0.42s0.3,0.168,0.54,0.168c0.08,0,0.164-0.004,0.252-0.012
		s0.172-0.037,0.252-0.084v0.527c-0.177,0.08-0.396,0.145-0.66,0.192s-0.556,0.072-0.876,0.072c-0.513,0-0.904-0.132-1.176-0.396
		c-0.272-0.265-0.433-0.604-0.48-1.021c-0.576,0.576-1.144,1-1.704,1.272c-0.56,0.272-1.248,0.408-2.063,0.408
		c-0.4,0-0.792-0.057-1.176-0.168c-0.385-0.112-0.725-0.296-1.021-0.552s-0.536-0.564-0.72-0.924
		c-0.185-0.36-0.276-0.772-0.276-1.236c0-0.96,0.3-1.704,0.9-2.232c0.6-0.527,1.428-0.879,2.483-1.056
		c0.864-0.144,1.54-0.269,2.028-0.372s0.848-0.212,1.08-0.324c0.231-0.111,0.372-0.244,0.42-0.396
		c0.048-0.151,0.072-0.348,0.072-0.588c0-0.399-0.048-0.783-0.145-1.151c-0.096-0.368-0.248-0.688-0.456-0.96
		s-0.479-0.492-0.815-0.66s-0.744-0.252-1.225-0.252c-0.64,0-1.235,0.145-1.787,0.432c-0.553,0.289-0.965,0.688-1.236,1.2h-0.264
		V97.8z M261.92,102.072c-0.272,0.096-0.588,0.176-0.948,0.24c-0.36,0.063-0.724,0.131-1.092,0.203s-0.732,0.164-1.092,0.276
		c-0.36,0.112-0.681,0.265-0.96,0.456c-0.28,0.191-0.504,0.432-0.673,0.72c-0.168,0.288-0.252,0.656-0.252,1.104
		c0,0.752,0.217,1.32,0.648,1.703c0.432,0.385,0.912,0.576,1.44,0.576c0.607,0,1.163-0.168,1.668-0.504
		c0.504-0.336,0.892-0.728,1.164-1.176L261.92,102.072z"/>
	<path fill="#594100" d="M272.779,98.352c-0.231-0.08-0.468-0.119-0.708-0.119c-0.384,0-0.728,0.088-1.031,0.264
		c-0.305,0.176-0.561,0.412-0.769,0.708s-0.368,0.647-0.479,1.056c-0.112,0.408-0.168,0.844-0.168,1.309v2.64
		c0,1.072,0.004,1.892,0.012,2.46s0.036,1.028,0.084,1.38c-0.32-0.032-0.64-0.048-0.96-0.048c-0.353,0-0.688,0.016-1.008,0.048
		c0.048-0.544,0.075-1.284,0.084-2.22c0.008-0.936,0.012-2.084,0.012-3.444v-0.768c0-0.624-0.004-1.345-0.012-2.16
		c-0.009-0.815-0.036-1.752-0.084-2.808c0.176,0.031,0.344,0.06,0.504,0.084c0.159,0.023,0.327,0.035,0.504,0.035
		c0.144,0,0.296-0.012,0.456-0.035c0.159-0.024,0.328-0.053,0.504-0.084c-0.064,0.576-0.101,1.031-0.108,1.367
		s-0.012,0.656-0.012,0.961L269.647,99c0.944-1.729,2-2.592,3.168-2.592c0.145,0,0.268,0.008,0.372,0.023
		c0.104,0.017,0.236,0.057,0.396,0.12c-0.08,0.192-0.129,0.484-0.145,0.876c-0.016,0.393-0.023,0.748-0.023,1.068l-0.168,0.12
		C273.168,98.52,273.012,98.432,272.779,98.352z"/>
	<path fill="#594100" d="M274.76,102.721c0-1.969,0.468-3.513,1.404-4.633c0.936-1.119,2.3-1.68,4.092-1.68
		c0.848,0,1.58,0.132,2.196,0.396c0.615,0.264,1.132,0.615,1.548,1.055c0.416,0.441,0.724,0.957,0.924,1.549s0.3,1.224,0.3,1.896
		c0,0.16-0.004,0.315-0.012,0.467c-0.008,0.152-0.021,0.309-0.036,0.469c-0.864-0.016-1.72-0.032-2.567-0.049
		c-0.849-0.016-1.704-0.023-2.568-0.023c-0.528,0-1.053,0.008-1.572,0.023c-0.52,0.017-1.044,0.033-1.572,0.049
		c-0.016,0.08-0.023,0.2-0.023,0.359v0.312c0,0.624,0.092,1.208,0.275,1.752c0.185,0.544,0.452,1.012,0.805,1.404
		c0.352,0.393,0.783,0.704,1.296,0.936c0.512,0.232,1.104,0.348,1.775,0.348c0.32,0,0.648-0.043,0.984-0.131
		s0.664-0.209,0.984-0.361c0.319-0.151,0.619-0.331,0.899-0.539s0.524-0.432,0.732-0.672l0.12,0.072l-0.145,1.176
		c-0.479,0.383-1.076,0.711-1.788,0.983s-1.451,0.408-2.22,0.408c-0.864,0-1.652-0.132-2.364-0.396
		c-0.712-0.265-1.328-0.648-1.848-1.152c-0.521-0.504-0.92-1.1-1.2-1.788S274.76,103.52,274.76,102.721z M280.304,97.176
		c-0.592,0-1.092,0.137-1.5,0.408c-0.408,0.272-0.744,0.611-1.008,1.02s-0.464,0.856-0.6,1.345c-0.137,0.487-0.221,0.948-0.252,1.38
		c0.495,0.016,1.012,0.032,1.548,0.048c0.535,0.017,1.06,0.024,1.571,0.024c0.528,0,1.064-0.008,1.608-0.024
		c0.544-0.016,1.072-0.032,1.584-0.048c0-0.432-0.036-0.889-0.108-1.368c-0.071-0.479-0.216-0.928-0.432-1.344
		s-0.516-0.76-0.899-1.032C281.432,97.312,280.928,97.176,280.304,97.176z"/>
	<path fill="#594100" d="M298.184,91.584c-0.352,0-0.652,0.068-0.899,0.204c-0.249,0.136-0.452,0.312-0.612,0.528
		c-0.16,0.216-0.276,0.468-0.348,0.756c-0.072,0.287-0.108,0.592-0.108,0.912c0,0.287,0.027,0.704,0.084,1.248
		c0.056,0.544,0.124,1.064,0.204,1.56c0.416,0,0.828-0.004,1.236-0.013c0.407-0.008,0.819-0.012,1.235-0.012
		c-0.016,0.08-0.028,0.16-0.036,0.24s-0.012,0.16-0.012,0.24s0.004,0.16,0.012,0.24s0.021,0.16,0.036,0.24
		c-0.416-0.016-0.828-0.032-1.235-0.049c-0.408-0.016-0.82-0.023-1.236-0.023c0,1.744,0.004,3.477,0.012,5.195
		c0.008,1.721,0.036,3.453,0.084,5.196c-0.176-0.032-0.352-0.048-0.527-0.048c-0.177,0-0.345,0-0.505,0
		c-0.336,0-0.688,0.016-1.056,0.048c0.112-1.743,0.176-3.468,0.192-5.172c0.016-1.704,0.023-3.444,0.023-5.22
		c-0.288,0-0.576,0.008-0.863,0.023c-0.288,0.017-0.576,0.033-0.864,0.049c0.016-0.08,0.027-0.16,0.036-0.24
		c0.008-0.08,0.012-0.16,0.012-0.24s-0.004-0.16-0.012-0.24c-0.009-0.08-0.021-0.16-0.036-0.24c0.288,0,0.579,0.004,0.876,0.012
		c0.296,0.009,0.579,0.013,0.852,0.013c0-0.464,0.048-0.968,0.145-1.513c0.096-0.543,0.235-1.079,0.42-1.607
		c0.184-0.527,0.403-1.027,0.66-1.5c0.256-0.472,0.543-0.867,0.863-1.188c0.288-0.289,0.652-0.544,1.093-0.769
		c0.439-0.224,0.892-0.336,1.355-0.336c0.176,0,0.336,0.024,0.48,0.072c-0.017,0.32-0.036,0.64-0.061,0.96
		c-0.023,0.32-0.036,0.641-0.036,0.96l-0.144,0.071C299.12,91.704,298.68,91.584,298.184,91.584z"/>
	<path fill="#594100" d="M300.104,102.384c0-1.088,0.172-2.012,0.517-2.772c0.344-0.76,0.795-1.375,1.355-1.848
		c0.56-0.471,1.188-0.815,1.884-1.031c0.696-0.217,1.388-0.324,2.076-0.324c0.704,0,1.4,0.107,2.088,0.324
		c0.688,0.216,1.312,0.561,1.872,1.031c0.56,0.473,1.012,1.088,1.356,1.848c0.344,0.761,0.516,1.685,0.516,2.772
		c0,1.089-0.172,2.013-0.516,2.772c-0.345,0.76-0.797,1.376-1.356,1.848c-0.561,0.473-1.185,0.805-1.872,0.996
		c-0.688,0.192-1.384,0.288-2.088,0.288c-0.688,0-1.38-0.096-2.076-0.288c-0.695-0.191-1.324-0.523-1.884-0.996
		c-0.561-0.472-1.012-1.088-1.355-1.848C300.275,104.396,300.104,103.473,300.104,102.384z M302.216,102.384
		c0,0.673,0.06,1.32,0.18,1.944s0.324,1.18,0.612,1.668s0.672,0.876,1.152,1.164c0.479,0.288,1.071,0.432,1.775,0.432
		s1.296-0.144,1.776-0.432c0.479-0.288,0.863-0.676,1.151-1.164s0.492-1.044,0.612-1.668s0.18-1.271,0.18-1.944
		c0-0.672-0.06-1.319-0.18-1.944c-0.12-0.623-0.324-1.18-0.612-1.668c-0.288-0.487-0.672-0.875-1.151-1.164
		c-0.48-0.287-1.072-0.432-1.776-0.432s-1.296,0.145-1.775,0.432c-0.48,0.289-0.864,0.677-1.152,1.164
		c-0.288,0.488-0.492,1.045-0.612,1.668C302.275,101.064,302.216,101.712,302.216,102.384z"/>
	<path fill="#594100" d="M319.46,98.352c-0.231-0.08-0.468-0.119-0.708-0.119c-0.384,0-0.728,0.088-1.031,0.264
		c-0.305,0.176-0.561,0.412-0.769,0.708s-0.368,0.647-0.479,1.056c-0.112,0.408-0.168,0.844-0.168,1.309v2.64
		c0,1.072,0.004,1.892,0.012,2.46s0.036,1.028,0.084,1.38c-0.32-0.032-0.64-0.048-0.96-0.048c-0.353,0-0.688,0.016-1.008,0.048
		c0.048-0.544,0.075-1.284,0.084-2.22c0.008-0.936,0.012-2.084,0.012-3.444v-0.768c0-0.624-0.004-1.345-0.012-2.16
		c-0.009-0.815-0.036-1.752-0.084-2.808c0.176,0.031,0.344,0.06,0.504,0.084c0.159,0.023,0.327,0.035,0.504,0.035
		c0.144,0,0.296-0.012,0.456-0.035c0.159-0.024,0.328-0.053,0.504-0.084c-0.064,0.576-0.101,1.031-0.108,1.367
		s-0.012,0.656-0.012,0.961L316.328,99c0.944-1.729,2-2.592,3.168-2.592c0.145,0,0.268,0.008,0.372,0.023
		c0.104,0.017,0.236,0.057,0.396,0.12c-0.08,0.192-0.129,0.484-0.145,0.876c-0.016,0.393-0.023,0.748-0.023,1.068l-0.168,0.12
		C319.849,98.52,319.692,98.432,319.46,98.352z"/>
	<path fill="#594100" d="M199.436,123.888c-0.008-0.64-0.021-1.271-0.036-1.896c-0.016-0.624-0.036-1.221-0.06-1.788
		c-0.024-0.568-0.052-1.052-0.084-1.452c0.448,0.08,0.808,0.12,1.08,0.12s0.632-0.04,1.08-0.12c-0.032,0.4-0.06,0.884-0.084,1.452
		c-0.024,0.567-0.044,1.164-0.06,1.788c-0.016,0.624-0.028,1.256-0.036,1.896c-0.008,0.641-0.012,1.232-0.012,1.776v4.344
		c0,0.544,0.003,1.137,0.012,1.776c0.008,0.64,0.02,1.271,0.036,1.896c0.016,0.624,0.036,1.216,0.06,1.776
		c0.024,0.56,0.052,1.023,0.084,1.392c-0.368-0.032-0.728-0.048-1.08-0.048s-0.712,0.016-1.08,0.048
		c0.032-0.368,0.06-0.832,0.084-1.392c0.024-0.561,0.044-1.152,0.06-1.776c0.016-0.624,0.028-1.256,0.036-1.896
		c0.008-0.64,0.012-1.232,0.012-1.776v-4.344C199.448,125.12,199.444,124.528,199.436,123.888z"/>
	<path fill="#594100" d="M204.512,131.184c0-1.088,0.172-2.012,0.516-2.771c0.344-0.76,0.796-1.376,1.356-1.849
		c0.56-0.472,1.188-0.815,1.884-1.031c0.696-0.217,1.388-0.324,2.076-0.324c0.704,0,1.4,0.107,2.088,0.324
		c0.688,0.216,1.312,0.56,1.872,1.031c0.56,0.473,1.012,1.089,1.356,1.849s0.516,1.684,0.516,2.771c0,1.089-0.172,2.013-0.516,2.772
		s-0.796,1.376-1.356,1.848c-0.56,0.473-1.184,0.804-1.872,0.996s-1.384,0.288-2.088,0.288c-0.688,0-1.38-0.096-2.076-0.288
		c-0.696-0.192-1.324-0.523-1.884-0.996c-0.56-0.472-1.012-1.088-1.356-1.848C204.684,133.196,204.512,132.272,204.512,131.184z
		 M206.624,131.184c0,0.672,0.06,1.32,0.18,1.944c0.12,0.624,0.324,1.18,0.612,1.668s0.672,0.876,1.152,1.164
		s1.072,0.432,1.776,0.432s1.296-0.144,1.776-0.432c0.48-0.288,0.864-0.676,1.152-1.164s0.492-1.044,0.612-1.668
		s0.18-1.272,0.18-1.944s-0.06-1.319-0.18-1.943s-0.324-1.181-0.612-1.668c-0.288-0.488-0.672-0.876-1.152-1.164
		c-0.48-0.288-1.072-0.433-1.776-0.433s-1.296,0.145-1.776,0.433s-0.864,0.676-1.152,1.164c-0.288,0.487-0.492,1.044-0.612,1.668
		C206.684,129.864,206.624,130.512,206.624,131.184z"/>
	<path fill="#594100" d="M221.36,136.848c-0.192-0.592-0.448-1.344-0.768-2.256c-0.32-0.912-0.668-1.884-1.044-2.916
		s-0.768-2.088-1.176-3.168c-0.408-1.08-0.812-2.1-1.212-3.06c0.192,0.032,0.38,0.06,0.564,0.084
		c0.184,0.023,0.372,0.035,0.564,0.035c0.176,0,0.352-0.012,0.528-0.035c0.176-0.024,0.368-0.052,0.576-0.084
		c0.416,1.504,0.876,3.012,1.38,4.523s1.068,3.068,1.692,4.668c0.192-0.447,0.424-1.04,0.696-1.775
		c0.272-0.736,0.552-1.528,0.84-2.376c0.288-0.849,0.576-1.712,0.864-2.593c0.288-0.88,0.543-1.695,0.768-2.447
		c0.288,0.08,0.528,0.119,0.72,0.119c0.128,0,0.24-0.012,0.336-0.035c0.096-0.024,0.208-0.052,0.336-0.084
		c0.4,1.535,0.864,3.052,1.392,4.548s1.08,3.044,1.656,4.644c0.208-0.512,0.452-1.14,0.732-1.884
		c0.28-0.744,0.572-1.527,0.876-2.353c0.304-0.823,0.612-1.668,0.924-2.531c0.312-0.864,0.604-1.672,0.876-2.424
		c0.32,0.08,0.576,0.119,0.768,0.119c0.208,0,0.448-0.039,0.72-0.119c-0.912,1.936-1.764,3.848-2.556,5.735
		c-0.792,1.889-1.532,3.776-2.22,5.664c-0.176-0.032-0.384-0.048-0.624-0.048c-0.112,0-0.224,0-0.336,0s-0.208,0.016-0.288,0.048
		c-0.416-1.424-0.872-2.855-1.368-4.296c-0.496-1.44-1.064-2.952-1.704-4.536c-0.192,0.48-0.424,1.076-0.696,1.788
		c-0.272,0.712-0.552,1.477-0.84,2.292c-0.288,0.816-0.576,1.645-0.864,2.484s-0.544,1.596-0.768,2.268
		c-0.192-0.032-0.417-0.048-0.672-0.048C221.776,136.8,221.552,136.815,221.36,136.848z"/>
	<path fill="#594100" d="M242.385,130.512V132h-5.977v-1.488H242.385z"/>
	<path fill="#594100" d="M253.327,134.567c-0.128,0.257-0.3,0.532-0.516,0.828c-0.216,0.297-0.488,0.572-0.816,0.828
		s-0.716,0.465-1.163,0.624c-0.448,0.16-0.969,0.24-1.561,0.24c-0.608,0-1.204-0.104-1.788-0.312
		c-0.584-0.207-1.104-0.548-1.56-1.02s-0.824-1.08-1.104-1.824s-0.42-1.636-0.42-2.676c0-1.023,0.152-1.912,0.456-2.664
		s0.7-1.38,1.188-1.884c0.487-0.504,1.039-0.88,1.655-1.128s1.236-0.372,1.86-0.372c1.776,0,3.008,0.8,3.696,2.399h0.048v-2.352
		c0-0.608-0.004-1.22-0.012-1.836c-0.009-0.616-0.017-1.204-0.024-1.764c-0.008-0.561-0.016-1.088-0.024-1.584
		c-0.008-0.496-0.02-0.937-0.035-1.32c0.191,0.032,0.375,0.06,0.552,0.084c0.176,0.023,0.352,0.036,0.528,0.036
		c0.176,0,0.348-0.013,0.516-0.036c0.168-0.024,0.355-0.052,0.563-0.084c-0.048,0.512-0.088,1.252-0.119,2.22
		c-0.032,0.969-0.061,2.036-0.084,3.204c-0.024,1.168-0.045,2.368-0.061,3.6c-0.016,1.232-0.023,2.36-0.023,3.385
		c0,1.104,0.008,2.096,0.023,2.976s0.032,1.784,0.048,2.712c-0.32-0.032-0.632-0.048-0.936-0.048c-0.288,0-0.593,0.016-0.912,0.048
		l0.072-2.28H253.327z M246.512,131.399c0,0.96,0.1,1.752,0.3,2.376s0.456,1.125,0.769,1.5c0.312,0.377,0.667,0.637,1.067,0.78
		c0.399,0.145,0.792,0.216,1.176,0.216c0.624,0,1.16-0.155,1.608-0.468c0.447-0.312,0.819-0.72,1.116-1.224
		c0.296-0.504,0.512-1.076,0.647-1.716c0.136-0.641,0.204-1.28,0.204-1.921c0-1.535-0.296-2.707-0.888-3.516
		c-0.592-0.808-1.464-1.212-2.616-1.212c-0.576,0-1.076,0.132-1.5,0.396c-0.424,0.265-0.776,0.633-1.056,1.104
		c-0.28,0.472-0.488,1.024-0.624,1.656C246.579,130.004,246.512,130.68,246.512,131.399z"/>
	<path fill="#594100" d="M258.849,121.271c0-0.336,0.12-0.624,0.359-0.863c0.24-0.24,0.528-0.36,0.864-0.36s0.624,0.12,0.864,0.36
		c0.24,0.239,0.359,0.527,0.359,0.863s-0.119,0.624-0.359,0.864s-0.528,0.36-0.864,0.36s-0.624-0.12-0.864-0.36
		C258.969,121.896,258.849,121.607,258.849,121.271z M259.185,129.936c0-0.72-0.013-1.476-0.036-2.268
		c-0.024-0.792-0.076-1.532-0.156-2.22c0.448,0.08,0.808,0.119,1.08,0.119c0.271,0,0.632-0.039,1.08-0.119
		c-0.08,0.688-0.132,1.428-0.156,2.22c-0.023,0.792-0.036,1.548-0.036,2.268v2.496c0,0.72,0.013,1.477,0.036,2.269
		c0.024,0.792,0.076,1.508,0.156,2.147c-0.368-0.032-0.729-0.048-1.08-0.048c-0.353,0-0.712,0.016-1.08,0.048
		c0.08-0.64,0.132-1.355,0.156-2.147c0.023-0.792,0.036-1.549,0.036-2.269V129.936z"/>
	<path fill="#594100" d="M265.244,127.668c-0.024-0.792-0.076-1.532-0.156-2.22c0.448,0.08,0.808,0.119,1.08,0.119
		c0.128,0,0.268-0.012,0.42-0.035c0.152-0.024,0.332-0.052,0.54-0.084c-0.048,0.64-0.071,1.28-0.071,1.92h0.048
		c0.848-1.44,2.04-2.16,3.576-2.16c0.399,0,0.792,0.06,1.176,0.18s0.731,0.284,1.044,0.492c0.312,0.208,0.579,0.46,0.804,0.756
		c0.224,0.296,0.376,0.612,0.456,0.948h0.048c0.384-0.769,0.908-1.356,1.572-1.765c0.664-0.407,1.428-0.611,2.292-0.611
		c0.528,0,1.016,0.072,1.464,0.216s0.836,0.368,1.164,0.672c0.328,0.305,0.584,0.696,0.768,1.176
		c0.185,0.48,0.276,1.057,0.276,1.729c0,0.272-0.008,0.568-0.024,0.888c-0.016,0.32-0.032,0.692-0.048,1.116
		s-0.032,0.904-0.048,1.439c-0.016,0.537-0.023,1.156-0.023,1.86c0,0.432,0.003,0.849,0.012,1.248c0.008,0.4,0.027,0.832,0.06,1.296
		c-0.176-0.032-0.352-0.048-0.527-0.048c-0.177,0-0.345,0-0.504,0c-0.177,0-0.353,0-0.528,0c-0.177,0-0.353,0.016-0.528,0.048
		c0.048-0.399,0.1-1.208,0.156-2.424c0.056-1.216,0.084-2.912,0.084-5.088c0-0.399-0.044-0.776-0.132-1.128s-0.229-0.656-0.42-0.912
		c-0.192-0.256-0.448-0.46-0.769-0.612c-0.32-0.151-0.72-0.228-1.199-0.228c-0.576,0-1.064,0.112-1.465,0.336
		c-0.399,0.224-0.712,0.488-0.936,0.792c-0.128,0.176-0.229,0.352-0.3,0.527c-0.072,0.177-0.129,0.444-0.168,0.805
		c-0.04,0.359-0.068,0.864-0.084,1.512c-0.017,0.648-0.024,1.54-0.024,2.676c0,0.688,0.012,1.316,0.036,1.885
		c0.024,0.567,0.052,1.188,0.084,1.859c-0.368-0.032-0.72-0.048-1.056-0.048s-0.688,0.016-1.057,0.048
		c0.08-0.88,0.136-1.775,0.168-2.688s0.048-1.809,0.048-2.688c0-0.752-0.004-1.34-0.012-1.764s-0.028-0.76-0.06-1.008
		c-0.032-0.248-0.076-0.452-0.132-0.612c-0.057-0.16-0.133-0.336-0.229-0.528c-0.176-0.304-0.452-0.563-0.828-0.779
		c-0.376-0.217-0.764-0.324-1.164-0.324c-1.056,0-1.832,0.344-2.328,1.032c-0.496,0.688-0.743,1.655-0.743,2.903v2.04
		c0,0.72,0.012,1.477,0.035,2.269c0.024,0.792,0.076,1.508,0.156,2.147c-0.368-0.032-0.729-0.048-1.08-0.048
		s-0.712,0.016-1.08,0.048c0.08-0.64,0.132-1.355,0.156-2.147s0.036-1.549,0.036-2.269v-2.496
		C265.28,129.216,265.269,128.46,265.244,127.668z"/>
	<path fill="#594100" d="M284.239,131.52c0-1.968,0.468-3.512,1.404-4.632c0.936-1.12,2.3-1.68,4.092-1.68
		c0.848,0,1.58,0.132,2.196,0.396c0.615,0.265,1.132,0.616,1.548,1.057c0.416,0.439,0.724,0.956,0.924,1.548s0.3,1.224,0.3,1.896
		c0,0.16-0.004,0.316-0.012,0.469c-0.008,0.151-0.021,0.308-0.036,0.468c-0.864-0.016-1.72-0.032-2.567-0.048
		c-0.849-0.017-1.704-0.024-2.568-0.024c-0.528,0-1.053,0.008-1.572,0.024c-0.52,0.016-1.044,0.032-1.572,0.048
		c-0.016,0.08-0.023,0.2-0.023,0.359v0.312c0,0.624,0.092,1.208,0.275,1.752c0.185,0.544,0.452,1.012,0.805,1.404
		c0.352,0.392,0.783,0.704,1.296,0.936c0.512,0.232,1.104,0.348,1.775,0.348c0.32,0,0.648-0.043,0.984-0.132
		c0.336-0.088,0.664-0.207,0.984-0.359c0.319-0.152,0.619-0.332,0.899-0.54s0.524-0.433,0.732-0.672l0.12,0.071l-0.145,1.177
		c-0.479,0.384-1.076,0.712-1.788,0.983c-0.712,0.272-1.451,0.408-2.22,0.408c-0.864,0-1.652-0.132-2.364-0.396
		c-0.712-0.264-1.328-0.647-1.848-1.151c-0.521-0.504-0.92-1.101-1.2-1.788S284.239,132.32,284.239,131.52z M289.783,125.976
		c-0.592,0-1.092,0.137-1.5,0.408c-0.408,0.272-0.744,0.612-1.008,1.02c-0.264,0.408-0.464,0.856-0.6,1.345
		c-0.137,0.488-0.221,0.948-0.252,1.38c0.495,0.016,1.012,0.032,1.548,0.048c0.535,0.017,1.06,0.024,1.571,0.024
		c0.528,0,1.064-0.008,1.608-0.024c0.544-0.016,1.072-0.032,1.584-0.048c0-0.432-0.036-0.888-0.108-1.368
		c-0.071-0.479-0.216-0.928-0.432-1.344s-0.516-0.76-0.899-1.032C290.911,126.112,290.407,125.976,289.783,125.976z"/>
	<path fill="#594100" d="M304.352,127.38c-0.465-0.616-1.104-0.924-1.92-0.924c-1.12,0-1.94,0.344-2.46,1.032
		c-0.521,0.688-0.78,1.655-0.78,2.903v2.04c0,0.72,0.012,1.477,0.036,2.269c0.023,0.792,0.075,1.508,0.156,2.147
		c-0.368-0.032-0.729-0.048-1.08-0.048c-0.353,0-0.713,0.016-1.08,0.048c0.08-0.64,0.132-1.355,0.156-2.147
		c0.023-0.792,0.035-1.549,0.035-2.269v-2.496c0-0.72-0.012-1.476-0.035-2.268c-0.024-0.792-0.076-1.532-0.156-2.22
		c0.447,0.08,0.808,0.119,1.08,0.119c0.128,0,0.268-0.012,0.42-0.035c0.151-0.024,0.332-0.052,0.54-0.084
		c-0.048,0.64-0.072,1.28-0.072,1.92h0.048c0.448-0.688,0.984-1.221,1.608-1.597c0.624-0.375,1.368-0.563,2.231-0.563
		c0.448,0,0.9,0.063,1.356,0.191c0.456,0.129,0.867,0.349,1.236,0.66c0.367,0.312,0.667,0.736,0.899,1.272
		c0.231,0.536,0.348,1.22,0.348,2.052c0,0.688-0.016,1.396-0.048,2.124c-0.032,0.729-0.048,1.5-0.048,2.316v1.56
		c0,0.256,0.004,0.508,0.012,0.756c0.009,0.248,0.021,0.484,0.036,0.708c-0.32-0.032-0.656-0.048-1.008-0.048
		c-0.336,0-0.664,0.016-0.983,0.048c0.031-0.832,0.067-1.688,0.107-2.567s0.061-1.784,0.061-2.713v-1.464
		C305.048,128.903,304.815,127.996,304.352,127.38z"/>
	<path fill="#594100" d="M310.82,135.144c0.168,0.192,0.368,0.372,0.6,0.54c0.232,0.168,0.496,0.309,0.792,0.42
		c0.296,0.112,0.612,0.168,0.948,0.168c0.304,0,0.596-0.048,0.876-0.144c0.279-0.096,0.528-0.231,0.744-0.408
		c0.216-0.176,0.388-0.399,0.516-0.672c0.128-0.271,0.192-0.584,0.192-0.937c0-0.495-0.141-0.876-0.42-1.14
		c-0.28-0.264-0.628-0.479-1.044-0.647c-0.417-0.168-0.872-0.316-1.368-0.444s-0.952-0.308-1.368-0.54
		c-0.416-0.231-0.765-0.54-1.044-0.924c-0.28-0.384-0.42-0.912-0.42-1.584c0-0.528,0.088-1.012,0.264-1.452s0.433-0.82,0.769-1.14
		c0.336-0.32,0.752-0.572,1.248-0.757c0.495-0.184,1.063-0.275,1.704-0.275c0.591,0,1.092,0.08,1.5,0.24
		c0.407,0.16,0.795,0.304,1.163,0.432c-0.128,0.24-0.248,0.536-0.359,0.888c-0.112,0.353-0.185,0.624-0.216,0.816h-0.288
		c-0.129-0.384-0.376-0.729-0.744-1.032s-0.824-0.456-1.368-0.456c-0.24,0-0.479,0.04-0.72,0.12s-0.456,0.2-0.648,0.36
		c-0.191,0.16-0.352,0.368-0.479,0.624c-0.129,0.256-0.192,0.56-0.192,0.911c0,0.513,0.14,0.909,0.42,1.188
		c0.28,0.28,0.628,0.5,1.044,0.66s0.872,0.3,1.368,0.42s0.952,0.288,1.368,0.504s0.764,0.516,1.044,0.9
		c0.279,0.384,0.42,0.912,0.42,1.584c0,0.464-0.101,0.92-0.3,1.367c-0.2,0.448-0.488,0.853-0.864,1.213
		c-0.376,0.359-0.828,0.64-1.355,0.84c-0.528,0.199-1.129,0.3-1.801,0.3c-0.735,0-1.352-0.072-1.848-0.216
		c-0.496-0.145-0.912-0.312-1.248-0.504c0.096-0.208,0.195-0.492,0.3-0.853c0.104-0.359,0.156-0.66,0.156-0.899h0.288
		C310.528,134.776,310.652,134.952,310.82,135.144z"/>
	<path fill="#594100" d="M320.192,121.271c0-0.336,0.12-0.624,0.359-0.863c0.24-0.24,0.528-0.36,0.864-0.36s0.624,0.12,0.864,0.36
		c0.24,0.239,0.359,0.527,0.359,0.863s-0.119,0.624-0.359,0.864s-0.528,0.36-0.864,0.36s-0.624-0.12-0.864-0.36
		C320.312,121.896,320.192,121.607,320.192,121.271z M320.528,129.936c0-0.72-0.013-1.476-0.036-2.268
		c-0.024-0.792-0.076-1.532-0.156-2.22c0.448,0.08,0.808,0.119,1.08,0.119c0.271,0,0.632-0.039,1.08-0.119
		c-0.08,0.688-0.132,1.428-0.156,2.22c-0.023,0.792-0.036,1.548-0.036,2.268v2.496c0,0.72,0.013,1.477,0.036,2.269
		c0.024,0.792,0.076,1.508,0.156,2.147c-0.368-0.032-0.729-0.048-1.08-0.048c-0.353,0-0.712,0.016-1.08,0.048
		c0.08-0.64,0.132-1.355,0.156-2.147c0.023-0.792,0.036-1.549,0.036-2.269V129.936z"/>
	<path fill="#594100" d="M325.592,131.184c0-1.088,0.172-2.012,0.517-2.771c0.344-0.76,0.795-1.376,1.355-1.849
		c0.56-0.472,1.188-0.815,1.884-1.031c0.696-0.217,1.388-0.324,2.076-0.324c0.704,0,1.4,0.107,2.088,0.324
		c0.688,0.216,1.312,0.56,1.872,1.031c0.56,0.473,1.012,1.089,1.356,1.849c0.344,0.76,0.516,1.684,0.516,2.771
		c0,1.089-0.172,2.013-0.516,2.772c-0.345,0.76-0.797,1.376-1.356,1.848c-0.561,0.473-1.185,0.804-1.872,0.996
		s-1.384,0.288-2.088,0.288c-0.688,0-1.38-0.096-2.076-0.288c-0.695-0.192-1.324-0.523-1.884-0.996
		c-0.561-0.472-1.012-1.088-1.355-1.848C325.764,133.196,325.592,132.272,325.592,131.184z M327.704,131.184
		c0,0.672,0.06,1.32,0.18,1.944s0.324,1.18,0.612,1.668s0.672,0.876,1.152,1.164c0.479,0.288,1.071,0.432,1.775,0.432
		s1.296-0.144,1.776-0.432c0.479-0.288,0.863-0.676,1.151-1.164s0.492-1.044,0.612-1.668s0.18-1.272,0.18-1.944
		s-0.06-1.319-0.18-1.943s-0.324-1.181-0.612-1.668c-0.288-0.488-0.672-0.876-1.151-1.164c-0.48-0.288-1.072-0.433-1.776-0.433
		s-1.296,0.145-1.775,0.433c-0.48,0.288-0.864,0.676-1.152,1.164c-0.288,0.487-0.492,1.044-0.612,1.668
		S327.704,130.512,327.704,131.184z"/>
	<path fill="#594100" d="M347.048,127.38c-0.465-0.616-1.104-0.924-1.92-0.924c-1.12,0-1.94,0.344-2.46,1.032
		c-0.521,0.688-0.78,1.655-0.78,2.903v2.04c0,0.72,0.012,1.477,0.036,2.269c0.023,0.792,0.075,1.508,0.156,2.147
		c-0.368-0.032-0.729-0.048-1.08-0.048c-0.353,0-0.713,0.016-1.08,0.048c0.08-0.64,0.132-1.355,0.156-2.147
		c0.023-0.792,0.035-1.549,0.035-2.269v-2.496c0-0.72-0.012-1.476-0.035-2.268c-0.024-0.792-0.076-1.532-0.156-2.22
		c0.447,0.08,0.808,0.119,1.08,0.119c0.128,0,0.268-0.012,0.42-0.035c0.151-0.024,0.332-0.052,0.54-0.084
		c-0.048,0.64-0.072,1.28-0.072,1.92h0.048c0.448-0.688,0.984-1.221,1.608-1.597c0.624-0.375,1.368-0.563,2.231-0.563
		c0.448,0,0.9,0.063,1.356,0.191c0.456,0.129,0.867,0.349,1.236,0.66c0.367,0.312,0.667,0.736,0.899,1.272
		c0.231,0.536,0.348,1.22,0.348,2.052c0,0.688-0.016,1.396-0.048,2.124c-0.032,0.729-0.048,1.5-0.048,2.316v1.56
		c0,0.256,0.004,0.508,0.012,0.756c0.009,0.248,0.021,0.484,0.036,0.708c-0.32-0.032-0.656-0.048-1.008-0.048
		c-0.336,0-0.664,0.016-0.983,0.048c0.031-0.832,0.067-1.688,0.107-2.567s0.061-1.784,0.061-2.713v-1.464
		C347.744,128.903,347.512,127.996,347.048,127.38z"/>
	<path fill="#594100" d="M353.504,126.6c0.72-0.544,1.383-0.912,1.991-1.104c0.608-0.192,1.232-0.288,1.872-0.288
		c0.576,0,1.104,0.084,1.584,0.252c0.48,0.168,0.889,0.408,1.225,0.72c0.336,0.312,0.6,0.688,0.792,1.128
		c0.191,0.44,0.288,0.924,0.288,1.452c0,0.912-0.017,1.82-0.049,2.724c-0.032,0.904-0.048,1.86-0.048,2.868
		c0,0.192,0.004,0.396,0.013,0.612c0.008,0.216,0.043,0.408,0.107,0.576c0.063,0.168,0.156,0.308,0.276,0.42s0.3,0.168,0.54,0.168
		c0.08,0,0.164-0.004,0.252-0.012s0.172-0.036,0.252-0.084v0.527c-0.177,0.08-0.396,0.145-0.66,0.192s-0.556,0.072-0.876,0.072
		c-0.513,0-0.904-0.133-1.176-0.396c-0.272-0.264-0.433-0.604-0.48-1.02c-0.576,0.575-1.144,1-1.704,1.271
		c-0.56,0.272-1.248,0.408-2.063,0.408c-0.4,0-0.792-0.057-1.176-0.168c-0.385-0.112-0.725-0.296-1.021-0.552
		s-0.536-0.564-0.72-0.925c-0.185-0.359-0.276-0.771-0.276-1.235c0-0.96,0.3-1.704,0.9-2.232c0.6-0.527,1.428-0.88,2.483-1.056
		c0.864-0.145,1.54-0.268,2.028-0.372c0.488-0.104,0.848-0.212,1.08-0.324c0.231-0.111,0.372-0.243,0.42-0.396
		s0.072-0.349,0.072-0.588c0-0.4-0.048-0.784-0.145-1.152c-0.096-0.368-0.248-0.688-0.456-0.96s-0.479-0.492-0.815-0.66
		s-0.744-0.252-1.225-0.252c-0.64,0-1.235,0.144-1.787,0.432c-0.553,0.288-0.965,0.688-1.236,1.2h-0.264V126.6z M359.432,130.872
		c-0.272,0.096-0.588,0.176-0.948,0.239c-0.36,0.064-0.724,0.133-1.092,0.204c-0.368,0.072-0.732,0.165-1.092,0.276
		c-0.36,0.112-0.681,0.264-0.96,0.456c-0.28,0.192-0.504,0.432-0.673,0.72c-0.168,0.288-0.252,0.656-0.252,1.104
		c0,0.752,0.217,1.319,0.648,1.704c0.432,0.384,0.912,0.575,1.44,0.575c0.607,0,1.163-0.168,1.668-0.504
		c0.504-0.336,0.892-0.728,1.164-1.176L359.432,130.872z"/>
	<path fill="#594100" d="M365.875,123.888c-0.008-0.64-0.02-1.271-0.035-1.896c-0.017-0.624-0.036-1.221-0.061-1.788
		c-0.023-0.568-0.052-1.052-0.084-1.452c0.448,0.08,0.808,0.12,1.08,0.12c0.271,0,0.632-0.04,1.08-0.12
		c-0.032,0.4-0.06,0.884-0.084,1.452c-0.024,0.567-0.044,1.164-0.06,1.788c-0.017,0.624-0.028,1.256-0.036,1.896
		c-0.009,0.641-0.013,1.232-0.013,1.776v4.344c0,0.544,0.004,1.137,0.013,1.776c0.008,0.64,0.02,1.271,0.036,1.896
		c0.016,0.624,0.035,1.216,0.06,1.776c0.024,0.56,0.052,1.023,0.084,1.392c-0.368-0.032-0.729-0.048-1.08-0.048
		c-0.353,0-0.712,0.016-1.08,0.048c0.032-0.368,0.061-0.832,0.084-1.392c0.024-0.561,0.044-1.152,0.061-1.776
		c0.016-0.624,0.027-1.256,0.035-1.896c0.009-0.64,0.013-1.232,0.013-1.776v-4.344C365.888,125.12,365.884,124.528,365.875,123.888z
		"/>
	<path fill="#594100" d="M380.791,122.231c-0.048,0.608-0.084,1.204-0.107,1.788c-0.024,0.585-0.053,1.173-0.084,1.765
		c0.176,0,0.504-0.004,0.983-0.013c0.48-0.008,1-0.027,1.561-0.06c-0.017,0.048-0.024,0.136-0.024,0.264v0.24v0.264
		c0,0.112,0.008,0.192,0.024,0.24c-0.208-0.016-0.425-0.027-0.648-0.036c-0.225-0.008-0.464-0.012-0.72-0.012H380.6
		c-0.017,0.064-0.036,0.32-0.061,0.768c-0.023,0.448-0.044,0.98-0.06,1.597c-0.017,0.616-0.028,1.26-0.036,1.932
		c-0.009,0.672-0.012,1.272-0.012,1.8c0,0.448,0.012,0.889,0.035,1.32c0.024,0.432,0.101,0.82,0.229,1.164s0.319,0.62,0.576,0.828
		c0.256,0.208,0.624,0.312,1.104,0.312c0.128,0,0.3-0.016,0.517-0.048c0.216-0.032,0.403-0.072,0.563-0.12v0.576
		c-0.272,0.048-0.572,0.108-0.899,0.18c-0.328,0.072-0.645,0.108-0.948,0.108c-1.008,0-1.752-0.248-2.232-0.744
		c-0.479-0.496-0.72-1.224-0.72-2.184c0-0.433,0.008-0.9,0.024-1.404c0.016-0.504,0.035-1.056,0.06-1.656
		c0.024-0.6,0.044-1.264,0.06-1.992c0.017-0.728,0.024-1.539,0.024-2.436h-0.768c-0.129,0-0.265,0.004-0.408,0.012
		c-0.145,0.009-0.297,0.021-0.456,0.036c0.016-0.096,0.027-0.188,0.036-0.276c0.008-0.087,0.012-0.18,0.012-0.275
		c0-0.08-0.004-0.16-0.012-0.24c-0.009-0.08-0.021-0.16-0.036-0.24c0.72,0.048,1.248,0.072,1.584,0.072
		c-0.017-0.32-0.028-0.72-0.036-1.2c-0.009-0.479-0.028-0.976-0.06-1.487l1.991-0.841H380.791z"/>
	<path fill="#594100" d="M384.295,131.184c0-1.088,0.172-2.012,0.517-2.771c0.344-0.76,0.795-1.376,1.355-1.849
		c0.56-0.472,1.188-0.815,1.884-1.031c0.696-0.217,1.388-0.324,2.076-0.324c0.704,0,1.4,0.107,2.088,0.324
		c0.688,0.216,1.312,0.56,1.872,1.031c0.56,0.473,1.012,1.089,1.356,1.849c0.344,0.76,0.516,1.684,0.516,2.771
		c0,1.089-0.172,2.013-0.516,2.772c-0.345,0.76-0.797,1.376-1.356,1.848c-0.561,0.473-1.185,0.804-1.872,0.996
		s-1.384,0.288-2.088,0.288c-0.688,0-1.38-0.096-2.076-0.288c-0.695-0.192-1.324-0.523-1.884-0.996
		c-0.561-0.472-1.012-1.088-1.355-1.848C384.467,133.196,384.295,132.272,384.295,131.184z M386.407,131.184
		c0,0.672,0.06,1.32,0.18,1.944s0.324,1.18,0.612,1.668s0.672,0.876,1.152,1.164c0.479,0.288,1.071,0.432,1.775,0.432
		s1.296-0.144,1.776-0.432c0.479-0.288,0.863-0.676,1.151-1.164s0.492-1.044,0.612-1.668s0.18-1.272,0.18-1.944
		s-0.06-1.319-0.18-1.943s-0.324-1.181-0.612-1.668c-0.288-0.488-0.672-0.876-1.151-1.164c-0.48-0.288-1.072-0.433-1.776-0.433
		s-1.296,0.145-1.775,0.433c-0.48,0.288-0.864,0.676-1.152,1.164c-0.288,0.487-0.492,1.044-0.612,1.668
		S386.407,130.512,386.407,131.184z"/>
	<path fill="#594100" d="M398.359,132.432c0-0.544-0.004-1.136-0.012-1.775c-0.008-0.641-0.021-1.276-0.036-1.908
		s-0.036-1.236-0.06-1.812c-0.024-0.576-0.053-1.071-0.084-1.487c0.447,0.08,0.808,0.119,1.08,0.119c0.271,0,0.632-0.039,1.08-0.119
		c-0.064,0.416-0.112,0.815-0.145,1.199c-0.032,0.385-0.048,0.769-0.048,1.152h0.048c0.112-0.256,0.272-0.532,0.48-0.828
		c0.207-0.296,0.476-0.576,0.804-0.84s0.724-0.483,1.188-0.66c0.464-0.176,0.991-0.264,1.584-0.264c0.607,0,1.207,0.116,1.8,0.348
		c0.592,0.232,1.116,0.588,1.571,1.068c0.456,0.479,0.824,1.092,1.104,1.836c0.279,0.744,0.42,1.628,0.42,2.651
		c0,1.024-0.152,1.913-0.456,2.664c-0.304,0.753-0.7,1.377-1.188,1.872c-0.488,0.496-1.044,0.86-1.668,1.093
		c-0.624,0.231-1.248,0.348-1.872,0.348c-1.761,0-3.017-0.76-3.769-2.28h-0.048v1.512c0,0.513,0.004,1.084,0.012,1.717
		c0.008,0.632,0.021,1.26,0.036,1.884s0.036,1.22,0.061,1.788c0.023,0.567,0.052,1.052,0.084,1.452
		c-0.448-0.081-0.809-0.12-1.08-0.12c-0.272,0-0.633,0.039-1.08,0.12c0.031-0.4,0.06-0.885,0.084-1.452
		c0.023-0.568,0.044-1.164,0.06-1.788s0.028-1.252,0.036-1.884c0.008-0.633,0.012-1.204,0.012-1.717V132.432z M407.023,131.088
		c0-0.96-0.1-1.752-0.3-2.376s-0.456-1.124-0.768-1.5c-0.312-0.376-0.669-0.636-1.068-0.78c-0.4-0.144-0.792-0.216-1.176-0.216
		c-0.641,0-1.188,0.136-1.645,0.408s-0.827,0.636-1.115,1.092s-0.496,0.992-0.624,1.608c-0.129,0.615-0.192,1.268-0.192,1.956
		c0,3.328,1.168,4.991,3.504,4.991c0.576,0,1.076-0.132,1.5-0.396c0.424-0.265,0.776-0.632,1.057-1.104
		c0.279-0.472,0.487-1.023,0.623-1.655S407.023,131.808,407.023,131.088z"/>
	<path fill="#594100" d="M410.983,131.184c0-1.088,0.172-2.012,0.517-2.771c0.344-0.76,0.795-1.376,1.355-1.849
		c0.56-0.472,1.188-0.815,1.884-1.031c0.696-0.217,1.388-0.324,2.076-0.324c0.704,0,1.4,0.107,2.088,0.324
		c0.688,0.216,1.312,0.56,1.872,1.031c0.56,0.473,1.012,1.089,1.356,1.849c0.344,0.76,0.516,1.684,0.516,2.771
		c0,1.089-0.172,2.013-0.516,2.772c-0.345,0.76-0.797,1.376-1.356,1.848c-0.561,0.473-1.185,0.804-1.872,0.996
		s-1.384,0.288-2.088,0.288c-0.688,0-1.38-0.096-2.076-0.288c-0.695-0.192-1.324-0.523-1.884-0.996
		c-0.561-0.472-1.012-1.088-1.355-1.848C411.155,133.196,410.983,132.272,410.983,131.184z M413.096,131.184
		c0,0.672,0.06,1.32,0.18,1.944s0.324,1.18,0.612,1.668s0.672,0.876,1.152,1.164c0.479,0.288,1.071,0.432,1.775,0.432
		s1.296-0.144,1.776-0.432c0.479-0.288,0.863-0.676,1.151-1.164s0.492-1.044,0.612-1.668s0.18-1.272,0.18-1.944
		s-0.06-1.319-0.18-1.943s-0.324-1.181-0.612-1.668c-0.288-0.488-0.672-0.876-1.151-1.164c-0.48-0.288-1.072-0.433-1.776-0.433
		s-1.296,0.145-1.775,0.433c-0.48,0.288-0.864,0.676-1.152,1.164c-0.288,0.487-0.492,1.044-0.612,1.668
		S413.096,130.512,413.096,131.184z"/>
	<path fill="#594100" d="M425.923,123.888c-0.008-0.64-0.02-1.271-0.035-1.896c-0.017-0.624-0.036-1.221-0.061-1.788
		c-0.023-0.568-0.052-1.052-0.084-1.452c0.448,0.08,0.808,0.12,1.08,0.12c0.271,0,0.632-0.04,1.08-0.12
		c-0.032,0.4-0.06,0.884-0.084,1.452c-0.024,0.567-0.044,1.164-0.06,1.788c-0.017,0.624-0.028,1.256-0.036,1.896
		c-0.009,0.641-0.013,1.232-0.013,1.776v4.344c0,0.544,0.004,1.137,0.013,1.776c0.008,0.64,0.02,1.271,0.036,1.896
		c0.016,0.624,0.035,1.216,0.06,1.776c0.024,0.56,0.052,1.023,0.084,1.392c-0.368-0.032-0.729-0.048-1.08-0.048
		c-0.353,0-0.712,0.016-1.08,0.048c0.032-0.368,0.061-0.832,0.084-1.392c0.024-0.561,0.044-1.152,0.061-1.776
		c0.016-0.624,0.027-1.256,0.035-1.896c0.009-0.64,0.013-1.232,0.013-1.776v-4.344C425.936,125.12,425.932,124.528,425.923,123.888z
		"/>
	<path fill="#594100" d="M430.999,131.184c0-1.088,0.172-2.012,0.517-2.771c0.344-0.76,0.795-1.376,1.355-1.849
		c0.56-0.472,1.188-0.815,1.884-1.031c0.696-0.217,1.388-0.324,2.076-0.324c0.704,0,1.4,0.107,2.088,0.324
		c0.688,0.216,1.312,0.56,1.872,1.031c0.56,0.473,1.012,1.089,1.356,1.849c0.344,0.76,0.516,1.684,0.516,2.771
		c0,1.089-0.172,2.013-0.516,2.772c-0.345,0.76-0.797,1.376-1.356,1.848c-0.561,0.473-1.185,0.804-1.872,0.996
		s-1.384,0.288-2.088,0.288c-0.688,0-1.38-0.096-2.076-0.288c-0.695-0.192-1.324-0.523-1.884-0.996
		c-0.561-0.472-1.012-1.088-1.355-1.848C431.171,133.196,430.999,132.272,430.999,131.184z M433.111,131.184
		c0,0.672,0.06,1.32,0.18,1.944s0.324,1.18,0.612,1.668s0.672,0.876,1.152,1.164c0.479,0.288,1.071,0.432,1.775,0.432
		s1.296-0.144,1.776-0.432c0.479-0.288,0.863-0.676,1.151-1.164s0.492-1.044,0.612-1.668s0.18-1.272,0.18-1.944
		s-0.06-1.319-0.18-1.943s-0.324-1.181-0.612-1.668c-0.288-0.488-0.672-0.876-1.151-1.164c-0.48-0.288-1.072-0.433-1.776-0.433
		s-1.296,0.145-1.775,0.433c-0.48,0.288-0.864,0.676-1.152,1.164c-0.288,0.487-0.492,1.044-0.612,1.668
		S433.111,130.512,433.111,131.184z"/>
	<path fill="#594100" d="M444.704,129.12c0-0.672,0.12-1.252,0.359-1.74c0.24-0.488,0.572-0.892,0.996-1.212s0.912-0.56,1.464-0.72
		c0.553-0.16,1.141-0.24,1.765-0.24c0.304,0,0.596,0.008,0.876,0.023c0.279,0.017,0.636,0.04,1.067,0.072
		c0.368,0.032,0.696,0.057,0.984,0.072s0.52,0.023,0.696,0.023c0.896,0,1.544-0.039,1.943-0.119
		c-0.016,0.08-0.027,0.164-0.035,0.252c-0.009,0.088-0.013,0.172-0.013,0.252s0.004,0.164,0.013,0.252
		c0.008,0.088,0.02,0.172,0.035,0.252c-0.464-0.032-0.916-0.068-1.355-0.108c-0.44-0.04-0.876-0.067-1.308-0.084l-0.049,0.048
		c0.496,0.272,0.896,0.692,1.2,1.26c0.304,0.568,0.456,1.156,0.456,1.765c0,1.2-0.404,2.14-1.212,2.82
		c-0.809,0.68-1.893,1.02-3.252,1.02c-0.225,0-0.444-0.008-0.66-0.024c-0.216-0.016-0.436-0.023-0.66-0.023
		c-0.288,0-0.556,0.104-0.804,0.312c-0.248,0.208-0.372,0.473-0.372,0.792c0,0.417,0.1,0.721,0.3,0.912
		c0.2,0.192,0.572,0.297,1.116,0.312c0.448,0.016,0.888,0.028,1.32,0.036c0.432,0.008,0.872,0.02,1.319,0.035
		c0.736,0.017,1.364,0.104,1.885,0.265c0.52,0.16,0.943,0.376,1.271,0.647c0.328,0.272,0.568,0.584,0.72,0.937
		c0.152,0.352,0.229,0.735,0.229,1.151c0,0.561-0.108,1.129-0.324,1.704c-0.216,0.576-0.552,1.096-1.008,1.561
		c-0.456,0.464-1.044,0.848-1.764,1.151c-0.721,0.304-1.584,0.456-2.593,0.456c-1.552,0-2.775-0.308-3.672-0.924
		c-0.896-0.616-1.344-1.46-1.344-2.532c0-0.416,0.076-0.8,0.228-1.151c0.152-0.353,0.349-0.664,0.589-0.937
		c0.239-0.271,0.512-0.488,0.815-0.647c0.304-0.16,0.616-0.28,0.937-0.36v-0.048c-0.496-0.144-0.873-0.384-1.128-0.72
		c-0.257-0.336-0.385-0.736-0.385-1.2c0-0.272,0.052-0.52,0.156-0.744c0.104-0.224,0.236-0.424,0.396-0.6
		c0.159-0.176,0.344-0.32,0.552-0.433c0.208-0.111,0.408-0.184,0.6-0.216v-0.048c-0.736-0.32-1.312-0.771-1.728-1.356
		C444.912,130.731,444.704,130,444.704,129.12z M453.224,139.392c0-0.96-0.28-1.632-0.84-2.016
		c-0.561-0.384-1.488-0.576-2.784-0.576c-1.199,0-2.128,0.195-2.784,0.588c-0.656,0.392-0.983,1.1-0.983,2.124
		c0,0.544,0.092,1.008,0.275,1.392c0.185,0.385,0.433,0.696,0.744,0.937c0.312,0.24,0.685,0.416,1.116,0.528
		c0.433,0.111,0.896,0.168,1.393,0.168c0.479,0,0.951-0.064,1.416-0.192c0.464-0.128,0.876-0.32,1.235-0.576
		c0.36-0.256,0.652-0.58,0.876-0.972C453.111,140.403,453.224,139.936,453.224,139.392z M451.928,129c0-1.008-0.24-1.776-0.72-2.304
		c-0.48-0.528-1.112-0.793-1.896-0.793c-0.863,0-1.535,0.293-2.016,0.877s-0.72,1.364-0.72,2.34c0,1.008,0.22,1.804,0.66,2.388
		c0.439,0.584,1.123,0.876,2.052,0.876c0.464,0,0.859-0.092,1.188-0.276c0.328-0.184,0.601-0.432,0.816-0.743
		c0.216-0.312,0.376-0.673,0.479-1.08C451.876,129.876,451.928,129.448,451.928,129z"/>
	<path fill="#594100" d="M460.832,136.872c-0.177-0.433-0.404-0.992-0.685-1.681c-0.279-0.688-0.58-1.411-0.899-2.172
		c-0.32-0.76-0.648-1.536-0.984-2.328s-0.652-1.535-0.948-2.231s-0.556-1.309-0.779-1.836c-0.225-0.528-0.393-0.92-0.504-1.176
		c0.207,0.032,0.399,0.06,0.575,0.084c0.177,0.023,0.353,0.035,0.528,0.035s0.352-0.012,0.528-0.035
		c0.176-0.024,0.368-0.052,0.576-0.084c0.495,1.535,1.048,3.056,1.655,4.56c0.608,1.504,1.248,3.057,1.92,4.656
		c0.673-1.408,1.316-2.912,1.933-4.513c0.615-1.6,1.164-3.168,1.644-4.703c0.32,0.08,0.584,0.119,0.792,0.119
		s0.472-0.039,0.792-0.119c-0.111,0.224-0.292,0.604-0.54,1.14s-0.544,1.176-0.888,1.92s-0.72,1.568-1.128,2.472
		c-0.408,0.904-0.824,1.833-1.248,2.784c-0.424,0.952-0.844,1.896-1.26,2.832c-0.416,0.937-0.801,1.824-1.152,2.664
		s-0.66,1.6-0.924,2.28c-0.264,0.68-0.46,1.22-0.588,1.62c-0.32-0.081-0.592-0.12-0.816-0.12c-0.224,0-0.496,0.039-0.815,0.12
		C458.88,141.063,459.952,138.968,460.832,136.872z"/>
</g>
<g>
	<g opacity="0.5">
		<path filter="url(#AI_GaussianBlur_4)" d="M143.535,86.648L99.072,15.297c-2.255-3.477-7.178-3.744-9.659-0.209L32.998,98.592
			c-2.104,3.26-0.66,6.845,2.239,8.383l76.636,38.709c3.271,1.518,6.455-0.008,7.778-2.653l24.248-50.776
			c0.004-0.007,0.007-0.015,0.01-0.021C144.762,90.267,144.682,88.581,143.535,86.648z M90.866,33.472l6.25,37.707L69.729,64.76
			L90.866,33.472z M66.957,68.861l13.425,22.08l-30.824,3.674L66.957,68.861z M106.938,130.312l-49.592-25.049l37.641-4.486
			l7.496,2.762 M117.146,121.587l-2.206-13.29l7.26,2.708L117.146,121.587z M124.082,107.062l-5.582-9.124l10.528-1.232
			L124.082,107.062z M111.92,87.183l-0.668-1.092l-6.677-40.227l24.477,39.277L111.92,87.183z"/>
	</g>
	<linearGradient id="SVGID_1_" gradientUnits="userSpaceOnUse" x1="85.2186" y1="13.9526" x2="119.8588" y2="143.2316">
		<stop  offset="0" style="stop-color:#B38F6B"/>
		<stop  offset="0.0613" style="stop-color:#A8815E"/>
		<stop  offset="0.1675" style="stop-color:#9C704F"/>
		<stop  offset="0.2997" style="stop-color:#936544"/>
		<stop  offset="0.4851" style="stop-color:#8D5E3E"/>
		<stop  offset="1" style="stop-color:#8C5C3C"/>
	</linearGradient>
	<polygon fill="url(#SVGID_1_)" points="92.721,11.942 95.609,64.543 95.382,93.385 101.978,102.802 114.178,144.754 
		113.269,110.294 117.281,92.109 107.53,73.36 	"/>
	<linearGradient id="SVGID_2_" gradientUnits="userSpaceOnUse" x1="66.9145" y1="18.4511" x2="101.8085" y2="148.6776">
		<stop  offset="0" style="stop-color:#B38F6B"/>
		<stop  offset="0.0613" style="stop-color:#A8815E"/>
		<stop  offset="0.1675" style="stop-color:#9C704F"/>
		<stop  offset="0.2997" style="stop-color:#936544"/>
		<stop  offset="0.4851" style="stop-color:#8D5E3E"/>
		<stop  offset="1" style="stop-color:#8C5C3C"/>
	</linearGradient>
	<path fill="url(#SVGID_2_)" d="M142.676,85.673L98.213,14.321c-2.255-3.476-7.178-3.743-9.66-0.209L32.138,97.616
		c-2.104,3.26-0.659,6.845,2.24,8.384l76.636,38.709c3.271,1.517,6.455-0.009,7.777-2.653l24.249-50.776
		c0.004-0.008,0.007-0.016,0.01-0.022C143.902,89.291,143.822,87.605,142.676,85.673z M110.583,86.265l-6.867-41.377l24.476,39.277
		 M90.006,32.496l9.15,55.13l-50.459,6.015L90.006,32.496z M106.079,129.338l-49.592-25.05l44.551-5.31 M116.286,120.611
		l-3.826-23.043l15.708-1.839L116.286,120.611z"/>
	<g>
		<defs>
			<path id="SVGID_3_" d="M142.676,85.681L98.213,14.329c-2.255-3.476-7.178-3.743-9.66-0.209L32.138,97.624
				c-2.104,3.26-0.659,6.845,2.24,8.383l76.636,38.709c3.271,1.518,6.455-0.008,7.777-2.652l24.249-50.776
				c0.004-0.008,0.007-0.016,0.01-0.022C143.902,89.299,143.822,87.613,142.676,85.681z M110.583,86.272l-6.867-41.377
				l24.476,39.277 M90.006,32.504l9.15,55.13l-50.459,6.015L90.006,32.504z M106.079,129.346l-49.592-25.05l44.551-5.31
				 M116.286,120.619l-3.826-23.043l15.708-1.839L116.286,120.619z"/>
		</defs>
		<clipPath id="SVGID_4_">
			<use xlink:href="#SVGID_3_"  overflow="visible"/>
		</clipPath>
		
			<linearGradient id="SVGID_5_" gradientUnits="userSpaceOnUse" x1="47.7603" y1="215.4249" x2="47.8367" y2="222.627" gradientTransform="matrix(0.8938 0.4484 -0.6178 1.2315 164.1801 -174.3275)">
			<stop  offset="0" style="stop-color:#FFFFFF;stop-opacity:0"/>
			<stop  offset="0.5206" style="stop-color:#FFFFFF;stop-opacity:0.2"/>
			<stop  offset="1" style="stop-color:#FFFFFF;stop-opacity:0"/>
		</linearGradient>
		<path clip-path="url(#SVGID_4_)" fill="url(#SVGID_5_)" d="M107.828,139.869l-74.591-36.214c-1.26-0.689-1.647-2.217-1.647-2.217
			c0.833,2.322,8.132,0.886,13.554-2.899l60.908,30.807L107.828,139.869z"/>
		
			<linearGradient id="SVGID_6_" gradientUnits="userSpaceOnUse" x1="578.8743" y1="304.6644" x2="578.8743" y2="315.0126" gradientTransform="matrix(0.3478 2.0969 -1.0961 0.1818 241.7182 -1191.9004)">
			<stop  offset="0" style="stop-color:#FFFFFF;stop-opacity:0"/>
			<stop  offset="0.4779" style="stop-color:#FFFFFF;stop-opacity:0.3"/>
			<stop  offset="1" style="stop-color:#FFFFFF;stop-opacity:0"/>
		</linearGradient>
		<path clip-path="url(#SVGID_4_)" fill="url(#SVGID_6_)" d="M107.586,138.405L86.354,10.414l11.341-1.881l20.765,125.18
			C121.348,151.015,109.736,150.426,107.586,138.405z"/>
		
			<linearGradient id="SVGID_7_" gradientUnits="userSpaceOnUse" x1="443.8049" y1="285.1325" x2="443.8049" y2="295.5128" gradientTransform="matrix(0.5323 0.8613 -0.9444 0.5836 151.5709 -501.7598)">
			<stop  offset="0" style="stop-color:#FFFFFF;stop-opacity:0"/>
			<stop  offset="0.5962" style="stop-color:#FFFFFF;stop-opacity:0.2"/>
			<stop  offset="1" style="stop-color:#FFFFFF;stop-opacity:0"/>
		</linearGradient>
		<path clip-path="url(#SVGID_4_)" fill="url(#SVGID_7_)" d="M131.277,89.284l-27.562-44.44l-3.747-22.608
			c-1.525-9.195-6.533-15.525-6.533-15.525l49.286,79.327C144.092,88.298,136.62,91.395,131.277,89.284z"/>
		
			<linearGradient id="SVGID_8_" gradientUnits="userSpaceOnUse" x1="677.0304" y1="-36.5466" x2="677.0304" y2="-25.05" gradientTransform="matrix(-0.575 0.8359 0.9226 0.6264 483.2533 -489.0679)">
			<stop  offset="0" style="stop-color:#FFFFFF;stop-opacity:0"/>
			<stop  offset="0.5962" style="stop-color:#FFFFFF;stop-opacity:0.2"/>
			<stop  offset="1" style="stop-color:#FFFFFF;stop-opacity:0"/>
		</linearGradient>
		<path clip-path="url(#SVGID_4_)" fill="url(#SVGID_8_)" d="M45.145,98.539l44.861-66.087l-1.848-11.163
			c-1.606-9.682,4.128-12.756,4.128-12.756L32.683,96.567c0,0-1.528,1.762-1.253,4.285C31.826,104.489,40.71,101.739,45.145,98.539z
			"/>
		
			<linearGradient id="SVGID_9_" gradientUnits="userSpaceOnUse" x1="116.3362" y1="32.1017" x2="116.3362" y2="42.4505" gradientTransform="matrix(0.8371 -0.1013 0.0841 0.695 -29.6619 80.9117)">
			<stop  offset="0" style="stop-color:#FFFFFF;stop-opacity:0"/>
			<stop  offset="0.3609" style="stop-color:#FFFFFF;stop-opacity:0.1"/>
			<stop  offset="1" style="stop-color:#FFFFFF;stop-opacity:0"/>
		</linearGradient>
		<polygon clip-path="url(#SVGID_4_)" fill="url(#SVGID_9_)" points="97.053,95.513 50.335,101.164 45.145,98.539 48.134,94.135 
			96.184,88.322 		"/>
		
			<linearGradient id="SVGID_10_" gradientUnits="userSpaceOnUse" x1="-661.78" y1="31.9733" x2="-661.78" y2="42.7973" gradientTransform="matrix(0.2634 -0.0319 0.0841 0.695 292.3354 41.9517)">
			<stop  offset="0" style="stop-color:#FFFFFF;stop-opacity:0"/>
			<stop  offset="0.3609" style="stop-color:#FFFFFF;stop-opacity:0.1"/>
			<stop  offset="1" style="stop-color:#FFFFFF;stop-opacity:0"/>
		</linearGradient>
		<polygon clip-path="url(#SVGID_4_)" fill="url(#SVGID_10_)" points="130.08,91.782 113.354,93.471 110.775,86.487 128.382,84.382 
			131.277,89.284 		"/>
		
			<linearGradient id="SVGID_11_" gradientUnits="userSpaceOnUse" x1="361.2791" y1="-29.3843" x2="361.2791" y2="-22.6212" gradientTransform="matrix(-0.4323 0.9017 1.2424 0.5957 315.1821 -200.6566)">
			<stop  offset="0" style="stop-color:#FFFFFF;stop-opacity:0"/>
			<stop  offset="0.5206" style="stop-color:#FFFFFF;stop-opacity:0.2"/>
			<stop  offset="0.9096" style="stop-color:#FFFFFF;stop-opacity:0"/>
		</linearGradient>
		<path clip-path="url(#SVGID_4_)" fill="url(#SVGID_11_)" d="M118.718,135.27l23.669-47.603c-2.309,2.32-8.056,2.989-11.109,1.617
			l-14.991,31.283L118.718,135.27z"/>
	</g>
	<g>
		<linearGradient id="SVGID_12_" gradientUnits="userSpaceOnUse" x1="76.2546" y1="56.0521" x2="87.3398" y2="75.2522">
			<stop  offset="0.5" style="stop-color:#006D4F"/>
			<stop  offset="1" style="stop-color:#004A33"/>
		</linearGradient>
		<polygon fill="url(#SVGID_12_)" points="66.767,63.191 69.087,60.19 95.55,65.899 96.256,70.104 81.162,67.807 		"/>
		<linearGradient id="SVGID_13_" gradientUnits="userSpaceOnUse" x1="117.5771" y1="75.8115" x2="117.5771" y2="108.4072">
			<stop  offset="0.0011" style="stop-color:#00573F"/>
			<stop  offset="1" style="stop-color:#002E20"/>
		</linearGradient>
		<polygon fill="url(#SVGID_13_)" points="108.848,75.812 110.379,84.994 116.425,97.076 124.703,108.407 126.307,104.711 		"/>
		<linearGradient id="SVGID_14_" gradientUnits="userSpaceOnUse" x1="77.4564" y1="57.0196" x2="111.5195" y2="116.0187">
			<stop  offset="0.0169" style="stop-color:#65A174"/>
			<stop  offset="0.5" style="stop-color:#00825E"/>
			<stop  offset="1" style="stop-color:#005C3F"/>
		</linearGradient>
		<path fill="url(#SVGID_14_)" d="M101.624,102.465l-14.68-5.408c-1.296-1.939-4.237-4.513-6.294-5.334l-14.59-23.995
			c1.242-1.394,0.706-4.536,0.706-4.536l29.489,6.913L101.624,102.465z M110.379,84.994l3.686,22.223l7.3,2.723
			c1.04-1.532,3.339-1.532,3.339-1.532L110.379,84.994z"/>
	</g>
</g>
</svg>
