<?xml version="1.0" encoding="utf-8"?>
<!-- Generator: Adobe Illustrator 16.0.4, SVG Export Plug-In . SVG Version: 6.00 Build 0)  -->
<!DOCTYPE svg PUBLIC "-//W3C//DTD SVG 1.1//EN" "http://www.w3.org/Graphics/SVG/1.1/DTD/svg11.dtd">
<svg version="1.1" id="Layer_1" xmlns="http://www.w3.org/2000/svg" xmlns:xlink="http://www.w3.org/1999/xlink" x="0px" y="0px"
	 width="512px" height="512px" viewBox="0 0 512 512" enable-background="new 0 0 512 512" xml:space="preserve">
<g id="Layer_1_1_" display="none">
</g>
<g id="Layer_2" display="none">
	<path display="inline" fill="none" stroke="#000000" stroke-miterlimit="10" d="M211.25,22c2.667-3.5,9.795-3.15,12.25-0.25
		c2.22,2.623,11.699,37.989,19.5,46.5s9.324,1.852,24.218,8.944c14.894,7.092,40.676,38.956,50.406,52.992
		C330.667,149,329,160.749,325.696,160.631c-6.253-0.224-42.77-37.334-55.679-44.426c-12.912-7.092-21.423-12.057-31.353-5.674
		c-9.929,6.383-9.929,18.438-16.312,35.461c-6.383,17.022-13.603,37.758-18.103,36.258c-6.18-2.06-3.018-31.056-3.75-53.75
		c-1.25-38.75,20.25-46.5,15.5-56c-1.589-3.178-5.5,9-24.142,19.592c-10.501,5.967-39.305,20.171-48.525,43.575
		s-0.705,38.09,14.917,40.083c12.852,1.639,17.75-8.749,18.005-18.41c0.265-10.054-21.255-7.673-16.588-12.673
		c5.649-6.053,23.448,2.723,23.681,13.382c0.319,14.618-10.842,24.906-25.014,24.618C143.175,182.359,128.872,165.23,131,147.5
		s8.646-29.292,24.333-45.108C171.127,86.468,204.75,79,209.833,59.75C213.566,45.614,207.303,27.181,211.25,22z"/>
	<path display="inline" fill="none" stroke="#000000" stroke-miterlimit="10" d="M216.083,162.63
		C224.5,201.5,229.164,247.5,229.414,273s-6.748,95-13.331,115s-9.917,64.5,0,75S255,484.5,285.5,454.5S346.163,356.375,348,317
		c1.83-39.223-3.5-115-31.861-162.436"/>
</g>
<g id="Layer_5">
	<path fill="none" stroke="#24420E" stroke-width="22" stroke-linecap="round" stroke-miterlimit="10" d="M321.035,158.59l-53-66.59
		H220l-4.964,75.135c8.917,41.179,13.858,89.912,14.123,116.926c0.265,27.017-4.324,81.224-14.123,121.832
		c-9.388,38.903-10.506,68.332,0,79.456c10.506,11.123,41.229,22.777,73.541-9.005c32.312-31.782,64.268-103.955,66.213-145.669
		C356.729,289.123,351.082,208.844,321.035,158.59z"/>
</g>
<g id="Layer_3">
	<path fill="none" stroke="#24420E" stroke-width="22" stroke-linecap="round" stroke-miterlimit="10" d="M211.904,53.967
		c0,0-1.034,19.272-13.562,27.482c-12.528,8.21-39.543,18.54-54.64,34.696c-8.075,8.641-27.777,33.106-19.567,52.97
		c8.21,19.864,22.777,17.745,28.075,16.421c10.594-2.648,19.599-10.594,18.274-19.334c-1.324-8.74-8.577-15.024-15.54-16.421"/>
	<path fill="#24420E" stroke="#24420E" stroke-width="22" stroke-linecap="round" stroke-miterlimit="10" d="M209.916,18.15
		c2.825-3.708,10.376-3.337,12.978-0.265c2.352,2.778,12.394,40.246,20.659,49.262c8.264,9.017,9.878,1.962,25.656,9.476
		c15.777,7.514,43.093,41.27,53.401,56.14c13.815,19.932,12.052,32.379,8.552,32.254c-6.625-0.237-45.309-39.552-58.987-47.065
		c-13.678-7.514-22.694-12.773-33.213-6.011c-10.519,6.763-10.519,19.535-17.281,37.567c-6.762,18.033-14.413,40-19.18,38.412
		c-6.547-2.183-3.197-32.901-3.973-56.943c-1.324-41.052,19.679-48.557,16.421-59.327C214.948,71.65,205.733,23.639,209.916,18.15z"
		/>
</g>
<g id="Layer_4" display="none">
	<path display="inline" stroke="#000000" stroke-width="20" stroke-linecap="round" stroke-miterlimit="10" d="M342.333,215.667
		c4.502,3.443,15.37,65.481,12.456,115.009c-2.451,41.688-33.9,113.889-66.213,145.669c-32.312,31.782-63.035,20.128-73.541,9.005
		c-10.506-11.124-9.388-40.553,0-79.455c9.799-40.609,14.388-94.816,14.123-121.832c-0.265-27.016-4.683-49.906-2.826-53.062
		c6.104-10.365,11.798-23.752,21.333-46c6.356-14.832,8.542-31.715,11-32.667c2.024-0.784,29.188,25.727,39.334,34.002
		C310.666,196.667,331.815,207.624,342.333,215.667z"/>
</g>
</svg>
