<?xml version="1.0" encoding="utf-8"?>
<!-- Generator: Adobe Illustrator 16.0.4, SVG Export Plug-In . SVG Version: 6.00 Build 0)  -->
<!DOCTYPE svg PUBLIC "-//W3C//DTD SVG 1.1//EN" "http://www.w3.org/Graphics/SVG/1.1/DTD/svg11.dtd">
<svg version="1.1" id="Layer_1" xmlns="http://www.w3.org/2000/svg" xmlns:xlink="http://www.w3.org/1999/xlink" x="0px" y="0px"
	 width="640px" height="640px" viewBox="0 0 640 640" enable-background="new 0 0 640 640" xml:space="preserve">
<path fill="none" stroke="#0F2564" stroke-width="22" stroke-miterlimit="10" d="M614.525,216.871
	c38.557,105.931-61.966,239.768-224.526,298.935C227.442,574.973,64.406,537.061,25.85,431.131
	C-12.706,325.199,87.819,191.36,250.376,132.195C412.934,73.029,575.968,110.94,614.525,216.871z M294.753,253.495
	c-59.667,21.716-96.564,70.841-82.411,109.722c14.152,38.883,73.993,52.799,133.659,31.082
	c59.665-21.717,96.562-70.842,82.411-109.724C414.261,245.693,354.42,231.778,294.753,253.495z"/>
<path fill="none" stroke="#0F2564" stroke-width="22" stroke-miterlimit="10" d="M214.155,147.057
	c36.257-15.921,66.503,3.963,79.012,34.096c13.786,33.212,11.404,62.618-23.055,83.524"/>
</svg>
