<?xml version="1.0" encoding="utf-8"?>
<!-- Generator: Adobe Illustrator 16.0.4, SVG Export Plug-In . SVG Version: 6.00 Build 0)  -->
<!DOCTYPE svg PUBLIC "-//W3C//DTD SVG 1.1//EN" "http://www.w3.org/Graphics/SVG/1.1/DTD/svg11.dtd">
<svg version="1.1" id="Layer_1" xmlns="http://www.w3.org/2000/svg" xmlns:xlink="http://www.w3.org/1999/xlink" x="0px" y="0px"
	 width="640px" height="640px" viewBox="0 0 640 640" enable-background="new 0 0 640 640" xml:space="preserve">
<linearGradient id="SVGID_1_" gradientUnits="userSpaceOnUse" x1="306.7026" y1="18.6411" x2="468.5431" y2="622.6381">
	<stop  offset="0" style="stop-color:#A16D55"/>
	<stop  offset="0.0755" style="stop-color:#955C43"/>
	<stop  offset="0.18" style="stop-color:#8A4C32"/>
	<stop  offset="0.3102" style="stop-color:#824127"/>
	<stop  offset="0.4929" style="stop-color:#7D3B20"/>
	<stop  offset="1" style="stop-color:#7C391E"/>
</linearGradient>
<polygon fill="url(#SVGID_1_)" points="341.75,9.25 355.25,255 354.186,389.75 385,433.75 442,629.75 437.75,468.75 456.5,383.794 
	410.944,296.194 "/>
<linearGradient id="SVGID_2_" gradientUnits="userSpaceOnUse" x1="221.1807" y1="39.6807" x2="384.2108" y2="648.1177">
	<stop  offset="0" style="stop-color:#A16D55"/>
	<stop  offset="0.0755" style="stop-color:#955C43"/>
	<stop  offset="0.18" style="stop-color:#8A4C32"/>
	<stop  offset="0.3102" style="stop-color:#824127"/>
	<stop  offset="0.4929" style="stop-color:#7D3B20"/>
	<stop  offset="1" style="stop-color:#7C391E"/>
</linearGradient>
<path fill="url(#SVGID_2_)" d="M579.433,367.141c-0.007-0.14-0.01-0.28-0.019-0.419c-0.027-0.473-0.207-0.946-0.262-1.421
	c-0.004-0.044-0.152-0.089-0.152-0.134c0-0.002,0-0.003,0-0.005c0-0.514-0.002-1.021-0.09-1.525
	c-0.021-0.13,0.019-0.259-0.007-0.389c-0.077-0.397-0.125-0.794-0.218-1.184c-0.029-0.121-0.043-0.239-0.074-0.358
	c-0.11-0.441-0.225-0.874-0.356-1.306c-0.018-0.058-0.031-0.116-0.048-0.174c-0.736-2.332-1.771-4.514-3.064-6.505L367.411,20.367
	c-0.604-0.983-1.269-1.919-1.987-2.809c-0.053-0.065-0.105-0.129-0.158-0.195c-0.289-0.349-0.585-0.69-0.89-1.023
	c-0.06-0.066-0.118-0.134-0.181-0.2c-0.356-0.383-0.721-0.757-1.1-1.119c-0.022-0.021-0.046-0.042-0.069-0.064
	c-0.338-0.321-0.686-0.63-1.04-0.933c-0.128-0.109-0.258-0.215-0.388-0.322c-0.262-0.215-0.526-0.426-0.799-0.632
	c-0.142-0.109-0.285-0.218-0.43-0.325c-0.308-0.225-0.621-0.441-0.938-0.653c-0.098-0.066-0.195-0.135-0.295-0.2
	c-0.416-0.27-0.841-0.527-1.272-0.774c-0.108-0.062-0.218-0.12-0.327-0.18c-0.343-0.19-0.688-0.374-1.04-0.548
	c-0.124-0.062-0.248-0.122-0.373-0.182c-0.382-0.183-0.769-0.357-1.158-0.523c-0.076-0.032-0.148-0.064-0.223-0.096
	c-0.988-0.407-2.005-0.755-3.042-1.043c-0.029-0.008-0.058-0.016-0.087-0.023c-0.499-0.137-1.002-0.259-1.511-0.367
	c-0.032-0.007-0.064-0.014-0.097-0.021c-1.592-0.332-3.228-0.521-4.892-0.555c-0.03,0-0.06-0.004-0.089-0.004
	c-0.045-0.001-0.088,0.002-0.133,0.002c-0.446-0.006-0.896,0-1.348,0.017c-0.118,0.005-0.237,0.008-0.355,0.014
	c-0.433,0.021-0.868,0.055-1.302,0.099c-0.099,0.009-0.195,0.016-0.294,0.026c-0.486,0.055-0.973,0.12-1.46,0.2
	c-0.026,0.004-0.051,0.01-0.076,0.015c-0.116,0.019-0.229,0.044-0.342,0.065c-0.407,0.075-0.812,0.155-1.21,0.247
	c-0.131,0.03-0.262,0.063-0.392,0.095c-0.407,0.101-0.812,0.209-1.213,0.328c-0.088,0.025-0.176,0.051-0.264,0.078
	c-3.74,1.145-7.085,3.062-9.888,5.542c-0.041,0.037-0.081,0.074-0.122,0.111c-0.344,0.308-0.679,0.625-1.006,0.949
	c-0.072,0.072-0.146,0.145-0.219,0.217c-0.342,0.348-0.676,0.703-0.997,1.068c-0.024,0.027-0.05,0.051-0.072,0.079
	c-0.34,0.387-0.666,0.786-0.982,1.192c-0.083,0.107-0.163,0.218-0.245,0.327c-0.232,0.307-0.458,0.618-0.676,0.935
	c-0.05,0.071-0.104,0.138-0.151,0.209L58.707,409.523c-0.047,0.07-0.089,0.143-0.135,0.213c-0.166,0.249-0.326,0.503-0.483,0.758
	c-0.081,0.131-0.163,0.263-0.241,0.396c-0.173,0.291-0.339,0.588-0.5,0.886c-0.053,0.098-0.108,0.194-0.161,0.294
	c-0.199,0.38-0.391,0.765-0.573,1.156c-0.008,0.017-0.017,0.035-0.025,0.051c-1.174,2.529-1.958,5.258-2.294,8.104
	c-0.004,0.038-0.008,0.074-0.012,0.112c-0.047,0.407-0.084,0.817-0.113,1.229c-0.006,0.093-0.01,0.184-0.016,0.276
	c-0.02,0.352-0.034,0.703-0.04,1.058c-0.003,0.146-0.003,0.291-0.003,0.436c0,0.3,0.003,0.6,0.013,0.9
	c0.006,0.19,0.015,0.38,0.024,0.571c0.014,0.258,0.031,0.518,0.053,0.777c0.018,0.22,0.038,0.438,0.062,0.657
	c0.012,0.112,0.018,0.225,0.032,0.336c0.008,0.07,0.025,0.137,0.034,0.206c0.092,0.724,0.21,1.448,0.362,2.168
	c0.03,0.141,0.065,0.28,0.097,0.42c0.06,0.263,0.115,0.526,0.183,0.788c0.096,0.367,0.205,0.729,0.315,1.092
	c0.05,0.167,0.102,0.332,0.156,0.497c0.188,0.572,0.396,1.135,0.621,1.689c0.086,0.214,0.169,0.428,0.261,0.639
	c0.244,0.563,0.508,1.116,0.789,1.66c0.115,0.218,0.231,0.433,0.351,0.648c0.299,0.542,0.61,1.076,0.946,1.594
	c0.103,0.16,0.213,0.312,0.32,0.469c0.306,0.451,0.625,0.893,0.958,1.325c0.106,0.137,0.208,0.278,0.316,0.413
	c0.411,0.513,0.844,1.006,1.29,1.488c0.119,0.127,0.239,0.253,0.359,0.377c0.468,0.485,0.951,0.954,1.455,1.403
	c0.09,0.079,0.183,0.154,0.273,0.233c0.491,0.427,0.999,0.837,1.522,1.227c0.07,0.053,0.137,0.108,0.208,0.159
	c0.548,0.401,1.118,0.777,1.699,1.139c0.146,0.09,0.293,0.181,0.442,0.27c0.523,0.311,1.056,0.611,1.602,0.888l0.219,0.109
	c0.034,0.019,0.068,0.036,0.103,0.054l358.045,180.85c0.123,0.062,0.251,0.114,0.376,0.176c0.205,0.102,0.413,0.198,0.622,0.292
	c0.469,0.213,0.94,0.41,1.418,0.597c0.187,0.073,0.37,0.149,0.56,0.217c0.562,0.205,1.133,0.385,1.707,0.55
	c0.263,0.076,0.528,0.146,0.794,0.213c0.436,0.11,0.874,0.208,1.314,0.298c0.284,0.058,0.569,0.116,0.856,0.165
	c0.549,0.092,1.1,0.165,1.653,0.223c0.266,0.027,0.529,0.05,0.796,0.07c0.55,0.042,1.101,0.067,1.652,0.075
	c0.109,0.001,0.215,0.014,0.324,0.014c1.009,0,2.028-0.109,3.053-0.227c0.454-0.051,0.91-0.2,1.365-0.2c0.004,0,0.007,0,0.011,0
	c0.661,0,1.311-0.222,1.951-0.376c0.11-0.027,0.222-0.038,0.333-0.067c0.664-0.168,1.319-0.353,1.96-0.57
	c0.01-0.003,0.021-0.003,0.031-0.006c0.044-0.015,0.086-0.03,0.131-0.046c0.38-0.131,0.755-0.269,1.125-0.414
	c0.014-0.007,0.027-0.012,0.041-0.018c1.667-0.664,3.242-1.487,4.711-2.448c0.005-0.003,0.01-0.004,0.014-0.008
	c0.359-0.235,0.712-0.479,1.058-0.729c0.032-0.022,0.062-0.047,0.092-0.07c0.316-0.229,0.627-0.466,0.932-0.71
	c0.061-0.049,0.123-0.102,0.186-0.153c0.268-0.219,0.533-0.442,0.794-0.67c0.09-0.08,0.178-0.162,0.267-0.242
	c0.228-0.206,0.451-0.413,0.67-0.626c0.113-0.108,0.224-0.222,0.333-0.332c0.189-0.189,0.378-0.382,0.561-0.578
	c0.129-0.137,0.254-0.275,0.38-0.414c0.161-0.18,0.32-0.359,0.476-0.542c0.134-0.158,0.266-0.318,0.396-0.479
	c0.143-0.175,0.282-0.35,0.418-0.528c0.133-0.171,0.262-0.344,0.391-0.518c0.131-0.18,0.259-0.357,0.385-0.539
	c0.123-0.176,0.244-0.354,0.362-0.534c0.127-0.19,0.251-0.382,0.371-0.577c0.107-0.172,0.215-0.344,0.318-0.52
	c0.127-0.217,0.253-0.435,0.375-0.652c0.087-0.155,0.175-0.312,0.256-0.471c0.136-0.252,0.265-0.51,0.392-0.768
	c0.043-0.084,0.089-0.167,0.129-0.253l113.29-237.229c0.018-0.035,0.029-0.069,0.045-0.104c0.7-1.479,1.268-3.027,1.689-4.629
	c0.009-0.032,0.018-0.066,0.026-0.101c0.408-1.567,0.675-3.182,0.791-4.833c0.005-0.072,0.007-0.145,0.013-0.218
	c0.027-0.437,0.044-0.877,0.049-1.318c0.002-0.129,0.003-0.258,0.003-0.388C579.462,367.932,579.452,367.536,579.433,367.141z
	 M425.204,356.484L393.12,163.172l114.354,183.506 M329.07,105.277l42.749,257.569l-235.746,28.099L329.07,105.277z
	 M404.162,557.724l-231.694-117.03l208.145-24.808 M451.85,516.954l-17.876-107.655l73.391-8.594L451.85,516.954z"/>
<g>
	<defs>
		<path id="SVGID_3_" d="M579.433,367.141c-0.007-0.14-0.01-0.28-0.019-0.419c-0.027-0.473-0.207-0.946-0.262-1.421
			c-0.004-0.044-0.152-0.089-0.152-0.134c0-0.002,0-0.003,0-0.005c0-0.514-0.002-1.021-0.09-1.525
			c-0.021-0.13,0.019-0.259-0.007-0.389c-0.077-0.397-0.125-0.794-0.218-1.184c-0.029-0.121-0.043-0.239-0.074-0.358
			c-0.11-0.441-0.225-0.874-0.356-1.306c-0.018-0.058-0.031-0.116-0.048-0.174c-0.736-2.332-1.771-4.514-3.064-6.505L367.411,20.367
			c-0.604-0.983-1.269-1.919-1.987-2.809c-0.053-0.065-0.105-0.129-0.158-0.195c-0.289-0.349-0.585-0.69-0.89-1.023
			c-0.06-0.066-0.118-0.134-0.181-0.2c-0.356-0.383-0.721-0.757-1.1-1.119c-0.022-0.021-0.046-0.042-0.069-0.064
			c-0.338-0.321-0.686-0.63-1.04-0.933c-0.128-0.109-0.258-0.215-0.388-0.322c-0.262-0.215-0.526-0.426-0.799-0.632
			c-0.142-0.109-0.285-0.218-0.43-0.325c-0.308-0.225-0.621-0.441-0.938-0.653c-0.098-0.066-0.195-0.135-0.295-0.2
			c-0.416-0.27-0.841-0.527-1.272-0.774c-0.108-0.062-0.218-0.12-0.327-0.18c-0.343-0.19-0.688-0.374-1.04-0.548
			c-0.124-0.062-0.248-0.122-0.373-0.182c-0.382-0.183-0.769-0.357-1.158-0.523c-0.076-0.032-0.148-0.064-0.223-0.096
			c-0.988-0.407-2.005-0.755-3.042-1.043c-0.029-0.008-0.058-0.016-0.087-0.023c-0.499-0.137-1.002-0.259-1.511-0.367
			c-0.032-0.007-0.064-0.014-0.097-0.021c-1.592-0.332-3.228-0.521-4.892-0.555c-0.03,0-0.06-0.004-0.089-0.004
			c-0.045-0.001-0.088,0.002-0.133,0.002c-0.446-0.006-0.896,0-1.348,0.017c-0.118,0.005-0.237,0.008-0.355,0.014
			c-0.433,0.021-0.868,0.055-1.302,0.099c-0.099,0.009-0.195,0.016-0.294,0.026c-0.486,0.055-0.973,0.12-1.46,0.2
			c-0.026,0.004-0.051,0.01-0.076,0.015c-0.116,0.019-0.229,0.044-0.342,0.065c-0.407,0.075-0.812,0.155-1.21,0.247
			c-0.131,0.03-0.262,0.063-0.392,0.095c-0.407,0.101-0.812,0.209-1.213,0.328c-0.088,0.025-0.176,0.051-0.264,0.078
			c-3.74,1.145-7.085,3.062-9.888,5.542c-0.041,0.037-0.081,0.074-0.122,0.111c-0.344,0.308-0.679,0.625-1.006,0.949
			c-0.072,0.072-0.146,0.145-0.219,0.217c-0.342,0.348-0.676,0.703-0.997,1.068c-0.024,0.027-0.05,0.051-0.072,0.079
			c-0.34,0.387-0.666,0.786-0.982,1.192c-0.083,0.107-0.163,0.218-0.245,0.327c-0.232,0.307-0.458,0.618-0.676,0.935
			c-0.05,0.071-0.104,0.138-0.151,0.209L58.707,409.523c-0.047,0.07-0.089,0.143-0.135,0.213c-0.166,0.249-0.326,0.503-0.483,0.758
			c-0.081,0.131-0.163,0.263-0.241,0.396c-0.173,0.291-0.339,0.588-0.5,0.886c-0.053,0.098-0.108,0.194-0.161,0.294
			c-0.199,0.38-0.391,0.765-0.573,1.156c-0.008,0.017-0.017,0.035-0.025,0.051c-1.174,2.529-1.958,5.258-2.294,8.104
			c-0.004,0.038-0.008,0.074-0.012,0.112c-0.047,0.407-0.084,0.817-0.113,1.229c-0.006,0.093-0.01,0.184-0.016,0.276
			c-0.02,0.352-0.034,0.703-0.04,1.058c-0.003,0.146-0.003,0.291-0.003,0.436c0,0.3,0.003,0.6,0.013,0.9
			c0.006,0.19,0.015,0.38,0.024,0.571c0.014,0.258,0.031,0.518,0.053,0.777c0.018,0.22,0.038,0.438,0.062,0.657
			c0.012,0.112,0.018,0.225,0.032,0.336c0.008,0.07,0.025,0.137,0.034,0.206c0.092,0.724,0.21,1.448,0.362,2.168
			c0.03,0.141,0.065,0.28,0.097,0.42c0.06,0.263,0.115,0.526,0.183,0.788c0.096,0.367,0.205,0.729,0.315,1.092
			c0.05,0.167,0.102,0.332,0.156,0.497c0.188,0.572,0.396,1.135,0.621,1.689c0.086,0.214,0.169,0.428,0.261,0.639
			c0.244,0.563,0.508,1.116,0.789,1.66c0.115,0.218,0.231,0.433,0.351,0.648c0.299,0.542,0.61,1.076,0.946,1.594
			c0.103,0.16,0.213,0.312,0.32,0.469c0.306,0.451,0.625,0.893,0.958,1.325c0.106,0.137,0.208,0.278,0.316,0.413
			c0.411,0.513,0.844,1.006,1.29,1.488c0.119,0.127,0.239,0.253,0.359,0.377c0.468,0.485,0.951,0.954,1.455,1.403
			c0.09,0.079,0.183,0.154,0.273,0.233c0.491,0.427,0.999,0.837,1.522,1.227c0.07,0.053,0.137,0.108,0.208,0.159
			c0.548,0.401,1.118,0.777,1.699,1.139c0.146,0.09,0.293,0.181,0.442,0.27c0.523,0.311,1.056,0.611,1.602,0.888l0.219,0.109
			c0.034,0.019,0.068,0.036,0.103,0.054l358.045,180.85c0.123,0.062,0.251,0.114,0.376,0.176c0.205,0.102,0.413,0.198,0.622,0.292
			c0.469,0.213,0.94,0.41,1.418,0.597c0.187,0.073,0.37,0.149,0.56,0.217c0.562,0.205,1.133,0.385,1.707,0.55
			c0.263,0.076,0.528,0.146,0.794,0.213c0.436,0.11,0.874,0.208,1.314,0.298c0.284,0.058,0.569,0.116,0.856,0.165
			c0.549,0.092,1.1,0.165,1.653,0.223c0.266,0.027,0.529,0.05,0.796,0.07c0.55,0.042,1.101,0.067,1.652,0.075
			c0.109,0.001,0.215,0.014,0.324,0.014c1.009,0,2.028-0.109,3.053-0.227c0.454-0.051,0.91-0.2,1.365-0.2c0.004,0,0.007,0,0.011,0
			c0.661,0,1.311-0.222,1.951-0.376c0.11-0.027,0.222-0.038,0.333-0.067c0.664-0.168,1.319-0.353,1.96-0.57
			c0.01-0.003,0.021-0.003,0.031-0.006c0.044-0.015,0.086-0.03,0.131-0.046c0.38-0.131,0.755-0.269,1.125-0.414
			c0.014-0.007,0.027-0.012,0.041-0.018c1.667-0.664,3.242-1.487,4.711-2.448c0.005-0.003,0.01-0.004,0.014-0.008
			c0.359-0.235,0.712-0.479,1.058-0.729c0.032-0.022,0.062-0.047,0.092-0.07c0.316-0.229,0.627-0.466,0.932-0.71
			c0.061-0.049,0.123-0.102,0.186-0.153c0.268-0.219,0.533-0.442,0.794-0.67c0.09-0.08,0.178-0.162,0.267-0.242
			c0.228-0.206,0.451-0.413,0.67-0.626c0.113-0.108,0.224-0.222,0.333-0.332c0.189-0.189,0.378-0.382,0.561-0.578
			c0.129-0.137,0.254-0.275,0.38-0.414c0.161-0.18,0.32-0.359,0.476-0.542c0.134-0.158,0.266-0.318,0.396-0.479
			c0.143-0.175,0.282-0.35,0.418-0.528c0.133-0.171,0.262-0.344,0.391-0.518c0.131-0.18,0.259-0.357,0.385-0.539
			c0.123-0.176,0.244-0.354,0.362-0.534c0.127-0.19,0.251-0.382,0.371-0.577c0.107-0.172,0.215-0.344,0.318-0.52
			c0.127-0.217,0.253-0.435,0.375-0.652c0.087-0.155,0.175-0.312,0.256-0.471c0.136-0.252,0.265-0.51,0.392-0.768
			c0.043-0.084,0.089-0.167,0.129-0.253l113.29-237.229c0.018-0.035,0.029-0.069,0.045-0.104c0.7-1.479,1.268-3.027,1.689-4.629
			c0.009-0.032,0.018-0.066,0.026-0.101c0.408-1.567,0.675-3.182,0.791-4.833c0.005-0.072,0.007-0.145,0.013-0.218
			c0.027-0.437,0.044-0.877,0.049-1.318c0.002-0.129,0.003-0.258,0.003-0.388C579.462,367.932,579.452,367.536,579.433,367.141z
			 M425.204,356.484L393.12,163.172l114.354,183.506 M329.07,105.277l42.749,257.569l-235.746,28.099L329.07,105.277z
			 M404.162,557.724l-231.694-117.03l208.145-24.808 M451.85,516.954l-17.876-107.655l73.391-8.594L451.85,516.954z"/>
	</defs>
	<clipPath id="SVGID_4_">
		<use xlink:href="#SVGID_3_"  overflow="visible"/>
	</clipPath>
	
		<linearGradient id="SVGID_5_" gradientUnits="userSpaceOnUse" x1="266.8457" y1="487.0029" x2="267.2028" y2="520.6505" gradientTransform="matrix(0.8938 0.4484 -0.6178 1.2315 315.6187 -240.8809)">
		<stop  offset="0" style="stop-color:#FFFFFF;stop-opacity:0"/>
		<stop  offset="0.5206" style="stop-color:#FFFFFF;stop-opacity:0.2"/>
		<stop  offset="1" style="stop-color:#FFFFFF;stop-opacity:0"/>
	</linearGradient>
	<path clip-path="url(#SVGID_4_)" fill="url(#SVGID_5_)" d="M412.336,606.927L63.845,437.737c-5.888-3.221-7.696-10.36-7.696-10.36
		c3.893,10.854,37.997,4.14,63.325-13.546l284.567,143.931L412.336,606.927z"/>
	
		<linearGradient id="SVGID_6_" gradientUnits="userSpaceOnUse" x1="623.1641" y1="291.9014" x2="623.1641" y2="340.2466" gradientTransform="matrix(0.3478 2.0969 -1.0961 0.1818 521.5308 -1045.041)">
		<stop  offset="0" style="stop-color:#FFFFFF;stop-opacity:0"/>
		<stop  offset="0.4779" style="stop-color:#FFFFFF;stop-opacity:0.3"/>
		<stop  offset="1" style="stop-color:#FFFFFF;stop-opacity:0"/>
	</linearGradient>
	<path clip-path="url(#SVGID_4_)" fill="url(#SVGID_6_)" d="M411.201,600.091L312.01,2.11l52.982-8.789l97.015,584.845
		C475.5,659,421.25,656.25,411.201,600.091z"/>
	
		<linearGradient id="SVGID_7_" gradientUnits="userSpaceOnUse" x1="536.9258" y1="226.4653" x2="536.9258" y2="274.9624" gradientTransform="matrix(0.5323 0.8613 -0.9444 0.5836 390.3965 -422.0791)">
		<stop  offset="0" style="stop-color:#FFFFFF;stop-opacity:0"/>
		<stop  offset="0.5962" style="stop-color:#FFFFFF;stop-opacity:0.2"/>
		<stop  offset="1" style="stop-color:#FFFFFF;stop-opacity:0"/>
	</linearGradient>
	<path clip-path="url(#SVGID_4_)" fill="url(#SVGID_7_)" d="M521.889,370.592L393.12,162.967L375.613,57.344
		c-7.126-42.958-30.521-72.536-30.521-72.536l230.265,370.621C581.761,365.986,546.852,380.451,521.889,370.592z"/>
	
		<linearGradient id="SVGID_8_" gradientUnits="userSpaceOnUse" x1="569.5918" y1="237.1816" x2="569.5918" y2="290.8926" gradientTransform="matrix(-0.575 0.8359 0.9226 0.6264 298.7061 -419.0918)">
		<stop  offset="0" style="stop-color:#FFFFFF;stop-opacity:0"/>
		<stop  offset="0.5962" style="stop-color:#FFFFFF;stop-opacity:0.2"/>
		<stop  offset="1" style="stop-color:#FFFFFF;stop-opacity:0"/>
	</linearGradient>
	<path clip-path="url(#SVGID_4_)" fill="url(#SVGID_8_)" d="M119.474,413.831L329.07,105.072l-8.634-52.153
		c-7.503-45.232,19.285-59.598,19.285-59.598L61.25,404.621c0,0-7.14,8.231-5.853,20.02
		C57.253,441.634,98.755,428.786,119.474,413.831z"/>
	
		<linearGradient id="SVGID_9_" gradientUnits="userSpaceOnUse" x1="302.0073" y1="366.043" x2="302.0073" y2="414.3906" gradientTransform="matrix(0.8371 -0.1013 0.0841 0.695 -46.0205 156.8477)">
		<stop  offset="0" style="stop-color:#FFFFFF;stop-opacity:0"/>
		<stop  offset="0.3609" style="stop-color:#FFFFFF;stop-opacity:0.1"/>
		<stop  offset="1" style="stop-color:#FFFFFF;stop-opacity:0"/>
	</linearGradient>
	<polygon clip-path="url(#SVGID_4_)" fill="url(#SVGID_9_)" points="361.993,399.693 143.725,426.097 119.474,413.831 
		133.44,393.258 357.929,366.102 	"/>
	
		<linearGradient id="SVGID_10_" gradientUnits="userSpaceOnUse" x1="577.1914" y1="365.6016" x2="577.1914" y2="416.1748" gradientTransform="matrix(0.2634 -0.0319 0.0841 0.695 289.7456 116.2222)">
		<stop  offset="0" style="stop-color:#FFFFFF;stop-opacity:0"/>
		<stop  offset="0.3609" style="stop-color:#FFFFFF;stop-opacity:0.1"/>
		<stop  offset="1" style="stop-color:#FFFFFF;stop-opacity:0"/>
	</linearGradient>
	<polygon clip-path="url(#SVGID_4_)" fill="url(#SVGID_10_)" points="516.294,382.266 438.148,390.152 426.103,357.525 
		508.361,347.689 521.889,370.592 	"/>
	
		<linearGradient id="SVGID_11_" gradientUnits="userSpaceOnUse" x1="337.7266" y1="464.1934" x2="337.7266" y2="495.7939" gradientTransform="matrix(-0.4323 0.9017 1.2424 0.5957 50.1382 -124.8613)">
		<stop  offset="0" style="stop-color:#FFFFFF;stop-opacity:0"/>
		<stop  offset="0.5206" style="stop-color:#FFFFFF;stop-opacity:0.2"/>
		<stop  offset="0.9096" style="stop-color:#FFFFFF;stop-opacity:0"/>
	</linearGradient>
	<path clip-path="url(#SVGID_4_)" fill="url(#SVGID_11_)" d="M463.213,585.438l110.582-222.398
		c-10.786,10.84-37.64,13.965-51.906,7.553L451.85,516.749L463.213,585.438z"/>
</g>
<g>
	<linearGradient id="SVGID_12_" gradientUnits="userSpaceOnUse" x1="264.8218" y1="215.333" x2="316.6118" y2="305.036">
		<stop  offset="0.5" style="stop-color:#006D4F"/>
		<stop  offset="1" style="stop-color:#004A33"/>
	</linearGradient>
	<polygon fill="url(#SVGID_12_)" points="220.492,248.689 231.333,234.667 354.972,261.337 358.27,280.984 287.75,270.25 	"/>
	<linearGradient id="SVGID_13_" gradientUnits="userSpaceOnUse" x1="457.8828" y1="307.6504" x2="457.8828" y2="459.938">
		<stop  offset="0.0011" style="stop-color:#00573F"/>
		<stop  offset="1" style="stop-color:#002E20"/>
	</linearGradient>
	<polygon fill="url(#SVGID_13_)" points="417.1,307.65 424.25,350.551 452.5,407 491.176,459.938 498.667,442.666 	"/>
	<linearGradient id="SVGID_14_" gradientUnits="userSpaceOnUse" x1="270.438" y1="219.8535" x2="429.5815" y2="495.4983">
		<stop  offset="0.0169" style="stop-color:#52835F"/>
		<stop  offset="0.5" style="stop-color:#006D4F"/>
		<stop  offset="1" style="stop-color:#004A33"/>
	</linearGradient>
	<path fill="url(#SVGID_14_)" d="M383.348,432.173l-68.582-25.265c-6.056-9.063-19.8-21.087-29.408-24.921l-68.164-112.109
		c5.804-6.51,3.297-21.189,3.297-21.189l137.778,32.295L383.348,432.173z M424.25,350.551l17.223,103.825l34.103,12.722
		c4.858-7.16,15.601-7.16,15.601-7.16L424.25,350.551z"/>
</g>
</svg>
