<?xml version="1.0" encoding="utf-8"?>
<!-- Generator: Adobe Illustrator 16.0.4, SVG Export Plug-In . SVG Version: 6.00 Build 0)  -->
<!DOCTYPE svg PUBLIC "-//W3C//DTD SVG 1.1//EN" "http://www.w3.org/Graphics/SVG/1.1/DTD/svg11.dtd">
<svg version="1.1" id="Layer_1" xmlns="http://www.w3.org/2000/svg" xmlns:xlink="http://www.w3.org/1999/xlink" x="0px" y="0px"
	 width="640px" height="640px" viewBox="0 0 640 640" enable-background="new 0 0 640 640" xml:space="preserve">
<filter  id="AI_GaussianBlur_4">
	<feGaussianBlur  stdDeviation="4"></feGaussianBlur>
</filter>
<path filter="url(#AI_GaussianBlur_4)" d="M579.143,358.758L371.411,25.403c-10.536-16.242-33.536-17.492-45.131-0.977
	L62.707,414.56c-9.832,15.227-3.082,31.977,10.466,39.165l358.045,180.85c15.282,7.087,30.157-0.038,36.338-12.396l113.29-237.229
	c0.018-0.035,0.03-0.069,0.045-0.104C584.875,375.661,584.5,367.786,579.143,358.758z M429.204,361.521L397.12,168.208
	l114.354,183.506 M333.07,110.313l42.749,257.569l-235.746,28.099L333.07,110.313z M408.162,562.76l-231.694-117.03l208.145-24.808
	 M455.85,521.99l-17.876-107.655l73.391-8.594L455.85,521.99z"/>
<linearGradient id="SVGID_1_" gradientUnits="userSpaceOnUse" x1="306.7026" y1="18.6411" x2="468.5431" y2="622.6381">
	<stop  offset="0" style="stop-color:#A16D55"/>
	<stop  offset="0.0755" style="stop-color:#955C43"/>
	<stop  offset="0.18" style="stop-color:#8A4C32"/>
	<stop  offset="0.3102" style="stop-color:#824127"/>
	<stop  offset="0.4929" style="stop-color:#7D3B20"/>
	<stop  offset="1" style="stop-color:#7C391E"/>
</linearGradient>
<polygon fill="url(#SVGID_1_)" points="341.75,9.25 355.25,255 354.186,389.75 385,433.75 442,629.75 437.75,468.75 456.5,383.794 
	410.944,296.194 "/>
<linearGradient id="SVGID_2_" gradientUnits="userSpaceOnUse" x1="221.1846" y1="39.6592" x2="384.2107" y2="648.0812">
	<stop  offset="0" style="stop-color:#A16D55"/>
	<stop  offset="0.0755" style="stop-color:#955C43"/>
	<stop  offset="0.18" style="stop-color:#8A4C32"/>
	<stop  offset="0.3102" style="stop-color:#824127"/>
	<stop  offset="0.4929" style="stop-color:#7D3B20"/>
	<stop  offset="1" style="stop-color:#7C391E"/>
</linearGradient>
<path fill="url(#SVGID_2_)" d="M575.143,353.722L367.411,20.367C356.875,4.125,333.875,2.875,322.28,19.39L58.707,409.523
	c-9.832,15.227-3.082,31.977,10.466,39.165l358.045,180.85c15.282,7.087,30.157-0.038,36.338-12.396l113.29-237.229
	c0.018-0.035,0.03-0.069,0.045-0.104C580.875,370.625,580.5,362.75,575.143,353.722z M425.204,356.484L393.12,163.172
	l114.354,183.506 M329.07,105.277l42.749,257.569l-235.746,28.099L329.07,105.277z M404.162,557.724l-231.694-117.03l208.145-24.808
	 M451.85,516.954l-17.876-107.655l73.391-8.594L451.85,516.954z"/>
<g>
	<defs>
		<path id="SVGID_3_" d="M575.143,353.758L367.411,20.403c-10.536-16.242-33.536-17.492-45.131-0.977L58.707,409.56
			c-9.832,15.227-3.082,31.977,10.466,39.165l358.045,180.85c15.282,7.087,30.157-0.038,36.338-12.396l113.29-237.229
			c0.018-0.035,0.03-0.069,0.045-0.104C580.875,370.661,580.5,362.786,575.143,353.758z M425.204,356.521L393.12,163.208
			l114.354,183.506 M329.07,105.313l42.749,257.569l-235.746,28.099L329.07,105.313z M404.162,557.76l-231.694-117.03
			l208.145-24.808 M451.85,516.99l-17.876-107.655l73.391-8.594L451.85,516.99z"/>
	</defs>
	<clipPath id="SVGID_4_">
		<use xlink:href="#SVGID_3_"  overflow="visible"/>
	</clipPath>
	
		<linearGradient id="SVGID_5_" gradientUnits="userSpaceOnUse" x1="266.8457" y1="487.0029" x2="267.2028" y2="520.6505" gradientTransform="matrix(0.8938 0.4484 -0.6178 1.2315 315.6187 -240.8809)">
		<stop  offset="0" style="stop-color:#FFFFFF;stop-opacity:0"/>
		<stop  offset="0.5206" style="stop-color:#FFFFFF;stop-opacity:0.2"/>
		<stop  offset="1" style="stop-color:#FFFFFF;stop-opacity:0"/>
	</linearGradient>
	<path clip-path="url(#SVGID_4_)" fill="url(#SVGID_5_)" d="M412.336,606.927L63.845,437.737c-5.888-3.221-7.696-10.36-7.696-10.36
		c3.893,10.854,37.997,4.14,63.325-13.546l284.567,143.931L412.336,606.927z"/>
	
		<linearGradient id="SVGID_6_" gradientUnits="userSpaceOnUse" x1="623.1641" y1="291.9014" x2="623.1641" y2="340.2466" gradientTransform="matrix(0.3478 2.0969 -1.0961 0.1818 521.5308 -1045.041)">
		<stop  offset="0" style="stop-color:#FFFFFF;stop-opacity:0"/>
		<stop  offset="0.4779" style="stop-color:#FFFFFF;stop-opacity:0.3"/>
		<stop  offset="1" style="stop-color:#FFFFFF;stop-opacity:0"/>
	</linearGradient>
	<path clip-path="url(#SVGID_4_)" fill="url(#SVGID_6_)" d="M411.201,600.091L312.01,2.11l52.982-8.789l97.015,584.845
		C475.5,659,421.25,656.25,411.201,600.091z"/>
	
		<linearGradient id="SVGID_7_" gradientUnits="userSpaceOnUse" x1="536.9258" y1="226.4653" x2="536.9258" y2="274.9624" gradientTransform="matrix(0.5323 0.8613 -0.9444 0.5836 390.3965 -422.0791)">
		<stop  offset="0" style="stop-color:#FFFFFF;stop-opacity:0"/>
		<stop  offset="0.5962" style="stop-color:#FFFFFF;stop-opacity:0.2"/>
		<stop  offset="1" style="stop-color:#FFFFFF;stop-opacity:0"/>
	</linearGradient>
	<path clip-path="url(#SVGID_4_)" fill="url(#SVGID_7_)" d="M521.889,370.592L393.12,162.967L375.613,57.344
		c-7.126-42.958-30.521-72.536-30.521-72.536l230.265,370.621C581.761,365.986,546.852,380.451,521.889,370.592z"/>
	
		<linearGradient id="SVGID_8_" gradientUnits="userSpaceOnUse" x1="569.5918" y1="237.1816" x2="569.5918" y2="290.8926" gradientTransform="matrix(-0.575 0.8359 0.9226 0.6264 298.7061 -419.0918)">
		<stop  offset="0" style="stop-color:#FFFFFF;stop-opacity:0"/>
		<stop  offset="0.5962" style="stop-color:#FFFFFF;stop-opacity:0.2"/>
		<stop  offset="1" style="stop-color:#FFFFFF;stop-opacity:0"/>
	</linearGradient>
	<path clip-path="url(#SVGID_4_)" fill="url(#SVGID_8_)" d="M119.474,413.831L329.07,105.072l-8.634-52.153
		c-7.503-45.232,19.285-59.598,19.285-59.598L61.25,404.621c0,0-7.14,8.231-5.853,20.02
		C57.253,441.634,98.755,428.786,119.474,413.831z"/>
	
		<linearGradient id="SVGID_9_" gradientUnits="userSpaceOnUse" x1="302.0073" y1="366.043" x2="302.0073" y2="414.3906" gradientTransform="matrix(0.8371 -0.1013 0.0841 0.695 -46.0205 156.8477)">
		<stop  offset="0" style="stop-color:#FFFFFF;stop-opacity:0"/>
		<stop  offset="0.3609" style="stop-color:#FFFFFF;stop-opacity:0.1"/>
		<stop  offset="1" style="stop-color:#FFFFFF;stop-opacity:0"/>
	</linearGradient>
	<polygon clip-path="url(#SVGID_4_)" fill="url(#SVGID_9_)" points="361.993,399.693 143.725,426.097 119.474,413.831 
		133.44,393.258 357.929,366.102 	"/>
	
		<linearGradient id="SVGID_10_" gradientUnits="userSpaceOnUse" x1="577.1914" y1="365.6016" x2="577.1914" y2="416.1748" gradientTransform="matrix(0.2634 -0.0319 0.0841 0.695 289.7456 116.2222)">
		<stop  offset="0" style="stop-color:#FFFFFF;stop-opacity:0"/>
		<stop  offset="0.3609" style="stop-color:#FFFFFF;stop-opacity:0.1"/>
		<stop  offset="1" style="stop-color:#FFFFFF;stop-opacity:0"/>
	</linearGradient>
	<polygon clip-path="url(#SVGID_4_)" fill="url(#SVGID_10_)" points="516.294,382.266 438.148,390.152 426.103,357.525 
		508.361,347.689 521.889,370.592 	"/>
	
		<linearGradient id="SVGID_11_" gradientUnits="userSpaceOnUse" x1="337.7266" y1="464.1934" x2="337.7266" y2="495.7939" gradientTransform="matrix(-0.4323 0.9017 1.2424 0.5957 50.1382 -124.8613)">
		<stop  offset="0" style="stop-color:#FFFFFF;stop-opacity:0"/>
		<stop  offset="0.5206" style="stop-color:#FFFFFF;stop-opacity:0.2"/>
		<stop  offset="0.9096" style="stop-color:#FFFFFF;stop-opacity:0"/>
	</linearGradient>
	<path clip-path="url(#SVGID_4_)" fill="url(#SVGID_11_)" d="M463.213,585.438l110.582-222.398
		c-10.786,10.84-37.64,13.965-51.906,7.553L451.85,516.749L463.213,585.438z"/>
</g>
<g>
	<linearGradient id="SVGID_12_" gradientUnits="userSpaceOnUse" x1="264.8218" y1="215.333" x2="316.6118" y2="305.036">
		<stop  offset="0.5" style="stop-color:#006D4F"/>
		<stop  offset="1" style="stop-color:#004A33"/>
	</linearGradient>
	<polygon fill="url(#SVGID_12_)" points="220.492,248.689 231.333,234.667 354.972,261.337 358.27,280.984 287.75,270.25 	"/>
	<linearGradient id="SVGID_13_" gradientUnits="userSpaceOnUse" x1="457.8828" y1="307.6504" x2="457.8828" y2="459.938">
		<stop  offset="0.0011" style="stop-color:#00573F"/>
		<stop  offset="1" style="stop-color:#002E20"/>
	</linearGradient>
	<polygon fill="url(#SVGID_13_)" points="417.1,307.65 424.25,350.551 452.5,407 491.176,459.938 498.667,442.666 	"/>
	<linearGradient id="SVGID_14_" gradientUnits="userSpaceOnUse" x1="270.438" y1="219.8535" x2="429.5815" y2="495.4983">
		<stop  offset="0.0169" style="stop-color:#52835F"/>
		<stop  offset="0.5" style="stop-color:#006D4F"/>
		<stop  offset="1" style="stop-color:#004A33"/>
	</linearGradient>
	<path fill="url(#SVGID_14_)" d="M383.348,432.173l-68.582-25.265c-6.056-9.063-19.8-21.087-29.408-24.921l-68.164-112.109
		c5.804-6.51,3.297-21.189,3.297-21.189l137.778,32.295L383.348,432.173z M424.25,350.551l17.223,103.825l34.103,12.722
		c4.858-7.16,15.601-7.16,15.601-7.16L424.25,350.551z"/>
</g>
</svg>
