<?xml version="1.0" encoding="utf-8"?>
<!-- Generator: Adobe Illustrator 16.0.4, SVG Export Plug-In . SVG Version: 6.00 Build 0)  -->
<!DOCTYPE svg PUBLIC "-//W3C//DTD SVG 1.1//EN" "http://www.w3.org/Graphics/SVG/1.1/DTD/svg11.dtd">
<svg version="1.1" id="Layer_1" xmlns="http://www.w3.org/2000/svg" xmlns:xlink="http://www.w3.org/1999/xlink" x="0px" y="0px"
	 width="592px" height="158px" viewBox="0 0 592 158" enable-background="new 0 0 592 158" xml:space="preserve">
<g>
	<g>
		<defs>
			<rect id="SVGID_1_" x="30.086" y="9.05" width="114.838" height="139.899"/>
		</defs>
		<clipPath id="SVGID_2_">
			<use xlink:href="#SVGID_1_"  overflow="visible"/>
		</clipPath>
		<g clip-path="url(#SVGID_2_)">
			<defs>
				<rect id="SVGID_3_" x="18.258" y="9.05" width="139.899" height="139.899"/>
			</defs>
			<clipPath id="SVGID_4_">
				<use xlink:href="#SVGID_3_"  overflow="visible"/>
			</clipPath>
			<g clip-path="url(#SVGID_4_)">
				<defs>
					<polygon id="SVGID_5_" points="92.962,11.072 95.913,64.791 95.68,94.246 102.416,103.864 114.876,146.709 113.947,111.516 
						118.045,92.944 108.087,73.795 					"/>
				</defs>
				<clipPath id="SVGID_6_">
					<use xlink:href="#SVGID_5_"  overflow="visible"/>
				</clipPath>
				
					<linearGradient id="SVGID_7_" gradientUnits="userSpaceOnUse" x1="0.8887" y1="-0.6001" x2="1.1071" y2="-0.6001" gradientTransform="matrix(161.8405 603.997 603.997 -161.8405 306.5 -621.25)">
					<stop  offset="0" style="stop-color:#A16D55"/>
					<stop  offset="0.0756" style="stop-color:#955C43"/>
					<stop  offset="0.1807" style="stop-color:#8A4C33"/>
					<stop  offset="0.3115" style="stop-color:#824127"/>
					<stop  offset="0.4947" style="stop-color:#7D3B20"/>
					<stop  offset="1" style="stop-color:#7C391E"/>
				</linearGradient>
				<polygon clip-path="url(#SVGID_6_)" fill="url(#SVGID_7_)" points="116.365,4.801 151.955,137.623 94.642,152.979 
					59.053,20.158 				"/>
			</g>
			<g clip-path="url(#SVGID_4_)">
				<defs>
					<path id="SVGID_8_" d="M55.958,105.382l45.499-5.422l5.148,31.004L55.958,105.382z M113.122,98.52l16.042-1.879l-12.135,25.412
						L113.122,98.52z M104.191,44.718l24.997,40.113l-17.983,2.144L104.191,44.718z M90.19,32.063l9.345,56.302l-51.533,6.143
						L90.19,32.063z M93.354,10.709c-0.026,0.001-0.052,0.002-0.078,0.003c-0.095,0.004-0.19,0.012-0.285,0.021
						c-0.021,0.002-0.042,0.003-0.064,0.005c-0.106,0.012-0.212,0.026-0.319,0.044c-0.006,0.001-0.011,0.002-0.017,0.003
						c-0.025,0.004-0.05,0.009-0.075,0.014c-0.089,0.016-0.178,0.034-0.265,0.054c-0.028,0.007-0.057,0.014-0.085,0.021
						c-0.089,0.022-0.178,0.046-0.265,0.072c-0.02,0.005-0.039,0.011-0.058,0.017c-0.818,0.25-1.549,0.669-2.162,1.211
						c-0.009,0.008-0.018,0.016-0.026,0.024c-0.075,0.067-0.148,0.136-0.22,0.208c-0.016,0.016-0.032,0.031-0.048,0.047
						c-0.075,0.076-0.148,0.154-0.218,0.233c-0.005,0.005-0.011,0.011-0.016,0.017c-0.074,0.085-0.146,0.172-0.215,0.261
						c-0.019,0.023-0.036,0.048-0.054,0.071c-0.051,0.067-0.1,0.135-0.148,0.205c-0.011,0.016-0.022,0.03-0.033,0.046l-57.615,85.28
						c-0.01,0.016-0.02,0.031-0.03,0.047c-0.036,0.055-0.071,0.109-0.105,0.166c-0.018,0.028-0.035,0.057-0.053,0.086
						c-0.038,0.063-0.074,0.129-0.109,0.193c-0.012,0.021-0.023,0.043-0.035,0.064c-0.043,0.083-0.085,0.167-0.125,0.253
						c-0.002,0.004-0.004,0.008-0.005,0.011c-0.257,0.553-0.428,1.149-0.502,1.771c-0.001,0.009-0.001,0.017-0.002,0.025
						c-0.01,0.088-0.019,0.178-0.025,0.269c-0.001,0.02-0.002,0.04-0.003,0.06c-0.004,0.077-0.007,0.154-0.009,0.231
						c0,0.032,0,0.063,0,0.096c0,0.065,0,0.131,0.003,0.196c0.001,0.042,0.003,0.083,0.005,0.125
						c0.003,0.057,0.007,0.113,0.012,0.17c0.004,0.048,0.008,0.096,0.013,0.144c0.003,0.024,0.004,0.05,0.007,0.073
						c0.002,0.016,0.006,0.03,0.007,0.045c0.021,0.159,0.046,0.317,0.079,0.475c0.007,0.03,0.015,0.061,0.021,0.092
						c0.013,0.058,0.025,0.115,0.04,0.172c0.021,0.08,0.044,0.16,0.069,0.239c0.011,0.036,0.022,0.072,0.034,0.108
						c0.041,0.125,0.086,0.248,0.136,0.369c0.019,0.047,0.037,0.094,0.057,0.14c0.053,0.123,0.111,0.244,0.172,0.363
						c0.025,0.047,0.051,0.094,0.077,0.142c0.065,0.118,0.133,0.235,0.207,0.348c0.022,0.035,0.047,0.068,0.07,0.103
						c0.067,0.1,0.137,0.195,0.209,0.29c0.023,0.03,0.045,0.061,0.069,0.091c0.09,0.111,0.185,0.22,0.282,0.325
						c0.026,0.027,0.052,0.055,0.078,0.082c0.103,0.106,0.208,0.209,0.318,0.307c0.019,0.018,0.04,0.034,0.06,0.051
						c0.107,0.094,0.218,0.184,0.333,0.269c0.015,0.012,0.03,0.023,0.045,0.034c0.12,0.088,0.245,0.171,0.372,0.249
						c0.032,0.021,0.064,0.04,0.097,0.06c0.114,0.067,0.231,0.134,0.35,0.193l0.048,0.024c0.008,0.004,0.015,0.008,0.022,0.012
						l78.266,39.532c0.027,0.014,0.055,0.025,0.082,0.039c0.045,0.021,0.09,0.043,0.136,0.063c0.103,0.047,0.206,0.09,0.311,0.13
						c0.041,0.017,0.081,0.033,0.123,0.048c0.123,0.045,0.247,0.084,0.373,0.12c0.058,0.017,0.115,0.032,0.174,0.047
						c0.095,0.023,0.191,0.045,0.287,0.064c0.062,0.013,0.125,0.025,0.188,0.036c0.12,0.021,0.24,0.036,0.361,0.049
						c0.058,0.006,0.116,0.011,0.174,0.016c0.12,0.009,0.241,0.015,0.361,0.017c0.024,0,0.047,0.003,0.071,0.003
						c0.221,0,0.443-0.024,0.667-0.05c0.099-0.011,0.199-0.044,0.298-0.044h0.002c0.144,0,0.286-0.048,0.426-0.082
						c0.024-0.006,0.048-0.008,0.073-0.015c0.146-0.036,0.289-0.077,0.429-0.125c0.002,0,0.004,0,0.007-0.001
						c0.009-0.003,0.019-0.006,0.028-0.01c0.083-0.028,0.165-0.059,0.246-0.091c0.003-0.001,0.006-0.002,0.009-0.004
						c0.364-0.145,0.709-0.325,1.03-0.535c0.001,0,0.002-0.001,0.003-0.002c0.079-0.051,0.156-0.104,0.231-0.159
						c0.007-0.005,0.013-0.01,0.02-0.015c0.069-0.051,0.137-0.102,0.204-0.155c0.013-0.011,0.027-0.022,0.041-0.034
						c0.059-0.048,0.117-0.097,0.173-0.146c0.02-0.018,0.039-0.035,0.059-0.053c0.05-0.045,0.099-0.09,0.146-0.137
						c0.024-0.023,0.049-0.049,0.073-0.072c0.042-0.041,0.083-0.084,0.123-0.127c0.028-0.029,0.055-0.06,0.083-0.09
						c0.035-0.04,0.07-0.079,0.104-0.119c0.03-0.034,0.059-0.069,0.087-0.104c0.031-0.038,0.062-0.076,0.091-0.115
						c0.029-0.037,0.058-0.075,0.085-0.113c0.029-0.039,0.057-0.078,0.084-0.118c0.027-0.038,0.053-0.077,0.079-0.116
						c0.028-0.042,0.055-0.084,0.082-0.126c0.023-0.038,0.047-0.075,0.07-0.114c0.028-0.047,0.055-0.095,0.082-0.143
						c0.019-0.034,0.038-0.068,0.056-0.103c0.03-0.056,0.058-0.111,0.085-0.168c0.009-0.019,0.019-0.036,0.028-0.055l24.764-51.856
						c0.004-0.009,0.006-0.016,0.01-0.023c0.153-0.323,0.277-0.661,0.37-1.012c0.002-0.007,0.003-0.015,0.006-0.021
						c0.089-0.343,0.147-0.696,0.172-1.057c0.001-0.016,0.002-0.032,0.003-0.048c0.006-0.096,0.01-0.191,0.011-0.288
						c0-0.028,0-0.057,0-0.085c0-0.085-0.002-0.172-0.006-0.258c-0.001-0.031-0.002-0.062-0.004-0.092
						c-0.006-0.104-0.045-0.207-0.057-0.311c-0.001-0.01-0.033-0.02-0.033-0.029v-0.001c0-0.112,0-0.224-0.02-0.334
						c-0.004-0.028,0.004-0.057-0.001-0.085c-0.017-0.087-0.027-0.174-0.047-0.259c-0.006-0.026-0.01-0.052-0.016-0.078
						c-0.024-0.097-0.049-0.191-0.078-0.285c-0.004-0.013-0.007-0.025-0.01-0.038c-0.161-0.51-0.387-0.987-0.67-1.422L98.571,13.502
						c-0.132-0.215-0.277-0.42-0.435-0.614c-0.011-0.014-0.023-0.028-0.035-0.042c-0.063-0.076-0.127-0.151-0.194-0.224
						c-0.013-0.015-0.026-0.029-0.04-0.043c-0.078-0.084-0.157-0.166-0.24-0.245c-0.005-0.004-0.01-0.009-0.015-0.014
						c-0.074-0.07-0.15-0.138-0.228-0.204c-0.028-0.024-0.056-0.047-0.085-0.07c-0.057-0.047-0.115-0.093-0.174-0.138
						c-0.031-0.024-0.062-0.048-0.094-0.071c-0.067-0.049-0.136-0.097-0.206-0.143c-0.021-0.014-0.042-0.029-0.064-0.043
						c-0.091-0.059-0.184-0.116-0.278-0.169c-0.024-0.014-0.047-0.026-0.071-0.039c-0.075-0.042-0.151-0.082-0.228-0.12
						c-0.027-0.013-0.054-0.027-0.082-0.04c-0.083-0.04-0.168-0.078-0.253-0.114c-0.017-0.007-0.032-0.014-0.048-0.021
						c-0.216-0.089-0.438-0.166-0.665-0.229c-0.006-0.001-0.013-0.003-0.019-0.005c-0.109-0.03-0.219-0.057-0.33-0.08
						c-0.007-0.001-0.014-0.003-0.021-0.005c-0.348-0.072-0.705-0.114-1.069-0.121c-0.007,0-0.014-0.001-0.02-0.001
						c-0.01,0-0.019,0-0.029,0c-0.024,0-0.05,0-0.075,0C93.501,10.706,93.428,10.707,93.354,10.709"/>
				</defs>
				<clipPath id="SVGID_9_">
					<use xlink:href="#SVGID_8_"  overflow="visible"/>
				</clipPath>
				
					<linearGradient id="SVGID_10_" gradientUnits="userSpaceOnUse" x1="0.8843" y1="-0.4834" x2="1.1031" y2="-0.4834" gradientTransform="matrix(163.0302 608.4371 608.4371 -163.0302 221 -600.25)">
					<stop  offset="0" style="stop-color:#A16D55"/>
					<stop  offset="0.0756" style="stop-color:#955C43"/>
					<stop  offset="0.1807" style="stop-color:#8A4C33"/>
					<stop  offset="0.3115" style="stop-color:#824127"/>
					<stop  offset="0.4947" style="stop-color:#7D3B20"/>
					<stop  offset="1" style="stop-color:#7C391E"/>
				</linearGradient>
				<polygon clip-path="url(#SVGID_9_)" fill="url(#SVGID_10_)" points="137.231,-18.004 179.071,138.144 37.778,176.003 
					-4.061,19.855 				"/>
			</g>
			<g clip-path="url(#SVGID_4_)">
				<defs>
					<path id="SVGID_11_" d="M30.532,102.472c0,0,0.395,1.561,1.682,2.265l76.178,36.983l-1.813-10.747l-31.893-16.132
						l-18.727-9.459l0.021-0.002l-11.604-5.869C38.837,103.376,31.382,104.844,30.532,102.472"/>
				</defs>
				<clipPath id="SVGID_12_">
					<use xlink:href="#SVGID_11_"  overflow="visible"/>
				</clipPath>
				<defs>
					<filter id="Adobe_OpacityMaskFilter" filterUnits="userSpaceOnUse" x="13.754" y="69.1" width="111.416" height="103.031">
						<feColorMatrix  type="matrix" values="1 0 0 0 0  0 1 0 0 0  0 0 1 0 0  0 0 0 1 0"/>
					</filter>
				</defs>
				<mask maskUnits="userSpaceOnUse" x="13.754" y="69.1" width="111.416" height="103.031" id="SVGID_13_">
					<g filter="url(#Adobe_OpacityMaskFilter)">
						
							<linearGradient id="SVGID_14_" gradientUnits="userSpaceOnUse" x1="7.0303" y1="-1.1992" x2="7.2489" y2="-1.1992" gradientTransform="matrix(-20.4683 41.597 30.2948 14.6478 253.25 -161.5)">
							<stop  offset="0" style="stop-color:#000000"/>
							<stop  offset="0.195" style="stop-color:#1A1A1A"/>
							<stop  offset="0.3857" style="stop-color:#2C2C2C"/>
							<stop  offset="0.5206" style="stop-color:#333333"/>
							<stop  offset="0.6861" style="stop-color:#252525"/>
							<stop  offset="0.9978" style="stop-color:#000000"/>
							<stop  offset="1" style="stop-color:#000000"/>
						</linearGradient>
						<polygon clip-path="url(#SVGID_12_)" fill="url(#SVGID_14_)" points="125.169,107.623 93.428,172.131 13.754,133.607 
							45.496,69.1 						"/>
					</g>
				</mask>
				
					<linearGradient id="SVGID_15_" gradientUnits="userSpaceOnUse" x1="7.0303" y1="-1.1992" x2="7.2489" y2="-1.1992" gradientTransform="matrix(-20.4683 41.597 30.2948 14.6478 253.25 -161.5)">
					<stop  offset="0" style="stop-color:#FFFFFF"/>
					<stop  offset="0.5206" style="stop-color:#FFFFFF"/>
					<stop  offset="1" style="stop-color:#FFFFFF"/>
				</linearGradient>
				<polygon clip-path="url(#SVGID_12_)" mask="url(#SVGID_13_)" fill="url(#SVGID_15_)" points="125.169,107.623 93.428,172.131 
					13.754,133.607 45.496,69.1 				"/>
			</g>
			<g clip-path="url(#SVGID_4_)">
				<defs>
					<path id="SVGID_16_" d="M93.354,10.709c-0.026,0.001-0.052,0.002-0.078,0.003c-0.095,0.004-0.19,0.012-0.285,0.021
						c-0.021,0.002-0.042,0.003-0.064,0.005c-0.106,0.012-0.212,0.026-0.319,0.044c-0.006,0.001-0.011,0.002-0.017,0.003
						c-0.025,0.004-0.05,0.009-0.075,0.014c-0.089,0.016-0.178,0.034-0.265,0.054c-0.028,0.007-0.057,0.014-0.085,0.021
						c-0.089,0.022-0.178,0.046-0.265,0.072c-0.02,0.005-0.039,0.011-0.058,0.017c-0.818,0.25-1.549,0.669-2.162,1.211
						c-0.009,0.008-0.018,0.016-0.026,0.024c-0.075,0.067-0.148,0.136-0.22,0.208c-0.016,0.016-0.032,0.031-0.048,0.047
						c-0.075,0.076-0.148,0.154-0.218,0.233c-0.005,0.005-0.011,0.011-0.016,0.017c-0.074,0.085-0.146,0.172-0.215,0.261
						c-0.019,0.023-0.036,0.048-0.054,0.071c-0.051,0.067-0.1,0.135-0.148,0.205c-0.011,0.016-0.022,0.03-0.033,0.046l-1.299,1.923
						l20.737,125.014c0.426,2.379,1.214,4.319,2.187,5.773l1.314,0.663c0.027,0.014,0.055,0.025,0.082,0.039
						c0.045,0.021,0.09,0.043,0.136,0.063c0.103,0.047,0.206,0.09,0.311,0.13c0.041,0.017,0.081,0.033,0.123,0.048
						c0.123,0.045,0.247,0.084,0.373,0.12c0.058,0.017,0.115,0.032,0.174,0.047c0.095,0.023,0.191,0.045,0.287,0.064
						c0.062,0.013,0.125,0.025,0.188,0.036c0.12,0.021,0.24,0.036,0.361,0.049c0.058,0.006,0.116,0.011,0.174,0.016
						c0.12,0.009,0.241,0.015,0.361,0.017c0.024,0,0.047,0.003,0.071,0.003c0.221,0,0.443-0.024,0.667-0.05
						c0.099-0.011,0.199-0.044,0.298-0.044h0.002c0.144,0,0.286-0.048,0.426-0.082c0.024-0.006,0.048-0.008,0.073-0.015
						c0.146-0.036,0.289-0.077,0.429-0.125c0.002,0,0.004,0,0.007-0.001c0.009-0.003,0.019-0.006,0.028-0.01
						c0.083-0.028,0.165-0.059,0.246-0.091c0.003-0.001,0.006-0.002,0.009-0.004c0.364-0.145,0.709-0.325,1.03-0.535
						c0.001,0,0.002-0.001,0.003-0.002c0.079-0.051,0.156-0.104,0.231-0.159c0.007-0.005,0.013-0.01,0.02-0.015
						c0.069-0.051,0.137-0.102,0.204-0.155c0.013-0.011,0.027-0.022,0.041-0.034c0.059-0.048,0.117-0.097,0.173-0.146
						c0.02-0.018,0.039-0.035,0.059-0.053c0.05-0.045,0.099-0.09,0.146-0.137c0.024-0.023,0.049-0.049,0.073-0.072
						c0.042-0.041,0.083-0.084,0.123-0.127c0.028-0.029,0.055-0.06,0.083-0.09c0.035-0.04,0.07-0.079,0.104-0.119
						c0.03-0.034,0.059-0.069,0.087-0.104c0.031-0.038,0.062-0.076,0.091-0.115c0.029-0.037,0.058-0.075,0.085-0.113
						c0.029-0.039,0.057-0.078,0.084-0.118c0.027-0.038,0.053-0.077,0.079-0.116c0.028-0.042,0.055-0.084,0.082-0.126
						c0.019-0.03,0.037-0.06,0.055-0.09c0.51-2.184,0.57-5.164-0.073-9.013l-2.22-13.382l0,0.002l-3.907-23.533l0.004-0.001
						l-1.915-11.545l-0.006,0.001l-7.014-42.257l0.014,0.023l-5.018-30.25l-0.616-0.988c-0.132-0.215-0.277-0.42-0.435-0.614
						c-0.011-0.014-0.023-0.028-0.035-0.042c-0.063-0.076-0.127-0.151-0.194-0.224c-0.013-0.015-0.026-0.029-0.04-0.043
						c-0.078-0.084-0.157-0.166-0.24-0.245c-0.005-0.004-0.01-0.009-0.015-0.014c-0.074-0.07-0.15-0.138-0.228-0.204
						c-0.028-0.024-0.056-0.047-0.085-0.07c-0.057-0.047-0.115-0.093-0.174-0.138c-0.031-0.024-0.062-0.048-0.094-0.071
						c-0.067-0.049-0.136-0.097-0.206-0.143c-0.021-0.014-0.042-0.029-0.064-0.043c-0.091-0.059-0.184-0.116-0.278-0.169
						c-0.024-0.014-0.047-0.026-0.071-0.039c-0.075-0.042-0.151-0.082-0.228-0.12c-0.027-0.013-0.054-0.027-0.082-0.04
						c-0.083-0.04-0.168-0.078-0.253-0.114c-0.017-0.007-0.032-0.014-0.048-0.021c-0.216-0.089-0.438-0.166-0.665-0.229
						c-0.006-0.001-0.013-0.003-0.019-0.005c-0.109-0.03-0.219-0.057-0.33-0.08c-0.007-0.001-0.014-0.003-0.021-0.005
						c-0.348-0.072-0.705-0.114-1.069-0.121c-0.007,0-0.014-0.001-0.02-0.001c-0.01,0-0.019,0-0.029,0c-0.024,0-0.05,0-0.075,0
						C93.501,10.706,93.428,10.707,93.354,10.709"/>
				</defs>
				<clipPath id="SVGID_17_">
					<use xlink:href="#SVGID_16_"  overflow="visible"/>
				</clipPath>
				<defs>
					<filter id="Adobe_OpacityMaskFilter_1_" filterUnits="userSpaceOnUse" x="65.358" y="5.461" width="76.582" height="147.076">
						<feColorMatrix  type="matrix" values="1 0 0 0 0  0 1 0 0 0  0 0 1 0 0  0 0 0 1 0"/>
					</filter>
				</defs>
				<mask maskUnits="userSpaceOnUse" x="65.358" y="5.461" width="76.582" height="147.076" id="SVGID_18_">
					<g filter="url(#Adobe_OpacityMaskFilter_1_)">
						
							<linearGradient id="SVGID_19_" gradientUnits="userSpaceOnUse" x1="6.896" y1="3.3799" x2="7.1146" y2="3.3799" gradientTransform="matrix(-52.9912 8.7892 16.8145 101.3751 418.3125 -325.25)">
							<stop  offset="0" style="stop-color:#000000"/>
							<stop  offset="0.1699" style="stop-color:#202020"/>
							<stop  offset="0.3681" style="stop-color:#404040"/>
							<stop  offset="0.4779" style="stop-color:#4D4D4D"/>
							<stop  offset="0.5984" style="stop-color:#404040"/>
							<stop  offset="0.8167" style="stop-color:#202020"/>
							<stop  offset="1" style="stop-color:#000000"/>
						</linearGradient>
						<polygon clip-path="url(#SVGID_17_)" fill="url(#SVGID_19_)" points="141.94,143.637 88.276,152.537 65.358,14.362 
							119.021,5.461 						"/>
					</g>
				</mask>
				
					<linearGradient id="SVGID_20_" gradientUnits="userSpaceOnUse" x1="6.895" y1="3.3789" x2="7.1136" y2="3.3789" gradientTransform="matrix(-52.9912 8.7892 16.8145 101.3751 418.3125 -325.25)">
					<stop  offset="0" style="stop-color:#FFFFFF"/>
					<stop  offset="0.4779" style="stop-color:#FFFFFF"/>
					<stop  offset="1" style="stop-color:#FFFFFF"/>
				</linearGradient>
				<polygon clip-path="url(#SVGID_17_)" mask="url(#SVGID_18_)" fill="url(#SVGID_20_)" points="141.94,143.637 88.276,152.537 
					65.358,14.362 119.021,5.461 				"/>
			</g>
			<g clip-path="url(#SVGID_4_)">
				<defs>
					<path id="SVGID_21_" d="M100.364,21.584l3.827,23.089l5.84,9.417l19.157,30.741l-0.085,0.01l3.236,5.218
						c5.457,2.155,13.088-1.007,11.688-3.314L98.153,12.908c-0.006-0.007-0.011-0.014-0.017-0.021
						c-0.011-0.014-0.023-0.028-0.035-0.042c-0.063-0.076-0.127-0.151-0.194-0.224c-0.013-0.015-0.026-0.029-0.04-0.043
						c-0.078-0.084-0.157-0.166-0.24-0.245c-0.005-0.004-0.01-0.009-0.015-0.014c-0.055-0.052-0.112-0.103-0.169-0.153
						C98.615,14.725,99.758,17.933,100.364,21.584"/>
				</defs>
				<clipPath id="SVGID_22_">
					<use xlink:href="#SVGID_21_"  overflow="visible"/>
				</clipPath>
				<defs>
					
						<filter id="Adobe_OpacityMaskFilter_2_" filterUnits="userSpaceOnUse" x="61.645" y="-9.291" width="119.582" height="122.962">
						<feColorMatrix  type="matrix" values="1 0 0 0 0  0 1 0 0 0  0 0 1 0 0  0 0 0 1 0"/>
					</filter>
				</defs>
				<mask maskUnits="userSpaceOnUse" x="61.645" y="-9.291" width="119.582" height="122.962" id="SVGID_23_">
					<g filter="url(#Adobe_OpacityMaskFilter_2_)">
						
							<linearGradient id="SVGID_24_" gradientUnits="userSpaceOnUse" x1="10.4409" y1="5.3525" x2="10.6596" y2="5.3525" gradientTransform="matrix(-45.8006 28.3029 25.815 41.7705 462.3281 -467.4375)">
							<stop  offset="0" style="stop-color:#000000"/>
							<stop  offset="0.187" style="stop-color:#0C0C0C"/>
							<stop  offset="0.5229" style="stop-color:#2B2B2B"/>
							<stop  offset="0.5962" style="stop-color:#333333"/>
							<stop  offset="0.725" style="stop-color:#272727"/>
							<stop  offset="0.9587" style="stop-color:#060606"/>
							<stop  offset="1" style="stop-color:#000000"/>
						</linearGradient>
						<polygon clip-path="url(#SVGID_22_)" fill="url(#SVGID_24_)" points="181.226,70.091 110.705,113.671 61.645,34.288 
							132.166,-9.291 						"/>
					</g>
				</mask>
				
					<linearGradient id="SVGID_25_" gradientUnits="userSpaceOnUse" x1="10.4404" y1="5.3511" x2="10.659" y2="5.3511" gradientTransform="matrix(-45.8006 28.3029 25.815 41.7705 462.3281 -467.4375)">
					<stop  offset="0" style="stop-color:#FFFFFF"/>
					<stop  offset="0.5962" style="stop-color:#FFFFFF"/>
					<stop  offset="1" style="stop-color:#FFFFFF"/>
				</linearGradient>
				<polygon clip-path="url(#SVGID_22_)" mask="url(#SVGID_23_)" fill="url(#SVGID_25_)" points="181.226,70.091 110.705,113.671 
					61.645,34.288 132.166,-9.291 				"/>
			</g>
			<g clip-path="url(#SVGID_4_)">
				<defs>
					<path id="SVGID_26_" d="M31.091,98.568c-0.01,0.016-0.02,0.031-0.03,0.047c-0.036,0.055-0.071,0.109-0.105,0.166
						c-0.018,0.028-0.035,0.057-0.053,0.086c-0.038,0.063-0.074,0.129-0.109,0.193c-0.012,0.021-0.023,0.043-0.035,0.064
						c-0.033,0.063-0.065,0.128-0.097,0.193c-0.24,0.7-0.402,1.571-0.294,2.555c0.406,3.715,9.478,0.906,14.007-2.362L90.19,32.018
						l-1.887-11.4c-0.469-2.826-0.325-5.101,0.119-6.909L31.091,98.568z"/>
				</defs>
				<clipPath id="SVGID_27_">
					<use xlink:href="#SVGID_26_"  overflow="visible"/>
				</clipPath>
				<defs>
					
						<filter id="Adobe_OpacityMaskFilter_3_" filterUnits="userSpaceOnUse" x="-12.822" y="-14.027" width="146.094" height="147.352">
						<feColorMatrix  type="matrix" values="1 0 0 0 0  0 1 0 0 0  0 0 1 0 0  0 0 0 1 0"/>
					</filter>
				</defs>
				<mask maskUnits="userSpaceOnUse" x="-12.822" y="-14.027" width="146.094" height="147.352" id="SVGID_28_">
					<g filter="url(#Adobe_OpacityMaskFilter_3_)">
						
							<linearGradient id="SVGID_29_" gradientUnits="userSpaceOnUse" x1="2.8296" y1="8.8384" x2="3.0482" y2="8.8384" gradientTransform="matrix(49.5537 33.6445 -30.8838 44.897 190.0156 -434.375)">
							<stop  offset="0" style="stop-color:#000000"/>
							<stop  offset="0.187" style="stop-color:#0C0C0C"/>
							<stop  offset="0.5229" style="stop-color:#2B2B2B"/>
							<stop  offset="0.5962" style="stop-color:#333333"/>
							<stop  offset="0.725" style="stop-color:#272727"/>
							<stop  offset="0.9587" style="stop-color:#060606"/>
							<stop  offset="1" style="stop-color:#000000"/>
						</linearGradient>
						<polygon clip-path="url(#SVGID_27_)" fill="url(#SVGID_29_)" points="-12.822,76.338 71.111,133.324 133.272,42.959 
							49.339,-14.027 						"/>
					</g>
				</mask>
				
					<linearGradient id="SVGID_30_" gradientUnits="userSpaceOnUse" x1="2.8306" y1="8.8384" x2="3.0492" y2="8.8384" gradientTransform="matrix(49.5537 33.6445 -30.8838 44.897 190.0156 -434.375)">
					<stop  offset="0" style="stop-color:#FFFFFF"/>
					<stop  offset="0.5962" style="stop-color:#FFFFFF"/>
					<stop  offset="1" style="stop-color:#FFFFFF"/>
				</linearGradient>
				<polygon clip-path="url(#SVGID_27_)" mask="url(#SVGID_28_)" fill="url(#SVGID_30_)" points="-12.822,76.338 71.111,133.324 
					133.272,42.959 49.339,-14.027 				"/>
			</g>
			<g clip-path="url(#SVGID_4_)">
				<defs>
					<polygon id="SVGID_31_" points="47.427,95.013 44.374,99.511 49.675,102.191 97.387,96.42 96.499,89.077 					"/>
				</defs>
				<clipPath id="SVGID_32_">
					<use xlink:href="#SVGID_31_"  overflow="visible"/>
				</clipPath>
				<defs>
					<filter id="Adobe_OpacityMaskFilter_4_" filterUnits="userSpaceOnUse" x="42.81" y="82.754" width="56.142" height="25.761">
						<feColorMatrix  type="matrix" values="1 0 0 0 0  0 1 0 0 0  0 0 1 0 0  0 0 0 1 0"/>
					</filter>
				</defs>
				<mask maskUnits="userSpaceOnUse" x="42.81" y="82.754" width="56.142" height="25.761" id="SVGID_33_">
					<g filter="url(#Adobe_OpacityMaskFilter_4_)">
						
							<linearGradient id="SVGID_34_" gradientUnits="userSpaceOnUse" x1="9.7183" y1="-5.1055" x2="9.9368" y2="-5.1055" gradientTransform="matrix(4.066 33.6016 40.4718 -4.8976 237.5625 -259.3438)">
							<stop  offset="0" style="stop-color:#000000"/>
							<stop  offset="0.3609" style="stop-color:#1A1A1A"/>
							<stop  offset="1" style="stop-color:#000000"/>
						</linearGradient>
						<polygon clip-path="url(#SVGID_32_)" fill="url(#SVGID_34_)" points="96.622,82.754 98.951,102.002 45.139,108.515 
							42.81,89.266 						"/>
					</g>
				</mask>
				
					<linearGradient id="SVGID_35_" gradientUnits="userSpaceOnUse" x1="9.7173" y1="-5.1064" x2="9.9358" y2="-5.1064" gradientTransform="matrix(4.066 33.6016 40.4718 -4.8976 237.5625 -259.3438)">
					<stop  offset="0" style="stop-color:#FFFFFF"/>
					<stop  offset="0.3609" style="stop-color:#FFFFFF"/>
					<stop  offset="1" style="stop-color:#FFFFFF"/>
				</linearGradient>
				<polygon clip-path="url(#SVGID_32_)" mask="url(#SVGID_33_)" fill="url(#SVGID_35_)" points="96.622,82.754 98.951,102.002 
					45.139,108.515 42.81,89.266 				"/>
			</g>
			<g clip-path="url(#SVGID_4_)">
				<defs>
					<polygon id="SVGID_36_" points="111.4,87.202 114.034,94.334 131.116,92.61 132.339,90.059 129.382,85.053 					"/>
				</defs>
				<clipPath id="SVGID_37_">
					<use xlink:href="#SVGID_36_"  overflow="visible"/>
				</clipPath>
				<defs>
					<filter id="Adobe_OpacityMaskFilter_5_" filterUnits="userSpaceOnUse" x="110.294" y="82.553" width="23.152" height="14.28">
						<feColorMatrix  type="matrix" values="1 0 0 0 0  0 1 0 0 0  0 0 1 0 0  0 0 0 1 0"/>
					</filter>
				</defs>
				<mask maskUnits="userSpaceOnUse" x="110.294" y="82.553" width="23.152" height="14.28" id="SVGID_38_">
					<g filter="url(#Adobe_OpacityMaskFilter_5_)">
						
							<linearGradient id="SVGID_39_" gradientUnits="userSpaceOnUse" x1="9.2969" y1="-29.3262" x2="9.5156" y2="-29.3262" gradientTransform="matrix(4.2532 35.1484 13.321 -1.6133 472.5312 -288.0938)">
							<stop  offset="0" style="stop-color:#000000"/>
							<stop  offset="0.3609" style="stop-color:#1A1A1A"/>
							<stop  offset="1" style="stop-color:#000000"/>
						</linearGradient>
						<polygon clip-path="url(#SVGID_37_)" fill="url(#SVGID_39_)" points="132.037,82.553 133.446,94.2 111.703,96.833 
							110.294,85.187 						"/>
					</g>
				</mask>
				
					<linearGradient id="SVGID_40_" gradientUnits="userSpaceOnUse" x1="9.2969" y1="-29.3262" x2="9.5156" y2="-29.3262" gradientTransform="matrix(4.2532 35.1484 13.321 -1.6133 472.5312 -288.0938)">
					<stop  offset="0" style="stop-color:#FFFFFF"/>
					<stop  offset="0.3609" style="stop-color:#FFFFFF"/>
					<stop  offset="1" style="stop-color:#FFFFFF"/>
				</linearGradient>
				<polygon clip-path="url(#SVGID_37_)" mask="url(#SVGID_38_)" fill="url(#SVGID_40_)" points="132.037,82.553 133.446,94.2 
					111.703,96.833 110.294,85.187 				"/>
			</g>
			<g clip-path="url(#SVGID_4_)">
				<defs>
					<path id="SVGID_41_" d="M132.339,90.059l-9.101,18.991l-6.204,12.991l2.478,14.981l24.173-48.615
						C141.327,90.777,135.458,91.46,132.339,90.059"/>
				</defs>
				<clipPath id="SVGID_42_">
					<use xlink:href="#SVGID_41_"  overflow="visible"/>
				</clipPath>
				<defs>
					<filter id="Adobe_OpacityMaskFilter_6_" filterUnits="userSpaceOnUse" x="98.083" y="78.018" width="64.553" height="69.395">
						<feColorMatrix  type="matrix" values="1 0 0 0 0  0 1 0 0 0  0 0 1 0 0  0 0 0 1 0"/>
					</filter>
				</defs>
				<mask maskUnits="userSpaceOnUse" x="98.083" y="78.018" width="64.553" height="69.395" id="SVGID_43_">
					<g filter="url(#Adobe_OpacityMaskFilter_6_)">
						
							<linearGradient id="SVGID_44_" gradientUnits="userSpaceOnUse" x1="-4.498" y1="13.2563" x2="-4.2794" y2="13.2563" gradientTransform="matrix(39.2606 18.8245 -13.6609 28.4942 480.8594 -183.8125)">
							<stop  offset="0" style="stop-color:#000000"/>
							<stop  offset="0.195" style="stop-color:#1A1A1A"/>
							<stop  offset="0.3857" style="stop-color:#2C2C2C"/>
							<stop  offset="0.5206" style="stop-color:#333333"/>
							<stop  offset="0.6549" style="stop-color:#252525"/>
							<stop  offset="0.9079" style="stop-color:#000000"/>
							<stop  offset="0.9096" style="stop-color:#000000"/>
							<stop  offset="1" style="stop-color:#000000"/>
						</linearGradient>
						<polygon clip-path="url(#SVGID_42_)" fill="url(#SVGID_44_)" points="98.083,127.936 138.704,147.412 162.636,97.494 
							122.016,78.018 						"/>
					</g>
				</mask>
				
					<linearGradient id="SVGID_45_" gradientUnits="userSpaceOnUse" x1="-4.498" y1="13.2563" x2="-4.2794" y2="13.2563" gradientTransform="matrix(39.2606 18.8245 -13.6609 28.4942 480.8594 -183.8125)">
					<stop  offset="0" style="stop-color:#FFFFFF"/>
					<stop  offset="0.5206" style="stop-color:#FFFFFF"/>
					<stop  offset="0.9096" style="stop-color:#FFFFFF"/>
					<stop  offset="1" style="stop-color:#FFFFFF"/>
				</linearGradient>
				<polygon clip-path="url(#SVGID_42_)" mask="url(#SVGID_43_)" fill="url(#SVGID_45_)" points="98.083,127.936 138.704,147.412 
					162.636,97.494 122.016,78.018 				"/>
			</g>
			<g clip-path="url(#SVGID_4_)">
				<defs>
					<polygon id="SVGID_46_" points="66.456,63.412 81.158,68.125 96.573,70.471 95.852,66.176 68.826,60.346 					"/>
				</defs>
				<clipPath id="SVGID_47_">
					<use xlink:href="#SVGID_46_"  overflow="visible"/>
				</clipPath>
				
					<linearGradient id="SVGID_48_" gradientUnits="userSpaceOnUse" x1="3.1084" y1="-3.8984" x2="3.327" y2="-3.8984" gradientTransform="matrix(51.79 89.703 89.703 -51.79 264.875 -424.6562)">
					<stop  offset="0" style="stop-color:#006D4F"/>
					<stop  offset="0.5" style="stop-color:#006D4F"/>
					<stop  offset="1" style="stop-color:#004A33"/>
				</linearGradient>
				<polygon clip-path="url(#SVGID_47_)" fill="url(#SVGID_48_)" points="89.043,47.305 100.957,67.939 73.985,83.512 
					62.072,62.877 				"/>
			</g>
			<g clip-path="url(#SVGID_4_)">
				<defs>
					<polygon id="SVGID_49_" points="110.996,85.678 117.171,98.017 125.625,109.589 127.263,105.813 109.433,76.3 					"/>
				</defs>
				<clipPath id="SVGID_50_">
					<use xlink:href="#SVGID_49_"  overflow="visible"/>
				</clipPath>
				
					<linearGradient id="SVGID_51_" gradientUnits="userSpaceOnUse" x1="2.6836" y1="-2.2285" x2="2.9023" y2="-2.2285" gradientTransform="matrix(-6.700000e-06 152.2876 152.2876 6.700000e-06 457.875 -332.375)">
					<stop  offset="0" style="stop-color:#00573F"/>
					<stop  offset="0.0011" style="stop-color:#00573F"/>
					<stop  offset="1" style="stop-color:#002E20"/>
				</linearGradient>
				<rect x="109.433" y="76.3" clip-path="url(#SVGID_50_)" fill="url(#SVGID_51_)" width="17.83" height="33.289"/>
			</g>
			<g clip-path="url(#SVGID_4_)">
				<defs>
					<path id="SVGID_52_" d="M114.761,108.373l7.455,2.781c1.062-1.565,3.41-1.565,3.41-1.565l-14.63-23.911L114.761,108.373z
						 M65.735,68.043l14.9,24.506c2.101,0.838,5.105,3.466,6.429,5.447l14.991,5.522l-5.482-33.049l-30.117-7.059
						C66.456,63.412,67.003,66.621,65.735,68.043"/>
				</defs>
				<clipPath id="SVGID_53_">
					<use xlink:href="#SVGID_52_"  overflow="visible"/>
				</clipPath>
				
					<linearGradient id="SVGID_54_" gradientUnits="userSpaceOnUse" x1="0.9956" y1="-1.2715" x2="1.2143" y2="-1.2715" gradientTransform="matrix(159.1435 275.6447 275.6447 -159.1435 270.5 -420.125)">
					<stop  offset="0" style="stop-color:#52835F"/>
					<stop  offset="0.0169" style="stop-color:#52835F"/>
					<stop  offset="0.5" style="stop-color:#006D4F"/>
					<stop  offset="1" style="stop-color:#004A33"/>
				</linearGradient>
				<polygon clip-path="url(#SVGID_53_)" fill="url(#SVGID_54_)" points="110.653,37.478 146.298,99.219 80.708,137.087 
					45.062,75.347 				"/>
			</g>
		</g>
	</g>
</g>
<text transform="matrix(1 0 0 1 194 59)" fill="#1B1464" font-family="'Optima-Regular'" font-size="60">Regina</text>
<text transform="matrix(1 0 0 1 194 108)"><tspan x="0" y="0" fill="#332500" font-family="'Optima-Regular'" font-size="24">Software for 3-manifold topology</tspan><tspan x="0" y="28.8" fill="#332500" font-family="'Optima-Regular'" font-size="24">and normal surface theory</tspan></text>
</svg>
