<?xml version="1.0" encoding="utf-8"?>
<!-- Generator: Adobe Illustrator 16.0.4, SVG Export Plug-In . SVG Version: 6.00 Build 0)  -->
<!DOCTYPE svg PUBLIC "-//W3C//DTD SVG 1.1//EN" "http://www.w3.org/Graphics/SVG/1.1/DTD/svg11.dtd">
<svg version="1.1" id="Layer_1" xmlns="http://www.w3.org/2000/svg" xmlns:xlink="http://www.w3.org/1999/xlink" x="0px" y="0px"
	 width="640px" height="640px" viewBox="0 0 640 640" enable-background="new 0 0 640 640" xml:space="preserve">
<g>
	<g id="path7865" sodipodi:nodetypes="csccscccc" opacity="0.5" enable-background="new    ">
		<path d="M50.435,7.5v625h354.679h0.179c0,0,66.864-55.282,97.749-85.969c30.895-30.699,86.524-97.137,86.524-97.137v-0.175V7.5
			H50.435z"/>
	</g>
	<path id="path34" sodipodi:nodetypes="cccccc" fill="#FFFFFF" d="M61.217,17.891v603.827h340.442l177.123-177.124V17.891H61.217z"
		/>
	
		<radialGradient id="path59_1_" cx="502.3701" cy="-39.5312" r="752.3743" gradientTransform="matrix(1 0 0 -0.9997 22.5 540.5161)" gradientUnits="userSpaceOnUse">
		<stop  offset="0" style="stop-color:#B7B8B9"/>
		<stop  offset="0.1885" style="stop-color:#ECECEC"/>
		<stop  offset="0.2572" style="stop-color:#FAFAFA"/>
		<stop  offset="0.3011" style="stop-color:#FFFFFF"/>
		<stop  offset="0.5313" style="stop-color:#FAFAFA"/>
		<stop  offset="0.8449" style="stop-color:#EBECEC"/>
		<stop  offset="1" style="stop-color:#E1E2E3"/>
	</radialGradient>
	<path id="path59" sodipodi:nodetypes="ccccccccccc" fill="url(#path59_1_)" d="M72,23.283c-2.97,0-5.392,2.419-5.392,5.389v582.063
		c0,2.98,2.422,5.392,5.392,5.392h319.014c1.421,0,14.895,0.637,15.899-0.368l164.898-166.057c1.011-1.006,1.58-14.474,1.58-15.89
		V28.671c0-2.97-2.417-5.389-5.392-5.389H72z"/>
	
		<linearGradient id="path14523_1_" gradientUnits="userSpaceOnUse" x1="483.8398" y1="-7.7773" x2="444.0045" y2="30.822" gradientTransform="matrix(1 0 0 -1 22.5 541)">
		<stop  offset="0" style="stop-color:#A2A2A2"/>
		<stop  offset="1" style="stop-color:#FFFFFF"/>
	</linearGradient>
	<path id="path14523" sodipodi:nodetypes="csccc" fill="url(#path14523_1_)" d="M401.796,621.718c0,0,64.232-53.45,93.885-83.103
		s83.102-93.884,83.102-93.884s-74.13,47.595-129.392,47.595C449.391,547.587,401.796,621.718,401.796,621.718z"/>
</g>
<g>
	<g>
		<defs>
			<rect id="SVGID_1_" x="115.498" y="115.3" width="409" height="409"/>
		</defs>
		<clipPath id="SVGID_2_">
			<use xlink:href="#SVGID_1_"  overflow="visible"/>
		</clipPath>
		<g clip-path="url(#SVGID_2_)">
			<defs>
				<rect id="SVGID_3_" x="115.498" y="115.3" width="409" height="409"/>
			</defs>
			<clipPath id="SVGID_4_">
				<use xlink:href="#SVGID_3_"  overflow="visible"/>
			</clipPath>
			<g clip-path="url(#SVGID_4_)">
				<defs>
					<polygon id="SVGID_5_" points="333.897,121.212 342.524,278.262 341.845,364.375 361.537,392.494 397.964,517.75 
						395.247,414.861 407.229,360.569 378.117,304.587 					"/>
				</defs>
				<clipPath id="SVGID_6_">
					<use xlink:href="#SVGID_5_"  overflow="visible"/>
				</clipPath>
				
					<linearGradient id="SVGID_7_" gradientUnits="userSpaceOnUse" x1="1.1577" y1="-0.29" x2="1.797" y2="-0.29" gradientTransform="matrix(161.8405 603.997 603.997 -161.8405 306.5 -621.25)">
					<stop  offset="0" style="stop-color:#A16D55"/>
					<stop  offset="0.0756" style="stop-color:#955C43"/>
					<stop  offset="0.1807" style="stop-color:#8A4C33"/>
					<stop  offset="0.3115" style="stop-color:#824127"/>
					<stop  offset="0.4947" style="stop-color:#7D3B20"/>
					<stop  offset="1" style="stop-color:#7C391E"/>
				</linearGradient>
				<polygon clip-path="url(#SVGID_6_)" fill="url(#SVGID_7_)" points="402.317,102.879 506.364,491.188 338.81,536.084 
					234.763,147.775 				"/>
			</g>
			<g clip-path="url(#SVGID_4_)">
				<defs>
					<path id="SVGID_8_" d="M225.715,396.931l133.018-15.853l15.049,90.644L225.715,396.931z M392.834,376.868l46.901-5.492
						l-35.479,74.291L392.834,376.868z M366.727,219.578l73.078,117.271l-52.575,6.269L366.727,219.578z M325.795,182.58
						l27.319,164.603L202.458,365.14L325.795,182.58z M321.455,127.692l-168.44,249.319c-6.283,9.73-1.97,20.436,6.688,25.029
						l228.812,115.574c9.768,4.528,19.273-0.024,23.224-7.922l72.399-151.604c0.011-0.023,0.019-0.045,0.028-0.066
						c2.546-5.87,2.307-10.903-1.118-16.672L350.297,128.316c-3.48-5.367-9.09-8.172-14.722-8.172
						C330.313,120.145,325.034,122.594,321.455,127.692"/>
				</defs>
				<clipPath id="SVGID_9_">
					<use xlink:href="#SVGID_8_"  overflow="visible"/>
				</clipPath>
				
					<linearGradient id="SVGID_10_" gradientUnits="userSpaceOnUse" x1="1.1509" y1="-0.2324" x2="1.7902" y2="-0.2324" gradientTransform="matrix(163.0261 608.422 608.422 -163.0261 221 -600.25)">
					<stop  offset="0" style="stop-color:#A16D55"/>
					<stop  offset="0.0756" style="stop-color:#955C43"/>
					<stop  offset="0.1807" style="stop-color:#8A4C33"/>
					<stop  offset="0.3115" style="stop-color:#824127"/>
					<stop  offset="0.4947" style="stop-color:#7D3B20"/>
					<stop  offset="1" style="stop-color:#7C391E"/>
				</linearGradient>
				<polygon clip-path="url(#SVGID_9_)" fill="url(#SVGID_10_)" points="463.938,35.149 587.213,495.215 169.506,607.14 
					46.232,147.074 				"/>
			</g>
			<g clip-path="url(#SVGID_4_)">
				<defs>
					<path id="SVGID_11_" d="M151.38,388.421c0,0,1.155,4.563,4.918,6.622l222.707,108.122l-5.301-31.419l-59.393-30.041
						l-88.597-44.751l0.097-0.012l-33.963-17.178C175.662,391.067,153.868,395.357,151.38,388.421"/>
				</defs>
				<clipPath id="SVGID_12_">
					<use xlink:href="#SVGID_11_"  overflow="visible"/>
				</clipPath>
				<defs>
					<filter id="Adobe_OpacityMaskFilter" filterUnits="userSpaceOnUse" x="102.33" y="290.857" width="325.727" height="301.215">
						<feColorMatrix  type="matrix" values="1 0 0 0 0  0 1 0 0 0  0 0 1 0 0  0 0 0 1 0"/>
					</filter>
				</defs>
				<mask maskUnits="userSpaceOnUse" x="102.33" y="290.857" width="325.727" height="301.215" id="SVGID_13_">
					<g filter="url(#Adobe_OpacityMaskFilter)">
						
							<linearGradient id="SVGID_14_" gradientUnits="userSpaceOnUse" x1="11.0874" y1="8.2305" x2="11.7265" y2="8.2305" gradientTransform="matrix(-20.4683 41.597 30.2947 14.6478 253.2578 -161.5)">
							<stop  offset="0" style="stop-color:#000000"/>
							<stop  offset="0.195" style="stop-color:#1A1A1A"/>
							<stop  offset="0.3857" style="stop-color:#2C2C2C"/>
							<stop  offset="0.5206" style="stop-color:#333333"/>
							<stop  offset="0.6861" style="stop-color:#252525"/>
							<stop  offset="0.9978" style="stop-color:#000000"/>
							<stop  offset="1" style="stop-color:#000000"/>
						</linearGradient>
						<polygon clip-path="url(#SVGID_12_)" fill="url(#SVGID_14_)" points="428.057,403.481 335.259,592.072 102.33,479.448 
							195.128,290.857 						"/>
					</g>
				</mask>
				
					<linearGradient id="SVGID_15_" gradientUnits="userSpaceOnUse" x1="11.0874" y1="8.2305" x2="11.7265" y2="8.2305" gradientTransform="matrix(-20.4683 41.597 30.2947 14.6478 253.2578 -161.5)">
					<stop  offset="0" style="stop-color:#FFFFFF"/>
					<stop  offset="0.5206" style="stop-color:#FFFFFF"/>
					<stop  offset="1" style="stop-color:#FFFFFF"/>
				</linearGradient>
				<polygon clip-path="url(#SVGID_12_)" mask="url(#SVGID_13_)" fill="url(#SVGID_15_)" points="428.057,403.481 335.259,592.072 
					102.33,479.448 195.128,290.857 				"/>
			</g>
			<g clip-path="url(#SVGID_4_)">
				<defs>
					<path id="SVGID_16_" d="M321.455,127.715l-3.796,5.618l60.622,365.462c1.248,6.975,3.562,12.659,6.418,16.914l3.816,1.928
						c9.182,4.258,18.131,0.489,22.453-6.537c1.482-6.38,1.655-15.085-0.22-26.315l-6.486-39.105l-0.006,0.01l-11.423-68.798
						l0.018-0.002l-5.6-33.752l-0.022,0.002l-20.503-123.539l0.046,0.074l-14.67-88.438l-1.806-2.897
						c-3.48-5.366-9.092-8.171-14.722-8.171C330.313,120.167,325.034,122.617,321.455,127.715"/>
				</defs>
				<clipPath id="SVGID_17_">
					<use xlink:href="#SVGID_16_"  overflow="visible"/>
				</clipPath>
				<defs>
					
						<filter id="Adobe_OpacityMaskFilter_1_" filterUnits="userSpaceOnUse" x="252.811" y="104.839" width="224.661" height="432.386">
						<feColorMatrix  type="matrix" values="1 0 0 0 0  0 1 0 0 0  0 0 1 0 0  0 0 0 1 0"/>
					</filter>
				</defs>
				<mask maskUnits="userSpaceOnUse" x="252.811" y="104.839" width="224.661" height="432.386" id="SVGID_18_">
					<g filter="url(#Adobe_OpacityMaskFilter_1_)">
						
							<linearGradient id="SVGID_19_" gradientUnits="userSpaceOnUse" x1="2.6069" y1="6.1201" x2="3.246" y2="6.1201" gradientTransform="matrix(-52.9912 8.7892 16.8145 101.3751 418.3125 -325.25)">
							<stop  offset="0" style="stop-color:#000000"/>
							<stop  offset="0.1699" style="stop-color:#202020"/>
							<stop  offset="0.3681" style="stop-color:#404040"/>
							<stop  offset="0.4779" style="stop-color:#4D4D4D"/>
							<stop  offset="0.5984" style="stop-color:#404040"/>
							<stop  offset="0.8167" style="stop-color:#202020"/>
							<stop  offset="1" style="stop-color:#000000"/>
						</linearGradient>
						<polygon clip-path="url(#SVGID_17_)" fill="url(#SVGID_19_)" points="477.472,511.14 320.202,537.225 252.811,130.923 
							410.081,104.839 						"/>
					</g>
				</mask>
				
					<linearGradient id="SVGID_20_" gradientUnits="userSpaceOnUse" x1="2.6064" y1="6.1191" x2="3.2455" y2="6.1191" gradientTransform="matrix(-52.9912 8.7892 16.8145 101.3751 418.3125 -325.25)">
					<stop  offset="0" style="stop-color:#FFFFFF"/>
					<stop  offset="0.4779" style="stop-color:#FFFFFF"/>
					<stop  offset="1" style="stop-color:#FFFFFF"/>
				</linearGradient>
				<polygon clip-path="url(#SVGID_17_)" mask="url(#SVGID_18_)" fill="url(#SVGID_20_)" points="477.472,511.14 320.202,537.225 
					252.811,130.923 410.081,104.839 				"/>
			</g>
			<g clip-path="url(#SVGID_4_)">
				<defs>
					<path id="SVGID_21_" d="M355.538,151.947l11.188,67.5l20.089,32.393l52.989,85.033l-0.233,0.028l9.445,15.231
						c15.953,6.301,38.263-2.943,34.171-9.689L349.299,126.944c-0.683-0.87-1.427-1.658-2.221-2.364
						C350.475,132.032,353.78,141.354,355.538,151.947"/>
				</defs>
				<clipPath id="SVGID_22_">
					<use xlink:href="#SVGID_21_"  overflow="visible"/>
				</clipPath>
				<defs>
					
						<filter id="Adobe_OpacityMaskFilter_2_" filterUnits="userSpaceOnUse" x="242.494" y="61.885" width="349.369" height="359.242">
						<feColorMatrix  type="matrix" values="1 0 0 0 0  0 1 0 0 0  0 0 1 0 0  0 0 0 1 0"/>
					</filter>
				</defs>
				<mask maskUnits="userSpaceOnUse" x="242.494" y="61.885" width="349.369" height="359.242" id="SVGID_23_">
					<g filter="url(#Adobe_OpacityMaskFilter_2_)">
						
							<linearGradient id="SVGID_24_" gradientUnits="userSpaceOnUse" x1="7.5786" y1="11.7979" x2="8.2177" y2="11.7979" gradientTransform="matrix(-45.8006 28.3029 25.815 41.7705 462.3281 -467.4375)">
							<stop  offset="0" style="stop-color:#000000"/>
							<stop  offset="0.187" style="stop-color:#0C0C0C"/>
							<stop  offset="0.5229" style="stop-color:#2B2B2B"/>
							<stop  offset="0.5962" style="stop-color:#333333"/>
							<stop  offset="0.725" style="stop-color:#272727"/>
							<stop  offset="0.9587" style="stop-color:#060606"/>
							<stop  offset="1" style="stop-color:#000000"/>
						</linearGradient>
						<polygon clip-path="url(#SVGID_22_)" fill="url(#SVGID_24_)" points="591.863,293.804 385.824,421.127 242.494,189.208 
							448.533,61.885 						"/>
					</g>
				</mask>
				
					<linearGradient id="SVGID_25_" gradientUnits="userSpaceOnUse" x1="7.5786" y1="11.7969" x2="8.2177" y2="11.7969" gradientTransform="matrix(-45.8006 28.3029 25.815 41.7705 462.3281 -467.4375)">
					<stop  offset="0" style="stop-color:#FFFFFF"/>
					<stop  offset="0.5962" style="stop-color:#FFFFFF"/>
					<stop  offset="1" style="stop-color:#FFFFFF"/>
				</linearGradient>
				<polygon clip-path="url(#SVGID_22_)" mask="url(#SVGID_23_)" fill="url(#SVGID_25_)" points="591.863,293.804 385.825,421.127 
					242.494,189.208 448.533,61.885 				"/>
			</g>
			<g clip-path="url(#SVGID_4_)">
				<defs>
					<path id="SVGID_26_" d="M153.015,377.035c-0.517,0.799-0.961,1.606-1.338,2.414c-0.656,2.005-1.079,4.461-0.777,7.224
						c1.186,10.859,27.708,2.649,40.948-6.908l133.946-197.316l-5.518-33.329c-1.368-8.243-0.953-14.883,0.339-20.162
						L153.015,377.035z"/>
				</defs>
				<clipPath id="SVGID_27_">
					<use xlink:href="#SVGID_26_"  overflow="visible"/>
				</clipPath>
				<defs>
					
						<filter id="Adobe_OpacityMaskFilter_3_" filterUnits="userSpaceOnUse" x="24.666" y="47.876" width="427.062" height="430.737">
						<feColorMatrix  type="matrix" values="1 0 0 0 0  0 1 0 0 0  0 0 1 0 0  0 0 0 1 0"/>
					</filter>
				</defs>
				<mask maskUnits="userSpaceOnUse" x="24.666" y="47.876" width="427.062" height="430.737" id="SVGID_28_">
					<g filter="url(#Adobe_OpacityMaskFilter_3_)">
						
							<linearGradient id="SVGID_29_" gradientUnits="userSpaceOnUse" x1="7.0898" y1="10.0947" x2="7.7289" y2="10.0947" gradientTransform="matrix(49.5537 33.6445 -30.8838 44.897 190.0156 -434.375)">
							<stop  offset="0" style="stop-color:#000000"/>
							<stop  offset="0.187" style="stop-color:#0C0C0C"/>
							<stop  offset="0.5229" style="stop-color:#2B2B2B"/>
							<stop  offset="0.5962" style="stop-color:#333333"/>
							<stop  offset="0.725" style="stop-color:#272727"/>
							<stop  offset="0.9587" style="stop-color:#060606"/>
							<stop  offset="1" style="stop-color:#000000"/>
						</linearGradient>
						<polygon clip-path="url(#SVGID_27_)" fill="url(#SVGID_29_)" points="24.666,312.03 270.021,478.613 451.728,214.459 
							206.373,47.876 						"/>
					</g>
				</mask>
				
					<linearGradient id="SVGID_30_" gradientUnits="userSpaceOnUse" x1="7.0898" y1="10.0957" x2="7.7289" y2="10.0957" gradientTransform="matrix(49.5537 33.6445 -30.8838 44.897 190.0156 -434.375)">
					<stop  offset="0" style="stop-color:#FFFFFF"/>
					<stop  offset="0.5962" style="stop-color:#FFFFFF"/>
					<stop  offset="1" style="stop-color:#FFFFFF"/>
				</linearGradient>
				<polygon clip-path="url(#SVGID_27_)" mask="url(#SVGID_28_)" fill="url(#SVGID_30_)" points="24.666,312.03 270.021,478.613 
					451.728,214.459 206.373,47.876 				"/>
			</g>
			<g clip-path="url(#SVGID_4_)">
				<defs>
					<polygon id="SVGID_31_" points="200.774,366.617 191.849,379.765 207.347,387.604 346.834,370.73 344.236,349.262 					"/>
				</defs>
				<clipPath id="SVGID_32_">
					<use xlink:href="#SVGID_31_"  overflow="visible"/>
				</clipPath>
				<defs>
					
						<filter id="Adobe_OpacityMaskFilter_4_" filterUnits="userSpaceOnUse" x="187.276" y="330.777" width="164.13" height="75.311">
						<feColorMatrix  type="matrix" values="1 0 0 0 0  0 1 0 0 0  0 0 1 0 0  0 0 0 1 0"/>
					</filter>
				</defs>
				<mask maskUnits="userSpaceOnUse" x="187.276" y="330.777" width="164.13" height="75.311" id="SVGID_33_">
					<g filter="url(#Adobe_OpacityMaskFilter_4_)">
						
							<linearGradient id="SVGID_34_" gradientUnits="userSpaceOnUse" x1="18.229" y1="-1.0762" x2="18.8681" y2="-1.0762" gradientTransform="matrix(4.066 33.6016 40.4718 -4.8976 237.5625 -259.3438)">
							<stop  offset="0" style="stop-color:#000000"/>
							<stop  offset="0.3609" style="stop-color:#1A1A1A"/>
							<stop  offset="1" style="stop-color:#000000"/>
						</linearGradient>
						<polygon clip-path="url(#SVGID_32_)" fill="url(#SVGID_34_)" points="344.598,330.777 351.406,387.05 194.085,406.088 
							187.276,349.815 						"/>
					</g>
				</mask>
				
					<linearGradient id="SVGID_35_" gradientUnits="userSpaceOnUse" x1="18.229" y1="-1.0771" x2="18.8681" y2="-1.0771" gradientTransform="matrix(4.066 33.6016 40.4718 -4.8976 237.5625 -259.3438)">
					<stop  offset="0" style="stop-color:#FFFFFF"/>
					<stop  offset="0.3609" style="stop-color:#FFFFFF"/>
					<stop  offset="1" style="stop-color:#FFFFFF"/>
				</linearGradient>
				<polygon clip-path="url(#SVGID_32_)" mask="url(#SVGID_33_)" fill="url(#SVGID_35_)" points="344.598,330.777 351.406,387.05 
					194.085,406.088 187.276,349.815 				"/>
			</g>
			<g clip-path="url(#SVGID_4_)">
				<defs>
					<polygon id="SVGID_36_" points="387.804,343.781 395.503,364.632 445.442,359.592 449.017,352.132 440.372,337.496 					"/>
				</defs>
				<clipPath id="SVGID_37_">
					<use xlink:href="#SVGID_36_"  overflow="visible"/>
				</clipPath>
				<defs>
					
						<filter id="Adobe_OpacityMaskFilter_5_" filterUnits="userSpaceOnUse" x="384.567" y="330.189" width="67.686" height="41.749">
						<feColorMatrix  type="matrix" values="1 0 0 0 0  0 1 0 0 0  0 0 1 0 0  0 0 0 1 0"/>
					</filter>
				</defs>
				<mask maskUnits="userSpaceOnUse" x="384.567" y="330.189" width="67.686" height="41.749" id="SVGID_38_">
					<g filter="url(#Adobe_OpacityMaskFilter_5_)">
						
							<linearGradient id="SVGID_39_" gradientUnits="userSpaceOnUse" x1="17.4302" y1="-9.7266" x2="18.0691" y2="-9.7266" gradientTransform="matrix(4.2532 35.1484 13.321 -1.6133 472.5312 -288.0938)">
							<stop  offset="0" style="stop-color:#000000"/>
							<stop  offset="0.3609" style="stop-color:#1A1A1A"/>
							<stop  offset="1" style="stop-color:#000000"/>
						</linearGradient>
						<polygon clip-path="url(#SVGID_37_)" fill="url(#SVGID_39_)" points="448.133,330.189 452.253,364.24 388.688,371.938 
							384.567,337.889 						"/>
					</g>
				</mask>
				
					<linearGradient id="SVGID_40_" gradientUnits="userSpaceOnUse" x1="17.4302" y1="-9.7266" x2="18.0691" y2="-9.7266" gradientTransform="matrix(4.2532 35.1484 13.321 -1.6133 472.5312 -288.0938)">
					<stop  offset="0" style="stop-color:#FFFFFF"/>
					<stop  offset="0.3609" style="stop-color:#FFFFFF"/>
					<stop  offset="1" style="stop-color:#FFFFFF"/>
				</linearGradient>
				<polygon clip-path="url(#SVGID_37_)" mask="url(#SVGID_38_)" fill="url(#SVGID_40_)" points="448.133,330.189 452.253,364.24 
					388.688,371.938 384.567,337.889 				"/>
			</g>
			<g clip-path="url(#SVGID_4_)">
				<defs>
					<path id="SVGID_41_" d="M449.017,352.132l-23.421,48.877l-21.319,44.642l7.243,43.781l70.669-142.126
						C475.295,354.232,458.135,356.229,449.017,352.132"/>
				</defs>
				<clipPath id="SVGID_42_">
					<use xlink:href="#SVGID_41_"  overflow="visible"/>
				</clipPath>
				<defs>
					
						<filter id="Adobe_OpacityMaskFilter_6_" filterUnits="userSpaceOnUse" x="348.873" y="316.931" width="188.72" height="202.875">
						<feColorMatrix  type="matrix" values="1 0 0 0 0  0 1 0 0 0  0 0 1 0 0  0 0 0 1 0"/>
					</filter>
				</defs>
				<mask maskUnits="userSpaceOnUse" x="348.873" y="316.931" width="188.72" height="202.875" id="SVGID_43_">
					<g filter="url(#Adobe_OpacityMaskFilter_6_)">
						
							<linearGradient id="SVGID_44_" gradientUnits="userSpaceOnUse" x1="4.6621" y1="17.6973" x2="5.3011" y2="17.6973" gradientTransform="matrix(39.2606 18.8245 -13.6609 28.4942 480.8594 -183.8125)">
							<stop  offset="0" style="stop-color:#000000"/>
							<stop  offset="0.195" style="stop-color:#1A1A1A"/>
							<stop  offset="0.3857" style="stop-color:#2C2C2C"/>
							<stop  offset="0.5206" style="stop-color:#333333"/>
							<stop  offset="0.6549" style="stop-color:#252525"/>
							<stop  offset="0.9079" style="stop-color:#000000"/>
							<stop  offset="0.9096" style="stop-color:#000000"/>
							<stop  offset="1" style="stop-color:#000000"/>
						</linearGradient>
						<polygon clip-path="url(#SVGID_42_)" fill="url(#SVGID_44_)" points="348.873,462.867 467.626,519.806 537.593,373.87 
							418.839,316.931 						"/>
					</g>
				</mask>
				
					<linearGradient id="SVGID_45_" gradientUnits="userSpaceOnUse" x1="4.6621" y1="17.6973" x2="5.3011" y2="17.6973" gradientTransform="matrix(39.2606 18.8245 -13.6609 28.4942 480.8594 -183.8125)">
					<stop  offset="0" style="stop-color:#FFFFFF"/>
					<stop  offset="0.5206" style="stop-color:#FFFFFF"/>
					<stop  offset="0.9096" style="stop-color:#FFFFFF"/>
					<stop  offset="1" style="stop-color:#FFFFFF"/>
				</linearGradient>
				<polygon clip-path="url(#SVGID_42_)" mask="url(#SVGID_43_)" fill="url(#SVGID_45_)" points="348.873,462.867 467.626,519.806 
					537.593,373.87 418.839,316.931 				"/>
			</g>
			<g clip-path="url(#SVGID_4_)">
				<defs>
					<polygon id="SVGID_46_" points="256.406,274.229 299.388,288.007 344.454,294.867 342.347,282.312 263.334,265.267 					"/>
				</defs>
				<clipPath id="SVGID_47_">
					<use xlink:href="#SVGID_46_"  overflow="visible"/>
				</clipPath>
				
					<linearGradient id="SVGID_48_" gradientUnits="userSpaceOnUse" x1="5.7612" y1="-3.104" x2="6.4002" y2="-3.104" gradientTransform="matrix(51.79 89.703 89.703 -51.79 264.875 -424.6562)">
					<stop  offset="0" style="stop-color:#006D4F"/>
					<stop  offset="0.5" style="stop-color:#006D4F"/>
					<stop  offset="1" style="stop-color:#004A33"/>
				</linearGradient>
				<polygon clip-path="url(#SVGID_47_)" fill="url(#SVGID_48_)" points="322.442,227.141 357.271,287.467 278.418,332.993 
					243.588,272.667 				"/>
			</g>
			<g clip-path="url(#SVGID_4_)">
				<defs>
					<polygon id="SVGID_49_" points="386.62,339.324 404.674,375.399 429.39,409.229 434.177,398.192 382.051,311.909 					"/>
				</defs>
				<clipPath id="SVGID_50_">
					<use xlink:href="#SVGID_49_"  overflow="visible"/>
				</clipPath>
				
					<linearGradient id="SVGID_51_" gradientUnits="userSpaceOnUse" x1="4.23" y1="-0.3262" x2="4.8691" y2="-0.3262" gradientTransform="matrix(-6.700000e-06 152.2876 152.2876 6.700000e-06 457.875 -332.375)">
					<stop  offset="0" style="stop-color:#00573F"/>
					<stop  offset="0.0011" style="stop-color:#00573F"/>
					<stop  offset="1" style="stop-color:#002E20"/>
				</linearGradient>
				<rect x="382.051" y="311.909" clip-path="url(#SVGID_50_)" fill="url(#SVGID_51_)" width="52.126" height="97.321"/>
			</g>
			<g clip-path="url(#SVGID_4_)">
				<defs>
					<path id="SVGID_52_" d="M397.626,405.676l21.794,8.129c3.105-4.575,9.97-4.575,9.97-4.575l-42.77-69.905L397.626,405.676z
						 M254.298,287.77l43.561,71.644c6.14,2.45,14.923,10.135,18.793,15.927l43.828,16.146l-16.026-96.62l-88.048-20.638
						C256.406,274.229,258.007,283.61,254.298,287.77"/>
				</defs>
				<clipPath id="SVGID_53_">
					<use xlink:href="#SVGID_52_"  overflow="visible"/>
				</clipPath>
				
					<linearGradient id="SVGID_54_" gradientUnits="userSpaceOnUse" x1="1.8672" y1="-1.0068" x2="2.5061" y2="-1.0068" gradientTransform="matrix(159.1435 275.6447 275.6447 -159.1435 270.5 -420.125)">
					<stop  offset="0" style="stop-color:#52835F"/>
					<stop  offset="0.0169" style="stop-color:#52835F"/>
					<stop  offset="0.5" style="stop-color:#006D4F"/>
					<stop  offset="1" style="stop-color:#004A33"/>
				</linearGradient>
				<polygon clip-path="url(#SVGID_53_)" fill="url(#SVGID_54_)" points="385.617,198.412 489.828,378.911 298.071,489.622 
					193.86,309.123 				"/>
			</g>
		</g>
	</g>
</g>
</svg>
