<?xml version="1.0" encoding="utf-8"?>
<!-- Generator: Adobe Illustrator 16.0.4, SVG Export Plug-In . SVG Version: 6.00 Build 0)  -->
<!DOCTYPE svg PUBLIC "-//W3C//DTD SVG 1.1//EN" "http://www.w3.org/Graphics/SVG/1.1/DTD/svg11.dtd">
<svg version="1.1" id="Layer_1" xmlns="http://www.w3.org/2000/svg" xmlns:xlink="http://www.w3.org/1999/xlink" x="0px" y="0px"
	 width="640px" height="640px" viewBox="0 0 640 640" enable-background="new 0 0 640 640" xml:space="preserve">
<g>
	<g id="path7865" sodipodi:nodetypes="csccscccc" opacity="0.5" enable-background="new    ">
		<path d="M50.435,7.5v625h354.679h0.179c0,0,66.864-55.282,97.749-85.969c30.895-30.699,86.524-97.137,86.524-97.137v-0.175V7.5
			H50.435z"/>
	</g>
	<path id="path34" sodipodi:nodetypes="cccccc" fill="#FFFFFF" d="M61.217,17.891v603.827h340.442l177.123-177.124V17.891H61.217z"
		/>
	
		<radialGradient id="path59_1_" cx="502.3701" cy="-39.5312" r="752.3743" gradientTransform="matrix(1 0 0 -0.9997 22.5 540.5161)" gradientUnits="userSpaceOnUse">
		<stop  offset="0" style="stop-color:#B7B8B9"/>
		<stop  offset="0.1885" style="stop-color:#ECECEC"/>
		<stop  offset="0.2572" style="stop-color:#FAFAFA"/>
		<stop  offset="0.3011" style="stop-color:#FFFFFF"/>
		<stop  offset="0.5313" style="stop-color:#FAFAFA"/>
		<stop  offset="0.8449" style="stop-color:#EBECEC"/>
		<stop  offset="1" style="stop-color:#E1E2E3"/>
	</radialGradient>
	<path id="path59" sodipodi:nodetypes="ccccccccccc" fill="url(#path59_1_)" d="M72,23.283c-2.97,0-5.392,2.419-5.392,5.389v582.063
		c0,2.98,2.422,5.392,5.392,5.392h319.014c1.421,0,14.895,0.637,15.899-0.368l164.898-166.057c1.011-1.006,1.58-14.474,1.58-15.89
		V28.671c0-2.97-2.417-5.389-5.392-5.389H72z"/>
	
		<linearGradient id="path14523_1_" gradientUnits="userSpaceOnUse" x1="483.8398" y1="-7.7773" x2="444.0045" y2="30.822" gradientTransform="matrix(1 0 0 -1 22.5 541)">
		<stop  offset="0" style="stop-color:#A2A2A2"/>
		<stop  offset="1" style="stop-color:#FFFFFF"/>
	</linearGradient>
	<path id="path14523" sodipodi:nodetypes="csccc" fill="url(#path14523_1_)" d="M401.796,621.718c0,0,64.232-53.45,93.885-83.103
		s83.102-93.884,83.102-93.884s-74.13,47.595-129.392,47.595C449.391,547.587,401.796,621.718,401.796,621.718z"/>
</g>
<g>
	<g>
		<defs>
			<rect id="SVGID_1_" x="115.498" y="115.3" width="409" height="409"/>
		</defs>
		<clipPath id="SVGID_2_">
			<use xlink:href="#SVGID_1_"  overflow="visible"/>
		</clipPath>
		<g clip-path="url(#SVGID_2_)">
			<defs>
				<rect id="SVGID_3_" x="115.498" y="115.3" width="409" height="409"/>
			</defs>
			<clipPath id="SVGID_4_">
				<use xlink:href="#SVGID_3_"  overflow="visible"/>
			</clipPath>
			<g clip-path="url(#SVGID_4_)">
				<defs>
					<polygon id="SVGID_5_" points="333.897,121.212 342.524,278.262 341.845,364.375 361.537,392.494 397.964,517.75 
						395.247,414.861 407.229,360.569 378.117,304.587 					"/>
				</defs>
				<clipPath id="SVGID_6_">
					<use xlink:href="#SVGID_5_"  overflow="visible"/>
				</clipPath>
				
					<linearGradient id="SVGID_7_" gradientUnits="userSpaceOnUse" x1="1.1577" y1="-0.29" x2="1.797" y2="-0.29" gradientTransform="matrix(161.8405 603.997 603.997 -161.8405 306.5 -621.25)">
					<stop  offset="0" style="stop-color:#A16D55"/>
					<stop  offset="0.0756" style="stop-color:#955C43"/>
					<stop  offset="0.1807" style="stop-color:#8A4C33"/>
					<stop  offset="0.3115" style="stop-color:#824127"/>
					<stop  offset="0.4947" style="stop-color:#7D3B20"/>
					<stop  offset="1" style="stop-color:#7C391E"/>
				</linearGradient>
				<polygon clip-path="url(#SVGID_6_)" fill="url(#SVGID_7_)" points="402.317,102.879 506.364,491.188 338.81,536.084 
					234.763,147.775 				"/>
			</g>
			<g clip-path="url(#SVGID_4_)">
				<defs>
					<path id="SVGID_8_" d="M225.715,396.931l133.018-15.853l15.049,90.644L225.715,396.931z M392.834,376.868l46.901-5.492
						l-35.479,74.291L392.834,376.868z M366.727,219.578l73.078,117.271l-52.575,6.269L366.727,219.578z M325.795,182.58
						l27.319,164.603L202.458,365.14L325.795,182.58z M335.045,120.153c-0.076,0.003-0.151,0.006-0.227,0.01
						c-0.277,0.013-0.556,0.035-0.833,0.062c-0.062,0.006-0.124,0.01-0.188,0.017c-0.311,0.035-0.621,0.077-0.933,0.128
						c-0.017,0.002-0.032,0.007-0.049,0.01c-0.073,0.012-0.146,0.028-0.219,0.042c-0.26,0.048-0.519,0.1-0.772,0.157
						c-0.084,0.02-0.168,0.041-0.25,0.062c-0.261,0.065-0.52,0.134-0.775,0.209c-0.057,0.017-0.112,0.033-0.169,0.05
						c-2.391,0.732-4.527,1.957-6.318,3.542c-0.026,0.023-0.053,0.047-0.078,0.071c-0.22,0.196-0.435,0.399-0.644,0.606
						c-0.046,0.046-0.093,0.092-0.14,0.139c-0.218,0.221-0.433,0.449-0.637,0.682c-0.016,0.017-0.032,0.034-0.047,0.051
						c-0.217,0.247-0.425,0.501-0.627,0.762c-0.054,0.068-0.104,0.139-0.157,0.209c-0.148,0.196-0.293,0.395-0.433,0.598
						c-0.031,0.045-0.065,0.088-0.096,0.134l-168.44,249.319c-0.03,0.045-0.057,0.091-0.086,0.136
						c-0.106,0.159-0.209,0.321-0.309,0.484c-0.051,0.084-0.104,0.168-0.154,0.253c-0.111,0.186-0.217,0.375-0.32,0.565
						c-0.035,0.063-0.07,0.125-0.103,0.188c-0.127,0.243-0.25,0.488-0.366,0.738c-0.005,0.012-0.011,0.022-0.016,0.033
						c-0.75,1.616-1.251,3.36-1.467,5.179c-0.002,0.024-0.005,0.047-0.007,0.072c-0.03,0.26-0.054,0.522-0.073,0.785
						c-0.003,0.06-0.006,0.118-0.009,0.177c-0.013,0.225-0.022,0.449-0.026,0.676c-0.001,0.094-0.001,0.186-0.001,0.278
						c0,0.191,0.001,0.383,0.008,0.575c0.004,0.122,0.01,0.242,0.016,0.365c0.009,0.164,0.02,0.33,0.034,0.497
						c0.011,0.14,0.023,0.28,0.039,0.42c0.008,0.071,0.011,0.144,0.021,0.214c0.005,0.045,0.017,0.088,0.022,0.132
						c0.059,0.463,0.133,0.926,0.231,1.386c0.02,0.09,0.042,0.179,0.063,0.269c0.038,0.168,0.073,0.336,0.116,0.503
						c0.062,0.235,0.131,0.467,0.202,0.698c0.033,0.106,0.065,0.212,0.1,0.318c0.12,0.365,0.254,0.726,0.397,1.079
						c0.054,0.137,0.108,0.273,0.167,0.408c0.156,0.36,0.325,0.714,0.503,1.062c0.074,0.139,0.148,0.276,0.224,0.414
						c0.191,0.346,0.39,0.688,0.604,1.018c0.066,0.103,0.138,0.2,0.205,0.3c0.195,0.289,0.399,0.571,0.612,0.848
						c0.068,0.087,0.132,0.178,0.202,0.264c0.263,0.327,0.539,0.643,0.825,0.951c0.077,0.081,0.152,0.161,0.229,0.241
						c0.299,0.31,0.608,0.609,0.93,0.896c0.057,0.05,0.117,0.099,0.174,0.149c0.314,0.272,0.639,0.535,0.973,0.784
						c0.044,0.033,0.087,0.069,0.132,0.101c0.35,0.257,0.715,0.497,1.086,0.729c0.094,0.057,0.188,0.115,0.283,0.172
						c0.334,0.198,0.675,0.391,1.023,0.567l0.14,0.069c0.022,0.013,0.043,0.023,0.065,0.035l228.812,115.574
						c0.08,0.039,0.161,0.073,0.241,0.112c0.131,0.065,0.264,0.126,0.397,0.186c0.299,0.137,0.602,0.263,0.906,0.382
						c0.119,0.047,0.236,0.096,0.358,0.139c0.358,0.131,0.724,0.246,1.09,0.352c0.168,0.049,0.337,0.094,0.508,0.136
						c0.277,0.07,0.56,0.133,0.84,0.19c0.182,0.037,0.364,0.074,0.548,0.105c0.351,0.06,0.702,0.105,1.056,0.143
						c0.17,0.018,0.339,0.032,0.509,0.045c0.352,0.026,0.704,0.043,1.057,0.048c0.069,0.001,0.137,0.008,0.207,0.008
						c0.645,0,1.296-0.068,1.95-0.144c0.291-0.033,0.582-0.128,0.873-0.128h0.007c0.422,0,0.838-0.142,1.247-0.24
						c0.07-0.018,0.141-0.024,0.213-0.044c0.424-0.106,0.843-0.225,1.252-0.364c0.006-0.001,0.014-0.001,0.021-0.004
						c0.027-0.009,0.055-0.019,0.083-0.029c0.243-0.083,0.482-0.171,0.72-0.265c0.009-0.004,0.017-0.007,0.025-0.011
						c1.065-0.424,2.072-0.95,3.011-1.564c0.003-0.002,0.007-0.003,0.009-0.005c0.229-0.15,0.455-0.307,0.676-0.466
						c0.021-0.015,0.039-0.03,0.059-0.045c0.203-0.146,0.401-0.297,0.596-0.454c0.039-0.031,0.079-0.064,0.118-0.098
						c0.172-0.14,0.342-0.283,0.508-0.428c0.058-0.052,0.113-0.104,0.171-0.154c0.146-0.132,0.288-0.265,0.428-0.4
						c0.072-0.069,0.144-0.142,0.213-0.212c0.121-0.121,0.241-0.245,0.358-0.37c0.082-0.087,0.162-0.176,0.242-0.265
						c0.104-0.114,0.205-0.229,0.304-0.347c0.086-0.1,0.171-0.203,0.254-0.306c0.091-0.112,0.181-0.224,0.267-0.338
						c0.085-0.109,0.168-0.22,0.249-0.33c0.085-0.116,0.166-0.229,0.247-0.346c0.078-0.112,0.155-0.226,0.23-0.341
						c0.082-0.122,0.161-0.244,0.238-0.369c0.068-0.109,0.137-0.22,0.204-0.331c0.081-0.139,0.161-0.278,0.238-0.418
						c0.056-0.1,0.112-0.2,0.164-0.301c0.087-0.161,0.169-0.326,0.25-0.49c0.027-0.054,0.057-0.107,0.083-0.161l72.399-151.604
						c0.011-0.023,0.019-0.045,0.028-0.066c0.447-0.945,0.811-1.936,1.08-2.959c0.005-0.021,0.01-0.042,0.017-0.063
						c0.261-1.002,0.431-2.034,0.505-3.089c0.004-0.047,0.006-0.093,0.009-0.14c0.018-0.279,0.028-0.561,0.031-0.843
						c0.001-0.082,0.002-0.164,0.002-0.247c0-0.25-0.007-0.503-0.02-0.756c-0.005-0.09-0.006-0.179-0.012-0.269
						c-0.018-0.302-0.132-0.604-0.166-0.907c-0.003-0.028-0.099-0.057-0.099-0.086v-0.002c0-0.329-0.001-0.653-0.057-0.976
						c-0.014-0.083,0.012-0.166-0.005-0.249c-0.049-0.254-0.08-0.507-0.139-0.756c-0.02-0.078-0.028-0.153-0.048-0.229
						c-0.07-0.282-0.144-0.56-0.229-0.835c-0.011-0.037-0.02-0.074-0.03-0.111c-0.47-1.49-1.132-2.885-1.959-4.156L350.297,128.316
						c-0.387-0.629-0.812-1.227-1.271-1.795c-0.032-0.042-0.066-0.082-0.1-0.125c-0.186-0.222-0.374-0.44-0.569-0.654
						c-0.038-0.042-0.075-0.085-0.115-0.127c-0.228-0.245-0.461-0.485-0.702-0.716c-0.015-0.014-0.029-0.026-0.044-0.041
						c-0.218-0.205-0.438-0.403-0.665-0.596c-0.082-0.07-0.165-0.138-0.249-0.207c-0.167-0.137-0.336-0.272-0.51-0.404
						c-0.091-0.07-0.183-0.139-0.274-0.207c-0.196-0.144-0.397-0.282-0.601-0.417c-0.062-0.042-0.124-0.086-0.188-0.127
						c-0.267-0.173-0.538-0.337-0.813-0.495c-0.069-0.04-0.139-0.077-0.209-0.115c-0.219-0.122-0.44-0.24-0.665-0.351
						c-0.079-0.039-0.158-0.078-0.238-0.117c-0.244-0.117-0.491-0.228-0.74-0.334c-0.049-0.02-0.094-0.042-0.142-0.061
						c-0.632-0.26-1.281-0.483-1.944-0.667c-0.019-0.004-0.037-0.01-0.056-0.015c-0.318-0.088-0.641-0.166-0.966-0.234
						c-0.021-0.004-0.041-0.008-0.062-0.014c-1.018-0.212-2.062-0.333-3.126-0.354c-0.02,0-0.039-0.002-0.056-0.002
						c-0.029-0.001-0.057,0-0.087,0c-0.071,0-0.145-0.001-0.218-0.001C335.475,120.141,335.26,120.145,335.045,120.153"/>
				</defs>
				<clipPath id="SVGID_9_">
					<use xlink:href="#SVGID_8_"  overflow="visible"/>
				</clipPath>
				
					<linearGradient id="SVGID_10_" gradientUnits="userSpaceOnUse" x1="1.1509" y1="-0.229" x2="1.7902" y2="-0.229" gradientTransform="matrix(163.0302 608.4371 608.4371 -163.0302 221 -600.25)">
					<stop  offset="0" style="stop-color:#A16D55"/>
					<stop  offset="0.0756" style="stop-color:#955C43"/>
					<stop  offset="0.1807" style="stop-color:#8A4C33"/>
					<stop  offset="0.3115" style="stop-color:#824127"/>
					<stop  offset="0.4947" style="stop-color:#7D3B20"/>
					<stop  offset="1" style="stop-color:#7C391E"/>
				</linearGradient>
				<polygon clip-path="url(#SVGID_9_)" fill="url(#SVGID_10_)" points="463.32,36.208 585.641,492.711 172.567,603.394 
					50.247,146.89 				"/>
			</g>
			<g clip-path="url(#SVGID_4_)">
				<defs>
					<path id="SVGID_11_" d="M151.38,388.421c0,0,1.155,4.563,4.918,6.622l222.707,108.122l-5.301-31.419l-93.241-47.161
						l-54.749-27.654l0.06-0.007l-33.926-17.159C175.662,391.067,153.868,395.357,151.38,388.421"/>
				</defs>
				<clipPath id="SVGID_12_">
					<use xlink:href="#SVGID_11_"  overflow="visible"/>
				</clipPath>
				<defs>
					<filter id="Adobe_OpacityMaskFilter" filterUnits="userSpaceOnUse" x="102.33" y="290.858" width="325.727" height="301.214">
						<feColorMatrix  type="matrix" values="1 0 0 0 0  0 1 0 0 0  0 0 1 0 0  0 0 0 1 0"/>
					</filter>
				</defs>
				<mask maskUnits="userSpaceOnUse" x="102.33" y="290.858" width="325.727" height="301.214" id="SVGID_13_">
					<g filter="url(#Adobe_OpacityMaskFilter)">
						
							<linearGradient id="SVGID_14_" gradientUnits="userSpaceOnUse" x1="11.0874" y1="8.2305" x2="11.7264" y2="8.2305" gradientTransform="matrix(-20.4683 41.597 30.2948 14.6478 253.25 -161.5)">
							<stop  offset="0" style="stop-color:#000000"/>
							<stop  offset="0.195" style="stop-color:#1A1A1A"/>
							<stop  offset="0.3857" style="stop-color:#2C2C2C"/>
							<stop  offset="0.5206" style="stop-color:#333333"/>
							<stop  offset="0.6861" style="stop-color:#252525"/>
							<stop  offset="0.9978" style="stop-color:#000000"/>
							<stop  offset="1" style="stop-color:#000000"/>
						</linearGradient>
						<polygon clip-path="url(#SVGID_12_)" fill="url(#SVGID_14_)" points="428.057,403.481 335.259,592.072 102.33,479.449 
							195.128,290.858 						"/>
					</g>
				</mask>
				
					<linearGradient id="SVGID_15_" gradientUnits="userSpaceOnUse" x1="11.0874" y1="8.2305" x2="11.7264" y2="8.2305" gradientTransform="matrix(-20.4683 41.597 30.2948 14.6478 253.25 -161.5)">
					<stop  offset="0" style="stop-color:#FFFFFF"/>
					<stop  offset="0.5206" style="stop-color:#FFFFFF"/>
					<stop  offset="1" style="stop-color:#FFFFFF"/>
				</linearGradient>
				<polygon clip-path="url(#SVGID_12_)" mask="url(#SVGID_13_)" fill="url(#SVGID_15_)" points="428.057,403.481 335.259,592.072 
					102.33,479.449 195.128,290.858 				"/>
			</g>
			<g clip-path="url(#SVGID_4_)">
				<defs>
					<path id="SVGID_16_" d="M335.045,120.153c-0.076,0.003-0.151,0.006-0.227,0.01c-0.277,0.013-0.556,0.035-0.833,0.062
						c-0.062,0.006-0.124,0.01-0.188,0.017c-0.311,0.035-0.621,0.077-0.933,0.128c-0.017,0.002-0.032,0.007-0.049,0.01
						c-0.073,0.012-0.146,0.028-0.219,0.042c-0.26,0.048-0.519,0.1-0.772,0.157c-0.084,0.02-0.168,0.041-0.25,0.062
						c-0.261,0.065-0.52,0.134-0.775,0.209c-0.057,0.017-0.112,0.033-0.169,0.05c-2.391,0.732-4.527,1.957-6.318,3.542
						c-0.026,0.023-0.053,0.047-0.078,0.071c-0.22,0.196-0.435,0.399-0.644,0.606c-0.046,0.046-0.093,0.092-0.14,0.139
						c-0.218,0.221-0.433,0.449-0.637,0.682c-0.016,0.017-0.032,0.034-0.047,0.051c-0.217,0.247-0.425,0.501-0.627,0.762
						c-0.054,0.068-0.104,0.139-0.157,0.209c-0.148,0.196-0.293,0.395-0.433,0.598c-0.031,0.045-0.065,0.088-0.096,0.134
						l-3.799,5.623l60.625,365.481c1.244,6.955,3.549,12.629,6.395,16.88l3.84,1.939c0.08,0.039,0.161,0.073,0.241,0.112
						c0.131,0.065,0.264,0.126,0.397,0.186c0.299,0.137,0.602,0.263,0.906,0.382c0.119,0.047,0.236,0.096,0.358,0.139
						c0.358,0.131,0.724,0.246,1.09,0.352c0.168,0.049,0.337,0.094,0.508,0.136c0.277,0.07,0.56,0.133,0.84,0.19
						c0.182,0.037,0.364,0.074,0.548,0.105c0.351,0.06,0.702,0.105,1.056,0.143c0.17,0.018,0.339,0.032,0.509,0.045
						c0.352,0.026,0.704,0.043,1.057,0.048c0.069,0.001,0.137,0.008,0.207,0.008c0.645,0,1.296-0.068,1.95-0.144
						c0.291-0.033,0.582-0.128,0.873-0.128h0.007c0.422,0,0.838-0.142,1.247-0.24c0.07-0.018,0.141-0.024,0.213-0.044
						c0.424-0.106,0.843-0.225,1.252-0.364c0.006-0.001,0.014-0.001,0.021-0.004c0.027-0.009,0.055-0.019,0.083-0.029
						c0.243-0.083,0.482-0.171,0.72-0.265c0.009-0.004,0.017-0.007,0.025-0.011c1.065-0.424,2.072-0.95,3.011-1.564
						c0.003-0.002,0.007-0.003,0.009-0.005c0.229-0.15,0.455-0.307,0.676-0.466c0.021-0.015,0.039-0.03,0.059-0.045
						c0.203-0.146,0.401-0.297,0.596-0.454c0.039-0.031,0.079-0.064,0.118-0.098c0.172-0.14,0.342-0.283,0.508-0.428
						c0.058-0.052,0.113-0.104,0.171-0.154c0.146-0.132,0.288-0.265,0.428-0.4c0.072-0.069,0.144-0.142,0.213-0.212
						c0.121-0.121,0.241-0.245,0.358-0.37c0.082-0.087,0.162-0.176,0.242-0.265c0.104-0.114,0.205-0.229,0.304-0.347
						c0.086-0.1,0.171-0.203,0.254-0.306c0.091-0.112,0.181-0.224,0.267-0.338c0.085-0.109,0.168-0.22,0.249-0.33
						c0.085-0.116,0.166-0.229,0.247-0.346c0.078-0.112,0.155-0.226,0.23-0.341c0.082-0.122,0.161-0.244,0.238-0.369
						c0.054-0.087,0.108-0.173,0.161-0.262c1.49-6.382,1.666-15.098-0.212-26.348l-6.49-39.121l-0.002,0.003l-11.423-68.799
						l0.014-0.002l-5.599-33.752l-0.02,0.003l-20.503-123.54l0.04,0.066l-14.67-88.438l-1.8-2.889
						c-0.387-0.629-0.812-1.227-1.271-1.795c-0.032-0.042-0.066-0.082-0.1-0.125c-0.186-0.222-0.374-0.44-0.569-0.654
						c-0.038-0.042-0.075-0.085-0.115-0.127c-0.228-0.245-0.461-0.485-0.702-0.716c-0.015-0.014-0.029-0.026-0.044-0.041
						c-0.218-0.205-0.438-0.403-0.665-0.596c-0.082-0.07-0.165-0.138-0.249-0.207c-0.167-0.137-0.336-0.272-0.51-0.404
						c-0.091-0.07-0.183-0.139-0.274-0.207c-0.196-0.144-0.397-0.282-0.601-0.417c-0.062-0.042-0.124-0.086-0.188-0.127
						c-0.267-0.173-0.538-0.337-0.813-0.495c-0.069-0.04-0.139-0.077-0.209-0.115c-0.219-0.122-0.44-0.24-0.665-0.351
						c-0.079-0.039-0.158-0.078-0.238-0.117c-0.244-0.117-0.491-0.228-0.74-0.334c-0.049-0.02-0.094-0.042-0.142-0.061
						c-0.632-0.26-1.281-0.483-1.944-0.667c-0.019-0.004-0.037-0.01-0.056-0.015c-0.318-0.088-0.641-0.166-0.966-0.234
						c-0.021-0.004-0.041-0.008-0.062-0.014c-1.018-0.212-2.062-0.333-3.126-0.354c-0.02,0-0.039-0.002-0.056-0.002
						c-0.029-0.001-0.057,0-0.087,0c-0.071,0-0.145-0.001-0.218-0.001C335.475,120.141,335.26,120.145,335.045,120.153"/>
				</defs>
				<clipPath id="SVGID_17_">
					<use xlink:href="#SVGID_16_"  overflow="visible"/>
				</clipPath>
				<defs>
					
						<filter id="Adobe_OpacityMaskFilter_1_" filterUnits="userSpaceOnUse" x="253.197" y="104.811" width="223.889" height="429.98">
						<feColorMatrix  type="matrix" values="1 0 0 0 0  0 1 0 0 0  0 0 1 0 0  0 0 0 1 0"/>
					</filter>
				</defs>
				<mask maskUnits="userSpaceOnUse" x="253.197" y="104.811" width="223.889" height="429.98" id="SVGID_18_">
					<g filter="url(#Adobe_OpacityMaskFilter_1_)">
						
							<linearGradient id="SVGID_19_" gradientUnits="userSpaceOnUse" x1="2.6064" y1="6.1084" x2="3.2456" y2="6.1084" gradientTransform="matrix(-52.9912 8.7892 16.8145 101.3751 418.3125 -325.25)">
							<stop  offset="0" style="stop-color:#000000"/>
							<stop  offset="0.1699" style="stop-color:#202020"/>
							<stop  offset="0.3681" style="stop-color:#404040"/>
							<stop  offset="0.4779" style="stop-color:#4D4D4D"/>
							<stop  offset="0.5984" style="stop-color:#404040"/>
							<stop  offset="0.8167" style="stop-color:#202020"/>
							<stop  offset="1" style="stop-color:#000000"/>
						</linearGradient>
						<polygon clip-path="url(#SVGID_17_)" fill="url(#SVGID_19_)" points="477.086,508.77 320.199,534.791 253.197,130.832 
							410.084,104.811 						"/>
					</g>
				</mask>
				
					<linearGradient id="SVGID_20_" gradientUnits="userSpaceOnUse" x1="2.606" y1="6.1074" x2="3.245" y2="6.1074" gradientTransform="matrix(-52.9912 8.7892 16.8145 101.3751 418.3125 -325.25)">
					<stop  offset="0" style="stop-color:#FFFFFF"/>
					<stop  offset="0.4779" style="stop-color:#FFFFFF"/>
					<stop  offset="1" style="stop-color:#FFFFFF"/>
				</linearGradient>
				<polygon clip-path="url(#SVGID_17_)" mask="url(#SVGID_18_)" fill="url(#SVGID_20_)" points="477.086,508.77 320.199,534.791 
					253.197,130.832 410.084,104.811 				"/>
			</g>
			<g clip-path="url(#SVGID_4_)">
				<defs>
					<path id="SVGID_21_" d="M355.538,151.947l11.188,67.5l17.073,27.53l56.005,89.873l-0.248,0.03l9.46,15.253
						c15.953,6.301,38.263-2.943,34.171-9.689L349.074,126.581c-0.017-0.02-0.032-0.04-0.049-0.06
						c-0.032-0.042-0.066-0.082-0.1-0.125c-0.186-0.222-0.374-0.44-0.569-0.654c-0.038-0.042-0.075-0.085-0.115-0.127
						c-0.228-0.245-0.461-0.485-0.702-0.716c-0.015-0.014-0.029-0.026-0.044-0.041c-0.162-0.153-0.327-0.302-0.495-0.449
						C350.425,131.891,353.767,141.271,355.538,151.947"/>
				</defs>
				<clipPath id="SVGID_22_">
					<use xlink:href="#SVGID_21_"  overflow="visible"/>
				</clipPath>
				<defs>
					<filter id="Adobe_OpacityMaskFilter_2_" filterUnits="userSpaceOnUse" x="242.34" y="61.68" width="349.6" height="359.482">
						<feColorMatrix  type="matrix" values="1 0 0 0 0  0 1 0 0 0  0 0 1 0 0  0 0 0 1 0"/>
					</filter>
				</defs>
				<mask maskUnits="userSpaceOnUse" x="242.34" y="61.68" width="349.6" height="359.482" id="SVGID_23_">
					<g filter="url(#Adobe_OpacityMaskFilter_2_)">
						
							<linearGradient id="SVGID_24_" gradientUnits="userSpaceOnUse" x1="7.5791" y1="11.7964" x2="8.2182" y2="11.7964" gradientTransform="matrix(-45.8006 28.3029 25.815 41.7705 462.3281 -467.4375)">
							<stop  offset="0" style="stop-color:#000000"/>
							<stop  offset="0.187" style="stop-color:#0C0C0C"/>
							<stop  offset="0.5229" style="stop-color:#2B2B2B"/>
							<stop  offset="0.5962" style="stop-color:#333333"/>
							<stop  offset="0.725" style="stop-color:#272727"/>
							<stop  offset="0.9587" style="stop-color:#060606"/>
							<stop  offset="1" style="stop-color:#000000"/>
						</linearGradient>
						<polygon clip-path="url(#SVGID_22_)" fill="url(#SVGID_24_)" points="591.939,293.757 385.769,421.162 242.34,189.085 
							448.511,61.68 						"/>
					</g>
				</mask>
				
					<linearGradient id="SVGID_25_" gradientUnits="userSpaceOnUse" x1="7.5786" y1="11.7949" x2="8.2177" y2="11.7949" gradientTransform="matrix(-45.8006 28.3029 25.815 41.7705 462.3281 -467.4375)">
					<stop  offset="0" style="stop-color:#FFFFFF"/>
					<stop  offset="0.5962" style="stop-color:#FFFFFF"/>
					<stop  offset="1" style="stop-color:#FFFFFF"/>
				</linearGradient>
				<polygon clip-path="url(#SVGID_22_)" mask="url(#SVGID_23_)" fill="url(#SVGID_25_)" points="591.939,293.757 385.769,421.162 
					242.34,189.085 448.511,61.68 				"/>
			</g>
			<g clip-path="url(#SVGID_4_)">
				<defs>
					<path id="SVGID_26_" d="M153.015,377.012c-0.03,0.045-0.057,0.091-0.086,0.136c-0.106,0.159-0.209,0.321-0.309,0.484
						c-0.051,0.084-0.104,0.168-0.154,0.253c-0.111,0.186-0.217,0.375-0.32,0.565c-0.035,0.063-0.07,0.125-0.103,0.188
						c-0.098,0.187-0.192,0.374-0.284,0.564c-0.702,2.048-1.174,4.593-0.859,7.47c1.186,10.859,27.708,2.649,40.948-6.908
						l133.946-197.316l-5.518-33.329c-1.371-8.262-0.951-14.913,0.348-20.198L153.015,377.012z"/>
				</defs>
				<clipPath id="SVGID_27_">
					<use xlink:href="#SVGID_26_"  overflow="visible"/>
				</clipPath>
				<defs>
					
						<filter id="Adobe_OpacityMaskFilter_3_" filterUnits="userSpaceOnUse" x="24.636" y="47.833" width="427.108" height="430.786">
						<feColorMatrix  type="matrix" values="1 0 0 0 0  0 1 0 0 0  0 0 1 0 0  0 0 0 1 0"/>
					</filter>
				</defs>
				<mask maskUnits="userSpaceOnUse" x="24.636" y="47.833" width="427.108" height="430.786" id="SVGID_28_">
					<g filter="url(#Adobe_OpacityMaskFilter_3_)">
						
							<linearGradient id="SVGID_29_" gradientUnits="userSpaceOnUse" x1="7.0898" y1="10.0947" x2="7.7289" y2="10.0947" gradientTransform="matrix(49.5537 33.6445 -30.8838 44.897 190.0156 -434.375)">
							<stop  offset="0" style="stop-color:#000000"/>
							<stop  offset="0.187" style="stop-color:#0C0C0C"/>
							<stop  offset="0.5229" style="stop-color:#2B2B2B"/>
							<stop  offset="0.5962" style="stop-color:#333333"/>
							<stop  offset="0.725" style="stop-color:#272727"/>
							<stop  offset="0.9587" style="stop-color:#060606"/>
							<stop  offset="1" style="stop-color:#000000"/>
						</linearGradient>
						<polygon clip-path="url(#SVGID_27_)" fill="url(#SVGID_29_)" points="24.636,312.019 270.016,478.619 451.744,214.435 
							206.364,47.833 						"/>
					</g>
				</mask>
				
					<linearGradient id="SVGID_30_" gradientUnits="userSpaceOnUse" x1="7.0898" y1="10.0957" x2="7.7289" y2="10.0957" gradientTransform="matrix(49.5537 33.6445 -30.8838 44.897 190.0156 -434.375)">
					<stop  offset="0" style="stop-color:#FFFFFF"/>
					<stop  offset="0.5962" style="stop-color:#FFFFFF"/>
					<stop  offset="1" style="stop-color:#FFFFFF"/>
				</linearGradient>
				<polygon clip-path="url(#SVGID_27_)" mask="url(#SVGID_28_)" fill="url(#SVGID_30_)" points="24.636,312.019 270.016,478.619 
					451.744,214.435 206.364,47.833 				"/>
			</g>
			<g clip-path="url(#SVGID_4_)">
				<defs>
					<polygon id="SVGID_31_" points="200.774,366.617 191.849,379.765 207.347,387.604 346.834,370.73 344.236,349.262 					"/>
				</defs>
				<clipPath id="SVGID_32_">
					<use xlink:href="#SVGID_31_"  overflow="visible"/>
				</clipPath>
				<defs>
					
						<filter id="Adobe_OpacityMaskFilter_4_" filterUnits="userSpaceOnUse" x="187.276" y="330.777" width="164.13" height="75.311">
						<feColorMatrix  type="matrix" values="1 0 0 0 0  0 1 0 0 0  0 0 1 0 0  0 0 0 1 0"/>
					</filter>
				</defs>
				<mask maskUnits="userSpaceOnUse" x="187.276" y="330.777" width="164.13" height="75.311" id="SVGID_33_">
					<g filter="url(#Adobe_OpacityMaskFilter_4_)">
						
							<linearGradient id="SVGID_34_" gradientUnits="userSpaceOnUse" x1="18.229" y1="-1.0762" x2="18.8681" y2="-1.0762" gradientTransform="matrix(4.066 33.6016 40.4718 -4.8976 237.5625 -259.3438)">
							<stop  offset="0" style="stop-color:#000000"/>
							<stop  offset="0.3609" style="stop-color:#1A1A1A"/>
							<stop  offset="1" style="stop-color:#000000"/>
						</linearGradient>
						<polygon clip-path="url(#SVGID_32_)" fill="url(#SVGID_34_)" points="344.598,330.777 351.406,387.05 194.085,406.088 
							187.276,349.815 						"/>
					</g>
				</mask>
				
					<linearGradient id="SVGID_35_" gradientUnits="userSpaceOnUse" x1="18.229" y1="-1.0771" x2="18.8681" y2="-1.0771" gradientTransform="matrix(4.066 33.6016 40.4718 -4.8976 237.5625 -259.3438)">
					<stop  offset="0" style="stop-color:#FFFFFF"/>
					<stop  offset="0.3609" style="stop-color:#FFFFFF"/>
					<stop  offset="1" style="stop-color:#FFFFFF"/>
				</linearGradient>
				<polygon clip-path="url(#SVGID_32_)" mask="url(#SVGID_33_)" fill="url(#SVGID_35_)" points="344.598,330.777 351.406,387.05 
					194.085,406.088 187.276,349.815 				"/>
			</g>
			<g clip-path="url(#SVGID_4_)">
				<defs>
					<polygon id="SVGID_36_" points="387.804,343.781 395.503,364.632 445.442,359.592 449.017,352.132 440.372,337.496 					"/>
				</defs>
				<clipPath id="SVGID_37_">
					<use xlink:href="#SVGID_36_"  overflow="visible"/>
				</clipPath>
				<defs>
					
						<filter id="Adobe_OpacityMaskFilter_5_" filterUnits="userSpaceOnUse" x="384.567" y="330.189" width="67.686" height="41.749">
						<feColorMatrix  type="matrix" values="1 0 0 0 0  0 1 0 0 0  0 0 1 0 0  0 0 0 1 0"/>
					</filter>
				</defs>
				<mask maskUnits="userSpaceOnUse" x="384.567" y="330.189" width="67.686" height="41.749" id="SVGID_38_">
					<g filter="url(#Adobe_OpacityMaskFilter_5_)">
						
							<linearGradient id="SVGID_39_" gradientUnits="userSpaceOnUse" x1="17.4302" y1="-9.7266" x2="18.0691" y2="-9.7266" gradientTransform="matrix(4.2532 35.1484 13.321 -1.6133 472.5312 -288.0938)">
							<stop  offset="0" style="stop-color:#000000"/>
							<stop  offset="0.3609" style="stop-color:#1A1A1A"/>
							<stop  offset="1" style="stop-color:#000000"/>
						</linearGradient>
						<polygon clip-path="url(#SVGID_37_)" fill="url(#SVGID_39_)" points="448.133,330.189 452.253,364.24 388.688,371.938 
							384.567,337.889 						"/>
					</g>
				</mask>
				
					<linearGradient id="SVGID_40_" gradientUnits="userSpaceOnUse" x1="17.4302" y1="-9.7266" x2="18.0691" y2="-9.7266" gradientTransform="matrix(4.2532 35.1484 13.321 -1.6133 472.5312 -288.0938)">
					<stop  offset="0" style="stop-color:#FFFFFF"/>
					<stop  offset="0.3609" style="stop-color:#FFFFFF"/>
					<stop  offset="1" style="stop-color:#FFFFFF"/>
				</linearGradient>
				<polygon clip-path="url(#SVGID_37_)" mask="url(#SVGID_38_)" fill="url(#SVGID_40_)" points="448.133,330.189 452.253,364.24 
					388.688,371.938 384.567,337.889 				"/>
			</g>
			<g clip-path="url(#SVGID_4_)">
				<defs>
					<path id="SVGID_41_" d="M449.017,352.132l-26.605,55.522l-18.137,37.979l7.245,43.799l70.669-142.126
						C475.295,354.232,458.135,356.229,449.017,352.132"/>
				</defs>
				<clipPath id="SVGID_42_">
					<use xlink:href="#SVGID_41_"  overflow="visible"/>
				</clipPath>
				<defs>
					
						<filter id="Adobe_OpacityMaskFilter_6_" filterUnits="userSpaceOnUse" x="348.87" y="316.93" width="188.723" height="202.877">
						<feColorMatrix  type="matrix" values="1 0 0 0 0  0 1 0 0 0  0 0 1 0 0  0 0 0 1 0"/>
					</filter>
				</defs>
				<mask maskUnits="userSpaceOnUse" x="348.87" y="316.93" width="188.723" height="202.877" id="SVGID_43_">
					<g filter="url(#Adobe_OpacityMaskFilter_6_)">
						
							<linearGradient id="SVGID_44_" gradientUnits="userSpaceOnUse" x1="4.6616" y1="17.6973" x2="5.3007" y2="17.6973" gradientTransform="matrix(39.2606 18.8245 -13.6609 28.4942 480.8594 -183.8125)">
							<stop  offset="0" style="stop-color:#000000"/>
							<stop  offset="0.195" style="stop-color:#1A1A1A"/>
							<stop  offset="0.3857" style="stop-color:#2C2C2C"/>
							<stop  offset="0.5206" style="stop-color:#333333"/>
							<stop  offset="0.6549" style="stop-color:#252525"/>
							<stop  offset="0.9079" style="stop-color:#000000"/>
							<stop  offset="0.9096" style="stop-color:#000000"/>
							<stop  offset="1" style="stop-color:#000000"/>
						</linearGradient>
						<polygon clip-path="url(#SVGID_42_)" fill="url(#SVGID_44_)" points="348.87,462.867 467.626,519.807 537.593,373.87 
							418.837,316.93 						"/>
					</g>
				</mask>
				
					<linearGradient id="SVGID_45_" gradientUnits="userSpaceOnUse" x1="4.6616" y1="17.6973" x2="5.3007" y2="17.6973" gradientTransform="matrix(39.2606 18.8245 -13.6609 28.4942 480.8594 -183.8125)">
					<stop  offset="0" style="stop-color:#FFFFFF"/>
					<stop  offset="0.5206" style="stop-color:#FFFFFF"/>
					<stop  offset="0.9096" style="stop-color:#FFFFFF"/>
					<stop  offset="1" style="stop-color:#FFFFFF"/>
				</linearGradient>
				<polygon clip-path="url(#SVGID_42_)" mask="url(#SVGID_43_)" fill="url(#SVGID_45_)" points="348.87,462.867 467.626,519.807 
					537.593,373.87 418.837,316.93 				"/>
			</g>
			<g clip-path="url(#SVGID_4_)">
				<defs>
					<polygon id="SVGID_46_" points="256.406,274.229 299.388,288.007 344.454,294.867 342.347,282.312 263.334,265.267 					"/>
				</defs>
				<clipPath id="SVGID_47_">
					<use xlink:href="#SVGID_46_"  overflow="visible"/>
				</clipPath>
				
					<linearGradient id="SVGID_48_" gradientUnits="userSpaceOnUse" x1="5.7612" y1="-3.104" x2="6.4002" y2="-3.104" gradientTransform="matrix(51.79 89.703 89.703 -51.79 264.875 -424.6562)">
					<stop  offset="0" style="stop-color:#006D4F"/>
					<stop  offset="0.5" style="stop-color:#006D4F"/>
					<stop  offset="1" style="stop-color:#004A33"/>
				</linearGradient>
				<polygon clip-path="url(#SVGID_47_)" fill="url(#SVGID_48_)" points="322.442,227.141 357.271,287.467 278.418,332.993 
					243.588,272.667 				"/>
			</g>
			<g clip-path="url(#SVGID_4_)">
				<defs>
					<polygon id="SVGID_49_" points="386.62,339.324 404.674,375.399 429.39,409.229 434.177,398.192 382.051,311.909 					"/>
				</defs>
				<clipPath id="SVGID_50_">
					<use xlink:href="#SVGID_49_"  overflow="visible"/>
				</clipPath>
				
					<linearGradient id="SVGID_51_" gradientUnits="userSpaceOnUse" x1="4.23" y1="-0.3262" x2="4.8691" y2="-0.3262" gradientTransform="matrix(-6.700000e-06 152.2876 152.2876 6.700000e-06 457.875 -332.375)">
					<stop  offset="0" style="stop-color:#00573F"/>
					<stop  offset="0.0011" style="stop-color:#00573F"/>
					<stop  offset="1" style="stop-color:#002E20"/>
				</linearGradient>
				<rect x="382.051" y="311.909" clip-path="url(#SVGID_50_)" fill="url(#SVGID_51_)" width="52.126" height="97.321"/>
			</g>
			<g clip-path="url(#SVGID_4_)">
				<defs>
					<path id="SVGID_52_" d="M397.626,405.676l21.794,8.129c3.105-4.575,9.97-4.575,9.97-4.575l-42.77-69.905L397.626,405.676z
						 M254.298,287.77l43.561,71.644c6.14,2.45,14.923,10.135,18.793,15.927l43.828,16.146l-16.026-96.62l-88.048-20.638
						C256.406,274.229,258.007,283.61,254.298,287.77"/>
				</defs>
				<clipPath id="SVGID_53_">
					<use xlink:href="#SVGID_52_"  overflow="visible"/>
				</clipPath>
				
					<linearGradient id="SVGID_54_" gradientUnits="userSpaceOnUse" x1="1.8672" y1="-1.0068" x2="2.5061" y2="-1.0068" gradientTransform="matrix(159.1435 275.6447 275.6447 -159.1435 270.5 -420.125)">
					<stop  offset="0" style="stop-color:#52835F"/>
					<stop  offset="0.0169" style="stop-color:#52835F"/>
					<stop  offset="0.5" style="stop-color:#006D4F"/>
					<stop  offset="1" style="stop-color:#004A33"/>
				</linearGradient>
				<polygon clip-path="url(#SVGID_53_)" fill="url(#SVGID_54_)" points="385.617,198.412 489.828,378.911 298.071,489.622 
					193.86,309.123 				"/>
			</g>
		</g>
	</g>
</g>
</svg>
