<?xml version="1.0" encoding="utf-8"?>
<!-- Generator: Adobe Illustrator 16.0.4, SVG Export Plug-In . SVG Version: 6.00 Build 0)  -->
<!DOCTYPE svg PUBLIC "-//W3C//DTD SVG 1.1//EN" "http://www.w3.org/Graphics/SVG/1.1/DTD/svg11.dtd">
<svg version="1.1" id="Layer_1" xmlns="http://www.w3.org/2000/svg" xmlns:xlink="http://www.w3.org/1999/xlink" x="0px" y="0px"
	 width="640px" height="640px" viewBox="0 0 640 640" enable-background="new 0 0 640 640" xml:space="preserve">
<filter  id="AI_GaussianBlur_4">
	<feGaussianBlur  stdDeviation="4"></feGaussianBlur>
</filter>
<g>
	<g id="path7865" sodipodi:nodetypes="csccscccc" opacity="0.5" enable-background="new    ">
		<path d="M50.435,7.5v625h354.679h0.179c0,0,66.864-55.282,97.749-85.969c30.895-30.699,86.524-97.137,86.524-97.137v-0.175V7.5
			H50.435z"/>
	</g>
	<path id="path34" sodipodi:nodetypes="cccccc" fill="#FFFFFF" d="M61.217,17.891v603.827h340.442l177.123-177.124V17.891H61.217z"
		/>
	
		<radialGradient id="path59_1_" cx="502.3701" cy="-39.5312" r="752.3743" gradientTransform="matrix(1 0 0 -0.9997 22.5 540.5161)" gradientUnits="userSpaceOnUse">
		<stop  offset="0" style="stop-color:#B7B8B9"/>
		<stop  offset="0.1885" style="stop-color:#ECECEC"/>
		<stop  offset="0.2572" style="stop-color:#FAFAFA"/>
		<stop  offset="0.3011" style="stop-color:#FFFFFF"/>
		<stop  offset="0.5313" style="stop-color:#FAFAFA"/>
		<stop  offset="0.8449" style="stop-color:#EBECEC"/>
		<stop  offset="1" style="stop-color:#E1E2E3"/>
	</radialGradient>
	<path id="path59" sodipodi:nodetypes="ccccccccccc" fill="url(#path59_1_)" d="M72,23.283c-2.97,0-5.392,2.419-5.392,5.389v582.063
		c0,2.98,2.422,5.392,5.392,5.392h319.014c1.421,0,14.895,0.637,15.899-0.368l164.898-166.057c1.011-1.006,1.58-14.474,1.58-15.89
		V28.671c0-2.97-2.417-5.389-5.392-5.389H72z"/>
	
		<linearGradient id="path14523_1_" gradientUnits="userSpaceOnUse" x1="483.8398" y1="-7.7773" x2="444.0045" y2="30.822" gradientTransform="matrix(1 0 0 -1 22.5 541)">
		<stop  offset="0" style="stop-color:#A2A2A2"/>
		<stop  offset="1" style="stop-color:#FFFFFF"/>
	</linearGradient>
	<path id="path14523" sodipodi:nodetypes="csccc" fill="url(#path14523_1_)" d="M401.796,621.718c0,0,64.232-53.45,93.885-83.103
		s83.102-93.884,83.102-93.884s-74.13,47.595-129.392,47.595C449.391,547.587,401.796,621.718,401.796,621.718z"/>
</g>
<g>
	<g opacity="0.5">
		<g filter="url(#AI_GaussianBlur_4)">
			<path d="M473.661,341.411l-122.61-196.756c-6.218-9.586-19.794-10.324-26.638-0.577l-155.569,230.27
				c-5.804,8.986-1.819,18.873,6.177,23.116l211.33,106.743c9.02,4.184,17.8-0.022,21.448-7.316l66.866-140.021
				c0.011-0.021,0.019-0.04,0.026-0.062C477.045,351.388,476.823,346.74,473.661,341.411z M385.162,343.042l-18.937-114.099
				l67.495,108.311 M328.421,194.771l25.232,152.025l-139.145,16.585L328.421,194.771z M372.743,461.819l-136.754-69.075
				l122.854-14.642 M400.89,437.756l-10.552-63.54l43.318-5.073L400.89,437.756z"/>
		</g>
	</g>
	
		<linearGradient id="SVGID_1_" gradientUnits="userSpaceOnUse" x1="290.3579" y1="1038.3369" x2="385.8813" y2="681.8386" gradientTransform="matrix(1 0 0 -1 22.5 1179)">
		<stop  offset="0" style="stop-color:#A16D55"/>
		<stop  offset="0.0755" style="stop-color:#955C43"/>
		<stop  offset="0.18" style="stop-color:#8A4C32"/>
		<stop  offset="0.3102" style="stop-color:#824127"/>
		<stop  offset="0.4929" style="stop-color:#7D3B20"/>
		<stop  offset="1" style="stop-color:#7C391E"/>
	</linearGradient>
	<polygon fill="url(#SVGID_1_)" points="333.544,135.121 341.513,280.17 340.884,359.703 359.071,385.674 392.715,501.359 
		390.207,406.332 401.273,356.188 374.386,304.485 	"/>
	
		<linearGradient id="SVGID_2_" gradientUnits="userSpaceOnUse" x1="239.8838" y1="1025.9316" x2="336.1073" y2="666.8204" gradientTransform="matrix(1 0 0 -1 22.5 1179)">
		<stop  offset="0" style="stop-color:#B38973"/>
		<stop  offset="0.0191" style="stop-color:#AF836D"/>
		<stop  offset="0.1053" style="stop-color:#A26F57"/>
		<stop  offset="0.207" style="stop-color:#975F46"/>
		<stop  offset="0.333" style="stop-color:#8F533B"/>
		<stop  offset="0.5096" style="stop-color:#8B4D34"/>
		<stop  offset="1" style="stop-color:#8A4B32"/>
	</linearGradient>
	<path fill="url(#SVGID_2_)" d="M471.301,338.439L348.69,141.682c-6.219-9.586-19.794-10.324-26.638-0.576l-155.569,230.27
		c-5.804,8.986-1.819,18.874,6.177,23.117l211.33,106.742c9.021,4.184,17.8-0.022,21.448-7.316l66.867-140.02
		c0.011-0.021,0.018-0.041,0.026-0.062C474.684,348.416,474.462,343.768,471.301,338.439z M382.802,340.069L363.864,225.97
		l67.495,108.311 M326.061,191.799l25.23,152.026l-139.144,16.584L326.061,191.799z M370.382,458.847l-136.753-69.074
		l122.854-14.642 M398.528,434.783l-10.551-63.541l43.317-5.072L398.528,434.783z"/>
	<g>
		<g>
			<defs>
				<path id="SVGID_3_" d="M471.301,338.46L348.69,141.703c-6.219-9.586-19.794-10.324-26.638-0.576l-155.569,230.27
					c-5.804,8.986-1.819,18.874,6.177,23.116l211.33,106.743c9.021,4.183,17.8-0.022,21.448-7.317l66.867-140.02
					c0.011-0.021,0.018-0.041,0.026-0.062C474.684,348.437,474.462,343.789,471.301,338.46z M382.802,340.091l-18.938-114.1
					l67.495,108.311 M326.061,191.821l25.23,152.026l-139.144,16.584L326.061,191.821z M370.382,458.869l-136.753-69.076
					l122.854-14.642 M398.528,434.805l-10.551-63.541l43.317-5.072L398.528,434.805z"/>
			</defs>
			<clipPath id="SVGID_4_">
				<use xlink:href="#SVGID_3_"  overflow="visible"/>
			</clipPath>
			
				<linearGradient id="SVGID_5_" gradientUnits="userSpaceOnUse" x1="0.3306" y1="547.5693" x2="0.5413" y2="527.7101" gradientTransform="matrix(0.8938 0.4484 0.6178 -1.2315 -57.2734 1086.2803)">
				<stop  offset="0" style="stop-color:#FFFFFF;stop-opacity:0"/>
				<stop  offset="0.5206" style="stop-color:#FFFFFF;stop-opacity:0.2"/>
				<stop  offset="1" style="stop-color:#FFFFFF;stop-opacity:0"/>
			</linearGradient>
			<path clip-path="url(#SVGID_4_)" fill="url(#SVGID_5_)" d="M375.206,487.889l-205.69-99.861c-3.475-1.9-4.542-6.115-4.542-6.115
				c2.297,6.407,22.426,2.444,37.376-7.995l167.961,84.953L375.206,487.889z"/>
		</g>
		<g>
			<defs>
				<path id="SVGID_6_" d="M471.301,338.46L348.69,141.703c-6.219-9.586-19.794-10.324-26.638-0.576l-155.569,230.27
					c-5.804,8.986-1.819,18.874,6.177,23.116l211.33,106.743c9.021,4.183,17.8-0.022,21.448-7.317l66.867-140.02
					c0.011-0.021,0.018-0.041,0.026-0.062C474.684,348.437,474.462,343.789,471.301,338.46z M382.802,340.091l-18.938-114.1
					l67.495,108.311 M326.061,191.821l25.23,152.026l-139.144,16.584L326.061,191.821z M370.382,458.869l-136.753-69.076
					l122.854-14.642 M398.528,434.805l-10.551-63.541l43.317-5.072L398.528,434.805z"/>
			</defs>
			<clipPath id="SVGID_7_">
				<use xlink:href="#SVGID_6_"  overflow="visible"/>
			</clipPath>
			
				<linearGradient id="SVGID_8_" gradientUnits="userSpaceOnUse" x1="368.541" y1="372.2559" x2="368.541" y2="343.7207" gradientTransform="matrix(0.3478 2.0969 1.0961 -0.1818 -157.4727 -389.6885)">
				<stop  offset="0" style="stop-color:#FFFFFF;stop-opacity:0"/>
				<stop  offset="0.4779" style="stop-color:#FFFFFF;stop-opacity:0.3"/>
				<stop  offset="1" style="stop-color:#FFFFFF;stop-opacity:0"/>
			</linearGradient>
			<path clip-path="url(#SVGID_7_)" fill="url(#SVGID_8_)" d="M374.537,483.854l-58.546-352.947l31.271-5.188l57.262,345.195
				C412.487,518.624,380.468,517.001,374.537,483.854z"/>
		</g>
		<g>
			<defs>
				<path id="SVGID_9_" d="M471.301,338.46L348.69,141.703c-6.219-9.586-19.794-10.324-26.638-0.576l-155.569,230.27
					c-5.804,8.986-1.819,18.874,6.177,23.116l211.33,106.743c9.021,4.183,17.8-0.022,21.448-7.317l66.867-140.02
					c0.011-0.021,0.018-0.041,0.026-0.062C474.684,348.437,474.462,343.789,471.301,338.46z M382.802,340.091l-18.938-114.1
					l67.495,108.311 M326.061,191.821l25.23,152.026l-139.144,16.584L326.061,191.821z M370.382,458.869l-136.753-69.076
					l122.854-14.642 M398.528,434.805l-10.551-63.541l43.317-5.072L398.528,434.805z"/>
			</defs>
			<clipPath id="SVGID_10_">
				<use xlink:href="#SVGID_9_"  overflow="visible"/>
			</clipPath>
			
				<linearGradient id="SVGID_11_" gradientUnits="userSpaceOnUse" x1="92.0181" y1="579.4727" x2="92.0181" y2="550.8496" gradientTransform="matrix(0.5323 0.8613 0.9444 -0.5836 -191.5195 490.4248)">
				<stop  offset="0" style="stop-color:#FFFFFF;stop-opacity:0"/>
				<stop  offset="0.5962" style="stop-color:#FFFFFF;stop-opacity:0.2"/>
				<stop  offset="1" style="stop-color:#FFFFFF;stop-opacity:0"/>
			</linearGradient>
			<path clip-path="url(#SVGID_10_)" fill="url(#SVGID_11_)" d="M439.868,348.396l-76.003-122.547l-10.334-62.342
				c-4.205-25.355-18.014-42.813-18.014-42.813l135.909,218.752C475.206,345.678,454.602,354.216,439.868,348.396z"/>
		</g>
		<g>
			<defs>
				<path id="SVGID_12_" d="M471.301,338.46L348.69,141.703c-6.219-9.586-19.794-10.324-26.638-0.576l-155.569,230.27
					c-5.804,8.986-1.819,18.874,6.177,23.116l211.33,106.743c9.021,4.183,17.8-0.022,21.448-7.317l66.867-140.02
					c0.011-0.021,0.018-0.041,0.026-0.062C474.684,348.437,474.462,343.789,471.301,338.46z M382.802,340.091l-18.938-114.1
					l67.495,108.311 M326.061,191.821l25.23,152.026l-139.144,16.584L326.061,191.821z M370.382,458.869l-136.753-69.076
					l122.854-14.642 M398.528,434.805l-10.551-63.541l43.317-5.072L398.528,434.805z"/>
			</defs>
			<clipPath id="SVGID_13_">
				<use xlink:href="#SVGID_12_"  overflow="visible"/>
			</clipPath>
			
				<linearGradient id="SVGID_14_" gradientUnits="userSpaceOnUse" x1="149.665" y1="630.4229" x2="149.665" y2="598.7207" gradientTransform="matrix(-0.575 0.8359 -0.9226 -0.6264 911.6699 520.8042)">
				<stop  offset="0" style="stop-color:#FFFFFF;stop-opacity:0"/>
				<stop  offset="0.5962" style="stop-color:#FFFFFF;stop-opacity:0.2"/>
				<stop  offset="1" style="stop-color:#FFFFFF;stop-opacity:0"/>
			</linearGradient>
			<path clip-path="url(#SVGID_13_)" fill="url(#SVGID_14_)" d="M202.35,373.917l123.711-182.239l-5.097-30.783
				c-4.428-26.698,11.383-35.177,11.383-35.177L167.984,368.481c0,0-4.214,4.858-3.454,11.816
				C165.625,390.327,190.121,382.744,202.35,373.917z"/>
		</g>
		<g>
			<defs>
				<path id="SVGID_15_" d="M471.301,338.46L348.69,141.703c-6.219-9.586-19.794-10.324-26.638-0.576l-155.569,230.27
					c-5.804,8.986-1.819,18.874,6.177,23.116l211.33,106.743c9.021,4.183,17.8-0.022,21.448-7.317l66.867-140.02
					c0.011-0.021,0.018-0.041,0.026-0.062C474.684,348.437,474.462,343.789,471.301,338.46z M382.802,340.091l-18.938-114.1
					l67.495,108.311 M326.061,191.821l25.23,152.026l-139.144,16.584L326.061,191.821z M370.382,458.869l-136.753-69.076
					l122.854-14.642 M398.528,434.805l-10.551-63.541l43.317-5.072L398.528,434.805z"/>
			</defs>
			<clipPath id="SVGID_16_">
				<use xlink:href="#SVGID_15_"  overflow="visible"/>
			</clipPath>
			
				<linearGradient id="SVGID_17_" gradientUnits="userSpaceOnUse" x1="396.6553" y1="1073.5664" x2="396.6553" y2="1045.0312" gradientTransform="matrix(0.8371 -0.1013 -0.0841 -0.695 30.3027 1140.6475)">
				<stop  offset="0" style="stop-color:#FFFFFF;stop-opacity:0"/>
				<stop  offset="0.3609" style="stop-color:#FFFFFF;stop-opacity:0.1"/>
				<stop  offset="1" style="stop-color:#FFFFFF;stop-opacity:0"/>
			</linearGradient>
			<polygon clip-path="url(#SVGID_16_)" fill="url(#SVGID_17_)" points="345.492,365.572 216.664,381.157 202.35,373.917 
				210.593,361.774 343.094,345.746 			"/>
		</g>
		<g>
			<defs>
				<path id="SVGID_18_" d="M471.301,338.46L348.69,141.703c-6.219-9.586-19.794-10.324-26.638-0.576l-155.569,230.27
					c-5.804,8.986-1.819,18.874,6.177,23.116l211.33,106.743c9.021,4.183,17.8-0.022,21.448-7.317l66.867-140.02
					c0.011-0.021,0.018-0.041,0.026-0.062C474.684,348.437,474.462,343.789,471.301,338.46z M382.802,340.091l-18.938-114.1
					l67.495,108.311 M326.061,191.821l25.23,152.026l-139.144,16.584L326.061,191.821z M370.382,458.869l-136.753-69.076
					l122.854-14.642 M398.528,434.805l-10.551-63.541l43.317-5.072L398.528,434.805z"/>
			</defs>
			<clipPath id="SVGID_19_">
				<use xlink:href="#SVGID_18_"  overflow="visible"/>
			</clipPath>
			
				<linearGradient id="SVGID_20_" gradientUnits="userSpaceOnUse" x1="512.418" y1="1073.8291" x2="512.418" y2="1043.9805" gradientTransform="matrix(0.2634 -0.0319 -0.0841 -0.695 366.0698 1100.0229)">
				<stop  offset="0" style="stop-color:#FFFFFF;stop-opacity:0"/>
				<stop  offset="0.3609" style="stop-color:#FFFFFF;stop-opacity:0.1"/>
				<stop  offset="1" style="stop-color:#FFFFFF;stop-opacity:0"/>
			</linearGradient>
			<polygon clip-path="url(#SVGID_19_)" fill="url(#SVGID_20_)" points="436.565,355.286 390.441,359.941 383.332,340.684 
				431.884,334.878 439.868,348.396 			"/>
		</g>
		<g>
			<defs>
				<path id="SVGID_21_" d="M471.301,338.46L348.69,141.703c-6.219-9.586-19.794-10.324-26.638-0.576l-155.569,230.27
					c-5.804,8.986-1.819,18.874,6.177,23.116l211.33,106.743c9.021,4.183,17.8-0.022,21.448-7.317l66.867-140.02
					c0.011-0.021,0.018-0.041,0.026-0.062C474.684,348.437,474.462,343.789,471.301,338.46z M382.802,340.091l-18.938-114.1
					l67.495,108.311 M326.061,191.821l25.23,152.026l-139.144,16.584L326.061,191.821z M370.382,458.869l-136.753-69.076
					l122.854-14.642 M398.528,434.805l-10.551-63.541l43.317-5.072L398.528,434.805z"/>
			</defs>
			<clipPath id="SVGID_22_">
				<use xlink:href="#SVGID_21_"  overflow="visible"/>
			</clipPath>
			
				<linearGradient id="SVGID_23_" gradientUnits="userSpaceOnUse" x1="-162.0283" y1="420.2939" x2="-162.0283" y2="401.6426" gradientTransform="matrix(-0.4323 0.9017 -1.2424 -0.5957 867.7754 795.3867)">
				<stop  offset="0" style="stop-color:#FFFFFF;stop-opacity:0"/>
				<stop  offset="0.5206" style="stop-color:#FFFFFF;stop-opacity:0.2"/>
				<stop  offset="0.9096" style="stop-color:#FFFFFF;stop-opacity:0"/>
			</linearGradient>
			<path clip-path="url(#SVGID_22_)" fill="url(#SVGID_23_)" d="M405.235,475.205l65.27-131.268
				c-6.366,6.398-22.217,8.242-30.637,4.458l-41.34,86.267L405.235,475.205z"/>
		</g>
	</g>
	<g>
		
			<linearGradient id="SVGID_24_" gradientUnits="userSpaceOnUse" x1="265.6396" y1="922.2441" x2="296.2075" y2="869.299" gradientTransform="matrix(1 0 0 -1 22.5 1179)">
			<stop  offset="0.5" style="stop-color:#006D4F"/>
			<stop  offset="1" style="stop-color:#004A33"/>
		</linearGradient>
		<polygon fill="url(#SVGID_24_)" points="261.974,276.446 268.373,268.168 341.349,283.911 343.295,295.506 301.672,289.171 		"/>
		
			<linearGradient id="SVGID_25_" gradientUnits="userSpaceOnUse" x1="379.5898" y1="867.7539" x2="379.5898" y2="777.8691" gradientTransform="matrix(1 0 0 -1 22.5 1179)">
			<stop  offset="0.0011" style="stop-color:#00573F"/>
			<stop  offset="1" style="stop-color:#002E20"/>
		</linearGradient>
		<polygon fill="url(#SVGID_25_)" points="378.019,311.246 382.239,336.567 398.912,369.886 421.74,401.131 426.162,390.937 		"/>
		
			<linearGradient id="SVGID_26_" gradientUnits="userSpaceOnUse" x1="268.9531" y1="919.5742" x2="362.8853" y2="756.879" gradientTransform="matrix(1 0 0 -1 22.5 1179)">
			<stop  offset="0.0169" style="stop-color:#65A174"/>
			<stop  offset="0.5" style="stop-color:#00825E"/>
			<stop  offset="1" style="stop-color:#005C3F"/>
		</linearGradient>
		<path fill="url(#SVGID_26_)" d="M358.097,384.743l-40.479-14.912c-3.575-5.35-11.688-12.446-17.357-14.709l-40.232-66.17
			c3.426-3.842,1.945-12.506,1.945-12.506l81.322,19.061L358.097,384.743z M382.239,336.567l10.164,61.28l20.129,7.51
			c2.867-4.227,9.208-4.227,9.208-4.227L382.239,336.567z"/>
	</g>
</g>
</svg>
