<?xml version="1.0" encoding="utf-8"?>
<!-- Generator: Adobe Illustrator 16.0.4, SVG Export Plug-In . SVG Version: 6.00 Build 0)  -->
<!DOCTYPE svg PUBLIC "-//W3C//DTD SVG 1.1//EN" "http://www.w3.org/Graphics/SVG/1.1/DTD/svg11.dtd">
<svg version="1.1" id="Layer_1" xmlns="http://www.w3.org/2000/svg" xmlns:xlink="http://www.w3.org/1999/xlink" x="0px" y="0px"
	 width="640px" height="640px" viewBox="0 0 640 640" enable-background="new 0 0 640 640" xml:space="preserve">
<g>
	<g id="path7865" sodipodi:nodetypes="csccscccc" opacity="0.5" enable-background="new    ">
		<path d="M50.435,7.5v625h354.679h0.179c0,0,66.864-55.282,97.749-85.969c30.895-30.699,86.524-97.137,86.524-97.137v-0.175V7.5
			H50.435z"/>
	</g>
	<path id="path34" sodipodi:nodetypes="cccccc" fill="#FFFFFF" d="M61.217,17.891v603.827h340.442l177.123-177.124V17.891H61.217z"
		/>
	
		<radialGradient id="path59_1_" cx="502.3701" cy="-39.2607" r="752.3985" gradientTransform="matrix(1 0 0 -0.9997 22.5 540.7886)" gradientUnits="userSpaceOnUse">
		<stop  offset="0" style="stop-color:#B7B8B9"/>
		<stop  offset="0.1885" style="stop-color:#ECECEC"/>
		<stop  offset="0.2572" style="stop-color:#FAFAFA"/>
		<stop  offset="0.3011" style="stop-color:#FFFFFF"/>
		<stop  offset="0.5313" style="stop-color:#FAFAFA"/>
		<stop  offset="0.8449" style="stop-color:#EBECEC"/>
		<stop  offset="1" style="stop-color:#E1E2E3"/>
	</radialGradient>
	<path id="path59" sodipodi:nodetypes="ccccccccccc" fill="url(#path59_1_)" d="M72,23.283c-2.97,0-5.392,2.419-5.392,5.389v582.063
		c0,2.98,2.422,5.392,5.392,5.392h319.014c1.421,0,14.895,0.637,15.899-0.368l164.898-166.057c1.011-1.006,1.58-14.474,1.58-15.89
		V28.671c0-2.97-2.417-5.389-5.392-5.389H72z"/>
	
		<linearGradient id="path14523_1_" gradientUnits="userSpaceOnUse" x1="483.8398" y1="-7.7764" x2="444.0046" y2="30.8229" gradientTransform="matrix(1 0 0 -1 22.5 541)">
		<stop  offset="0" style="stop-color:#A2A2A2"/>
		<stop  offset="1" style="stop-color:#FFFFFF"/>
	</linearGradient>
	<path id="path14523" sodipodi:nodetypes="csccc" fill="url(#path14523_1_)" d="M401.796,621.718c0,0,64.232-53.45,93.885-83.103
		s83.102-93.884,83.102-93.884s-74.13,47.595-129.392,47.595C449.391,547.587,401.796,621.718,401.796,621.718z"/>
</g>
<g>
	<g>
		<defs>
			<rect id="SVGID_1_" x="115.5" y="115.303" width="409" height="409"/>
		</defs>
		<clipPath id="SVGID_2_">
			<use xlink:href="#SVGID_1_"  overflow="visible"/>
		</clipPath>
		<g clip-path="url(#SVGID_2_)">
			<defs>
				<rect id="SVGID_3_" x="115.5" y="115.303" width="409" height="409"/>
			</defs>
			<clipPath id="SVGID_4_">
				<use xlink:href="#SVGID_3_"  overflow="visible"/>
			</clipPath>
			<g clip-path="url(#SVGID_4_)">
				<defs>
					<rect id="SVGID_5_" x="115.5" y="115.303" width="409" height="409"/>
				</defs>
				<clipPath id="SVGID_6_">
					<use xlink:href="#SVGID_5_"  overflow="visible"/>
				</clipPath>
				<path clip-path="url(#SVGID_6_)" fill="#FFFFFF" d="M485.794,349.799c-0.004-0.09-0.006-0.18-0.012-0.268
					c-0.018-0.303-0.132-0.605-0.167-0.908c-0.003-0.028-0.098-0.058-0.098-0.086v-0.003c0-0.329-0.001-0.653-0.058-0.975
					c-0.014-0.084,0.012-0.166-0.004-0.249c-0.05-0.254-0.08-0.507-0.14-0.757c-0.019-0.077-0.027-0.152-0.047-0.229
					c-0.07-0.282-0.144-0.559-0.229-0.835c-0.011-0.036-0.02-0.073-0.03-0.111c-0.471-1.49-1.132-2.884-1.958-4.156L350.299,128.188
					c-0.386-0.628-0.811-1.226-1.27-1.795c-0.034-0.042-0.067-0.083-0.102-0.125c-0.185-0.223-0.374-0.441-0.568-0.654
					c-0.038-0.042-0.075-0.086-0.115-0.127c-0.229-0.245-0.461-0.484-0.703-0.716c-0.015-0.014-0.029-0.026-0.044-0.041
					c-0.216-0.205-0.438-0.402-0.665-0.596c-0.082-0.07-0.165-0.137-0.248-0.206c-0.167-0.137-0.336-0.272-0.51-0.404
					c-0.091-0.07-0.183-0.14-0.274-0.208c-0.197-0.144-0.397-0.282-0.601-0.417c-0.062-0.042-0.124-0.087-0.188-0.128
					c-0.266-0.173-0.537-0.337-0.812-0.495c-0.069-0.04-0.14-0.077-0.21-0.115c-0.219-0.122-0.439-0.239-0.664-0.35
					c-0.079-0.04-0.158-0.078-0.238-0.116c-0.244-0.117-0.491-0.229-0.74-0.334c-0.049-0.02-0.095-0.041-0.143-0.062
					c-0.631-0.26-1.281-0.482-1.943-0.667c-0.02-0.005-0.037-0.01-0.056-0.015c-0.319-0.087-0.641-0.166-0.966-0.234
					c-0.021-0.004-0.041-0.009-0.062-0.013c-1.018-0.212-2.062-0.333-3.126-0.355c-0.02,0-0.038-0.002-0.057-0.003
					c-0.029-0.001-0.057,0.002-0.085,0.001c-0.285-0.003-0.573,0.001-0.861,0.011c-0.076,0.003-0.152,0.005-0.228,0.008
					c-0.276,0.014-0.555,0.036-0.832,0.063c-0.062,0.006-0.125,0.01-0.188,0.017c-0.311,0.035-0.622,0.076-0.934,0.128
					c-0.017,0.002-0.032,0.007-0.048,0.01c-0.074,0.012-0.146,0.028-0.219,0.042c-0.261,0.048-0.519,0.099-0.773,0.158
					c-0.083,0.019-0.167,0.041-0.25,0.061c-0.261,0.065-0.52,0.134-0.775,0.21c-0.056,0.016-0.112,0.032-0.168,0.05
					c-2.391,0.732-4.528,1.957-6.319,3.542c-0.026,0.022-0.052,0.047-0.078,0.07c-0.22,0.198-0.434,0.399-0.643,0.607
					c-0.046,0.046-0.094,0.092-0.14,0.139c-0.219,0.222-0.432,0.449-0.638,0.682c-0.016,0.018-0.031,0.033-0.046,0.05
					c-0.217,0.248-0.426,0.503-0.628,0.762c-0.053,0.069-0.104,0.14-0.156,0.209c-0.148,0.196-0.293,0.395-0.432,0.598
					c-0.032,0.045-0.066,0.087-0.098,0.133l-168.44,249.319c-0.029,0.046-0.056,0.092-0.086,0.137
					c-0.105,0.159-0.208,0.321-0.309,0.484c-0.051,0.084-0.104,0.168-0.154,0.253c-0.11,0.187-0.216,0.375-0.319,0.565
					c-0.034,0.062-0.069,0.125-0.103,0.188c-0.127,0.243-0.25,0.489-0.366,0.739c-0.005,0.011-0.011,0.023-0.016,0.032
					c-0.75,1.617-1.251,3.36-1.466,5.18c-0.003,0.024-0.005,0.047-0.008,0.071c-0.03,0.26-0.054,0.522-0.072,0.786
					c-0.004,0.059-0.006,0.117-0.01,0.177c-0.013,0.225-0.022,0.449-0.026,0.676c-0.002,0.093-0.002,0.186-0.002,0.278
					c-0.001,0.191,0.002,0.383,0.008,0.575c0.004,0.122,0.01,0.242,0.015,0.365c0.009,0.165,0.021,0.33,0.034,0.496
					c0.012,0.141,0.024,0.281,0.04,0.42c0.007,0.072,0.011,0.144,0.02,0.215c0.006,0.046,0.017,0.088,0.022,0.132
					c0.059,0.463,0.134,0.926,0.231,1.386c0.019,0.09,0.042,0.18,0.062,0.268c0.039,0.169,0.073,0.337,0.116,0.504
					c0.062,0.235,0.131,0.467,0.202,0.698c0.032,0.106,0.065,0.212,0.099,0.317c0.12,0.365,0.253,0.726,0.396,1.08
					c0.055,0.137,0.108,0.272,0.167,0.407c0.156,0.36,0.325,0.715,0.504,1.062c0.073,0.139,0.147,0.276,0.224,0.414
					c0.191,0.347,0.391,0.688,0.604,1.02c0.066,0.102,0.136,0.198,0.205,0.299c0.195,0.289,0.399,0.57,0.611,0.848
					c0.068,0.087,0.133,0.177,0.202,0.264c0.263,0.327,0.54,0.643,0.824,0.951c0.077,0.081,0.153,0.161,0.23,0.24
					c0.299,0.311,0.607,0.61,0.929,0.896c0.058,0.051,0.117,0.1,0.175,0.15c0.314,0.271,0.638,0.534,0.973,0.783
					c0.045,0.034,0.087,0.069,0.132,0.102c0.351,0.257,0.714,0.497,1.086,0.728c0.093,0.058,0.187,0.116,0.282,0.173
					c0.335,0.198,0.675,0.391,1.024,0.566l0.141,0.071c0.021,0.011,0.043,0.022,0.065,0.033L388.52,517.486
					c0.078,0.04,0.16,0.073,0.24,0.113c0.131,0.064,0.264,0.126,0.397,0.187c0.3,0.136,0.601,0.262,0.906,0.381
					c0.119,0.047,0.236,0.096,0.357,0.139c0.359,0.131,0.724,0.246,1.091,0.352c0.167,0.049,0.338,0.093,0.508,0.136
					c0.278,0.07,0.559,0.133,0.84,0.19c0.182,0.036,0.363,0.074,0.547,0.105c0.351,0.059,0.703,0.105,1.057,0.142
					c0.17,0.019,0.338,0.032,0.509,0.046c0.352,0.026,0.703,0.043,1.056,0.048c0.07,0.001,0.138,0.009,0.207,0.009
					c0.646,0,1.297-0.005,1.951-0.079c0.29-0.033,0.582-0.062,0.873-0.062h0.007c0.422,0,0.837-0.207,1.246-0.307
					c0.071-0.017,0.142-0.057,0.213-0.076c0.425-0.107,0.844-0.241,1.253-0.38c0.006-0.002,0.013-0.01,0.021-0.012
					c0.027-0.01,0.055-0.023,0.083-0.034c0.243-0.083,0.482-0.173,0.719-0.267c0.009-0.004,0.018-0.008,0.026-0.012
					c1.065-0.424,2.072-0.95,3.011-1.564c0.003-0.002,0.006-0.003,0.009-0.006c0.229-0.151,0.455-0.307,0.676-0.466
					c0.021-0.015,0.039-0.03,0.059-0.045c0.202-0.147,0.4-0.298,0.596-0.454c0.038-0.031,0.078-0.065,0.118-0.098
					c0.171-0.14,0.341-0.283,0.508-0.428c0.057-0.052,0.113-0.104,0.17-0.155c0.146-0.131,0.288-0.265,0.429-0.399
					c0.072-0.069,0.143-0.143,0.212-0.212c0.121-0.122,0.242-0.244,0.358-0.371c0.083-0.086,0.162-0.175,0.242-0.264
					c0.104-0.114,0.205-0.229,0.305-0.347c0.086-0.101,0.17-0.203,0.254-0.307c0.091-0.111,0.18-0.224,0.267-0.337
					c0.085-0.109,0.167-0.22,0.25-0.331c0.083-0.115,0.165-0.229,0.245-0.345c0.079-0.112,0.156-0.227,0.232-0.341
					c0.081-0.122,0.16-0.244,0.236-0.369c0.069-0.109,0.138-0.22,0.204-0.332c0.081-0.139,0.161-0.278,0.239-0.417
					c0.056-0.1,0.111-0.199,0.164-0.301c0.086-0.161,0.169-0.326,0.25-0.491c0.027-0.054,0.057-0.106,0.082-0.16l72.399-151.604
					c0.012-0.022,0.019-0.044,0.029-0.066c0.447-0.945,0.81-1.935,1.079-2.958c0.006-0.021,0.012-0.043,0.018-0.064
					c0.261-1.001,0.431-2.033,0.505-3.089c0.003-0.046,0.005-0.093,0.008-0.139c0.018-0.279,0.028-0.561,0.031-0.843
					c0.002-0.082,0.002-0.165,0.002-0.248C485.812,350.304,485.807,350.051,485.794,349.799 M387.231,342.988l-20.502-123.539
					l73.078,117.272 M325.797,182.451l27.319,164.604L202.46,365.011L325.797,182.451z M373.784,471.593l-148.066-74.79
					l133.018-15.853 M404.261,445.538l-11.424-68.798l46.901-5.492L404.261,445.538z"/>
				<g opacity="0.9" clip-path="url(#SVGID_6_)">
					<g>
						<defs>
							<rect id="SVGID_7_" x="150.08" y="120.013" width="335.732" height="399.32"/>
						</defs>
						<clipPath id="SVGID_8_">
							<use xlink:href="#SVGID_7_"  overflow="visible"/>
						</clipPath>
						<g clip-path="url(#SVGID_8_)">
							<defs>
								<path id="SVGID_9_" d="M485.794,349.799c-0.004-0.09-0.006-0.18-0.012-0.268c-0.018-0.303-0.132-0.605-0.167-0.908
									c-0.003-0.028-0.098-0.058-0.098-0.086v-0.003c0-0.329-0.001-0.653-0.058-0.975c-0.014-0.084,0.012-0.166-0.004-0.249
									c-0.05-0.254-0.08-0.507-0.14-0.757c-0.019-0.077-0.027-0.152-0.047-0.229c-0.07-0.282-0.144-0.559-0.229-0.835
									c-0.011-0.036-0.02-0.073-0.03-0.111c-0.471-1.49-1.132-2.884-1.958-4.156L350.299,128.188
									c-0.386-0.628-0.811-1.226-1.27-1.795c-0.034-0.042-0.067-0.083-0.102-0.125c-0.185-0.223-0.374-0.441-0.568-0.654
									c-0.038-0.042-0.075-0.086-0.115-0.127c-0.229-0.245-0.461-0.485-0.703-0.716c-0.015-0.014-0.029-0.026-0.044-0.041
									c-0.217-0.205-0.438-0.402-0.665-0.596c-0.082-0.07-0.165-0.137-0.248-0.206c-0.167-0.137-0.336-0.272-0.51-0.404
									c-0.091-0.07-0.183-0.14-0.275-0.208c-0.196-0.144-0.396-0.282-0.6-0.417c-0.062-0.042-0.124-0.087-0.188-0.128
									c-0.266-0.172-0.537-0.337-0.812-0.495c-0.069-0.04-0.14-0.077-0.209-0.115c-0.22-0.122-0.44-0.239-0.665-0.35
									c-0.079-0.04-0.158-0.078-0.238-0.116c-0.244-0.117-0.491-0.229-0.74-0.334c-0.049-0.02-0.095-0.041-0.143-0.062
									c-0.631-0.26-1.281-0.482-1.943-0.667c-0.02-0.005-0.037-0.01-0.056-0.015c-0.319-0.087-0.641-0.166-0.966-0.234
									c-0.021-0.004-0.041-0.009-0.062-0.013c-1.018-0.212-2.062-0.333-3.126-0.355c-0.02,0-0.038-0.002-0.057-0.003
									c-0.029-0.001-0.058,0.002-0.085,0.001c-0.285-0.003-0.573,0.001-0.861,0.011c-0.076,0.003-0.152,0.005-0.228,0.008
									c-0.276,0.014-0.555,0.036-0.832,0.063c-0.062,0.006-0.125,0.01-0.188,0.017c-0.311,0.035-0.622,0.076-0.934,0.128
									c-0.017,0.002-0.032,0.006-0.048,0.01c-0.074,0.012-0.146,0.028-0.219,0.042c-0.261,0.048-0.519,0.099-0.773,0.158
									c-0.083,0.019-0.167,0.041-0.25,0.061c-0.261,0.065-0.52,0.134-0.775,0.21c-0.056,0.016-0.112,0.032-0.168,0.05
									c-2.391,0.732-4.528,1.957-6.319,3.542c-0.026,0.022-0.052,0.047-0.078,0.07c-0.22,0.198-0.434,0.399-0.643,0.607
									c-0.046,0.046-0.094,0.092-0.14,0.139c-0.219,0.222-0.432,0.449-0.638,0.682c-0.016,0.018-0.031,0.033-0.046,0.05
									c-0.217,0.248-0.426,0.503-0.628,0.762c-0.053,0.068-0.104,0.14-0.156,0.209c-0.148,0.196-0.293,0.395-0.432,0.598
									c-0.032,0.045-0.066,0.087-0.098,0.133L153.018,376.883c-0.03,0.046-0.057,0.092-0.086,0.137
									c-0.106,0.159-0.208,0.321-0.309,0.484c-0.052,0.084-0.104,0.168-0.154,0.253c-0.111,0.187-0.217,0.375-0.32,0.565
									c-0.035,0.062-0.07,0.125-0.103,0.188c-0.127,0.243-0.25,0.489-0.366,0.74c-0.005,0.01-0.011,0.022-0.016,0.031
									c-0.75,1.617-1.251,3.36-1.467,5.18c-0.002,0.024-0.004,0.047-0.007,0.071c-0.03,0.26-0.054,0.522-0.073,0.786
									c-0.003,0.059-0.006,0.117-0.009,0.177c-0.013,0.225-0.022,0.449-0.026,0.676c-0.002,0.093-0.002,0.186-0.002,0.278
									c0,0.191,0.002,0.383,0.009,0.575c0.003,0.122,0.009,0.242,0.015,0.365c0.009,0.165,0.02,0.33,0.034,0.496
									c0.011,0.141,0.024,0.281,0.039,0.42c0.008,0.072,0.011,0.144,0.021,0.215c0.005,0.046,0.016,0.088,0.022,0.132
									c0.059,0.463,0.134,0.926,0.231,1.386c0.02,0.09,0.042,0.18,0.062,0.268c0.039,0.169,0.074,0.337,0.117,0.504
									c0.061,0.235,0.13,0.467,0.201,0.698c0.032,0.106,0.065,0.212,0.1,0.317c0.12,0.365,0.253,0.726,0.397,1.08
									c0.054,0.137,0.108,0.272,0.167,0.407c0.155,0.36,0.325,0.715,0.503,1.062c0.074,0.139,0.148,0.276,0.224,0.414
									c0.191,0.347,0.39,0.688,0.605,1.02c0.065,0.102,0.136,0.198,0.204,0.299c0.195,0.289,0.399,0.57,0.612,0.848
									c0.068,0.087,0.133,0.177,0.202,0.264c0.263,0.327,0.54,0.643,0.825,0.951c0.076,0.081,0.152,0.161,0.229,0.24
									c0.299,0.311,0.607,0.61,0.93,0.896c0.058,0.051,0.117,0.1,0.174,0.15c0.314,0.271,0.639,0.534,0.973,0.783
									c0.045,0.034,0.088,0.069,0.133,0.102c0.35,0.257,0.715,0.497,1.086,0.728c0.094,0.058,0.188,0.116,0.283,0.173
									c0.334,0.198,0.675,0.391,1.023,0.566l0.14,0.071c0.021,0.011,0.043,0.022,0.066,0.033L388.52,517.486
									c0.078,0.041,0.16,0.073,0.24,0.113c0.131,0.064,0.264,0.126,0.397,0.187c0.3,0.136,0.601,0.262,0.906,0.381
									c0.119,0.047,0.236,0.096,0.357,0.139c0.359,0.131,0.724,0.246,1.091,0.352c0.168,0.049,0.338,0.093,0.508,0.136
									c0.278,0.07,0.559,0.133,0.84,0.19c0.182,0.036,0.363,0.074,0.547,0.105c0.351,0.059,0.703,0.105,1.057,0.143
									c0.17,0.018,0.338,0.031,0.509,0.045c0.352,0.026,0.703,0.043,1.056,0.048c0.07,0.001,0.138,0.009,0.207,0.009
									c0.646,0,1.297-0.005,1.951-0.079c0.29-0.033,0.582-0.062,0.873-0.062h0.007c0.422,0,0.837-0.207,1.246-0.307
									c0.071-0.017,0.142-0.056,0.213-0.075c0.425-0.108,0.844-0.242,1.253-0.381c0.006-0.002,0.013-0.01,0.02-0.012
									c0.028-0.01,0.056-0.023,0.084-0.034c0.243-0.083,0.482-0.173,0.719-0.267c0.009-0.004,0.018-0.008,0.026-0.012
									c1.065-0.424,2.072-0.95,3.011-1.564c0.003-0.002,0.006-0.003,0.009-0.006c0.229-0.151,0.455-0.307,0.676-0.466
									c0.021-0.015,0.039-0.03,0.059-0.045c0.202-0.147,0.4-0.298,0.596-0.454c0.038-0.031,0.078-0.065,0.118-0.098
									c0.171-0.14,0.341-0.283,0.508-0.428c0.057-0.052,0.113-0.104,0.17-0.155c0.146-0.131,0.288-0.265,0.429-0.399
									c0.072-0.069,0.143-0.143,0.212-0.212c0.121-0.122,0.242-0.244,0.358-0.371c0.083-0.086,0.162-0.175,0.243-0.264
									c0.103-0.114,0.204-0.229,0.304-0.347c0.086-0.101,0.17-0.203,0.254-0.307c0.091-0.111,0.18-0.224,0.267-0.337
									c0.085-0.109,0.167-0.22,0.25-0.331c0.083-0.115,0.165-0.229,0.245-0.345c0.079-0.112,0.156-0.227,0.232-0.341
									c0.081-0.122,0.16-0.244,0.236-0.369c0.069-0.109,0.138-0.22,0.204-0.332c0.081-0.139,0.161-0.277,0.239-0.417
									c0.056-0.1,0.112-0.199,0.164-0.301c0.086-0.161,0.169-0.326,0.25-0.491c0.027-0.054,0.057-0.106,0.082-0.16l72.399-151.604
									c0.012-0.022,0.019-0.044,0.029-0.066c0.447-0.945,0.81-1.935,1.079-2.958c0.006-0.021,0.012-0.043,0.018-0.064
									c0.261-1.001,0.431-2.033,0.505-3.089c0.003-0.046,0.005-0.093,0.008-0.139c0.018-0.279,0.028-0.561,0.031-0.843
									c0.002-0.082,0.002-0.165,0.002-0.248C485.812,350.304,485.807,350.051,485.794,349.799 M387.232,342.988l-20.504-123.539
									l73.079,117.272 M325.797,182.451l27.319,164.604L202.46,365.011L325.797,182.451z M373.785,471.593l-148.067-74.79
									l133.018-15.853 M404.261,445.538l-11.424-68.798l46.901-5.492L404.261,445.538z"/>
							</defs>
							<clipPath id="SVGID_10_">
								<use xlink:href="#SVGID_9_"  overflow="visible"/>
							</clipPath>
							
								<linearGradient id="SVGID_11_" gradientUnits="userSpaceOnUse" x1="1.1509" y1="-0.2295" x2="1.7898" y2="-0.2295" gradientTransform="matrix(163.06 608.5484 608.5484 -163.06 221 -600.5)">
								<stop  offset="0" style="stop-color:#9A6046"/>
								<stop  offset="0.0095" style="stop-color:#965B40"/>
								<stop  offset="0.0527" style="stop-color:#87472A"/>
								<stop  offset="0.1038" style="stop-color:#7C371A"/>
								<stop  offset="0.167" style="stop-color:#742C0E"/>
								<stop  offset="0.2554" style="stop-color:#6F2607"/>
								<stop  offset="0.5" style="stop-color:#6E2405"/>
								<stop  offset="1" style="stop-color:#4E0000"/>
							</linearGradient>
							<polygon clip-path="url(#SVGID_10_)" fill="url(#SVGID_11_)" points="463.322,36.077 585.644,492.584 172.569,603.267 
								50.249,146.76 							"/>
						</g>
					</g>
				</g>
			</g>
			<g clip-path="url(#SVGID_4_)">
				<defs>
					<path id="SVGID_12_" d="M151.383,388.424c0,0,1.155,4.563,4.918,6.621l222.708,108.123l-5.301-31.419l-93.241-47.161
						l-54.749-27.654l0.06-0.007l-33.926-17.159C175.665,391.07,153.871,395.36,151.383,388.424"/>
				</defs>
				<clipPath id="SVGID_13_">
					<use xlink:href="#SVGID_12_"  overflow="visible"/>
				</clipPath>
				<defs>
					<filter id="Adobe_OpacityMaskFilter" filterUnits="userSpaceOnUse" x="101.924" y="288.534" width="326.542" height="305.869">
						<feColorMatrix  type="matrix" values="1 0 0 0 0  0 1 0 0 0  0 0 1 0 0  0 0 0 1 0"/>
					</filter>
				</defs>
				<mask maskUnits="userSpaceOnUse" x="101.924" y="288.534" width="326.542" height="305.869" id="SVGID_14_">
					<g filter="url(#Adobe_OpacityMaskFilter)">
						
							<linearGradient id="SVGID_15_" gradientUnits="userSpaceOnUse" x1="10.9941" y1="8.3516" x2="11.6332" y2="8.3516" gradientTransform="matrix(-20.7669 41.396 30.0444 15.0726 252.5781 -159.4062)">
							<stop  offset="0" style="stop-color:#000000"/>
							<stop  offset="0.195" style="stop-color:#1A1A1A"/>
							<stop  offset="0.3857" style="stop-color:#2C2C2C"/>
							<stop  offset="0.5206" style="stop-color:#333333"/>
							<stop  offset="0.6861" style="stop-color:#252525"/>
							<stop  offset="0.9978" style="stop-color:#000000"/>
							<stop  offset="1" style="stop-color:#000000"/>
						</linearGradient>
						<polygon clip-path="url(#SVGID_13_)" fill="url(#SVGID_15_)" points="428.467,404.579 333.24,594.402 101.924,478.355 
							197.151,288.534 						"/>
					</g>
				</mask>
				
					<linearGradient id="SVGID_16_" gradientUnits="userSpaceOnUse" x1="10.9941" y1="8.3516" x2="11.6332" y2="8.3516" gradientTransform="matrix(-20.7669 41.396 30.0444 15.0726 252.5781 -159.4062)">
					<stop  offset="0" style="stop-color:#FFFFFF"/>
					<stop  offset="0.5206" style="stop-color:#FFFFFF"/>
					<stop  offset="1" style="stop-color:#FFFFFF"/>
				</linearGradient>
				<polygon clip-path="url(#SVGID_13_)" mask="url(#SVGID_14_)" fill="url(#SVGID_16_)" points="428.467,404.579 333.24,594.402 
					101.924,478.355 197.151,288.534 				"/>
			</g>
			<g clip-path="url(#SVGID_4_)">
				<defs>
					<path id="SVGID_17_" d="M335.048,120.155c-0.076,0.003-0.152,0.006-0.227,0.01c-0.277,0.014-0.556,0.035-0.833,0.063
						c-0.062,0.005-0.125,0.01-0.188,0.016c-0.311,0.036-0.622,0.077-0.934,0.128c-0.017,0.002-0.032,0.007-0.048,0.009
						c-0.074,0.012-0.146,0.028-0.219,0.042c-0.261,0.048-0.519,0.1-0.773,0.158c-0.083,0.02-0.167,0.041-0.249,0.062
						c-0.262,0.064-0.521,0.134-0.776,0.209c-0.056,0.017-0.112,0.033-0.168,0.05c-2.391,0.732-4.528,1.957-6.319,3.542
						c-0.026,0.024-0.052,0.048-0.078,0.071c-0.22,0.196-0.434,0.399-0.643,0.606c-0.046,0.046-0.094,0.092-0.14,0.139
						c-0.219,0.222-0.433,0.449-0.638,0.683c-0.016,0.017-0.031,0.033-0.046,0.05c-0.217,0.248-0.426,0.502-0.628,0.762
						c-0.054,0.068-0.104,0.14-0.156,0.209c-0.148,0.196-0.293,0.395-0.433,0.597c-0.031,0.045-0.065,0.088-0.097,0.134
						l-3.798,5.623l63.096,380.378l7.764,3.922c0.079,0.039,0.161,0.073,0.241,0.112c0.131,0.064,0.264,0.127,0.396,0.186
						c0.3,0.137,0.602,0.263,0.907,0.382c0.119,0.047,0.236,0.096,0.358,0.139c0.358,0.131,0.723,0.246,1.09,0.352
						c0.168,0.048,0.337,0.093,0.508,0.136c0.277,0.07,0.559,0.133,0.84,0.19c0.182,0.037,0.363,0.074,0.548,0.105
						c0.35,0.06,0.702,0.105,1.056,0.143c0.17,0.018,0.338,0.032,0.509,0.045c0.352,0.026,0.703,0.043,1.056,0.048
						c0.07,0.001,0.138,0.008,0.207,0.008c0.646,0,1.297-0.068,1.951-0.144c0.29-0.033,0.582-0.128,0.873-0.128h0.007
						c0.422,0,0.837-0.142,1.246-0.24c0.071-0.018,0.142-0.024,0.213-0.044c0.425-0.106,0.844-0.225,1.253-0.364
						c0.006-0.001,0.013-0.001,0.02-0.004c0.028-0.009,0.056-0.019,0.084-0.029c0.243-0.083,0.481-0.171,0.719-0.265
						c0.009-0.004,0.018-0.007,0.026-0.011c1.065-0.424,2.072-0.95,3.011-1.564c0.003-0.002,0.006-0.003,0.009-0.005
						c0.229-0.151,0.455-0.307,0.676-0.466c0.021-0.015,0.039-0.03,0.059-0.045c0.203-0.146,0.4-0.297,0.596-0.453
						c0.038-0.032,0.078-0.065,0.118-0.099c0.171-0.14,0.342-0.283,0.508-0.428c0.057-0.052,0.113-0.104,0.17-0.154
						c0.146-0.132,0.288-0.265,0.429-0.4c0.072-0.069,0.144-0.142,0.212-0.212c0.121-0.121,0.242-0.244,0.358-0.37
						c0.083-0.087,0.162-0.176,0.243-0.265c0.103-0.115,0.204-0.229,0.303-0.347c0.087-0.101,0.172-0.203,0.255-0.306
						c0.09-0.112,0.181-0.225,0.267-0.338c0.085-0.109,0.167-0.22,0.249-0.33c0.084-0.116,0.166-0.229,0.246-0.346
						c0.079-0.112,0.156-0.226,0.231-0.341c0.082-0.122,0.16-0.244,0.237-0.368c0.069-0.11,0.138-0.221,0.204-0.332
						c0.081-0.139,0.162-0.278,0.239-0.418c0.056-0.1,0.112-0.2,0.164-0.301c0.086-0.161,0.169-0.326,0.25-0.49
						c0.026-0.054,0.056-0.107,0.082-0.161l2.332-4.884l-9.812-59.146l-0.002,0.004l-11.423-68.799l0.014-0.002l-5.599-33.752
						l-0.02,0.002l-20.504-123.539l0.041,0.066l-14.67-88.438l-1.801-2.889c-0.386-0.629-0.812-1.227-1.271-1.795
						c-0.033-0.042-0.066-0.083-0.101-0.125c-0.185-0.222-0.374-0.44-0.568-0.653c-0.038-0.042-0.075-0.086-0.115-0.128
						c-0.229-0.245-0.461-0.484-0.703-0.716c-0.015-0.013-0.029-0.026-0.044-0.041c-0.217-0.205-0.438-0.402-0.665-0.595
						c-0.082-0.07-0.165-0.138-0.248-0.207c-0.167-0.138-0.336-0.272-0.51-0.404c-0.091-0.07-0.183-0.14-0.275-0.207
						c-0.196-0.144-0.396-0.282-0.6-0.417c-0.062-0.042-0.124-0.086-0.188-0.128c-0.266-0.172-0.537-0.337-0.812-0.495
						c-0.069-0.04-0.14-0.077-0.209-0.114c-0.219-0.122-0.441-0.24-0.665-0.351c-0.079-0.039-0.158-0.078-0.238-0.116
						c-0.244-0.117-0.491-0.228-0.741-0.334c-0.048-0.02-0.094-0.042-0.142-0.061c-0.631-0.261-1.281-0.483-1.943-0.667
						c-0.02-0.004-0.038-0.01-0.056-0.015c-0.319-0.087-0.641-0.165-0.966-0.234c-0.021-0.004-0.041-0.009-0.062-0.015
						c-1.017-0.211-2.062-0.332-3.125-0.354c-0.02,0-0.039-0.002-0.057-0.002c-0.028,0-0.056,0.001-0.086,0.001
						c-0.072-0.001-0.145-0.001-0.219-0.001C335.477,120.144,335.263,120.148,335.048,120.155"/>
				</defs>
				<clipPath id="SVGID_18_">
					<use xlink:href="#SVGID_17_"  overflow="visible"/>
				</clipPath>
				<defs>
					
						<filter id="Adobe_OpacityMaskFilter_1_" filterUnits="userSpaceOnUse" x="253.199" y="104.58" width="225.334" height="430.446">
						<feColorMatrix  type="matrix" values="1 0 0 0 0  0 1 0 0 0  0 0 1 0 0  0 0 0 1 0"/>
					</filter>
				</defs>
				<mask maskUnits="userSpaceOnUse" x="253.199" y="104.58" width="225.334" height="430.446" id="SVGID_19_">
					<g filter="url(#Adobe_OpacityMaskFilter_1_)">
						
							<linearGradient id="SVGID_20_" gradientUnits="userSpaceOnUse" x1="2.6064" y1="6.1357" x2="3.2456" y2="6.1357" gradientTransform="matrix(-52.9928 8.7894 16.815 101.3782 417.875 -327.9375)">
							<stop  offset="0" style="stop-color:#000000"/>
							<stop  offset="0.1699" style="stop-color:#202020"/>
							<stop  offset="0.3681" style="stop-color:#404040"/>
							<stop  offset="0.4779" style="stop-color:#4D4D4D"/>
							<stop  offset="0.5984" style="stop-color:#404040"/>
							<stop  offset="0.8167" style="stop-color:#202020"/>
							<stop  offset="1" style="stop-color:#000000"/>
						</linearGradient>
						<polygon clip-path="url(#SVGID_18_)" fill="url(#SVGID_20_)" points="478.533,508.772 320.24,535.026 253.199,130.835 
							411.492,104.58 						"/>
					</g>
				</mask>
				
					<linearGradient id="SVGID_21_" gradientUnits="userSpaceOnUse" x1="2.6064" y1="6.1357" x2="3.2456" y2="6.1357" gradientTransform="matrix(-52.9928 8.7894 16.815 101.3782 417.875 -327.9375)">
					<stop  offset="0" style="stop-color:#FFFFFF"/>
					<stop  offset="0.4779" style="stop-color:#FFFFFF"/>
					<stop  offset="1" style="stop-color:#FFFFFF"/>
				</linearGradient>
				<polygon clip-path="url(#SVGID_18_)" mask="url(#SVGID_19_)" fill="url(#SVGID_21_)" points="478.533,508.772 320.24,535.026 
					253.199,130.835 411.492,104.58 				"/>
			</g>
			<g clip-path="url(#SVGID_4_)">
				<defs>
					<path id="SVGID_22_" d="M355.541,151.95l11.188,67.5l17.074,27.53l56.005,89.873l-0.248,0.03l9.46,15.253
						c15.953,6.301,38.263-2.943,34.17-9.689L349.076,126.583c-0.016-0.02-0.031-0.04-0.048-0.059
						c-0.033-0.042-0.066-0.083-0.101-0.125c-0.185-0.222-0.374-0.44-0.568-0.653c-0.038-0.042-0.075-0.086-0.115-0.128
						c-0.229-0.245-0.461-0.484-0.703-0.716c-0.015-0.013-0.029-0.026-0.044-0.041c-0.161-0.153-0.327-0.302-0.494-0.449
						C350.428,131.893,353.77,141.274,355.541,151.95"/>
				</defs>
				<clipPath id="SVGID_23_">
					<use xlink:href="#SVGID_22_"  overflow="visible"/>
				</clipPath>
				<defs>
					<filter id="Adobe_OpacityMaskFilter_2_" filterUnits="userSpaceOnUse" x="242.343" y="61.683" width="349.6" height="359.482">
						<feColorMatrix  type="matrix" values="1 0 0 0 0  0 1 0 0 0  0 0 1 0 0  0 0 0 1 0"/>
					</filter>
				</defs>
				<mask maskUnits="userSpaceOnUse" x="242.343" y="61.683" width="349.6" height="359.482" id="SVGID_24_">
					<g filter="url(#Adobe_OpacityMaskFilter_2_)">
						
							<linearGradient id="SVGID_25_" gradientUnits="userSpaceOnUse" x1="7.5791" y1="11.7964" x2="8.2182" y2="11.7964" gradientTransform="matrix(-45.8006 28.3029 25.815 41.7705 462.3281 -467.4375)">
							<stop  offset="0" style="stop-color:#000000"/>
							<stop  offset="0.187" style="stop-color:#0C0C0C"/>
							<stop  offset="0.5229" style="stop-color:#2B2B2B"/>
							<stop  offset="0.5962" style="stop-color:#333333"/>
							<stop  offset="0.725" style="stop-color:#272727"/>
							<stop  offset="0.9587" style="stop-color:#060606"/>
							<stop  offset="1" style="stop-color:#000000"/>
						</linearGradient>
						<polygon clip-path="url(#SVGID_23_)" fill="url(#SVGID_25_)" points="591.942,293.76 385.771,421.165 242.343,189.088 
							448.514,61.683 						"/>
					</g>
				</mask>
				
					<linearGradient id="SVGID_26_" gradientUnits="userSpaceOnUse" x1="7.5786" y1="11.7954" x2="8.2177" y2="11.7954" gradientTransform="matrix(-45.8006 28.3029 25.815 41.7705 462.3281 -467.4375)">
					<stop  offset="0" style="stop-color:#FFFFFF"/>
					<stop  offset="0.5962" style="stop-color:#FFFFFF"/>
					<stop  offset="1" style="stop-color:#FFFFFF"/>
				</linearGradient>
				<polygon clip-path="url(#SVGID_23_)" mask="url(#SVGID_24_)" fill="url(#SVGID_26_)" points="591.942,293.76 385.771,421.165 
					242.343,189.088 448.514,61.683 				"/>
			</g>
			<g clip-path="url(#SVGID_4_)">
				<defs>
					<path id="SVGID_27_" d="M153.018,377.015c-0.03,0.045-0.057,0.091-0.086,0.136c-0.106,0.159-0.209,0.321-0.309,0.484
						c-0.051,0.084-0.104,0.168-0.154,0.253c-0.111,0.186-0.217,0.375-0.32,0.565c-0.035,0.063-0.07,0.125-0.103,0.188
						c-0.098,0.187-0.192,0.374-0.283,0.564c-0.703,2.047-1.174,4.593-0.86,7.47c1.186,10.859,27.708,2.648,40.948-6.908
						l133.946-197.316l-5.518-33.33c-1.371-8.262-0.951-14.913,0.348-20.198L153.018,377.015z"/>
				</defs>
				<clipPath id="SVGID_28_">
					<use xlink:href="#SVGID_27_"  overflow="visible"/>
				</clipPath>
				<defs>
					
						<filter id="Adobe_OpacityMaskFilter_3_" filterUnits="userSpaceOnUse" x="24.639" y="47.836" width="427.108" height="430.787">
						<feColorMatrix  type="matrix" values="1 0 0 0 0  0 1 0 0 0  0 0 1 0 0  0 0 0 1 0"/>
					</filter>
				</defs>
				<mask maskUnits="userSpaceOnUse" x="24.639" y="47.836" width="427.108" height="430.787" id="SVGID_29_">
					<g filter="url(#Adobe_OpacityMaskFilter_3_)">
						
							<linearGradient id="SVGID_30_" gradientUnits="userSpaceOnUse" x1="7.0898" y1="10.0947" x2="7.7289" y2="10.0947" gradientTransform="matrix(49.5537 33.6445 -30.8838 44.897 190.0156 -434.375)">
							<stop  offset="0" style="stop-color:#000000"/>
							<stop  offset="0.187" style="stop-color:#0C0C0C"/>
							<stop  offset="0.5229" style="stop-color:#2B2B2B"/>
							<stop  offset="0.5962" style="stop-color:#333333"/>
							<stop  offset="0.725" style="stop-color:#272727"/>
							<stop  offset="0.9587" style="stop-color:#060606"/>
							<stop  offset="1" style="stop-color:#000000"/>
						</linearGradient>
						<polygon clip-path="url(#SVGID_28_)" fill="url(#SVGID_30_)" points="24.639,312.021 270.019,478.623 451.747,214.438 
							206.367,47.836 						"/>
					</g>
				</mask>
				
					<linearGradient id="SVGID_31_" gradientUnits="userSpaceOnUse" x1="7.0898" y1="10.0957" x2="7.7289" y2="10.0957" gradientTransform="matrix(49.5537 33.6445 -30.8838 44.897 190.0156 -434.375)">
					<stop  offset="0" style="stop-color:#FFFFFF"/>
					<stop  offset="0.5962" style="stop-color:#FFFFFF"/>
					<stop  offset="1" style="stop-color:#FFFFFF"/>
				</linearGradient>
				<polygon clip-path="url(#SVGID_28_)" mask="url(#SVGID_29_)" fill="url(#SVGID_31_)" points="24.639,312.021 270.019,478.623 
					451.747,214.438 206.367,47.836 				"/>
			</g>
			<g clip-path="url(#SVGID_4_)">
				<defs>
					<polygon id="SVGID_32_" points="200.776,366.62 191.851,379.768 207.35,387.606 346.837,370.732 344.239,349.265 					"/>
				</defs>
				<clipPath id="SVGID_33_">
					<use xlink:href="#SVGID_32_"  overflow="visible"/>
				</clipPath>
				<defs>
					
						<filter id="Adobe_OpacityMaskFilter_4_" filterUnits="userSpaceOnUse" x="187.278" y="330.78" width="164.131" height="75.311">
						<feColorMatrix  type="matrix" values="1 0 0 0 0  0 1 0 0 0  0 0 1 0 0  0 0 0 1 0"/>
					</filter>
				</defs>
				<mask maskUnits="userSpaceOnUse" x="187.278" y="330.78" width="164.131" height="75.311" id="SVGID_34_">
					<g filter="url(#Adobe_OpacityMaskFilter_4_)">
						
							<linearGradient id="SVGID_35_" gradientUnits="userSpaceOnUse" x1="18.2295" y1="-1.0762" x2="18.8684" y2="-1.0762" gradientTransform="matrix(4.066 33.6016 40.4718 -4.8976 237.5625 -259.3438)">
							<stop  offset="0" style="stop-color:#000000"/>
							<stop  offset="0.3609" style="stop-color:#1A1A1A"/>
							<stop  offset="1" style="stop-color:#000000"/>
						</linearGradient>
						<polygon clip-path="url(#SVGID_33_)" fill="url(#SVGID_35_)" points="344.6,330.78 351.409,387.053 194.087,406.091 
							187.278,349.818 						"/>
					</g>
				</mask>
				
					<linearGradient id="SVGID_36_" gradientUnits="userSpaceOnUse" x1="18.229" y1="-1.0771" x2="18.8681" y2="-1.0771" gradientTransform="matrix(4.066 33.6016 40.4718 -4.8976 237.5625 -259.3438)">
					<stop  offset="0" style="stop-color:#FFFFFF"/>
					<stop  offset="0.3609" style="stop-color:#FFFFFF"/>
					<stop  offset="1" style="stop-color:#FFFFFF"/>
				</linearGradient>
				<polygon clip-path="url(#SVGID_33_)" mask="url(#SVGID_34_)" fill="url(#SVGID_36_)" points="344.6,330.78 351.409,387.053 
					194.087,406.091 187.278,349.818 				"/>
			</g>
			<g clip-path="url(#SVGID_4_)">
				<defs>
					<polygon id="SVGID_37_" points="387.806,343.784 395.505,364.635 445.444,359.595 449.02,352.135 440.375,337.499 					"/>
				</defs>
				<clipPath id="SVGID_38_">
					<use xlink:href="#SVGID_37_"  overflow="visible"/>
				</clipPath>
				<defs>
					<filter id="Adobe_OpacityMaskFilter_5_" filterUnits="userSpaceOnUse" x="384.57" y="330.192" width="67.686" height="41.749">
						<feColorMatrix  type="matrix" values="1 0 0 0 0  0 1 0 0 0  0 0 1 0 0  0 0 0 1 0"/>
					</filter>
				</defs>
				<mask maskUnits="userSpaceOnUse" x="384.57" y="330.192" width="67.686" height="41.749" id="SVGID_39_">
					<g filter="url(#Adobe_OpacityMaskFilter_5_)">
						
							<linearGradient id="SVGID_40_" gradientUnits="userSpaceOnUse" x1="17.4302" y1="-9.7256" x2="18.0691" y2="-9.7256" gradientTransform="matrix(4.2532 35.1484 13.321 -1.6133 472.5312 -288.0938)">
							<stop  offset="0" style="stop-color:#000000"/>
							<stop  offset="0.3609" style="stop-color:#1A1A1A"/>
							<stop  offset="1" style="stop-color:#000000"/>
						</linearGradient>
						<polygon clip-path="url(#SVGID_38_)" fill="url(#SVGID_40_)" points="448.136,330.192 452.256,364.243 388.69,371.941 
							384.57,337.891 						"/>
					</g>
				</mask>
				
					<linearGradient id="SVGID_41_" gradientUnits="userSpaceOnUse" x1="17.4302" y1="-9.7256" x2="18.0691" y2="-9.7256" gradientTransform="matrix(4.2532 35.1484 13.321 -1.6133 472.5312 -288.0938)">
					<stop  offset="0" style="stop-color:#FFFFFF"/>
					<stop  offset="0.3609" style="stop-color:#FFFFFF"/>
					<stop  offset="1" style="stop-color:#FFFFFF"/>
				</linearGradient>
				<polygon clip-path="url(#SVGID_38_)" mask="url(#SVGID_39_)" fill="url(#SVGID_41_)" points="448.136,330.192 452.256,364.243 
					388.69,371.941 384.57,337.891 				"/>
			</g>
			<g clip-path="url(#SVGID_4_)">
				<defs>
					<path id="SVGID_42_" d="M449.02,352.135l-26.606,55.522l-18.137,37.979l7.246,43.799l70.669-142.126
						C475.298,354.235,458.137,356.232,449.02,352.135"/>
				</defs>
				<clipPath id="SVGID_43_">
					<use xlink:href="#SVGID_42_"  overflow="visible"/>
				</clipPath>
				<defs>
					
						<filter id="Adobe_OpacityMaskFilter_6_" filterUnits="userSpaceOnUse" x="348.873" y="316.933" width="188.722" height="202.877">
						<feColorMatrix  type="matrix" values="1 0 0 0 0  0 1 0 0 0  0 0 1 0 0  0 0 0 1 0"/>
					</filter>
				</defs>
				<mask maskUnits="userSpaceOnUse" x="348.873" y="316.933" width="188.722" height="202.877" id="SVGID_44_">
					<g filter="url(#Adobe_OpacityMaskFilter_6_)">
						
							<linearGradient id="SVGID_45_" gradientUnits="userSpaceOnUse" x1="4.6621" y1="17.6973" x2="5.3012" y2="17.6973" gradientTransform="matrix(39.2606 18.8245 -13.6609 28.4942 480.8594 -183.8125)">
							<stop  offset="0" style="stop-color:#000000"/>
							<stop  offset="0.195" style="stop-color:#1A1A1A"/>
							<stop  offset="0.3857" style="stop-color:#2C2C2C"/>
							<stop  offset="0.5206" style="stop-color:#333333"/>
							<stop  offset="0.6861" style="stop-color:#252525"/>
							<stop  offset="0.9978" style="stop-color:#000000"/>
							<stop  offset="1" style="stop-color:#000000"/>
						</linearGradient>
						<polygon clip-path="url(#SVGID_43_)" fill="url(#SVGID_45_)" points="348.873,462.87 467.628,519.81 537.595,373.873 
							418.84,316.933 						"/>
					</g>
				</mask>
				
					<linearGradient id="SVGID_46_" gradientUnits="userSpaceOnUse" x1="4.6621" y1="17.6973" x2="5.3012" y2="17.6973" gradientTransform="matrix(39.2606 18.8245 -13.6609 28.4942 480.8594 -183.8125)">
					<stop  offset="0" style="stop-color:#FFFFFF"/>
					<stop  offset="0.5206" style="stop-color:#FFFFFF"/>
					<stop  offset="1" style="stop-color:#FFFFFF"/>
				</linearGradient>
				<polygon clip-path="url(#SVGID_43_)" mask="url(#SVGID_44_)" fill="url(#SVGID_46_)" points="348.873,462.87 467.628,519.81 
					537.595,373.873 418.84,316.933 				"/>
			</g>
			<g clip-path="url(#SVGID_4_)">
				<defs>
					<path id="SVGID_47_" d="M397.629,405.678l21.794,8.13c3.104-4.575,9.97-4.575,9.97-4.575l-42.77-69.905L397.629,405.678z
						 M254.301,287.773l43.561,71.644c6.14,2.45,14.923,10.135,18.793,15.927l43.828,16.146l-16.027-96.62l-88.048-20.638
						C256.408,274.231,258.01,283.613,254.301,287.773"/>
				</defs>
				<clipPath id="SVGID_48_">
					<use xlink:href="#SVGID_47_"  overflow="visible"/>
				</clipPath>
				
					<linearGradient id="SVGID_49_" gradientUnits="userSpaceOnUse" x1="1.8672" y1="-1.0068" x2="2.5061" y2="-1.0068" gradientTransform="matrix(159.1435 275.6447 275.6447 -159.1435 270.5 -420.125)">
					<stop  offset="0" style="stop-color:#52835F"/>
					<stop  offset="0.0169" style="stop-color:#52835F"/>
					<stop  offset="0.5" style="stop-color:#006D4F"/>
					<stop  offset="1" style="stop-color:#004A33"/>
				</linearGradient>
				<polygon clip-path="url(#SVGID_48_)" fill="url(#SVGID_49_)" points="385.62,198.414 489.831,378.914 298.074,489.625 
					193.862,309.125 				"/>
			</g>
			<g clip-path="url(#SVGID_4_)">
				<defs>
					<polygon id="SVGID_50_" points="256.408,274.231 344.456,294.87 342.35,282.314 263.336,265.27 					"/>
				</defs>
				<clipPath id="SVGID_51_">
					<use xlink:href="#SVGID_50_"  overflow="visible"/>
				</clipPath>
				
					<linearGradient id="SVGID_52_" gradientUnits="userSpaceOnUse" x1="5.7612" y1="-3.104" x2="6.4002" y2="-3.104" gradientTransform="matrix(51.79 89.703 89.703 -51.79 264.875 -424.6562)">
					<stop  offset="0" style="stop-color:#006D4F"/>
					<stop  offset="0.5" style="stop-color:#006D4F"/>
					<stop  offset="1" style="stop-color:#004A33"/>
				</linearGradient>
				<polygon clip-path="url(#SVGID_51_)" fill="url(#SVGID_52_)" points="322.444,227.144 357.273,287.47 278.42,332.996 
					243.591,272.67 				"/>
			</g>
			<g clip-path="url(#SVGID_4_)">
				<defs>
					<polygon id="SVGID_53_" points="386.623,339.327 429.393,409.232 434.18,398.194 382.053,311.912 					"/>
				</defs>
				<clipPath id="SVGID_54_">
					<use xlink:href="#SVGID_53_"  overflow="visible"/>
				</clipPath>
				
					<linearGradient id="SVGID_55_" gradientUnits="userSpaceOnUse" x1="4.23" y1="-0.3262" x2="4.8691" y2="-0.3262" gradientTransform="matrix(-6.700000e-06 152.2876 152.2876 6.700000e-06 457.875 -332.375)">
					<stop  offset="0" style="stop-color:#00573F"/>
					<stop  offset="0.0011" style="stop-color:#00573F"/>
					<stop  offset="1" style="stop-color:#002E20"/>
				</linearGradient>
				<rect x="382.053" y="311.912" clip-path="url(#SVGID_54_)" fill="url(#SVGID_55_)" width="52.127" height="97.321"/>
			</g>
		</g>
	</g>
</g>
</svg>
