/* XPM */
static char *regina[] = {
/* columns rows colors chars-per-pixel */
"32 32 105 2 ",
"   c #023F2D",
".  c #1E3E2A",
"X  c #5D3D27",
"o  c #00553B",
"O  c #03583D",
"+  c #10583E",
"@  c #3B412D",
"#  c #224F39",
"$  c #334E37",
"%  c #20523A",
"&  c #285239",
"*  c #4C4831",
"=  c #585237",
"-  c #585338",
";  c #64422C",
":  c #69462E",
">  c #654633",
",  c #6E4A30",
"<  c #734C32",
"1  c #775035",
"2  c #7B5337",
"3  c #715138",
"4  c #7C5539",
"5  c #775A3C",
"6  c #78583E",
"7  c #135B40",
"8  c #006042",
"9  c #006748",
"0  c #026B4D",
"q  c #166F50",
"w  c #047252",
"e  c #0D7452",
"r  c #007D5A",
"t  c #0C7E5A",
"y  c #1A7654",
"u  c #1D7B59",
"i  c #396749",
"p  c #287F5C",
"a  c #317250",
"s  c #3F7D5A",
"d  c #7E5C42",
"f  c #4B6746",
"g  c #416C4A",
"h  c #48704D",
"j  c #656445",
"k  c #646D4C",
"l  c #7E6241",
"z  c #737151",
"x  c #825739",
"c  c #855A3D",
"v  c #8C5D3D",
"b  c #865C40",
"n  c #8A5E41",
"m  c #8C6244",
"M  c #816749",
"N  c #8E664A",
"B  c #806B4C",
"V  c #8D684A",
"C  c #916445",
"Z  c #936748",
"A  c #956A4D",
"S  c #996E4D",
"D  c #976E52",
"F  c #986F52",
"G  c #867355",
"H  c #937255",
"J  c #9A7255",
"K  c #9E765A",
"L  c #9F785D",
"P  c #A0775B",
"I  c #A17A5D",
"U  c #A37C62",
"Y  c #03835F",
"T  c #0F835F",
"R  c #0D8661",
"E  c #118762",
"W  c #178963",
"Q  c #1B8B64",
"!  c #238D65",
"~  c #298F67",
"^  c #378A64",
"/  c #3C8D66",
"(  c #2D9068",
")  c #34926A",
"_  c #3A946B",
"`  c #4E825D",
"'  c #40966C",
"]  c #47986D",
"[  c #4B986E",
"{  c #589A6F",
"}  c #529B70",
"|  c #A78165",
" . c #AA8466",
".. c #A68168",
"X. c #AA856B",
"o. c #AD896D",
"O. c #AD8B73",
"+. c #B28F73",
"@. c #B49277",
"#. c #B2927A",
"$. c #B7987E",
"%. c #B9997A",
"&. c #BEA088",
"*. c #C0A48A",
"=. c None",
/* pixels */
"=.=.=.=.=.=.=.=.=.=.=.=.=.=.=.=.=.O.=.=.=.=.=.=.=.=.=.=.=.=.=.=.",
"=.=.=.=.=.=.=.=.=.=.=.=.=.=.=.=.%.*.H =.=.=.=.=.=.=.=.=.=.=.=.=.",
"=.=.=.=.=.=.=.=.=.=.=.=.=.=.=.| +.*. .=.=.=.=.=.=.=.=.=.=.=.=.=.",
"=.=.=.=.=.=.=.=.=.=.=.=.=.=.L +. .&. .L =.=.=.=.=.=.=.=.=.=.=.=.",
"=.=.=.=.=.=.=.=.=.=.=.=.=.=. .@.| %.o. .6 =.=.=.=.=.=.=.=.=.=.=.",
"=.=.=.=.=.=.=.=.=.=.=.=.=.P o.X.m @.o. .P =.=.=.=.=.=.=.=.=.=.=.",
"=.=.=.=.=.=.=.=.=.=.=.=.H  .o.6 =.o.+.P  .m =.=.=.=.=.=.=.=.=.=.",
"=.=.=.=.=.=.=.=.=.=.=.=.| o.J =.=.| O.S o.L < =.=.=.=.=.=.=.=.=.",
"=.=.=.=.=.=.=.=.=.=.=.J X.P =.=.=.L #.m J | A =.=.=.=.=.=.=.=.=.",
"=.=.=.=.=.=.=.=.=.=.A U | 3 =.=.=.A #.A 2 U L 2 =.=.=.=.=.=.=.=.",
"=.=.=.=.=.=.=.=.=.=.P X.N =.=.=.=.m O.L =.m | J =.=.=.=.=.=.=.=.",
"=.=.=.=.=.=.=.=.=.A | G @ =.=.=.=.x  .| =.=.K P m =.=.=.=.=.=.=.",
"=.=.=.=.=.=.=.=.m P U ` u w 0 =.=.6 | | > =.2 U J < =.=.=.=.=.=.",
"=.=.=.=.=.=.=.=.L X.m { } ] / p q 7 L o.2 =.=.A U A =.=.=.=.=.=.",
"=.=.=.=.=.=.=.A | J =.s ] _ _ ) ( ~ H O.b =.=.=.K K x =.=.=.=.=.",
"=.=.=.=.=.=.m L K : =.=.^ ) ) ~ Q Q B O.V =.=.=.x U A : =.=.=.=.",
"=.=.=.=.=.=.J U n =.=.=.=.~ ~ ~ W E k X.J # =.=.=.D K n =.=.=.=.",
"=.=.=.=.=.A U A =.=.=.=.=.q W T R Y h  .L % - x x n U F < =.=.=.",
"=.=.=.=.m K J : =.=.=.=.=.=.T Y R r a U U i # A A C A P 2 =.=.=.",
"=.=.=.=.J U C 1 x n C A H F z t r r q K  .f 7 - v v K C : =.=.=.",
"=.=.=.D U A A A A C C v v v v M i e w J O.j 9   =.m K v =.=.=.=.",
"=.=.=.F K K D n v x 2 , > X =.=.=.=.=.m O.B 9 O . J A : =.=.=.=.",
"=.=.=.=.x A K P F 2 =.=.=.=.=.=.=.=.=.n X.J O 8 $ P v =.=.=.=.=.",
"=.=.=.=.=.: x A J U J 2 =.=.=.=.=.=.=.2  .K =.* J A : =.=.=.=.=.",
"=.=.=.=.=.=.=.: x C J U J 2 =.=.=.=.=.=.U U ; n U v =.=.=.=.=.=.",
"=.=.=.=.=.=.=.=.=.: x C J U D 2 =.=.=.=.J X.x K A , =.=.=.=.=.=.",
"=.=.=.=.=.=.=.=.=.=.=.: x C F U F 2 =.=.F O.C U v =.=.=.=.=.=.=.",
"=.=.=.=.=.=.=.=.=.=.=.=.=.: x C K U F d n O.A A < =.=.=.=.=.=.=.",
"=.=.=.=.=.=.=.=.=.=.=.=.=.=.=.: x n F U A U F n =.=.=.=.=.=.=.=.",
"=.=.=.=.=.=.=.=.=.=.=.=.=.=.=.=.=.: x m A  .K 1 =.=.=.=.=.=.=.=.",
"=.=.=.=.=.=.=.=.=.=.=.=.=.=.=.=.=.=.=.: x P U =.=.=.=.=.=.=.=.=.",
"=.=.=.=.=.=.=.=.=.=.=.=.=.=.=.=.=.=.=.=.=.> =.=.=.=.=.=.=.=.=.=."
};
