<?xml version="1.0" encoding="utf-8"?>
<!-- Generator: Adobe Illustrator 16.0.4, SVG Export Plug-In . SVG Version: 6.00 Build 0)  -->
<!DOCTYPE svg PUBLIC "-//W3C//DTD SVG 1.1//EN" "http://www.w3.org/Graphics/SVG/1.1/DTD/svg11.dtd">
<svg version="1.1" id="Layer_1" xmlns="http://www.w3.org/2000/svg" xmlns:xlink="http://www.w3.org/1999/xlink" x="0px" y="0px"
	 width="581.818px" height="581.818px" viewBox="0 0 581.818 581.818" enable-background="new 0 0 581.818 581.818"
	 xml:space="preserve">
<polyline fill="none" stroke="#000000" stroke-width="24" stroke-linecap="round" stroke-linejoin="round" stroke-miterlimit="10" points="
	116.363,116.364 203.636,203.637 116.363,290.91 "/>
<line fill="none" stroke="#000000" stroke-width="24" stroke-linecap="round" stroke-linejoin="round" stroke-miterlimit="10" x1="232.909" y1="291.909" x2="348.909" y2="291.909"/>
<path fill="none" stroke="#000000" stroke-width="24" stroke-linecap="round" stroke-linejoin="round" stroke-miterlimit="10" d="
	M29.182,87.364c-0.091-29.182,29-58.273,58.09-58.455c0.182-0.001,407.23-0.002,407.637,0c28.728,0.182,57.818,29.272,58,58.363
	c0.001,0.182,0.003,407.229,0,407.637c-0.182,28.727-29.272,57.818-58.364,58c-0.182,0.001-407.229,0.003-407.636,0
	c-28.727-0.182-57.818-29.273-57.818-58.364C29.091,494.545,29.182,87.493,29.182,87.364z"/>
</svg>
