<?xml version="1.0" encoding="utf-8"?>
<!-- Generator: Adobe Illustrator 16.0.4, SVG Export Plug-In . SVG Version: 6.00 Build 0)  -->
<!DOCTYPE svg PUBLIC "-//W3C//DTD SVG 1.1//EN" "http://www.w3.org/Graphics/SVG/1.1/DTD/svg11.dtd">
<svg version="1.1" id="Layer_1" xmlns:inkpad="http://taptrix.com/inkpad/svg_extensions"
	 xmlns="http://www.w3.org/2000/svg" xmlns:xlink="http://www.w3.org/1999/xlink" x="0px" y="0px" width="512px" height="512px"
	 viewBox="0 0 512 512" enable-background="new 0 0 512 512" xml:space="preserve">
<g>
	<path fill="#2F3B73" d="M112,328h72v72h-72V328z"/>
	<path fill="#2F3B73" d="M184,40h72v72h-72V40z"/>
	<path fill="#2F3B73" d="M40,184h72v72H40V184z"/>
	<path fill="#2F3B73" d="M328,112h72v72h-72V112z"/>
	<path fill="#2F3B73" d="M400,400h72v72h-72V400z"/>
	<path fill="#2F3B73" d="M328,328h72v72h-72V328z"/>
	<path fill="#2F3B73" d="M256,256h72v72h-72V256z"/>
	<path fill="#2F3B73" d="M184,184h72v72h-72V184z"/>
	<path fill="#2F3B73" d="M112,112h72v72h-72V112z"/>
	<path fill="#2F3B73" d="M40,40h72v72H40V40z"/>
	<path fill="#2F3B73" d="M184,328h72v72h-72V328z"/>
	<path fill="#2F3B73" d="M328,184h72v72h-72V184z"/>
	<path fill="#2F3B73" stroke="#2F3B73" stroke-width="16" stroke-linejoin="round" d="M40,112h432"/>
	<path fill="#2F3B73" stroke="#2F3B73" stroke-width="16" stroke-linejoin="round" d="M40,184h432"/>
	<path fill="#2F3B73" stroke="#2F3B73" stroke-width="16" stroke-linejoin="round" d="M40,256h432"/>
	<path fill="#2F3B73" stroke="#2F3B73" stroke-width="16" stroke-linejoin="round" d="M40,328h432"/>
	<path fill="#2F3B73" stroke="#2F3B73" stroke-width="16" stroke-linejoin="round" d="M40,400h432"/>
	<path fill="#2F3B73" stroke="#2F3B73" stroke-width="16" stroke-linejoin="round" d="M112,40v432"/>
	<path fill="#2F3B73" stroke="#2F3B73" stroke-width="16" stroke-linejoin="round" d="M184,40v432"/>
	<path fill="#2F3B73" stroke="#2F3B73" stroke-width="16" stroke-linejoin="round" d="M256,40v432"/>
	<path fill="#2F3B73" stroke="#2F3B73" stroke-width="16" stroke-linejoin="round" d="M328,40v432"/>
	<path fill="#2F3B73" stroke="#2F3B73" stroke-width="16" stroke-linejoin="round" d="M400,40v432"/>
	<path fill="none" stroke="#2F3B73" stroke-width="16" stroke-linejoin="round" d="M40,40h432v432H40V40z"/>
</g>
</svg>
