<?xml version="1.0" encoding="utf-8"?>
<!-- Generator: Adobe Illustrator 16.0.4, SVG Export Plug-In . SVG Version: 6.00 Build 0)  -->
<!DOCTYPE svg PUBLIC "-//W3C//DTD SVG 1.1//EN" "http://www.w3.org/Graphics/SVG/1.1/DTD/svg11.dtd">
<svg version="1.1" id="Layer_1" xmlns:inkpad="http://taptrix.com/inkpad/svg_extensions"
	 xmlns="http://www.w3.org/2000/svg" xmlns:xlink="http://www.w3.org/1999/xlink" x="0px" y="0px" width="512px" height="512px"
	 viewBox="0 0 512 512" enable-background="new 0 0 512 512" xml:space="preserve">
<path fill="#2F3B73" stroke="#2F3B73" stroke-width="20" stroke-linecap="round" stroke-linejoin="round" d="M227.413,52.333
	c0-15.788,12.799-28.587,28.587-28.587s28.587,12.799,28.587,28.587S271.788,80.919,256,80.919S227.413,68.121,227.413,52.333z"/>
<g>
	<path fill="#2F3B73" stroke="#2F3B73" stroke-width="20" stroke-linecap="round" stroke-linejoin="round" d="M115.44,459.667
		c0-15.788,12.799-28.587,28.587-28.587s28.586,12.799,28.586,28.587s-12.798,28.586-28.586,28.586
		C128.239,488.253,115.44,475.455,115.44,459.667z"/>
	<path fill="#2F3B73" stroke="#2F3B73" stroke-width="20" stroke-linecap="round" stroke-linejoin="round" d="M339.387,459.667
		c0-15.788,12.798-28.587,28.586-28.587s28.587,12.799,28.587,28.587s-12.799,28.586-28.587,28.586S339.387,475.455,339.387,459.667
		z"/>
</g>
<g>
	<path fill="#2F3B73" stroke="#2F3B73" stroke-width="20" stroke-linecap="round" stroke-linejoin="round" d="M19.493,219.24
		c0-15.788,12.799-28.587,28.587-28.587s28.586,12.799,28.586,28.587c0,15.788-12.798,28.587-28.586,28.587
		S19.493,235.028,19.493,219.24z"/>
	<path fill="#2F3B73" stroke="#2F3B73" stroke-width="20" stroke-linecap="round" stroke-linejoin="round" d="M435.333,219.24
		c0-15.788,12.799-28.587,28.587-28.587s28.587,12.799,28.587,28.587c0,15.788-12.799,28.587-28.587,28.587
		S435.333,235.028,435.333,219.24z"/>
</g>
<path fill="none" stroke="#2F3B73" stroke-width="20" stroke-linejoin="round" d="M58.675,245.791l74.755,187.323"/>
<path fill="none" stroke="#2F3B73" stroke-width="20" stroke-linejoin="round" d="M339.387,459.667H172.613"/>
<path fill="none" stroke="#2F3B73" stroke-width="20" stroke-linejoin="round" d="M453.324,245.791l-74.756,187.326"/>
<path fill="none" stroke="#2F3B73" stroke-width="20" stroke-linejoin="round" d="M441.068,236.415L166.877,442.491"/>
<path fill="none" stroke="#2F3B73" stroke-width="20" stroke-linejoin="round" d="M70.932,236.415L345.12,442.491"/>
<path fill="none" stroke="#2F3B73" stroke-width="20" stroke-linejoin="round" d="M263.857,80.92l96.537,351.184"/>
<path fill="none" stroke="#2F3B73" stroke-width="20" stroke-linejoin="round" d="M233.711,70.225L70.369,201.348"/>
<path fill="none" stroke="#2F3B73" stroke-width="20" stroke-linejoin="round" d="M248.423,79.897l-96.819,352.206"/>
<path fill="none" stroke="#2F3B73" stroke-width="20" stroke-linejoin="round" d="M76.667,219.24h358.667"/>
<path fill="none" stroke="#2F3B73" stroke-width="20" stroke-linejoin="round" d="M278.568,70.45l163.062,130.898"/>
</svg>
