<?xml version="1.0" encoding="utf-8"?>
<!-- Generator: Adobe Illustrator 16.0.4, SVG Export Plug-In . SVG Version: 6.00 Build 0)  -->
<!DOCTYPE svg PUBLIC "-//W3C//DTD SVG 1.1//EN" "http://www.w3.org/Graphics/SVG/1.1/DTD/svg11.dtd">
<svg version="1.1" id="Layer_1" xmlns:inkpad="http://taptrix.com/inkpad/svg_extensions"
	 xmlns="http://www.w3.org/2000/svg" xmlns:xlink="http://www.w3.org/1999/xlink" x="0px" y="0px" width="512px" height="512px"
	 viewBox="0 0 512 512" enable-background="new 0 0 512 512" xml:space="preserve">
<g id="Layer" inkpad:layerName="Layer 1">
	<path fill="none" stroke="#2F3B73" stroke-width="20" stroke-linecap="round" stroke-linejoin="round" d="M19.65,256.001
		c0-130.533,105.817-236.35,236.35-236.35s236.349,105.817,236.349,236.35c0,130.531-105.816,236.348-236.349,236.348
		S19.65,386.532,19.65,256.001z"/>
	<path fill="#2F3B73" d="M256,19.651C125.468,19.651,19.651,125.468,19.651,256S125.468,492.349,256,492.349
		S492.349,386.532,492.349,256S386.532,19.651,256,19.651z M284.564,415.113c-5.804,6.108-13.135,9.164-21.994,9.164
		c-8.552,0-15.807-2.979-21.764-8.936c-5.956-5.956-8.934-12.906-8.934-20.848c0-8.247,2.902-15.35,8.705-21.307
		c5.804-5.955,13.135-8.935,21.993-8.935c8.859,0,16.19,2.901,21.994,8.706s8.705,12.83,8.705,21.077
		C293.27,401.979,290.368,409.004,284.564,415.113z M355.127,200.677c-2.139,7.331-5.117,13.975-8.935,19.931
		c-3.818,5.957-8.478,11.532-13.976,16.724c-5.498,5.193-11.455,10.539-17.87,16.037c-6.108,5.193-11.302,9.852-15.579,13.975
		c-4.275,4.124-7.636,8.324-10.08,12.602c-2.443,4.275-4.199,9.011-5.269,14.203c-1.069,5.193-1.604,11.608-1.604,19.244v16.037
		h-43.069v-21.992c0-7.942,0.763-15.121,2.291-21.537c1.527-6.414,3.741-12.217,6.643-17.41c2.902-5.193,6.415-10.157,10.539-14.892
		c4.124-4.734,8.782-9.545,13.976-14.433l16.953-16.037c6.72-5.803,12.295-12.142,16.725-19.015
		c4.429-6.873,6.643-15.655,6.643-26.346c0-14.663-4.657-26.347-13.975-35.052c-9.316-8.706-21.307-13.059-35.969-13.059
		c-15.272,0-27.491,4.887-36.655,14.662s-14.51,21.688-16.037,35.74l-43.987-5.04c1.833-13.135,5.651-24.972,11.455-35.511
		c5.804-10.538,13.059-19.473,21.764-26.804c8.706-7.331,18.71-12.906,30.012-16.725c11.303-3.818,23.368-5.728,36.198-5.728
		s24.818,1.833,35.969,5.499c11.148,3.666,21,9.087,29.553,16.266c8.553,7.179,15.274,16.037,20.161,26.576
		c4.887,10.538,7.331,22.681,7.331,36.427C358.334,184.792,357.265,193.346,355.127,200.677z"/>
</g>
</svg>
