<?xml version="1.0" encoding="utf-8"?>
<!-- Generator: Adobe Illustrator 16.0.4, SVG Export Plug-In . SVG Version: 6.00 Build 0)  -->
<!DOCTYPE svg PUBLIC "-//W3C//DTD SVG 1.1//EN" "http://www.w3.org/Graphics/SVG/1.1/DTD/svg11.dtd">
<svg version="1.1" id="Layer_1" xmlns:inkpad="http://taptrix.com/inkpad/svg_extensions"
	 xmlns="http://www.w3.org/2000/svg" xmlns:xlink="http://www.w3.org/1999/xlink" x="0px" y="0px" width="512px" height="512px"
	 viewBox="0 0 512 512" enable-background="new 0 0 512 512" xml:space="preserve">
<path fill="#003300" d="M256,19.651C125.468,19.651,19.651,125.468,19.651,256S125.468,492.349,256,492.349
	S492.349,386.532,492.349,256S386.532,19.651,256,19.651z M235.185,84.033c5.785-5.61,12.71-8.415,20.774-8.415
	c8.064,0,14.988,2.805,20.773,8.415s8.678,12.447,8.678,20.511c0,8.064-2.893,14.989-8.678,20.774
	c-5.785,5.785-12.709,8.677-20.773,8.677c-8.064,0-14.989-2.892-20.774-8.677c-5.785-5.785-8.678-12.71-8.678-20.774
	C226.507,96.479,229.4,89.643,235.185,84.033z M332.48,421.148c-4.383,3.506-9.905,5.259-16.566,5.259
	c-5.61,0-14.112-0.788-25.507-2.366c-11.396-1.578-19.898-2.367-25.509-2.367c-9.115,0-19.282,0.701-30.502,2.104
	c-13.674,1.753-22.79,2.629-27.348,2.629c-14.025,0-21.037-5.96-21.037-17.882c0-11.569,5.961-17.354,17.882-17.354
	c2.804,0,6.924,0.526,12.359,1.578c5.434,1.051,9.554,1.577,12.359,1.577c8.415,0,13.498-11.219,15.252-33.659
	c0-1.401,0-16.653,0-45.755v-43.125c0-29.101,0-44.353,0-45.755c-1.754-22.089-7.013-33.133-15.778-33.133
	c-2.805,0-6.749,0.613-11.833,1.84c-5.084,1.227-8.853,1.841-11.308,1.841c-12.622,0-18.933-5.61-18.933-16.83
	c0-11.92,7.714-17.881,23.141-17.881c6.661,0,11.395,0.175,14.2,0.526c11.219,1.403,18.407,2.104,21.562,2.104
	c2.805,0,7.1-0.438,12.885-1.315c5.786-0.877,10.081-1.315,12.887-1.315c10.166,0,15.25,6.837,15.25,20.511
	c0,1.403-0.175,3.506-0.525,6.311c-0.35,2.805-0.526,4.909-0.526,6.311c-0.35,2.805-0.7,13.674-1.051,32.607
	c-0.351,14.375-0.526,29.101-0.526,44.178v68.369c0,17.531,0.176,27.873,0.526,31.029c1.753,15.777,6.485,23.666,14.199,23.666
	c1.753,0,6.136-0.875,13.147-2.629c1.753-0.701,4.383-1.052,7.89-1.052c13.323,0,19.984,5.785,19.984,17.354
	C339.054,413.436,336.863,417.643,332.48,421.148z"/>
<g id="Layer_1_" inkpad:layerName="Layer 1">
	<path fill="none" stroke="#2F3B73" stroke-width="20" stroke-linecap="round" stroke-linejoin="round" d="M19.651,256
		c0-130.533,105.817-236.35,236.349-236.35c130.533,0,236.35,105.817,236.35,236.35c0,130.531-105.816,236.347-236.35,236.347
		C125.469,492.348,19.651,386.531,19.651,256z"/>
</g>
</svg>
