<?xml version="1.0" encoding="utf-8"?>
<!-- Generator: Adobe Illustrator 16.0.4, SVG Export Plug-In . SVG Version: 6.00 Build 0)  -->
<!DOCTYPE svg PUBLIC "-//W3C//DTD SVG 1.1//EN" "http://www.w3.org/Graphics/SVG/1.1/DTD/svg11.dtd">
<svg version="1.1" id="Layer_1" xmlns="http://www.w3.org/2000/svg" xmlns:xlink="http://www.w3.org/1999/xlink" x="0px" y="0px"
	 width="640px" height="640px" viewBox="0 0 640 640" enable-background="new 0 0 640 640" xml:space="preserve">
<linearGradient id="SVGID_1_" gradientUnits="userSpaceOnUse" x1="25.1611" y1="294.939" x2="468.6575" y2="133.5195" gradientTransform="matrix(1 0 0 -1 22.5 540)">
	<stop  offset="0" style="stop-color:#E6E6E6"/>
	<stop  offset="1" style="stop-color:#333333"/>
</linearGradient>
<path fill="url(#SVGID_1_)" stroke="#000000" stroke-width="23.1" stroke-miterlimit="10" d="M68.875,186.775
	c0,0,178.36,153.937,189.91,209.377c11.715,56.229,10.395,172.096,10.395,172.096s23.1,20.789,50.82,20.789
	c27.72,0,52.359-21.177,52.359-21.177s-2.311-115.113,7.7-169.398c11.055-59.942,191.063-211.687,191.063-211.687"/>
<linearGradient id="SVGID_2_" gradientUnits="userSpaceOnUse" x1="297.5" y1="488.0391" x2="297.5" y2="293.9976" gradientTransform="matrix(1 0 0 -1 22.5 540)">
	<stop  offset="0" style="stop-color:#919191"/>
	<stop  offset="0.1467" style="stop-color:#7D7D7D"/>
	<stop  offset="0.5339" style="stop-color:#4E4E4E"/>
	<stop  offset="0.8308" style="stop-color:#313131"/>
	<stop  offset="1" style="stop-color:#262626"/>
</linearGradient>
<ellipse fill="url(#SVGID_2_)" stroke="#000000" stroke-width="22" stroke-miterlimit="10" cx="320" cy="148.982" rx="272.58" ry="97.021"/>
<g display="none">
	
		<line display="inline" fill="none" stroke="#232670" stroke-width="23.1" stroke-linecap="round" stroke-miterlimit="10" x1="540.5" y1="410.5" x2="427" y2="531"/>
	
		<linearGradient id="SVGID_3_" gradientUnits="userSpaceOnUse" x1="544.2559" y1="84.0264" x2="491.7469" y2="174.9744" gradientTransform="matrix(1 0 0 -1 22.5 540)">
		<stop  offset="0" style="stop-color:#FFFFFF"/>
		<stop  offset="1" style="stop-color:#C6EEFF"/>
	</linearGradient>
	
		<circle display="inline" fill="url(#SVGID_3_)" stroke="#232670" stroke-width="23.1" stroke-miterlimit="10" cx="540.5" cy="410.5" r="52.5"/>
</g>
<g>
	
		<line fill="none" stroke="#00783F" stroke-width="30" stroke-linecap="round" stroke-miterlimit="10" x1="471" y1="562" x2="434" y2="387.906"/>
	
		<line fill="none" stroke="#00783F" stroke-width="30" stroke-linecap="round" stroke-miterlimit="10" x1="592.579" y1="461" x2="434" y2="387.906"/>
	
		<line fill="none" stroke="#00783F" stroke-width="30" stroke-linecap="round" stroke-miterlimit="10" x1="544" y1="526" x2="434" y2="387.906"/>
</g>
</svg>
