<?xml version="1.0" encoding="UTF-8" standalone="no"?>
<!-- Generator: Adobe Illustrator 10.0.3, SVG Export Plug-In . SVG Version: 3.0.0 Build 77)  -->
<svg
   xmlns:a="http://ns.adobe.com/AdobeSVGViewerExtensions/3.0/"
   xmlns:dc="http://purl.org/dc/elements/1.1/"
   xmlns:cc="http://web.resource.org/cc/"
   xmlns:rdf="http://www.w3.org/1999/02/22-rdf-syntax-ns#"
   xmlns:svg="http://www.w3.org/2000/svg"
   xmlns="http://www.w3.org/2000/svg"
   xmlns:sodipodi="http://sodipodi.sourceforge.net/DTD/sodipodi-0.dtd"
   xmlns:inkscape="http://www.inkscape.org/namespaces/inkscape"
   width="128"
   height="128"
   viewBox="0 0 128 128"
   overflow="visible"
   enable-background="new 0 0 128 128"
   xml:space="preserve"
   id="svg2010"
   sodipodi:version="0.32"
   inkscape:version="0.44.1"
   sodipodi:docname="pdf.svgz"
   sodipodi:docbase="/home/bab/Desktop"
   version="1.0"><metadata
   id="metadata2110"><rdf:RDF><cc:Work
       rdf:about=""><dc:format>image/svg+xml</dc:format><dc:type
         rdf:resource="http://purl.org/dc/dcmitype/StillImage" /></cc:Work></rdf:RDF></metadata><defs
   id="defs2108">
		
		
	
			
			
			
			
			<linearGradient
   id="XMLID_4_"
   gradientUnits="userSpaceOnUse"
   x1="-56.222198"
   y1="10.6514"
   x2="74.819504"
   y2="10.6514"
   gradientTransform="translate(-0.677249,0.677249)">
				<stop
   offset="0"
   style="stop-color:#FFFFFF"
   id="stop2053" />
				<stop
   offset="1"
   style="stop-color:#FF0000"
   id="stop2055" />
				<a:midPointStop
   offset="0"
   style="stop-color:#FFFFFF" />
				<a:midPointStop
   offset="0.5"
   style="stop-color:#FFFFFF" />
				<a:midPointStop
   offset="1"
   style="stop-color:#FF0000" />
			</linearGradient>
			
			
			
			
		
				
				
				
			
				
				
			
				
					<radialGradient
   gradientUnits="userSpaceOnUse"
   fy="118.249"
   fx="108.4668"
   r="34.736401"
   cy="118.249"
   cx="108.4668"
   id="XMLID_5_"
   gradientTransform="translate(-0.677249,0.677249)">
					<stop
   id="stop2062"
   style="stop-color:#000000"
   offset="0" />
					<stop
   id="stop2064"
   style="stop-color:#000000"
   offset="1" />
					<a:midPointStop
   style="stop-color:#000000"
   offset="0" />
					<a:midPointStop
   style="stop-color:#000000"
   offset="0.5" />
					<a:midPointStop
   style="stop-color:#000000"
   offset="1" />
				</radialGradient>
				
				
				<linearGradient
   y2="135.79379"
   x2="95.088303"
   y1="98.180702"
   x1="104.0166"
   gradientUnits="userSpaceOnUse"
   id="XMLID_6_"
   gradientTransform="translate(-0.677249,0.677249)">
					<stop
   id="stop2071"
   style="stop-color:#FFFFFF"
   offset="0" />
					<stop
   id="stop2073"
   style="stop-color:#CCCCCC"
   offset="1" />
					<a:midPointStop
   style="stop-color:#FFFFFF"
   offset="0" />
					<a:midPointStop
   style="stop-color:#FFFFFF"
   offset="0.5" />
					<a:midPointStop
   style="stop-color:#CCCCCC"
   offset="1" />
				</linearGradient>
				
				<linearGradient
   y2="101.8885"
   x2="96.104301"
   y1="88.092796"
   x1="82.308601"
   gradientUnits="userSpaceOnUse"
   id="XMLID_7_"
   gradientTransform="translate(-0.677249,0.677249)">
					<stop
   id="stop2078"
   style="stop-color:#B3B3B3"
   offset="0" />
					<stop
   id="stop2080"
   style="stop-color:#828282"
   offset="1" />
					<a:midPointStop
   style="stop-color:#B3B3B3"
   offset="0" />
					<a:midPointStop
   style="stop-color:#B3B3B3"
   offset="0.5" />
					<a:midPointStop
   style="stop-color:#828282"
   offset="1" />
				</linearGradient>
				
			
				
				<linearGradient
   y2="-100.9347"
   x2="63.920399"
   y1="154.5645"
   x1="63.920399"
   gradientUnits="userSpaceOnUse"
   id="XMLID_1_"
   gradientTransform="translate(-0.677249,0.677249)">
					<stop
   id="stop2020"
   style="stop-color:#FFFFFF"
   offset="0" />
					<stop
   id="stop2022"
   style="stop-color:#F1F1F1"
   offset="0.258" />
					<stop
   id="stop2024"
   style="stop-color:#CECECE"
   offset="0.7396" />
					<stop
   id="stop2026"
   style="stop-color:#C4C4C4"
   offset="0.8595" />
					<a:midPointStop
   style="stop-color:#FFFFFF"
   offset="0" />
					<a:midPointStop
   style="stop-color:#FFFFFF"
   offset="0.5674" />
					<a:midPointStop
   style="stop-color:#C4C4C4"
   offset="0.8595" />
				</linearGradient>
				
				<linearGradient
   y2="56.166199"
   x2="56.166199"
   y1="-26.333"
   x1="-26.333"
   gradientUnits="userSpaceOnUse"
   id="XMLID_2_"
   gradientTransform="translate(-0.677249,0.677249)">
					<stop
   id="stop2031"
   style="stop-color:#B3B3B3"
   offset="0" />
					<stop
   id="stop2033"
   style="stop-color:#828282"
   offset="1" />
					<a:midPointStop
   style="stop-color:#B3B3B3"
   offset="0" />
					<a:midPointStop
   style="stop-color:#B3B3B3"
   offset="0.5" />
					<a:midPointStop
   style="stop-color:#828282"
   offset="1" />
				</linearGradient>
				
				<linearGradient
   y2="111.0652"
   x2="204.00729"
   y1="25.4214"
   x1="43.0229"
   gradientUnits="userSpaceOnUse"
   id="XMLID_3_"
   gradientTransform="translate(-0.677249,0.677249)">
					<stop
   id="stop2038"
   style="stop-color:#FFFFFF"
   offset="0" />
					<stop
   id="stop2040"
   style="stop-color:#E7E7E7"
   offset="0.5033" />
					<stop
   id="stop2042"
   style="stop-color:#D4D4D4"
   offset="1" />
					<a:midPointStop
   style="stop-color:#FFFFFF"
   offset="0" />
					<a:midPointStop
   style="stop-color:#FFFFFF"
   offset="0.452" />
					<a:midPointStop
   style="stop-color:#D4D4D4"
   offset="1" />
				</linearGradient>
				
			</defs><sodipodi:namedview
   inkscape:window-height="843"
   inkscape:window-width="1432"
   inkscape:pageshadow="2"
   inkscape:pageopacity="0.0"
   guidetolerance="10.0"
   gridtolerance="10.0"
   objecttolerance="10.0"
   borderopacity="1.0"
   bordercolor="#666666"
   pagecolor="#ffffff"
   id="base"
   width="128px"
   height="128px"
   inkscape:zoom="2.953125"
   inkscape:cx="64"
   inkscape:cy="52.653333"
   inkscape:window-x="0"
   inkscape:window-y="0"
   inkscape:current-layer="svg2010" />
	<g
   id="g2285"
   transform="matrix(1.314543,0,0,1.314543,-13.55412,-27.63653)"><g
     transform="translate(-0.677249,0.677249)"
     id="g2085"
     style="opacity:0.35">
					<path
   d="M 60.326,29.604 C 52.063,36.961 87.951,101.946 96.543,85.258 C 106.207,66.485 10.476,106.227 31.12,111.606 C 55.309,117.907 75.73,15.887 60.326,29.604 z "
   id="path2087"
   style="fill:none" />
					<path
   d="M 58.713,28.594 C 52.608,34.598 59.332,47.459 62.045,53.578 C 67.003,64.765 73.483,76.384 82.26,85.042 C 84.838,87.587 88.031,90.29 91.869,90.2 C 95.594,90.116 98.699,86.852 99.683,83.454 C 101.742,76.333 90.388,78.132 86.81,78.768 C 76.154,80.659 65.72,84.76 55.818,89.014 C 46.799,92.891 37.257,97.221 29.714,103.631 C 27.735,105.313 25.423,107.682 25.528,110.473 C 25.63,113.172 29.581,113.985 31.609,114.084 C 40.642,114.523 47.097,105.297 51.088,98.451 C 59.937,83.269 64.782,64.9 67.34,47.633 C 68.176,41.972 69.27,35.281 67.723,29.642 C 66.385,24.754 61.832,25.911 58.713,28.594 C 55.685,31.201 59.639,32.595 61.938,30.617 C 62.494,30.137 61.353,30.429 61.686,30.66 C 62.1,30.947 62.504,32.403 62.661,33.222 C 63.402,37.117 62.946,41.284 62.519,45.185 C 61.197,57.307 58.129,69.403 54.084,80.887 C 50.887,89.965 46.672,102.178 38.554,108.135 C 36.437,109.688 33.512,110.344 31.211,108.733 C 30.773,108.426 30.847,108.098 30.966,107.829 C 31.25,107.188 32.28,106.214 33.244,105.395 C 40.689,99.067 50.75,95.084 59.667,91.395 C 68.916,87.565 78.971,83.577 89.016,82.586 C 90.727,82.416 94.188,82.225 94.52,83.67 C 94.647,84.219 94.299,85.305 93.831,85.811 C 93.388,86.293 94.325,85.756 93.698,85.77 C 93.014,85.788 92.251,85.385 91.661,85.086 C 87.354,82.91 84.087,78.533 81.249,74.781 C 77.298,69.558 73.919,63.893 70.853,58.113 C 67.921,52.589 65.298,46.842 63.409,40.873 C 62.69,38.6 62.12,36.269 61.855,33.896 C 61.769,33.122 61.748,32.351 61.828,31.578 C 61.879,31.082 62.389,30.172 61.938,30.618 C 64.772,27.829 60.912,26.433 58.713,28.594 L 58.713,28.594 z "
   id="path2089"
   style="opacity:0.35" />
				</g><g
     transform="translate(-0.677249,0.677249)"
     id="g2091">
					<path
   d="M 57.035,28.072 C 48.772,35.43 84.662,100.415 93.254,83.726 C 102.918,64.955 7.186,104.697 27.832,110.074 C 52.019,116.374 72.441,14.354 57.035,28.072 z "
   id="path2093"
   style="fill:none" />
					<path
   d="M 55.423,27.061 C 49.318,33.065 56.042,45.928 58.755,52.047 C 63.713,63.232 70.192,74.851 78.969,83.511 C 81.549,86.054 84.74,88.757 88.578,88.667 C 92.305,88.583 95.41,85.319 96.392,81.921 C 98.453,74.802 87.101,76.601 83.519,77.235 C 72.865,79.126 62.43,83.228 52.53,87.481 C 43.51,91.358 33.968,95.69 26.426,102.098 C 24.447,103.78 22.135,106.149 22.241,108.94 C 22.342,111.639 26.294,112.452 28.322,112.551 C 37.355,112.99 43.809,103.766 47.801,96.918 C 56.65,81.738 61.496,63.367 64.052,46.1 C 64.89,40.44 65.983,33.748 64.436,28.109 C 63.096,23.22 58.544,24.376 55.425,27.062 C 52.396,29.669 56.35,31.062 58.649,29.083 C 59.205,28.604 58.063,28.896 58.398,29.127 C 58.811,29.413 59.217,30.872 59.372,31.689 C 60.113,35.585 59.657,39.752 59.23,43.652 C 57.908,55.776 54.84,67.87 50.796,79.356 C 47.6,88.432 43.384,100.645 35.266,106.604 C 33.15,108.157 30.224,108.811 27.923,107.2 C 27.485,106.895 27.558,106.567 27.677,106.296 C 27.96,105.655 28.991,104.683 29.955,103.864 C 37.401,97.536 47.461,93.553 56.38,89.862 C 65.63,86.032 75.681,82.044 85.73,81.053 C 87.439,80.883 90.9,80.694 91.232,82.137 C 91.359,82.686 91.011,83.772 90.544,84.28 C 90.099,84.76 91.036,84.223 90.409,84.237 C 89.725,84.255 88.962,83.852 88.372,83.553 C 84.067,81.377 80.798,77 77.96,73.25 C 74.009,68.025 70.63,62.36 67.564,56.582 C 64.634,51.057 62.008,45.311 60.121,39.342 C 59.402,37.067 58.831,34.737 58.567,32.364 C 58.481,31.592 58.46,30.819 58.54,30.046 C 58.592,29.55 59.101,28.641 58.65,29.085 C 61.484,26.298 57.624,24.902 55.426,27.064 L 55.423,27.061 z "
   id="path2095"
   style="fill:#f8310e" />
				</g></g>
</svg>