<?xml version="1.0" encoding="utf-8"?>
<!-- Generator: Adobe Illustrator 16.0.4, SVG Export Plug-In . SVG Version: 6.00 Build 0)  -->
<!DOCTYPE svg PUBLIC "-//W3C//DTD SVG 1.1//EN" "http://www.w3.org/Graphics/SVG/1.1/DTD/svg11.dtd">
<svg version="1.1" id="Layer_1" xmlns="http://www.w3.org/2000/svg" xmlns:xlink="http://www.w3.org/1999/xlink" x="0px" y="0px"
	 width="640px" height="640px" viewBox="0 0 640 640" enable-background="new 0 0 640 640" xml:space="preserve">
<path fill="#8CC63F" stroke="#006837" stroke-width="10" stroke-linejoin="round" stroke-miterlimit="10" d="M653,149"/>
<line fill="none" stroke="#4D4D4D" stroke-width="24" stroke-miterlimit="10" x1="55" y1="66" x2="282" y2="66"/>
<line fill="none" stroke="#4D4D4D" stroke-width="24" stroke-miterlimit="10" x1="357" y1="66" x2="433" y2="66"/>
<line fill="none" stroke="#4D4D4D" stroke-width="24" stroke-miterlimit="10" x1="509" y1="66" x2="584" y2="66"/>
<line fill="none" stroke="#4D4D4D" stroke-width="24" stroke-miterlimit="10" x1="55" y1="147" x2="206" y2="147"/>
<line fill="none" stroke="#4D4D4D" stroke-width="24" stroke-miterlimit="10" x1="282" y1="147" x2="584" y2="147"/>
<line fill="none" stroke="#4D4D4D" stroke-width="24" stroke-miterlimit="10" x1="55" y1="227" x2="357" y2="227"/>
<line fill="none" stroke="#4D4D4D" stroke-width="24" stroke-miterlimit="10" x1="433" y1="227" x2="584" y2="227"/>
<line fill="none" stroke="#4D4D4D" stroke-width="24" stroke-miterlimit="10" x1="55" y1="308" x2="206" y2="308"/>
<line fill="none" stroke="#4D4D4D" stroke-width="24" stroke-miterlimit="10" x1="282" y1="308" x2="433" y2="308"/>
<line fill="none" stroke="#4D4D4D" stroke-width="24" stroke-miterlimit="10" x1="509" y1="308" x2="584" y2="308"/>
<line fill="none" stroke="#4D4D4D" stroke-width="24" stroke-miterlimit="10" x1="55" y1="389" x2="282" y2="389"/>
<line fill="none" stroke="#4D4D4D" stroke-width="24" stroke-miterlimit="10" x1="55" y1="470" x2="131" y2="470"/>
<polygon fill="#6FB019" stroke="#006837" stroke-width="21" stroke-linejoin="round" stroke-miterlimit="10" points="489.5,576.175 
	489.5,368.275 602.9,472.225 "/>
<line fill="none" stroke="#4D4D4D" stroke-width="24" stroke-miterlimit="10" x1="357" y1="389" x2="433" y2="389"/>
<line fill="none" stroke="#4D4D4D" stroke-width="24" stroke-miterlimit="10" x1="206" y1="470" x2="433" y2="470"/>
</svg>
