<?xml version="1.0" encoding="utf-8"?>
<!-- Generator: Adobe Illustrator 16.0.4, SVG Export Plug-In . SVG Version: 6.00 Build 0)  -->
<!DOCTYPE svg PUBLIC "-//W3C//DTD SVG 1.1//EN" "http://www.w3.org/Graphics/SVG/1.1/DTD/svg11.dtd">
<svg version="1.1" xmlns="http://www.w3.org/2000/svg" xmlns:xlink="http://www.w3.org/1999/xlink" x="0px" y="0px" width="640px"
	 height="640px" viewBox="0 0 640 640" enable-background="new 0 0 640 640" xml:space="preserve">
<g id="Layer_2">
	<path fill="#FFFFFF" d="M584.261,204.867c34.597,95.058-55.607,215.157-201.479,268.25
		c-145.871,53.094-292.171,19.073-326.77-75.983c-34.598-95.058,55.608-215.158,201.48-268.25
		C403.362,75.791,549.661,109.81,584.261,204.867z M297.313,237.732c-53.542,19.487-86.651,63.57-73.952,98.46
		c12.699,34.891,66.398,47.378,119.939,27.891c53.541-19.488,86.65-63.57,73.952-98.461
		C404.553,230.731,350.855,218.245,297.313,237.732z"/>
</g>
<g id="Layer_1">
	<path fill="none" stroke="#0F2564" stroke-width="16" stroke-miterlimit="10" d="M224.957,143.171
		c-35.983,17.742-39.457,58.329-23.936,81.686c15.249,22.949,49.672,40.036,74.179,22.911"/>
	<linearGradient id="SVGID_1_" gradientUnits="userSpaceOnUse" x1="89.4897" y1="217.0522" x2="550.7825" y2="384.9491">
		<stop  offset="0" style="stop-color:#B3B8CC"/>
		<stop  offset="0.3618" style="stop-color:#8E96AF"/>
		<stop  offset="0.6871" style="stop-color:#707B98"/>
		<stop  offset="1" style="stop-color:#5C6888"/>
	</linearGradient>
	<path fill="url(#SVGID_1_)" fill-opacity="0.7" stroke="#0F2564" stroke-width="20" stroke-miterlimit="10" d="M584.261,204.867
		c34.597,95.058-55.607,215.157-201.479,268.25c-145.871,53.094-292.171,19.073-326.77-75.983
		c-34.598-95.058,55.608-215.158,201.479-268.25C403.362,75.791,549.661,109.81,584.261,204.867z M297.313,237.732
		c-53.542,19.487-86.652,63.57-73.952,98.46c12.699,34.891,66.398,47.378,119.939,27.891c53.541-19.488,86.65-63.57,73.952-98.461
		C404.553,230.731,350.855,218.245,297.313,237.732z"/>
	<path fill="none" stroke="#0F2564" stroke-width="16" stroke-miterlimit="10" d="M224.957,143.171
		c32.535-14.287,59.708,2.605,70.932,29.645c12.371,29.803,10.234,56.191-20.688,74.951"/>
</g>
</svg>
