<?xml version="1.0" encoding="utf-8"?>
<!-- Generator: Adobe Illustrator 16.0.4, SVG Export Plug-In . SVG Version: 6.00 Build 0)  -->
<!DOCTYPE svg PUBLIC "-//W3C//DTD SVG 1.1//EN" "http://www.w3.org/Graphics/SVG/1.1/DTD/svg11.dtd">
<svg version="1.1" id="Layer_1" xmlns="http://www.w3.org/2000/svg" xmlns:xlink="http://www.w3.org/1999/xlink" x="0px" y="0px"
	 width="640px" height="640px" viewBox="0 0 640 640" enable-background="new 0 0 640 640" xml:space="preserve">
<g>
	<g>
		<path fill="#008044" stroke="#002E18" stroke-width="16" stroke-miterlimit="10" d="M578.189,582.535
			c0,8.886-2.953,13.331-8.855,13.331h-2.695c-32.857-9.499-78.418-14.245-136.686-14.245l-108.787-217.14
			c-5.209-9.493-11.652-16.23-19.334-20.213c-7.682-3.977-18.943-5.968-33.778-5.968l-37.49,157.08
			c-2.575,11.039-3.862,19.768-3.862,26.18c0,11.551,5.071,20.152,15.213,25.796c10.143,5.648,27.918,10.01,53.329,13.09
			c2.562,0.259,3.849,2.442,3.849,6.545c0,3.85-0.961,7.255-2.887,10.202c-1.925,2.948-4.042,4.428-6.353,4.428
			c-17.969,0-39.661-0.771-65.077-2.311c-22.131-1.54-39.757-2.31-52.883-2.31c-12.867,0-30.463,0.77-52.793,2.31
			c-24.898,1.54-45.298,2.311-61.215,2.311c-2.563,0-3.85-2.311-3.85-6.93c0-3.333,0.962-6.479,2.887-9.433
			c1.925-2.948,4.043-4.554,6.353-4.812c20.02-2.311,35.739-5.391,47.163-9.246c11.418-3.851,20.02-9.054,25.795-15.604
			c5.775-6.552,11.225-19.954,16.363-40.215l86.486-362.622c2.563-11.297,3.85-20.032,3.85-26.198
			c0-11.556-5.071-20.225-15.208-26.005c-10.142-5.775-27.913-10.208-53.322-13.295c-2.569,0-3.85-2.015-3.85-6.051
			c0-3.778,0.896-7.243,2.695-10.395c1.793-3.152,3.977-4.729,6.545-4.729c17.963,0,37.345,0.77,58.135,2.31
			c17.193,1.54,31.943,2.31,44.263,2.31c12.825,0,28.225-0.77,46.188-2.31c21.043-1.54,40.545-2.31,58.508-2.31
			c57.99,0,100.521,10.203,127.592,30.607c27.07,20.405,40.611,52.3,40.611,95.673c0,36.19-17.266,69.751-51.783,100.677
			c-34.523,30.932-74.371,50.627-119.543,59.097l88.936,169.4c9.24,17.457,21.621,31.895,37.152,43.312
			c15.527,11.424,36.768,21.367,63.719,29.838C576.65,575.479,578.189,578.09,578.189,582.535z M473.469,166.206
			c0-62.623-29.35-93.94-88.051-93.94c-21.793,0-37.109,3.597-45.953,10.78c-8.842,7.189-16.344,23.87-22.492,50.05l-43.053,180.565
			h44.774c29.332,0,55.578-6.479,78.738-19.443c23.16-12.958,41.623-31.438,55.387-55.44
			C466.582,214.782,473.469,190.593,473.469,166.206z"/>
	</g>
</g>
</svg>
