<?xml version="1.0" encoding="utf-8"?>
<!-- Generator: Adobe Illustrator 16.0.4, SVG Export Plug-In . SVG Version: 6.00 Build 0)  -->
<!DOCTYPE svg PUBLIC "-//W3C//DTD SVG 1.1//EN" "http://www.w3.org/Graphics/SVG/1.1/DTD/svg11.dtd">
<svg version="1.1" xmlns="http://www.w3.org/2000/svg" xmlns:xlink="http://www.w3.org/1999/xlink" x="0px" y="0px" width="640px"
	 height="640px" viewBox="0 0 640 640" enable-background="new 0 0 640 640" xml:space="preserve">
<g id="Layer_4">
	<polyline fill="#FFFFFF" points="258.392,47.65 48.481,439.606 451.991,583.351 591.691,305.051 	"/>
</g>
<g id="Layer_1">
	<radialGradient id="SVGID_1_" cx="320.0864" cy="315.5005" r="269.7341" gradientUnits="userSpaceOnUse">
		<stop  offset="0" style="stop-color:#FFFFFF"/>
		<stop  offset="1" style="stop-color:#C7B299"/>
	</radialGradient>
	
		<polygon fill="url(#SVGID_1_)" stroke="#534741" stroke-width="22" stroke-linecap="round" stroke-linejoin="round" stroke-miterlimit="10" points="
		48.481,439.606 451.991,583.351 591.691,305.051 258.392,47.65 	"/>
	<g>
		<path fill="#534741" d="M247.931,261.563h-0.521l-29.4,15.871l-4.423-17.432l36.945-19.773h19.513v169.115h-22.115V261.563z"/>
		<path fill="#534741" d="M432.657,259.481h-64.524l-6.504,43.449c3.902-0.52,7.545-1.04,13.789-1.04
			c13.009,0,26.018,2.861,36.425,9.106c13.269,7.545,24.196,22.114,24.196,43.449c0,33.043-26.277,57.76-62.963,57.76
			c-18.473,0-34.083-5.204-42.148-10.407l5.724-17.432c7.024,4.162,20.814,9.366,36.165,9.366c21.595,0,40.067-14.05,40.067-36.686
			c-0.261-21.854-14.83-37.466-48.653-37.466c-9.627,0-17.172,1.041-23.416,1.821l10.927-81.175h80.916V259.481z"/>
	</g>
</g>
</svg>
