<?xml version="1.0" encoding="utf-8"?>
<!-- Generator: Adobe Illustrator 16.0.4, SVG Export Plug-In . SVG Version: 6.00 Build 0)  -->
<!DOCTYPE svg PUBLIC "-//W3C//DTD SVG 1.1//EN" "http://www.w3.org/Graphics/SVG/1.1/DTD/svg11.dtd">
<svg version="1.1" xmlns="http://www.w3.org/2000/svg" xmlns:xlink="http://www.w3.org/1999/xlink" x="0px" y="0px" width="640px"
	 height="640px" viewBox="0 0 640 640" enable-background="new 0 0 640 640" xml:space="preserve">
<g id="Layer_4">
	<polyline fill="#FFFFFF" points="258.392,47.65 48.481,439.606 451.991,583.351 591.691,305.051 	"/>
</g>
<g id="Layer_1">
	<radialGradient id="SVGID_1_" cx="320.0864" cy="315.5005" r="269.7341" gradientUnits="userSpaceOnUse">
		<stop  offset="0" style="stop-color:#FFFFFF"/>
		<stop  offset="1" style="stop-color:#C7B299"/>
	</radialGradient>
	
		<polygon fill="url(#SVGID_1_)" stroke="#534741" stroke-width="22" stroke-linecap="round" stroke-linejoin="round" stroke-miterlimit="10" points="
		48.481,439.606 451.991,583.351 591.691,305.051 258.392,47.65 	"/>
	<g>
		<path fill="#534741" d="M247.931,261.563h-0.521l-29.4,15.871l-4.423-17.432l36.945-19.773h19.513v169.115h-22.115V261.563z"/>
		<path fill="#534741" d="M402.477,409.344v-46.052h-78.574v-15.09l75.452-107.974h24.717V345.34h23.676v17.952h-23.676v46.052
			H402.477z M402.477,345.34v-56.458c0-8.847,0.26-17.692,0.78-26.539h-0.78c-5.204,9.887-9.366,17.171-14.05,24.977l-41.368,57.499
			v0.521H402.477z"/>
	</g>
</g>
</svg>
