<?xml version="1.0" encoding="utf-8"?>
<!-- Generator: Adobe Illustrator 16.0.4, SVG Export Plug-In . SVG Version: 6.00 Build 0)  -->
<!DOCTYPE svg PUBLIC "-//W3C//DTD SVG 1.1//EN" "http://www.w3.org/Graphics/SVG/1.1/DTD/svg11.dtd">
<svg version="1.1" xmlns="http://www.w3.org/2000/svg" xmlns:xlink="http://www.w3.org/1999/xlink" x="0px" y="0px" width="640px"
	 height="640px" viewBox="0 0 640 640" enable-background="new 0 0 640 640" xml:space="preserve">
<g id="Layer_4">
	<polyline fill="#FFFFFF" points="258.392,47.65 48.481,439.606 451.991,583.351 591.691,305.051 	"/>
</g>
<g id="Layer_1">
	<radialGradient id="SVGID_1_" cx="320.0864" cy="315.5005" r="269.7341" gradientUnits="userSpaceOnUse">
		<stop  offset="0" style="stop-color:#FFFFFF"/>
		<stop  offset="1" style="stop-color:#C7B299"/>
	</radialGradient>
	
		<polygon fill="url(#SVGID_1_)" stroke="#534741" stroke-width="22" stroke-linecap="round" stroke-linejoin="round" stroke-miterlimit="10" points="
		48.481,439.606 451.991,583.351 591.691,305.051 258.392,47.65 	"/>
	<g>
		<path fill="#534741" d="M247.931,261.563h-0.521l-29.4,15.871l-4.423-17.432l36.945-19.773h19.513v169.115h-22.115V261.563z"/>
		<path fill="#534741" d="M444.104,322.965c0,57.499-21.334,89.241-58.8,89.241c-33.043,0-55.418-30.962-55.938-86.899
			c0-56.719,24.457-87.94,58.801-87.94C423.811,237.366,444.104,269.108,444.104,322.965z M352.262,325.566
			c0,43.97,13.529,68.947,34.344,68.947c23.416,0,34.604-27.318,34.604-70.508c0-41.629-10.667-68.947-34.344-68.947
			C366.832,255.059,352.262,279.515,352.262,325.566z"/>
	</g>
</g>
</svg>
