<?xml version="1.0" encoding="utf-8"?>
<!-- Generator: Adobe Illustrator 16.0.4, SVG Export Plug-In . SVG Version: 6.00 Build 0)  -->
<!DOCTYPE svg PUBLIC "-//W3C//DTD SVG 1.1//EN" "http://www.w3.org/Graphics/SVG/1.1/DTD/svg11.dtd">
<svg version="1.1" xmlns="http://www.w3.org/2000/svg" xmlns:xlink="http://www.w3.org/1999/xlink" x="0px" y="0px" width="640px"
	 height="640px" viewBox="0 0 640 640" enable-background="new 0 0 640 640" xml:space="preserve">
<g id="Layer_4">
	<polyline fill="#FFFFFF" points="258.392,47.65 48.481,439.606 451.991,583.351 591.691,305.051 	"/>
</g>
<g id="Layer_1">
	<radialGradient id="SVGID_1_" cx="320.0864" cy="315.5005" r="269.7341" gradientUnits="userSpaceOnUse">
		<stop  offset="0" style="stop-color:#FFFFFF"/>
		<stop  offset="1" style="stop-color:#C7B299"/>
	</radialGradient>
	
		<polygon fill="url(#SVGID_1_)" stroke="#534741" stroke-width="22" stroke-linecap="round" stroke-linejoin="round" stroke-miterlimit="10" points="
		48.481,439.606 451.991,583.351 591.691,305.051 258.392,47.65 	"/>
	<g>
		<path fill="#534741" d="M262.891,366.414c0-21.334,12.749-36.425,33.563-45.271l-0.26-0.78
			c-18.733-8.847-26.798-23.416-26.798-37.986c0-26.798,22.636-45.011,52.296-45.011c32.782,0,49.174,20.554,49.174,41.629
			c0,14.31-7.025,29.66-27.84,39.547v0.78c21.075,8.326,34.084,23.156,34.084,43.71c0,29.4-25.237,49.174-57.5,49.174
			C284.226,412.206,262.891,391.131,262.891,366.414z M353.953,365.374c0-20.555-14.31-30.441-37.205-36.945
			c-19.773,5.724-30.441,18.732-30.441,34.863c-0.78,17.172,12.229,32.263,33.823,32.263
			C340.685,395.555,353.953,382.806,353.953,365.374z M290.99,280.816c0,16.911,12.749,26.018,32.262,31.221
			c14.57-4.943,25.758-15.351,25.758-30.701c0-13.529-8.065-27.579-28.619-27.579C301.397,253.757,290.99,266.246,290.99,280.816z"
			/>
	</g>
</g>
</svg>
