<?xml version="1.0" encoding="utf-8"?>
<!-- Generator: Adobe Illustrator 16.0.4, SVG Export Plug-In . SVG Version: 6.00 Build 0)  -->
<!DOCTYPE svg PUBLIC "-//W3C//DTD SVG 1.1//EN" "http://www.w3.org/Graphics/SVG/1.1/DTD/svg11.dtd">
<svg version="1.1" xmlns="http://www.w3.org/2000/svg" xmlns:xlink="http://www.w3.org/1999/xlink" x="0px" y="0px" width="640px"
	 height="640px" viewBox="0 0 640 640" enable-background="new 0 0 640 640" xml:space="preserve">
<g id="Layer_4">
	<polyline fill="#FFFFFF" points="258.392,47.65 48.481,439.606 451.991,583.351 591.691,305.051 	"/>
</g>
<g id="Layer_1">
	<radialGradient id="SVGID_1_" cx="320.0864" cy="315.5005" r="269.7341" gradientUnits="userSpaceOnUse">
		<stop  offset="0" style="stop-color:#FFFFFF"/>
		<stop  offset="1" style="stop-color:#C7B299"/>
	</radialGradient>
	
		<polygon fill="url(#SVGID_1_)" stroke="#534741" stroke-width="22" stroke-linecap="round" stroke-linejoin="round" stroke-miterlimit="10" points="
		48.481,439.606 451.991,583.351 591.691,305.051 258.392,47.65 	"/>
	<g>
		<path fill="#534741" d="M247.931,261.563h-0.521l-29.4,15.871l-4.423-17.432l36.945-19.773h19.513v169.115h-22.115V261.563z"/>
		<path fill="#534741" d="M337.172,383.065c6.504,4.163,21.595,10.668,37.466,10.668c29.399,0,38.506-18.733,38.246-32.782
			c-0.261-23.677-21.595-33.823-43.71-33.823h-12.749v-17.172h12.749c16.651,0,37.726-8.586,37.726-28.62
			c0-13.529-8.586-25.497-29.66-25.497c-13.529,0-26.538,5.984-33.823,11.188l-5.984-16.651c8.846-6.504,26.018-13.009,44.23-13.009
			c33.303,0,48.393,19.773,48.393,40.328c0,17.432-10.406,32.262-31.221,39.807v0.521c20.814,4.163,37.726,19.773,37.726,43.449
			c0,27.059-21.074,50.735-61.662,50.735c-18.993,0-35.645-5.984-43.97-11.448L337.172,383.065z"/>
	</g>
</g>
</svg>
