<?xml version="1.0" encoding="utf-8"?>
<!-- Generator: Adobe Illustrator 16.0.4, SVG Export Plug-In . SVG Version: 6.00 Build 0)  -->
<!DOCTYPE svg PUBLIC "-//W3C//DTD SVG 1.1//EN" "http://www.w3.org/Graphics/SVG/1.1/DTD/svg11.dtd">
<svg version="1.1" id="Layer_1" xmlns="http://www.w3.org/2000/svg" xmlns:xlink="http://www.w3.org/1999/xlink" x="0px" y="0px"
	 width="640px" height="640px" viewBox="0 0 640 640" enable-background="new 0 0 640 640" xml:space="preserve">
<linearGradient id="SVGID_1_" gradientUnits="userSpaceOnUse" x1="434.5908" y1="239.5366" x2="548.3065" y2="551.9679">
	<stop  offset="0" style="stop-color:#9DCCE0"/>
	<stop  offset="0.4265" style="stop-color:#A5CFE1"/>
	<stop  offset="1" style="stop-color:#B8D6E3"/>
</linearGradient>
<path fill="url(#SVGID_1_)" stroke="#0071BC" stroke-width="22" stroke-miterlimit="10" d="M603.26,314.412
	c42.369,264.115-77.254,273.917-121.191,185.293c-50.638-102.143-172.939-65.787-141.904-187.026
	C360.466,233.375,581.475,178.621,603.26,314.412z"/>
<linearGradient id="SVGID_2_" gradientUnits="userSpaceOnUse" x1="142.5879" y1="337.8066" x2="253.234" y2="641.8046">
	<stop  offset="0" style="stop-color:#D6A9AB"/>
	<stop  offset="0.3761" style="stop-color:#D9AFB1"/>
	<stop  offset="0.8743" style="stop-color:#E0C0C1"/>
	<stop  offset="1" style="stop-color:#E3C5C6"/>
</linearGradient>
<path fill="url(#SVGID_2_)" stroke="#C1272D" stroke-width="22" stroke-miterlimit="10" d="M167.75,371.391
	c123.575,178.356,188.547,63.698,216.574,169.438c36.609,138.119-331.231,64.973-354.163-50.958
	C8.206,378.874,126.197,311.417,167.75,371.391z"/>
<linearGradient id="SVGID_3_" gradientUnits="userSpaceOnUse" x1="175.6509" y1="58.1143" x2="240.6066" y2="236.5788">
	<stop  offset="0" style="stop-color:#AEC68F"/>
	<stop  offset="0.3955" style="stop-color:#B4CA97"/>
	<stop  offset="1" style="stop-color:#C5D6AD"/>
</linearGradient>
<path fill="url(#SVGID_3_)" stroke="#006837" stroke-width="22" stroke-miterlimit="10" d="M126.897,84.069
	C215.682,29.832,382.613-9.96,382.734,66.052c0.229,144.133-177.765,193.477-259.44,193.379
	C-38.875,259.238,29.607,143.501,126.897,84.069z"/>
</svg>
