<?xml version="1.0" encoding="utf-8"?>
<!-- Generator: Adobe Illustrator 16.0.4, SVG Export Plug-In . SVG Version: 6.00 Build 0)  -->
<!DOCTYPE svg PUBLIC "-//W3C//DTD SVG 1.1//EN" "http://www.w3.org/Graphics/SVG/1.1/DTD/svg11.dtd">
<svg version="1.1" id="Layer_1" xmlns="http://www.w3.org/2000/svg" xmlns:xlink="http://www.w3.org/1999/xlink" x="0px" y="0px"
	 width="640px" height="640px" viewBox="0 0 640 640" enable-background="new 0 0 640 640" xml:space="preserve">
<g>
	
		<linearGradient id="SVGID_1_" gradientUnits="userSpaceOnUse" x1="231.729" y1="248.7969" x2="231.729" y2="-42.5977" gradientTransform="matrix(1 0 0 -1 22.5 540)">
		<stop  offset="0" style="stop-color:#C3A8F0"/>
		<stop  offset="1" style="stop-color:#DACCF0"/>
	</linearGradient>
	<path fill="url(#SVGID_1_)" d="M172.584,324.057c31.592,82.943-60.347,90.221-46.023,167.493
		c15.974,86.175,105.63,110.428,160.61,75.941C331,540,314,465,383.425,452.156l-10.728-75.957C332,375.221,333,347,299.383,329
		c-18.044-9.662-45.153,1-73.314-37.797"/>
	<path fill="none" stroke="#143E51" stroke-width="22" stroke-linecap="round" stroke-miterlimit="10" d="M226.069,291.286
		c23.755,49.298,51.758,29.931,73.314,37.714c38.617,13.943,19.641,50.775,73.314,45.752"/>
	<path fill="none" stroke="#143E51" stroke-width="22" stroke-linecap="round" stroke-miterlimit="10" d="M172.584,324.057
		C220,401,112.867,414.277,126.562,491.55C139.899,566.812,217,596,277.927,572.111C335.464,549.551,308.211,459,383.269,450.993"/>
	
		<line fill="none" stroke="#9C2B3D" stroke-width="30" stroke-linecap="round" stroke-miterlimit="10" x1="112.867" y1="360.18" x2="308.211" y2="241.151"/>
	
		<line fill="none" stroke="#9C2B3D" stroke-width="30" stroke-linecap="round" stroke-miterlimit="10" x1="360.111" y1="287.081" x2="398.315" y2="557.596"/>
</g>
<g>
	
		<linearGradient id="SVGID_2_" gradientUnits="userSpaceOnUse" x1="12.791" y1="437.1025" x2="189.4534" y2="335.1064" gradientTransform="matrix(1 0 0 -1 22.5 540)">
		<stop  offset="0" style="stop-color:#84E5F1"/>
		<stop  offset="1" style="stop-color:#CDEDF1"/>
	</linearGradient>
	<path fill="url(#SVGID_2_)" stroke="#143E51" stroke-width="22" stroke-linecap="round" stroke-miterlimit="10" d="
		M137.854,273.339c-26.846-59.339-80.167-35.002-107.2-82.905c-16.221-28.745-20.637-86.37,42.075-115.402
		c54.528-25.243,110.285-10.238,123.984,18.146C226.069,154,157,179,191.172,240.888"/>
	
		<line fill="none" stroke="#9C2B3D" stroke-width="30" stroke-linecap="round" stroke-miterlimit="10" x1="78.497" y1="309.462" x2="273.841" y2="190.434"/>
</g>
<g>
	
		<linearGradient id="SVGID_3_" gradientUnits="userSpaceOnUse" x1="431.5117" y1="208.8857" x2="603.5846" y2="109.5394" gradientTransform="matrix(1 0 0 -1 22.5 540)">
		<stop  offset="0" style="stop-color:#84F187"/>
		<stop  offset="1" style="stop-color:#B2F1B4"/>
	</linearGradient>
	<path fill="url(#SVGID_3_)" stroke="#145127" stroke-width="22" stroke-linecap="round" stroke-miterlimit="10" d="
		M433.472,366.689C517.479,348.491,499,265,569.377,281.718c62.711,14.897,64.33,217.847-0.722,213.379
		C509,491,515,427,444.044,442.932"/>
	
		<line fill="none" stroke="#9C2B3D" stroke-width="30" stroke-linecap="round" stroke-miterlimit="10" x1="420.887" y1="279.02" x2="459.091" y2="549.534"/>
</g>
</svg>
