<?xml version="1.0" encoding="utf-8"?>
<!-- Generator: Adobe Illustrator 16.0.4, SVG Export Plug-In . SVG Version: 6.00 Build 0)  -->
<!DOCTYPE svg PUBLIC "-//W3C//DTD SVG 1.1//EN" "http://www.w3.org/Graphics/SVG/1.1/DTD/svg11.dtd">
<svg version="1.1" id="Layer_1" xmlns="http://www.w3.org/2000/svg" xmlns:xlink="http://www.w3.org/1999/xlink" x="0px" y="0px"
	 width="640px" height="640px" viewBox="0 0 640 640" enable-background="new 0 0 640 640" xml:space="preserve">
<linearGradient id="SVGID_1_" gradientUnits="userSpaceOnUse" x1="-29.1025" y1="395.4268" x2="579.1027" y2="746.5742" gradientTransform="matrix(1 0 0 1 45 -201)">
	<stop  offset="0" style="stop-color:#FFFFFF"/>
	<stop  offset="0.2812" style="stop-color:#FBFBFB"/>
	<stop  offset="0.5807" style="stop-color:#EEEEEE"/>
	<stop  offset="0.8875" style="stop-color:#D9D9D9"/>
	<stop  offset="1" style="stop-color:#CFCFCF"/>
</linearGradient>
<rect x="30" y="170" fill="url(#SVGID_1_)" width="580" height="400"/>
<linearGradient id="SVGID_2_" gradientUnits="userSpaceOnUse" x1="36.9326" y1="186.0518" x2="513.069" y2="460.9492" gradientTransform="matrix(1 0 0 1 45 -201)">
	<stop  offset="0" style="stop-color:#C7C7C7"/>
	<stop  offset="0.1942" style="stop-color:#C3C3C3"/>
	<stop  offset="0.4011" style="stop-color:#B6B6B6"/>
	<stop  offset="0.6138" style="stop-color:#A1A1A1"/>
	<stop  offset="0.8292" style="stop-color:#838383"/>
	<stop  offset="1" style="stop-color:#666666"/>
</linearGradient>
<rect x="30" y="75" fill="url(#SVGID_2_)" width="580" height="95"/>
<path fill="none" stroke="#4D4D4D" stroke-width="20" stroke-linejoin="round" stroke-miterlimit="10" d="M60.5,70h520
	c20,0,29.5,10.5,29.5,30.5V570H30V100.5C30,80.5,41.118,70.71,60.5,70z"/>
<line fill="none" stroke="#4D4D4D" stroke-width="20" stroke-miterlimit="10" x1="30" y1="170" x2="610" y2="170"/>
<line fill="none" stroke="#534741" stroke-width="20" stroke-miterlimit="10" x1="80" y1="250" x2="220" y2="250"/>
<line fill="none" stroke="#534741" stroke-width="20" stroke-miterlimit="10" x1="280" y1="250" x2="360" y2="250"/>
<line fill="none" stroke="#534741" stroke-width="20" stroke-miterlimit="10" x1="420" y1="250" x2="560" y2="250"/>
<line fill="none" stroke="#534741" stroke-width="20" stroke-miterlimit="10" x1="80" y1="430" x2="220" y2="430"/>
<line fill="none" stroke="#534741" stroke-width="20" stroke-miterlimit="10" x1="280" y1="430" x2="360" y2="430"/>
<line fill="none" stroke="#534741" stroke-width="20" stroke-miterlimit="10" x1="420" y1="430" x2="560" y2="430"/>
<line fill="none" stroke="#534741" stroke-width="20" stroke-miterlimit="10" x1="80" y1="370" x2="220" y2="370"/>
<line fill="none" stroke="#534741" stroke-width="20" stroke-miterlimit="10" x1="280" y1="370" x2="360" y2="370"/>
<line fill="none" stroke="#534741" stroke-width="20" stroke-miterlimit="10" x1="420" y1="370" x2="560" y2="370"/>
<line fill="none" stroke="#534741" stroke-width="20" stroke-miterlimit="10" x1="80" y1="310" x2="220" y2="310"/>
<line fill="none" stroke="#534741" stroke-width="20" stroke-miterlimit="10" x1="280" y1="310" x2="360" y2="310"/>
<line fill="none" stroke="#534741" stroke-width="20" stroke-miterlimit="10" x1="420" y1="310" x2="560" y2="310"/>
<line fill="none" stroke="#534741" stroke-width="20" stroke-miterlimit="10" x1="80" y1="490" x2="220" y2="490"/>
<line fill="none" stroke="#534741" stroke-width="20" stroke-miterlimit="10" x1="280" y1="490" x2="360" y2="490"/>
<line fill="none" stroke="#534741" stroke-width="20" stroke-miterlimit="10" x1="420" y1="490" x2="560" y2="490"/>
</svg>
