<?xml version="1.0" encoding="utf-8"?>
<!-- Generator: Adobe Illustrator 16.0.4, SVG Export Plug-In . SVG Version: 6.00 Build 0)  -->
<!DOCTYPE svg PUBLIC "-//W3C//DTD SVG 1.1//EN" "http://www.w3.org/Graphics/SVG/1.1/DTD/svg11.dtd">
<svg version="1.1" id="Single_Dice" xmlns="http://www.w3.org/2000/svg" xmlns:xlink="http://www.w3.org/1999/xlink" x="0px"
	 y="0px" width="519.718px" height="519.718px" viewBox="0 0 519.718 519.718" enable-background="new 0 0 519.718 519.718"
	 xml:space="preserve">
<path fill="#FFFFFF" d="M426.441,373.439c13.295-37.165,27.592-78.197,38.955-115.925c7.18-24.146,13.572-47.954,19.484-72.318
	c0.99-4.21,6.215-25.624-1.377-35.277C470.13,126.058,312.869,29.641,293.675,29.658c-19.5-5.594-107.029,5.612-167.788,18.489
	c-33.296,7.063-58.6,14.674-60.195,20.229c-0.043,0.008-0.078,0.094-0.097,0.137c-5.721,4.616-8.949,10.045-10.769,14.65
	c-11.915,12.284-30.515,213.185-23.253,239.06c3.75,19.964,143.274,163.53,159.942,165.485c2.483,0.889,4.791,1.307,6.733,1.418
	c0.094,0.021,0.216,0.064,0.33,0.043c0.605,0.174,1.41,0.176,2.393,0.066c0.214,0.055,0.453,0.033,0.689-0.045
	c0.298-0.018,0.518-0.059,0.744-0.051c0.221,0.014,0.463-0.051,0.748-0.068c0.078-0.041,0.191-0.055,0.293-0.027l0.061-0.041
	c35.45-5.838,186.003-60.83,207.679-85.232C417.812,397.126,423.447,381.908,426.441,373.439z"/>
<linearGradient id="SVGID_1_" gradientUnits="userSpaceOnUse" x1="1180.8257" y1="141.1987" x2="363.0764" y2="525.15" gradientTransform="matrix(0.9613 0.2754 0.2754 -0.9613 -632.0974 311.5662)">
	<stop  offset="0" style="stop-color:#FFFFFF"/>
	<stop  offset="0.4774" style="stop-color:#DCDBDC"/>
	<stop  offset="1" style="stop-color:#999999"/>
</linearGradient>
<path opacity="0.95" fill="url(#SVGID_1_)" enable-background="new    " d="M473.66,159.866l0.387-0.113
	c1.096-0.306,1.887-0.514,2.578-0.73l0.705-0.194c0.246-0.041,0.439-0.09,0.621-0.151l0.258-0.098
	c0.068-0.047,0.193-0.05,0.229-0.033c-0.566,0.213-0.959,0.378-1.561,0.725c3.666-0.021,6.084,1.114,7.684,3.027
	c2.262,2.731,2.771,6.427,2.576,10.277c-0.193,4.422-1.424,9.083-2.256,12.622c-5.91,24.364-12.305,48.172-19.484,72.318
	c-11.363,37.729-25.658,78.76-38.953,115.926c-2.996,8.468-8.631,23.688-15.26,30.332c-21.674,24.401-172.228,79.396-207.678,85.231
	l-0.061,0.041c-0.102-0.025-0.215-0.014-0.293,0.027c-0.285,0.02-0.527,0.082-0.748,0.07c-0.226-0.01-0.445,0.033-0.744,0.049
	c-0.236,0.078-0.475,0.1-0.689,0.045c-0.686,0.016-1.514,0.006-2.393-0.066c-0.107-0.037-0.236-0.02-0.33-0.043
	c-0.354-0.102-0.805-0.168-0.961-0.391c-0.817-0.889-0.944-2.736-0.961-6.467l-0.024-0.111l0.594-3.045
	c0.017-0.258,0.104-0.592,0.158-0.947l0.71-3.645l0.499-2.775l0.069-0.246c0.096-0.475,0.211-1.074,0.327-1.674l0.349-1.797
	l0.722-3.898l0.843-4.324l1.838-9.77l0.05-0.146c0.01-0.057,0.048-0.152,0.057-0.207c1.657-7.016,40.012-169.626,44.747-186.104
	c4.861-16.937,17.489-35.321,50.005-46.877c12.904-4.597,155.957-50.485,169.172-54.744c0.16-0.073,0.363-0.12,0.541-0.181
	l0.316-0.076L473.66,159.866z"/>
<linearGradient id="SVGID_2_" gradientUnits="userSpaceOnUse" x1="781.8296" y1="407.0122" x2="1249.7964" y2="-27.1421" gradientTransform="matrix(0.9613 0.2754 0.2754 -0.9613 -632.0974 311.5662)">
	<stop  offset="0" style="stop-color:#FFFFFF"/>
	<stop  offset="0.4774" style="stop-color:#DCDBDC"/>
	<stop  offset="1" style="stop-color:#D0D1D1"/>
</linearGradient>
<path fill="url(#SVGID_2_)" d="M460.742,163.539c0.318-0.062,0.561-0.182,0.799-0.218l4.902-1.364
	c-13.217,4.258-156.268,50.146-169.173,54.744c-32.515,11.557-45.144,29.941-50.005,46.876
	c-4.735,16.479-43.09,179.09-44.747,186.105l4.417-23.275l1.286-6.676l0.257-1.539l2.672-13.58c0.926-4.566,1.819-9.285,2.72-14.006
	l1.991-10.148l1.104-5.795l4.822-24.682c1.385-7.203,2.777-14.188,4.099-20.99l0.005-0.051l3.333-17.115l0.126-0.594l1.382-7.248
	l0.524-2.553l2.83-14.848l0.42-2.066l0.616-3.131l0.793-4.062l0.904-4.537l0.516-2.818l0.561-2.717l0.265-1.321l0.558-2.941
	l0.021-0.049c0.112-0.642,0.213-1.166,0.273-1.604l0.146-0.642c0.048-0.209,0.048-0.377,0.077-0.527l0.21-1.127
	c-0.17,1.801-0.361,3.648-0.6,5.633c1.511-12.87,7.429-25.351,17.034-34.125c10.895-9.929,21.948-13.533,35.249-19.17l67.52-19.024
	c5.568-1.558,11.268-3.18,17.008-4.802c3.24-0.921,6.502-1.845,9.727-2.729c2.539-0.745,5.025-1.429,7.498-2.144l8.605-2.416
	c1.484-0.413,2.867-0.814,4.25-1.216l8.432-2.395l7.658-2.148c1.471-0.438,2.916-0.8,4.328-1.185l7.131-2.057
	c1.018-0.264,2.057-0.548,3.033-0.821l11.836-3.372l7.324-2.051l0.131-0.031L460.742,163.539z"/>
<linearGradient id="SVGID_3_" gradientUnits="userSpaceOnUse" x1="963.8794" y1="458.1841" x2="344.5085" y2="-69.2269" gradientTransform="matrix(0.9613 0.2754 0.2754 -0.9613 -632.0974 311.5662)">
	<stop  offset="0" style="stop-color:#FFFFFF"/>
	<stop  offset="0.4774" style="stop-color:#DCDBDC"/>
	<stop  offset="1" style="stop-color:#D0D1D1"/>
</linearGradient>
<path fill="url(#SVGID_3_)" d="M238.846,264.671c0.239-1.983,0.43-3.832,0.6-5.632c1.233-11.357-0.074-20.74-3.263-29.015
	c-5.955-15.38-18.344-26.913-32.877-40.248c30.33,21.007,51.375,28.038,87.822,21.602c-13.301,5.637-24.354,9.241-35.249,19.17
	C246.275,239.322,240.357,251.804,238.846,264.671z"/>
<linearGradient id="SVGID_4_" gradientUnits="userSpaceOnUse" x1="746.5552" y1="446.2446" x2="735.7371" y2="-116.3025" gradientTransform="matrix(0.9613 0.2754 0.2754 -0.9613 -632.0974 311.5662)">
	<stop  offset="0" style="stop-color:#FFFFFF"/>
	<stop  offset="0.4774" style="stop-color:#DCDBDC"/>
	<stop  offset="1" style="stop-color:#D0D1D1"/>
</linearGradient>
<path fill="url(#SVGID_4_)" d="M225.089,228.683c-10.477-19.636-24.616-32.358-24.616-32.358
	c-13.189-12.825-32.466-30.218-49.579-45.311l0.02-0.036c-4.685-4.11-9.166-8.092-13.287-11.699
	c-0.558-0.488-1.013-0.909-1.51-1.317c-3.739-3.262-7.196-6.286-10.227-8.89c-0.305-0.329-0.669-0.59-0.977-0.915
	c-1.658-1.432-3.185-2.759-4.596-3.956c-0.622-0.566-1.221-1.079-1.752-1.577c-2.993-2.527-4.923-4.212-5.605-4.816
	c0.664,0.538,1.345,1.059,2.011,1.617c1.788,1.464,3.686,2.893,5.592,4.454l5.824,4.654c1.185,0.947,2.426,1.933,3.659,2.899
	l8.491,6.775c0.407,0.279,0.771,0.604,1.153,0.878l10.424,8.341c0.794,0.61,1.566,1.244,2.351,1.846l16.007,12.813
	c5.475,4.312,10.6,8.426,15.133,12.038c2.939,2.312,5.634,4.498,8.011,6.395l3.336,2.652c5.234,4.134,8.353,6.61,8.353,6.61
	c14.533,13.334,26.922,24.868,32.877,40.248c3.188,8.274,4.496,17.657,3.263,29.015l-0.21,1.127
	c-0.029,0.15-0.029,0.318-0.077,0.527l-0.146,0.641c-0.06,0.439-0.161,0.965-0.273,1.605l-0.021,0.049l-0.558,2.941l-0.265,1.322
	l-0.561,2.717l-0.516,2.818l-0.904,4.537l-0.793,4.062l-0.616,3.131l-0.253-0.074c1.802-7.803,2.11-15.43,1.378-22.649
	c-0.06-0.26-0.061-0.432-0.096-0.672C234.183,249.143,230.031,238.107,225.089,228.683z"/>
<linearGradient id="SVGID_5_" gradientUnits="userSpaceOnUse" x1="377.9507" y1="-14.7275" x2="1069.9584" y2="488.2263" gradientTransform="matrix(0.9613 0.2754 0.2754 -0.9613 -632.0974 311.5662)">
	<stop  offset="0" style="stop-color:#FFFFFF"/>
	<stop  offset="0.4774" style="stop-color:#DCDBDC"/>
	<stop  offset="1" style="stop-color:#999999"/>
</linearGradient>
<path opacity="0.6" fill="url(#SVGID_5_)" enable-background="new    " d="M200.473,196.324c0,0,14.14,12.723,24.616,32.358
	c4.942,9.425,9.094,20.46,10.448,32.438c0.036,0.24,0.036,0.412,0.096,0.672c0.731,7.222,0.423,14.849-1.378,22.65l0.253,0.074
	l-0.42,2.066l-2.83,14.848l-0.524,2.553l-1.382,7.248l-0.126,0.594c-1.119,5.486-2.18,11.182-3.333,17.115l-0.005,0.051
	c-1.322,6.803-2.714,13.787-4.099,20.99l-4.822,24.682l-1.104,5.795l-1.991,10.148c-0.9,4.721-1.794,9.439-2.72,14.006l-2.672,13.58
	l-0.257,1.539l-1.286,6.676c-1.643,8.459-3.175,16.318-4.417,23.275c-0.009,0.053-0.047,0.15-0.057,0.207l-0.05,0.146
	c-0.729,3.5-1.319,6.768-1.838,9.77l-0.843,4.324l-0.722,3.898l-0.349,1.797c-0.115,0.6-0.23,1.199-0.327,1.674l-0.069,0.246
	l-0.499,2.773l-0.71,3.646c-0.054,0.354-0.142,0.688-0.158,0.947l-0.594,3.045l0.024,0.109c-1.259,2.848-2.801,4.895-3.732,5.412
	c-0.268,0.086-0.708,0.076-1.079,0.027C174.85,485.751,35.325,342.186,31.575,322.221c-7.262-25.875,11.338-226.775,23.253-239.06
	c0.392-0.397,0.796-0.622,1.179-0.563c4.312-0.385,18.334,7.442,36.852,19.779c-2.023-1.76-3.944-3.484-5.764-5.201l2.248,1.783
	c0.373,0.266,0.791,0.62,1.243,0.974c0.636,0.521,1.286,1.04,2.059,1.646c1.038,0.87,2.239,1.789,3.524,2.819
	c1.599,1.306,3.333,2.701,5.269,4.209c2.016,1.575,4.208,3.332,6.498,5.18c0.787,0.624,1.6,1.298,2.425,1.938
	c0.787,0.603,1.559,1.224,2.341,1.843c0.093,0.078,0.148,0.098,0.246,0.179c-0.019,0.059-0.019,0.059,0.015,0.057
	c0.682,0.604,2.612,2.289,5.605,4.816c0.531,0.498,1.13,1.011,1.752,1.577c1.411,1.197,2.938,2.524,4.596,3.956
	c0.308,0.324,0.672,0.586,0.977,0.915c3.031,2.604,6.488,5.628,10.227,8.89c0.497,0.409,0.952,0.83,1.51,1.317
	c4.121,3.607,8.602,7.589,13.287,11.699l-0.02,0.036C168.006,166.106,187.283,183.5,200.473,196.324z"/>
<linearGradient id="SVGID_6_" gradientUnits="userSpaceOnUse" x1="558.4966" y1="485.2046" x2="779.3535" y2="188.628" gradientTransform="matrix(0.9613 0.2754 0.2754 -0.9613 -632.0974 311.5662)">
	<stop  offset="0" style="stop-color:#FFFFFF"/>
	<stop  offset="0.4774" style="stop-color:#DCDBDC"/>
	<stop  offset="1" style="stop-color:#D0D1D1"/>
</linearGradient>
<path fill="url(#SVGID_6_)" d="M87.093,97.179c1.82,1.717,3.741,3.441,5.764,5.201C74.34,90.042,60.317,82.215,56.005,82.601
	c-0.383-0.059-0.787,0.166-1.179,0.563c1.819-4.605,5.047-10.034,10.769-14.65c-2.915,2.099,3.381,12.343,20.827,28.082l0.035,0.09
	c0.058-0.001,0.105,0.021,0.126,0.089l0.443,0.383L87.093,97.179z"/>
<g>
	<path d="M135.975,91.861c2.776,2.087,6.141,3.911,9.854,5.425c3.699,1.501,7.756,2.713,11.886,3.552
		c4.127,0.842,8.355,1.322,12.41,1.388c4.076,0.068,7.961-0.282,11.44-1.09c3.501-0.8,6.246-1.994,8.212-3.45
		c1.97-1.451,3.183-3.182,3.615-5.058c0.436-1.875,0.089-3.919-1.093-5.994c-1.155-2.066-3.113-4.164-5.896-6.24
		c-2.795-2.049-6.125-3.829-9.794-5.319c-3.679-1.473-7.667-2.654-11.741-3.49c-4.068-0.837-8.226-1.306-12.237-1.373
		c-4.017-0.087-7.86,0.238-11.332,0.996l-0.044,0.026c-3.469,0.767-6.222,1.926-8.235,3.352c-2.016,1.434-3.286,3.124-3.762,4.98
		c-0.501,1.882-0.195,3.912,0.896,5.984C131.257,87.644,133.206,89.782,135.975,91.861z"/>
	<path d="M395.55,119.615c-3.754-1.492-7.775-2.683-11.85-3.501c-4.062-0.829-8.166-1.315-12.102-1.345
		c-3.924-0.077-7.678,0.265-10.986,1.078c-3.328,0.799-5.896,1.986-7.707,3.465c-1.816,1.466-2.877,3.202-3.148,5.104
		c-0.271,1.925,0.244,3.982,1.549,6.11c1.324,2.128,3.418,4.318,6.365,6.433c2.961,2.098,6.441,3.968,10.219,5.488
		c3.779,1.524,7.873,2.751,12.01,3.584c4.146,0.834,8.324,1.294,12.285,1.34c3.98,0.077,7.758-0.307,11.055-1.165
		c3.336-0.824,5.881-2.047,7.641-3.55c1.775-1.505,2.781-3.263,2.988-5.193c0.234-1.91-0.348-3.986-1.711-6.109
		c-1.336-2.093-3.469-4.214-6.387-6.279l-0.104-0.093C402.728,122.932,399.291,121.108,395.55,119.615z"/>
	<path d="M260.637,44.612c-3.324,0.725-5.92,1.838-7.76,3.182c-1.864,1.383-2.986,3.01-3.347,4.808
		c-0.376,1.79,0.025,3.745,1.226,5.735c1.177,2.021,3.163,4.082,5.952,6.08c2.799,2.008,6.135,3.78,9.795,5.249
		c3.646,1.444,7.604,2.633,11.646,3.449c4.027,0.826,8.109,1.292,12.023,1.349c3.926,0.076,7.658-0.242,10.951-0.998
		c3.312-0.776,5.875-1.919,7.705-3.312c1.83-1.373,2.881-3.038,3.176-4.843c0.314-1.795-0.146-3.751-1.396-5.739
		c-1.219-2.005-3.238-4.038-6.025-6.02l-0.014-0.018c-2.781-1.967-6.104-3.71-9.727-5.147c-3.622-1.41-7.525-2.581-11.489-3.384
		c-3.962-0.809-7.985-1.272-11.872-1.344C267.63,43.557,263.914,43.868,260.637,44.612z"/>
	<path d="M283.257,176.604c3.507-0.866,6.219-2.178,8.152-3.728c1.938-1.569,3.082-3.421,3.399-5.409
		c0.353-1.998-0.11-4.169-1.392-6.373c-1.279-2.19-3.399-4.434-6.326-6.592c-2.922-2.182-6.426-4.051-10.211-5.593
		c-3.828-1.554-7.93-2.775-12.123-3.622c-4.154-0.845-8.417-1.325-12.493-1.373c-4.077-0.055-7.984,0.323-11.474,1.167
		c-3.498,0.852-6.243,2.119-8.224,3.63c-1.971,1.565-3.181,3.377-3.587,5.359c-0.4,1.971-0.005,4.146,1.233,6.363
		c1.225,2.208,3.305,4.475,6.22,6.67c2.934,2.198,6.455,4.11,10.295,5.692c3.853,1.588,8.022,2.83,12.26,3.708
		c4.246,0.833,8.583,1.321,12.699,1.366C275.826,177.897,279.763,177.506,283.257,176.604z"/>
</g>
<g>
	<path d="M81.202,206.976c2.643,1.977,5.324,3.098,7.949,3.399c2.626,0.311,5.176-0.181,7.491-1.42
		c2.338-1.229,4.454-3.25,6.206-5.92c1.767-2.704,3.15-6.084,4.032-10.083c0.865-4.027,1.131-8.253,0.866-12.503
		c-0.268-4.223-1.078-8.455-2.351-12.399c-1.265-3.944-2.991-7.616-5.119-10.782c-2.077-3.143-4.556-5.778-7.347-7.653
		c-2.732-1.879-5.481-2.798-8.133-2.925c-2.634-0.084-5.141,0.609-7.415,2.041c-2.24,1.425-4.245,3.561-5.871,6.336
		c-1.619,2.75-2.873,6.146-3.622,10.056l-0.001,0.015c-0.752,3.892-0.937,7.991-0.64,12.023c0.294,4.026,1.069,8.023,2.276,11.793
		c1.185,3.763,2.795,7.277,4.764,10.357C76.25,202.387,78.579,205.014,81.202,206.976z"/>
	<path d="M134.576,264.018c-2.182-3.371-4.745-6.259-7.631-8.454c-2.854-2.174-5.744-3.449-8.526-3.914
		c-2.772-0.445-5.424-0.098-7.819,1.007c-2.382,1.094-4.504,2.931-6.258,5.408c-1.706,2.472-3.063,5.601-3.907,9.337
		c-0.814,3.711-1.046,7.652-0.789,11.615c0.251,3.975,1.028,7.965,2.254,11.781c1.218,3.824,2.852,7.477,4.892,10.729
		c2.051,3.255,4.461,6.121,7.203,8.388c2.731,2.27,5.544,3.703,8.294,4.336c2.753,0.653,5.418,0.516,7.868-0.383
		c2.491-0.914,4.728-2.554,6.608-4.947c1.869-2.375,3.373-5.498,4.316-9.273c0.975-3.797,1.294-7.906,1.056-12.059
		c-0.216-4.17-1.025-8.383-2.316-12.406C138.514,271.169,136.755,267.348,134.576,264.018z"/>
	<path d="M177.088,396.395c-0.201-4.084-1.01-8.299-2.333-12.381c-1.297-4.078-3.118-8.021-5.376-11.566
		c-2.25-3.536-4.919-6.684-7.906-9.204c-2.991-2.492-6.009-4.146-8.93-4.938c-2.89-0.816-5.662-0.83-8.199-0.063
		c-2.5,0.747-4.753,2.231-6.599,4.43c-1.845,2.168-3.288,5.037-4.209,8.547c-0.892,3.482-1.202,7.311-0.972,11.199
		c0.237,3.897,1,7.885,2.226,11.762c1.237,3.883,2.934,7.635,5.023,11.078c2.101,3.436,4.601,6.561,7.437,9.119
		c2.87,2.555,5.822,4.332,8.67,5.344c2.894,0.967,5.702,1.199,8.294,0.662c2.586-0.562,4.983-1.902,6.977-3.939
		c1.999-2.086,3.62-4.906,4.65-8.443C176.91,404.428,177.287,400.462,177.088,396.395z"/>
</g>
<path d="M412.949,277.653c3.619-2.229,7.057-5.104,10.166-8.438c3.098-3.336,5.891-7.15,8.16-11.238
	c2.314-4.112,4.121-8.498,5.26-13.043c1.188-4.55,1.549-8.831,1.244-12.669c-0.318-3.889-1.318-7.334-2.945-10.197
	c-1.662-2.858-3.953-5.133-6.812-6.586c-2.877-1.486-6.305-2.159-10.213-1.798l-0.002-0.003c-3.957,0.35-8.014,1.717-11.943,3.875
	c-3.959,2.177-7.779,5.176-11.23,8.757c-3.463,3.592-6.551,7.776-9.055,12.322c-2.488,4.538-4.365,9.37-5.426,14.3
	c-1.062,4.911-1.199,9.446-0.547,13.37c0.611,3.902,2.002,7.236,3.988,9.869c1.998,2.582,4.605,4.467,7.693,5.525
	c3.018,1.032,6.527,1.227,10.391,0.514l0.037-0.021C405.515,281.466,409.33,279.882,412.949,277.653z"/>
<path d="M294.498,427.214c3.619-2.23,7.057-5.104,10.166-8.438c3.1-3.336,5.889-7.149,8.156-11.237
	c2.316-4.111,4.125-8.498,5.264-13.043c1.188-4.55,1.549-8.832,1.246-12.67c-0.32-3.89-1.32-7.334-2.949-10.195
	c-1.662-2.859-3.951-5.135-6.811-6.588c-2.877-1.484-6.307-2.158-10.213-1.799l-0.004-0.005c-3.955,0.353-8.014,1.72-11.943,3.875
	c-3.957,2.177-7.777,5.177-11.229,8.757c-3.465,3.594-6.551,7.776-9.057,12.323c-2.486,4.537-4.363,9.371-5.426,14.302
	c-1.062,4.911-1.199,9.442-0.545,13.368c0.61,3.9,2.001,7.235,3.987,9.87c1.998,2.58,4.606,4.467,7.692,5.523
	c3.019,1.033,6.529,1.229,10.392,0.514l0.036-0.02C287.063,431.031,290.876,429.445,294.498,427.214z"/>
<g>
	<g opacity="0.25">
		
			<linearGradient id="SVGID_7_" gradientUnits="userSpaceOnUse" x1="164.4624" y1="121.146" x2="190.7739" y2="121.146" gradientTransform="matrix(1 0 0 -1 -97.5 299.7178)">
			<stop  offset="0" style="stop-color:#FFFFFF"/>
			<stop  offset="0.4774" style="stop-color:#DCDBDC"/>
			<stop  offset="1" style="stop-color:#999999"/>
		</linearGradient>
		<path fill="url(#SVGID_7_)" d="M84.936,206.755c-2.624-1.962-4.952-4.589-6.914-7.666c-1.969-3.08-3.58-6.594-4.764-10.357
			c-1.208-3.77-1.92-7.768-2.214-11.793c-0.297-4.033,0.702-8.132,0.702-12.023v-0.015c1-3.91,1.941-7.306,3.56-10.056
			c1.627-2.775,3.6-4.911,5.84-6.336c1.365-0.859,2.799-1.447,4.309-1.767c-0.214-0.021-0.438-0.044-0.651-0.054
			c-2.634-0.084-5.144,0.609-7.418,2.041c-2.24,1.425-4.318,3.561-5.944,6.336c-1.619,2.75-2.694,6.146-3.694,10.056v0.015
			c-1,3.892-0.867,7.991-0.569,12.023c0.294,4.026,1.104,8.023,2.312,11.793c1.184,3.763,2.812,7.277,4.781,10.357
			c1.963,3.076,4.3,5.704,6.923,7.666c2.643,1.977,5.329,3.098,7.953,3.399c1.405,0.166,2.789,0.095,4.126-0.19
			c-0.13-0.011-0.258-0.016-0.388-0.03C90.26,209.854,87.579,208.732,84.936,206.755z"/>
	</g>
	<g opacity="0.25">
		
			<linearGradient id="SVGID_8_" gradientUnits="userSpaceOnUse" x1="197.0464" y1="16.6592" x2="225.4268" y2="16.6592" gradientTransform="matrix(1 0 0 -1 -97.5 299.7178)">
			<stop  offset="0" style="stop-color:#FFFFFF"/>
			<stop  offset="0.4774" style="stop-color:#DCDBDC"/>
			<stop  offset="1" style="stop-color:#999999"/>
		</linearGradient>
		<path fill="url(#SVGID_8_)" d="M118.619,309.916c-2.741-2.265-5.152-5.131-7.203-8.387c-2.04-3.253-3.674-6.906-4.891-10.729
			c-1.227-3.816-2.003-7.807-2.255-11.781c-0.257-3.964-0.026-7.904,0.789-11.615c0.844-3.736,2.201-6.865,3.907-9.338
			c1.754-2.477,3.875-4.314,6.258-5.408c1.036-0.479,2.123-0.806,3.245-0.997c-0.017-0.003-0.033-0.008-0.05-0.01
			c-2.772-0.445-5.424-0.098-7.819,1.007c-2.382,1.094-4.504,2.931-6.258,5.408c-1.706,2.473-3.063,5.602-3.907,9.338
			c-0.814,3.711-1.046,7.651-0.789,11.615c0.251,3.975,1.028,7.965,2.254,11.781c1.218,3.822,2.852,7.477,4.892,10.729
			c2.051,3.256,4.461,6.122,7.203,8.387c2.731,2.271,5.544,3.703,8.294,4.338c1.938,0.459,3.831,0.52,5.638,0.205
			c-0.336-0.058-0.675-0.125-1.014-0.205C124.163,313.619,121.351,312.186,118.619,309.916z"/>
		
			<linearGradient id="SVGID_9_" gradientUnits="userSpaceOnUse" x1="229.9912" y1="-89.4526" x2="261.1509" y2="-89.4526" gradientTransform="matrix(1 0 0 -1 -97.5 299.7178)">
			<stop  offset="0" style="stop-color:#FFFFFF"/>
			<stop  offset="0.4774" style="stop-color:#DCDBDC"/>
			<stop  offset="1" style="stop-color:#999999"/>
		</linearGradient>
		<path fill="url(#SVGID_9_)" d="M151.873,414.375c-2.835-2.559-5.335-5.684-7.437-9.119c-2.089-3.442-3.786-7.194-5.022-11.077
			c-1.226-3.878-1.988-7.863-2.226-11.761c-0.23-3.89,0.08-7.717,0.972-11.201c0.921-3.508,2.364-6.379,4.209-8.547
			c1.846-2.195,4.099-3.68,6.599-4.428c0.524-0.158,1.061-0.275,1.605-0.367c-2.18-0.346-4.275-0.224-6.229,0.367
			c-2.5,0.748-4.753,2.231-6.599,4.428c-1.845,2.168-3.288,5.039-4.209,8.547c-0.892,3.484-1.202,7.312-0.972,11.201
			c0.237,3.896,1,7.883,2.226,11.761c1.237,3.883,2.934,7.635,5.023,11.077c2.101,3.437,4.601,6.562,7.437,9.119
			c2.87,2.557,5.822,4.332,8.67,5.344c2.686,0.9,5.297,1.154,7.731,0.759c-1.021-0.155-2.058-0.407-3.107-0.759
			C157.695,418.707,154.743,416.93,151.873,414.375z"/>
	</g>
	<g opacity="0.25">
		
			<linearGradient id="SVGID_10_" gradientUnits="userSpaceOnUse" x1="476.7085" y1="43.5454" x2="525.7144" y2="43.5454" gradientTransform="matrix(1 0 0 -1 -97.5 299.7178)">
			<stop  offset="0" style="stop-color:#FFFFFF"/>
			<stop  offset="0.4774" style="stop-color:#DCDBDC"/>
			<stop  offset="1" style="stop-color:#999999"/>
		</linearGradient>
		<path fill="url(#SVGID_10_)" d="M415.808,273.837c-3.619,2.231-7.434,3.815-11.234,4.535l-0.037,0.021
			c-3.861,0.714-7.373,0.521-10.391-0.514c-3.088-1.06-5.695-2.943-7.693-5.525c-1.986-2.633-3.377-5.968-3.988-9.868
			c-0.652-3.925-0.518-8.459,0.545-13.37c1.062-4.93,2.939-9.762,5.426-14.301c0.977-1.768,2.061-3.46,3.197-5.104
			c-2.252,2.748-4.303,5.736-6.057,8.918c-2.486,4.538-4.363,9.37-5.426,14.3c-1.062,4.911-1.199,9.444-0.545,13.37
			c0.609,3.9,2.002,7.236,3.986,9.869c1.998,2.58,4.605,4.465,7.693,5.524c3.018,1.033,6.529,1.228,10.391,0.513l0.037-0.021
			c3.803-0.72,7.615-2.304,11.236-4.535c3.619-2.229,7.057-5.103,10.166-8.438c1.828-1.969,3.527-4.117,5.1-6.377
			c-0.727,0.881-1.475,1.736-2.24,2.562C422.867,268.736,419.427,271.609,415.808,273.837z"/>
		
			<linearGradient id="SVGID_11_" gradientUnits="userSpaceOnUse" x1="358.2563" y1="-106.0176" x2="407.2593" y2="-106.0176" gradientTransform="matrix(1 0 0 -1 -97.5 299.7178)">
			<stop  offset="0" style="stop-color:#FFFFFF"/>
			<stop  offset="0.4774" style="stop-color:#DCDBDC"/>
			<stop  offset="1" style="stop-color:#999999"/>
		</linearGradient>
		<path fill="url(#SVGID_11_)" d="M297.356,423.402c-3.619,2.229-7.433,3.814-11.235,4.535l-0.037,0.021
			c-3.86,0.711-7.371,0.518-10.39-0.514c-3.088-1.061-5.696-2.945-7.694-5.525c-1.984-2.633-3.377-5.969-3.986-9.871
			c-0.654-3.926-0.518-8.457,0.545-13.369c1.062-4.93,2.938-9.762,5.426-14.301c0.975-1.768,2.059-3.457,3.196-5.104
			c-2.252,2.748-4.304,5.734-6.056,8.917c-2.487,4.538-4.365,9.371-5.426,14.302c-1.062,4.911-1.199,9.442-0.546,13.368
			c0.61,3.901,2.001,7.237,3.987,9.87c1.998,2.58,4.605,4.467,7.693,5.525c3.018,1.033,6.528,1.227,10.391,0.514l0.037-0.021
			c3.802-0.721,7.615-2.307,11.234-4.535c3.621-2.23,7.057-5.104,10.166-8.439c1.828-1.967,3.529-4.115,5.098-6.372
			c-0.727,0.88-1.473,1.734-2.238,2.56C304.414,418.296,300.976,421.169,297.356,423.402z"/>
	</g>
	<g opacity="0.25">
		
			<linearGradient id="SVGID_12_" gradientUnits="userSpaceOnUse" x1="226.5337" y1="208.7012" x2="291.2534" y2="208.7012" gradientTransform="matrix(1 0 0 -1 -97.5 299.7178)">
			<stop  offset="0" style="stop-color:#FFFFFF"/>
			<stop  offset="0.4774" style="stop-color:#DCDBDC"/>
			<stop  offset="1" style="stop-color:#999999"/>
		</linearGradient>
		<path fill="url(#SVGID_12_)" d="M193.747,89.453c-1,1.876-1.822,3.607-3.792,5.058c-1.967,1.457-4.799,2.497-8.3,3.297
			c-3.479,0.809-7.401,0.939-11.477,0.939c-0.003,0-0.007,0-0.01,0c-0.015,0-0.029,0-0.043,0c-4.054,0-8.283-0.395-12.41-1.237
			c-4.13-0.839-8.188-1.973-11.886-3.476c-3.713-1.513-7.078-3.299-9.854-5.387c-2.77-2.079-4.718-4.198-5.819-6.291
			c-0.456-0.865-0.765-1.712-0.946-2.556c-0.414,1.813-0.098,3.762,0.947,5.746c1.101,2.092,3.048,4.232,5.818,6.312
			c2.776,2.087,6.141,3.912,9.854,5.425c3.699,1.502,7.756,2.714,11.886,3.552c4.127,0.844,8.355,1.323,12.41,1.39
			c4.076,0.068,7.961-0.282,11.44-1.09c3.501-0.8,6.246-1.994,8.212-3.45c1.97-1.451,3.36-3.182,3.792-5.058
			c0.236-1.019,0.178-2.086,0.178-3.182C193.747,89.448,193.747,89.45,193.747,89.453z"/>
		
			<linearGradient id="SVGID_13_" gradientUnits="userSpaceOnUse" x1="447.187" y1="164.0972" x2="511.4175" y2="164.0972" gradientTransform="matrix(1 0 0 -1 -97.5 299.7178)">
			<stop  offset="0" style="stop-color:#FFFFFF"/>
			<stop  offset="0.4774" style="stop-color:#DCDBDC"/>
			<stop  offset="1" style="stop-color:#999999"/>
		</linearGradient>
		<path fill="url(#SVGID_13_)" d="M410.88,139.48c-1.76,1.502-4.307,2.727-7.641,3.551c-3.297,0.858-7.076,1.242-11.055,1.165
			c-3.961-0.047-8.139-0.506-12.287-1.341c-4.135-0.833-8.229-2.061-12.008-3.583c-3.777-1.52-7.26-3.39-10.221-5.488
			c-2.945-2.114-5.041-4.305-6.363-6.433c-0.729-1.19-1.203-2.355-1.439-3.49c-0.041,0.184-0.082,0.367-0.109,0.554
			c-0.271,1.925,0.244,3.982,1.549,6.11c1.324,2.128,3.418,4.318,6.365,6.433c2.961,2.098,6.441,3.968,10.219,5.488
			c3.779,1.524,7.873,2.751,12.01,3.584c4.146,0.834,8.324,1.294,12.285,1.34c3.98,0.077,7.758-0.307,11.055-1.165
			c3.336-0.824,5.881-2.047,7.641-3.55c1.775-1.505,2.781-3.263,2.988-5.193c0.096-0.78,0.049-1.589-0.125-2.417
			C413.378,136.678,412.419,138.174,410.88,139.48z"/>
		
			<linearGradient id="SVGID_14_" gradientUnits="userSpaceOnUse" x1="346.894" y1="236.2969" x2="409.5991" y2="236.2969" gradientTransform="matrix(1 0 0 -1 -97.5 299.7178)">
			<stop  offset="0" style="stop-color:#FFFFFF"/>
			<stop  offset="0.4774" style="stop-color:#DCDBDC"/>
			<stop  offset="1" style="stop-color:#999999"/>
		</linearGradient>
		<path fill="url(#SVGID_14_)" d="M308.83,66.979c-1.828,1.392-4.393,2.536-7.703,3.31c-3.293,0.757-7.026,1.074-10.953,0.999
			c-3.912-0.058-7.996-0.524-12.022-1.35c-4.042-0.816-8.001-2.004-11.646-3.449c-3.66-1.468-6.998-3.24-9.796-5.249
			c-2.789-1.997-4.774-4.058-5.952-6.078c-0.57-0.945-0.954-1.881-1.166-2.795c-0.02,0.078-0.045,0.156-0.061,0.235
			c-0.376,1.79,0.025,3.745,1.226,5.735c1.177,2.021,3.163,4.082,5.952,6.08c2.799,2.008,6.135,3.78,9.795,5.249
			c3.646,1.444,7.604,2.633,11.646,3.449c4.027,0.826,8.109,1.292,12.023,1.349c3.926,0.076,7.658-0.242,10.951-0.998
			c3.312-0.776,5.875-1.919,7.705-3.312c1.83-1.373,2.881-3.038,3.176-4.843c0.152-0.875,0.119-1.789-0.098-2.726
			C311.521,64.215,310.505,65.72,308.83,66.979z"/>
		
			<linearGradient id="SVGID_15_" gradientUnits="userSpaceOnUse" x1="326.3306" y1="133.7671" x2="392.4194" y2="133.7671" gradientTransform="matrix(1 0 0 -1 -97.5 299.7178)">
			<stop  offset="0" style="stop-color:#FFFFFF"/>
			<stop  offset="0.4774" style="stop-color:#DCDBDC"/>
			<stop  offset="1" style="stop-color:#999999"/>
		</linearGradient>
		<path fill="url(#SVGID_15_)" d="M291.412,169.701c-1.936,1.55-4.646,2.863-8.152,3.728c-3.495,0.902-7.434,1.293-11.57,1.267
			c-4.115-0.045-8.453-0.533-12.699-1.366c-4.238-0.877-8.408-2.12-12.26-3.708c-3.84-1.581-7.362-3.494-10.295-5.691
			c-2.916-2.194-4.995-4.461-6.22-6.67c-0.612-1.095-1.016-2.179-1.222-3.233c-0.003,0.015-0.009,0.029-0.012,0.045
			c-0.4,1.971-0.005,4.146,1.233,6.363c1.225,2.208,3.305,4.475,6.22,6.67c2.934,2.198,6.455,4.11,10.295,5.692
			c3.853,1.588,8.022,2.83,12.26,3.708c4.246,0.833,8.583,1.321,12.699,1.366c4.138,0.027,8.075-0.364,11.569-1.266
			c3.507-0.866,6.219-2.178,8.152-3.728c1.938-1.569,3.082-3.421,3.399-5.409c0.166-0.942,0.144-1.923-0.054-2.927
			C294.384,166.434,293.267,168.198,291.412,169.701z"/>
		
			<linearGradient id="SVGID_16_" gradientUnits="userSpaceOnUse" x1="227.2471" y1="210.4409" x2="267.6675" y2="210.4409" gradientTransform="matrix(1 0 0 -1 -97.5 299.7178)">
			<stop  offset="0" style="stop-color:#FFFFFF"/>
			<stop  offset="0.4774" style="stop-color:#DCDBDC"/>
			<stop  offset="1" style="stop-color:#999999"/>
		</linearGradient>
		<path fill="url(#SVGID_16_)" d="M135.975,88.686c2.776,2.087,6.141,3.911,9.854,5.424c3.699,1.502,7.756,2.561,11.886,3.4
			c4.127,0.842,8.355,1.237,12.41,1.237c0.015,0,0.029,0,0.043,0c-4.051,0-8.303-0.395-12.426-1.237
			c-4.13-0.838-8.202-1.973-11.9-3.476c-3.713-1.513-7.084-3.299-9.86-5.387c-2.77-2.079-4.454-4.198-5.554-6.291
			c-0.456-0.866-0.681-1.705-0.681-2.55c0,0.001,0,0.002,0,0.002c0,0.844,0.222,1.701,0.678,2.567
			C131.525,84.467,133.206,86.606,135.975,88.686z"/>
	</g>
</g>
<path fill="none" stroke="#000000" stroke-width="4" stroke-miterlimit="10" d="M427.554,374.552
	c13.295-37.166,27.592-78.197,38.955-115.925c7.18-24.146,13.572-47.954,19.484-72.318c0.99-4.21,6.215-25.624-1.377-35.277
	C471.244,127.171,313.982,30.754,294.789,30.771C275.289,25.177,187.759,36.383,127,49.26c-33.296,7.063-58.6,14.674-60.195,20.229
	c-0.043,0.008-0.078,0.094-0.097,0.137c-5.721,4.616-8.949,10.045-10.769,14.65C44.024,96.56,25.424,297.46,32.686,323.335
	c3.75,19.965,143.274,163.531,159.942,165.486c2.483,0.889,4.791,1.307,6.733,1.418c0.094,0.021,0.216,0.064,0.33,0.043
	c0.605,0.174,1.41,0.176,2.393,0.066c0.214,0.055,0.453,0.033,0.689-0.045c0.298-0.018,0.518-0.059,0.744-0.051
	c0.221,0.014,0.463-0.051,0.748-0.068c0.078-0.041,0.191-0.055,0.293-0.027l0.061-0.041c35.451-5.838,186.003-60.83,207.679-85.232
	C418.925,398.24,424.56,383.021,427.554,374.552z"/>
</svg>
