<?xml version="1.0" encoding="utf-8"?>
<!-- Generator: Adobe Illustrator 16.0.4, SVG Export Plug-In . SVG Version: 6.00 Build 0)  -->
<!DOCTYPE svg PUBLIC "-//W3C//DTD SVG 1.1//EN" "http://www.w3.org/Graphics/SVG/1.1/DTD/svg11.dtd">
<svg version="1.1" xmlns="http://www.w3.org/2000/svg" xmlns:xlink="http://www.w3.org/1999/xlink" x="0px" y="0px" width="640px"
	 height="640px" viewBox="0 0 640 640" enable-background="new 0 0 640 640" xml:space="preserve">
<g id="Layer_2">
	
		<linearGradient id="SVGID_1_" gradientUnits="userSpaceOnUse" x1="235.3833" y1="195.3179" x2="244.6882" y2="683.2995" gradientTransform="matrix(0.946 -0.324 0.324 0.946 -87.9043 99.1177)">
		<stop  offset="0" style="stop-color:#84E5F1"/>
		<stop  offset="1" style="stop-color:#C3ECF1"/>
	</linearGradient>
	
		<polygon fill="url(#SVGID_1_)" stroke="#143E51" stroke-width="22" stroke-linecap="round" stroke-linejoin="round" stroke-miterlimit="10" points="
		45.494,345.844 544.094,601.047 280.652,177.563 	"/>
	<g>
		<defs>
			<path id="SVGID_2_" d="M544.09,612.047c-1.701,0-3.417-0.394-5.008-1.208l-498.6-255.203c-3.417-1.749-5.674-5.151-5.958-8.979
				c-0.284-3.827,1.447-7.525,4.568-9.759l235.159-168.281c2.472-1.77,5.568-2.438,8.55-1.843c2.982,0.594,5.585,2.396,7.192,4.978
				l263.441,423.484c2.611,4.197,2.103,9.62-1.244,13.258C550.053,610.816,547.095,612.047,544.09,612.047z"/>
		</defs>
		<clipPath id="SVGID_3_">
			<use xlink:href="#SVGID_2_"  overflow="visible"/>
		</clipPath>
		
			<linearGradient id="SVGID_4_" gradientUnits="userSpaceOnUse" x1="365.375" y1="361.3076" x2="365.375" y2="289.2998" gradientTransform="matrix(0.9007 0.4345 -0.5424 1.1244 169.9653 -193.4717)">
			<stop  offset="0.1467" style="stop-color:#000000;stop-opacity:0"/>
			<stop  offset="1" style="stop-color:#000000"/>
		</linearGradient>
		<polygon clip-path="url(#SVGID_3_)" fill="url(#SVGID_4_)" points="538.612,485.156 67.561,257.912 106.616,176.954 
			577.668,404.197 		"/>
	</g>
</g>
<g id="Layer_1">
	
		<linearGradient id="SVGID_5_" gradientUnits="userSpaceOnUse" x1="327.5439" y1="75.3296" x2="336.8489" y2="563.3121" gradientTransform="matrix(0.946 -0.324 0.324 0.946 -87.9043 99.1177)">
		<stop  offset="0" style="stop-color:#84F187"/>
		<stop  offset="1" style="stop-color:#BCF1BE"/>
	</linearGradient>
	
		<polygon fill="url(#SVGID_5_)" stroke="#145127" stroke-width="22" stroke-linecap="round" stroke-linejoin="round" stroke-miterlimit="10" points="
		93.802,202.475 592.401,457.678 328.96,34.193 	"/>
</g>
</svg>
