<?xml version="1.0" encoding="utf-8"?>
<!-- Generator: Adobe Illustrator 16.0.4, SVG Export Plug-In . SVG Version: 6.00 Build 0)  -->
<!DOCTYPE svg PUBLIC "-//W3C//DTD SVG 1.1//EN" "http://www.w3.org/Graphics/SVG/1.1/DTD/svg11.dtd">
<svg version="1.1" id="Layer_1" xmlns="http://www.w3.org/2000/svg" xmlns:xlink="http://www.w3.org/1999/xlink" x="0px" y="0px"
	 width="640px" height="640px" viewBox="0 0 640 640" enable-background="new 0 0 640 640" xml:space="preserve">
<linearGradient id="SVGID_1_" gradientUnits="userSpaceOnUse" x1="307.813" y1="166.561" x2="420.1867" y2="585.9455">
	<stop  offset="0" style="stop-color:#D6B984"/>
	<stop  offset="1" style="stop-color:#B59757"/>
</linearGradient>
<path fill="url(#SVGID_1_)" d="M125.56,215.396c0,0,125.44-7.396,192.94-7.396c73.5,0,197.383,6.076,197.383,6.076
	S451,270,406.118,380.986C385.123,432.905,364,601,364,601h-88c0,0-9-147-44.317-225.697
	C191.069,284.802,125.56,215.396,125.56,215.396z"/>
<path fill="none" stroke="#006837" stroke-width="22" stroke-linecap="round" stroke-miterlimit="10" d="M43,160.972
	c0,0,217,75.028,233,440.028"/>
<path fill="none" stroke="#006837" stroke-width="22" stroke-linecap="round" stroke-miterlimit="10" d="M597,160.972
	c0,0-217,75.028-233,440.028"/>
</svg>
