<?xml version="1.0" encoding="utf-8"?>
<!-- Generator: Adobe Illustrator 16.0.4, SVG Export Plug-In . SVG Version: 6.00 Build 0)  -->
<!DOCTYPE svg PUBLIC "-//W3C//DTD SVG 1.1//EN" "http://www.w3.org/Graphics/SVG/1.1/DTD/svg11.dtd">
<svg version="1.1"
	 id="Layer_1" xmlns:inkscape="http://www.inkscape.org/namespaces/inkscape" xmlns:rdf="http://www.w3.org/1999/02/22-rdf-syntax-ns#" xmlns:dc="http://purl.org/dc/elements/1.1/" xmlns:ns1="http://sozi.baierouge.fr" xmlns:cc="http://web.resource.org/cc/" xmlns:sodipodi="http://sodipodi.sourceforge.net/DTD/sodipodi-0.dtd"
	 xmlns="http://www.w3.org/2000/svg" xmlns:xlink="http://www.w3.org/1999/xlink" x="0px" y="0px" width="640px" height="640px"
	 viewBox="0 0 640 640" enable-background="new 0 0 640 640" xml:space="preserve">
<radialGradient id="path2794_1_" cx="95.6055" cy="639.2383" r="60.5881" gradientTransform="matrix(-5.0595 5.0595 5.0595 5.0595 -2430.4717 -3704.5146)" gradientUnits="userSpaceOnUse">
	<stop  offset="0" style="stop-color:#CC0700"/>
	<stop  offset="1" style="stop-color:#AF0600"/>
</radialGradient>
<path id="path2794" inkscape:connector-curvature="0" display="none" fill="url(#path2794_1_)" d="M626.555,320
	c0,169.305-137.25,306.555-306.555,306.555c-169.305,0-306.555-137.25-306.555-306.555c0-169.305,137.25-306.555,306.555-306.555
	C489.305,13.445,626.555,150.695,626.555,320z"/>
<radialGradient id="path2796_1_" cx="102.4775" cy="656.5469" r="62.6838" gradientTransform="matrix(-5.061 5.061 5.061 5.061 -2484.1267 -3838.6553)" gradientUnits="userSpaceOnUse">
	<stop  offset="0" style="stop-color:#EEEEEE"/>
	<stop  offset="1" style="stop-color:#DCDCDC"/>
</radialGradient>
<path id="path2796" inkscape:connector-curvature="0" fill="url(#path2796_1_)" stroke="#D5D5D5" stroke-width="20" d="M626.555,320
	c0,169.305-137.25,306.555-306.555,306.555c-169.305,0-306.555-137.25-306.555-306.555c0-169.305,137.25-306.555,306.555-306.555
	C489.305,13.445,626.555,150.695,626.555,320z"/>
<radialGradient id="path3173_1_" cx="57.3076" cy="610.5654" r="62.3964" gradientTransform="matrix(7.7567 0 0 -5.7701 -124.5229 3387.5537)" gradientUnits="userSpaceOnUse">
	<stop  offset="0" style="stop-color:#FFFFFF"/>
	<stop  offset="1" style="stop-color:#EEEEEE;stop-opacity:0"/>
</radialGradient>
<path id="path3173" inkscape:connector-curvature="0" fill="none" stroke="url(#path3173_1_)" stroke-width="8" d="M319.909,27.217
	C157.922,27.217,26.954,158.33,26.954,320c0,161.677,130.968,292.784,292.956,292.784S613.033,481.666,613.033,320
	C613.032,158.334,481.897,27.217,319.909,27.217L319.909,27.217z"/>
<radialGradient id="path2666_1_" cx="56.2495" cy="558.9062" r="33.2368" gradientTransform="matrix(8.812 -0.3719 -0.271 -6.4205 -24.2211 3747.0513)" gradientUnits="userSpaceOnUse">
	<stop  offset="0" style="stop-color:#393939"/>
	<stop  offset="1" style="stop-color:#323232"/>
</radialGradient>
<path id="path2666" inkscape:connector-curvature="0" fill="url(#path2666_1_)" d="M316.786,106.414
	c-71.194-0.05-128.975,61.245-129.028,136.93c-0.009,13.875,0.175,27.142,0.293,39.792h-8.192
	c-14.419-0.011-26.027,14.782-26.04,33.354v183.156c-0.013,18.569,11.329,33.637,25.747,33.646l280.589,0.293
	c14.419,0.011,25.731-15.076,25.747-33.646l0.292-183.156c0.014-18.572-11.327-33.345-25.747-33.354h-14.629
	c-0.048-12.538-0.012-24.75,0-39.792c0.054-75.685-57.841-137.17-129.027-137.224L316.786,106.414z M315.614,152.642
	c45.835,0.032,82.541,34.19,82.51,76.656v53.834H232.813v-53.834C232.843,186.831,269.78,152.609,315.614,152.642z"/>
</svg>
