<?xml version="1.0" encoding="utf-8"?>
<!-- Generator: Adobe Illustrator 16.0.4, SVG Export Plug-In . SVG Version: 6.00 Build 0)  -->
<!DOCTYPE svg PUBLIC "-//W3C//DTD SVG 1.1//EN" "http://www.w3.org/Graphics/SVG/1.1/DTD/svg11.dtd">
<svg version="1.1"
	 id="Layer_1" xmlns:inkscape="http://www.inkscape.org/namespaces/inkscape" xmlns:rdf="http://www.w3.org/1999/02/22-rdf-syntax-ns#" xmlns:dc="http://purl.org/dc/elements/1.1/" xmlns:ns1="http://sozi.baierouge.fr" xmlns:cc="http://web.resource.org/cc/" xmlns:sodipodi="http://sodipodi.sourceforge.net/DTD/sodipodi-0.dtd"
	 xmlns="http://www.w3.org/2000/svg" xmlns:xlink="http://www.w3.org/1999/xlink" x="0px" y="0px" width="640px" height="640px"
	 viewBox="0 0 640 640" enable-background="new 0 0 640 640" xml:space="preserve">
<radialGradient id="path2794_1_" cx="121.0156" cy="654.5557" r="60.5879" gradientTransform="matrix(-5.0595 5.0595 5.0595 5.0595 -2379.4092 -3910.5771)" gradientUnits="userSpaceOnUse">
	<stop  offset="0" style="stop-color:#CC0700"/>
	<stop  offset="1" style="stop-color:#AF0600"/>
</radialGradient>
<path id="path2794" inkscape:connector-curvature="0" display="none" fill="url(#path2794_1_)" d="M626.555,320
	c0,169.305-137.25,306.555-306.555,306.555c-169.305,0-306.555-137.25-306.555-306.555c0-169.305,137.25-306.555,306.555-306.555
	C489.305,13.445,626.555,150.695,626.555,320z"/>
<g>
	
		<radialGradient id="path2796_1_" cx="144.1367" cy="719.5303" r="30.1713" gradientTransform="matrix(-5.061 5.061 5.061 5.061 -2433.0642 -4044.7178)" gradientUnits="userSpaceOnUse">
		<stop  offset="0" style="stop-color:#EEEEEE"/>
		<stop  offset="1" style="stop-color:#DCDCDC"/>
	</radialGradient>
	<path id="path2796" inkscape:connector-curvature="0" fill="url(#path2796_1_)" stroke="#D5D5D5" stroke-width="10" d="
		M626.555,479c0,81.492-66.062,147.555-147.555,147.555S331.445,560.493,331.445,479S397.506,331.445,479,331.445
		C560.492,331.445,626.555,397.507,626.555,479z"/>
	
		<radialGradient id="path3173_1_" cx="72.876" cy="507.3438" r="30.1529" gradientTransform="matrix(7.7567 0 0 -5.7701 -86.2807 3186.5537)" gradientUnits="userSpaceOnUse">
		<stop  offset="0" style="stop-color:#FFFFFF"/>
		<stop  offset="1" style="stop-color:#EEEEEE;stop-opacity:0"/>
	</radialGradient>
	<path id="path3173" inkscape:connector-curvature="0" fill="none" stroke="url(#path3173_1_)" stroke-width="4" d="
		M478.955,338.073c-77.968,0-141.009,63.109-141.009,140.927c0,77.82,63.04,140.927,141.011,140.927
		c77.969,0,141.088-63.113,141.088-140.927C620.045,401.183,556.926,338.073,478.955,338.073L478.955,338.073z"/>
	
		<radialGradient id="path2666_1_" cx="67.8774" cy="487.4922" r="15.9972" gradientTransform="matrix(8.812 -0.3719 -0.271 -6.4205 12.9664 3546.4224)" gradientUnits="userSpaceOnUse">
		<stop  offset="0" style="stop-color:#393939"/>
		<stop  offset="1" style="stop-color:#323232"/>
	</radialGradient>
	<path id="path2666" inkscape:connector-curvature="0" fill="url(#path2666_1_)" d="M477.453,376.193
		c-34.268-0.024-62.081,29.479-62.104,65.911c-0.004,6.676,0.084,13.064,0.142,19.153h-3.944
		c-6.939-0.007-12.528,7.114-12.533,16.054v88.16c-0.007,8.938,5.453,16.191,12.393,16.195l135.058,0.141
		c6.939,0.006,12.387-7.259,12.393-16.195l0.141-88.16c0.008-8.939-5.453-16.051-12.394-16.054h-7.041
		c-0.023-6.035-0.006-11.913,0-19.152C539.586,405.815,511.719,376.22,477.453,376.193L477.453,376.193z M476.888,398.445
		c22.062,0.015,39.73,16.457,39.717,36.896v25.912h-79.57v-25.911C437.049,414.902,454.827,398.429,476.888,398.445z"/>
</g>
</svg>
