<?xml version="1.0" encoding="utf-8"?>
<!-- Generator: Adobe Illustrator 16.0.4, SVG Export Plug-In . SVG Version: 6.00 Build 0)  -->
<!DOCTYPE svg PUBLIC "-//W3C//DTD SVG 1.1//EN" "http://www.w3.org/Graphics/SVG/1.1/DTD/svg11.dtd">
<svg version="1.1" id="Layer_1" xmlns="http://www.w3.org/2000/svg" xmlns:xlink="http://www.w3.org/1999/xlink" x="0px" y="0px"
	 width="640px" height="640px" viewBox="0 0 640 640" enable-background="new 0 0 640 640" xml:space="preserve">
<g>
	<path fill="none" stroke="#000000" stroke-width="22" stroke-linecap="round" stroke-miterlimit="10" d="M22.861,430.42
		c44.562,35.135,100.59,4.142,137.112-68.557c89.979-179.103,63.415-361.633,11.998-194.527
		c-52.52,170.688-75.516,302.819,17.139,272.511c33.322-10.9,88.928-65.194,102.834-112.261
		c22.281-75.412-38.563-99.406-56.559,18.853c-18.963,124.61,72.841,124.258,126.829,34.278"/>
	<g>
		
			<linearGradient id="SVGID_1_" gradientUnits="userSpaceOnUse" x1="382.8818" y1="219.9727" x2="427.2188" y2="219.9727" gradientTransform="matrix(0.9158 0.4016 -0.4016 0.9158 171.4343 -191.4814)">
			<stop  offset="0.0169" style="stop-color:#52835F"/>
			<stop  offset="0.5" style="stop-color:#006D4F"/>
			<stop  offset="1" style="stop-color:#004A33"/>
		</linearGradient>
		<path fill="url(#SVGID_1_)" d="M495.797,22.21L367.729,314.257l41.229,16.379L536.398,40.015
			C529.971,22.886,512.181,15.087,495.797,22.21z"/>
		
			<linearGradient id="SVGID_2_" gradientUnits="userSpaceOnUse" x1="382.041" y1="394.418" x2="426.3789" y2="394.418" gradientTransform="matrix(0.9158 0.4015 -0.4015 0.9158 166.1958 -177.4873)">
			<stop  offset="0" style="stop-color:#C4A873"/>
			<stop  offset="0.5" style="stop-color:#AA863B"/>
			<stop  offset="1" style="stop-color:#8C6F2D"/>
		</linearGradient>
		<path fill="url(#SVGID_2_)" d="M364.291,377.293l44.666-46.657c-8.749-14.577-23.18-22.266-41.229-16.379L364.291,377.293z"/>
		
			<linearGradient id="SVGID_3_" gradientUnits="userSpaceOnUse" x1="396.9043" y1="417.3398" x2="411.3252" y2="417.3398" gradientTransform="matrix(0.9158 0.4015 -0.4015 0.9158 166.1958 -177.4873)">
			<stop  offset="0" style="stop-color:#7A7A7A"/>
			<stop  offset="0.1443" style="stop-color:#727272"/>
			<stop  offset="0.3654" style="stop-color:#5D5D5D"/>
			<stop  offset="0.6358" style="stop-color:#3A3A3A"/>
			<stop  offset="0.9426" style="stop-color:#0A0A0A"/>
			<stop  offset="1" style="stop-color:#000000"/>
		</linearGradient>
		<path fill="url(#SVGID_3_)" d="M364.291,377.293l1.135-20.768c4.628-2.338,11.953,0.874,13.209,5.784L364.291,377.293z"/>
	</g>
</g>
<g display="none">
	<g id="Layer_4" display="inline">
		<polyline fill="#FFFFFF" points="465.965,372.402 367.729,555.832 556.566,623.102 621.943,492.861 		"/>
	</g>
	<g id="Layer_3" display="inline">
		
			<line fill="none" stroke="#0071BC" stroke-width="16" stroke-linecap="round" stroke-linejoin="round" stroke-miterlimit="10" x1="621.943" y1="492.861" x2="367.729" y2="555.832"/>
	</g>
	<g id="Layer_2" display="inline">
		
			<linearGradient id="SVGID_4_" gradientUnits="userSpaceOnUse" x1="378.0098" y1="728.5918" x2="554.6219" y2="580.3966" gradientTransform="matrix(1 0 0 -1 22.5 1179)">
			<stop  offset="0" style="stop-color:#C5D9F6"/>
			<stop  offset="0.0406" style="stop-color:#B8D1F2"/>
			<stop  offset="0.1795" style="stop-color:#92B8E5"/>
			<stop  offset="0.3239" style="stop-color:#73A3DA"/>
			<stop  offset="0.4735" style="stop-color:#5A93D2"/>
			<stop  offset="0.6301" style="stop-color:#4988CC"/>
			<stop  offset="0.7986" style="stop-color:#3E81C8"/>
			<stop  offset="1" style="stop-color:#3B7FC7"/>
		</linearGradient>
		<polygon fill="url(#SVGID_4_)" fill-opacity="0.73" points="465.965,372.402 556.566,623.102 367.729,555.832 		"/>
		
			<linearGradient id="SVGID_5_" gradientUnits="userSpaceOnUse" x1="407.9619" y1="710.4717" x2="584.4113" y2="646.2494" gradientTransform="matrix(1 0 0 -1 22.5 1179)">
			<stop  offset="0" style="stop-color:#B4D0F6"/>
			<stop  offset="0.5" style="stop-color:#BBD2EE"/>
			<stop  offset="0.7975" style="stop-color:#92BCEA"/>
			<stop  offset="1" style="stop-color:#7AAFE7"/>
		</linearGradient>
		<polyline fill="url(#SVGID_5_)" fill-opacity="0.73" points="465.449,372.402 556.051,623.102 621.43,492.861 		"/>
	</g>
	<g id="Layer_1_1_" display="inline">
		<g>
			<g>
				
					<polygon fill="none" stroke="#0071BC" stroke-width="16" stroke-linecap="round" stroke-linejoin="round" stroke-miterlimit="10" points="
					367.729,555.832 556.566,623.102 621.943,492.861 465.965,372.402 				"/>
				
					<line fill="none" stroke="#0071BC" stroke-width="16" stroke-linecap="round" stroke-linejoin="round" stroke-miterlimit="10" x1="465.965" y1="372.402" x2="556.566" y2="623.102"/>
			</g>
		</g>
	</g>
</g>
<g display="none">
	<g id="Layer_2_1_" display="inline">
		
			<linearGradient id="SVGID_6_" gradientUnits="userSpaceOnUse" x1="467.8359" y1="808.707" x2="467.8359" y2="556.1582" gradientTransform="matrix(1 0 0 -1 22.5 1179)">
			<stop  offset="0" style="stop-color:#EDD3A4"/>
			<stop  offset="0.5" style="stop-color:#E7C88C"/>
			<stop  offset="1" style="stop-color:#D6A439"/>
		</linearGradient>
		<polygon fill="url(#SVGID_6_)" points="360.145,622.842 489.733,370.293 620.528,576.431 		"/>
	</g>
	<g id="Layer_1_2_" display="inline">
		<g>
			<polygon fill="none" stroke="#754C24" stroke-width="16" stroke-linejoin="round" stroke-miterlimit="10" points="
				361.145,622.842 490.733,370.293 621.528,576.431 			"/>
		</g>
	</g>
</g>
<g>
	<polyline fill="#FFFFFF" points="467.977,373.053 371.167,553.819 557.263,620.113 621.691,491.764 	"/>
	<linearGradient id="SVGID_7_" gradientUnits="userSpaceOnUse" x1="405.8779" y1="458.4521" x2="485.2847" y2="487.3539">
		<stop  offset="0" style="stop-color:#FF7BAC"/>
		<stop  offset="1" style="stop-color:#9E005D"/>
	</linearGradient>
	<polyline opacity="0.7" fill="url(#SVGID_7_)" points="467.977,373.053 371.167,553.819 481.17,498.658 	"/>
	<linearGradient id="SVGID_8_" gradientUnits="userSpaceOnUse" x1="551.1318" y1="421.0625" x2="500.0415" y2="509.5536">
		<stop  offset="0" style="stop-color:#FF7BAC"/>
		<stop  offset="1" style="stop-color:#9E005D"/>
	</linearGradient>
	<polyline opacity="0.7" fill="url(#SVGID_8_)" points="467.977,373.053 481.17,498.658 621.185,491.764 	"/>
	<linearGradient id="SVGID_9_" gradientUnits="userSpaceOnUse" x1="461.3535" y1="603.2021" x2="479.829" y2="498.4225">
		<stop  offset="0" style="stop-color:#FF7BAC"/>
		<stop  offset="1" style="stop-color:#9E005D"/>
	</linearGradient>
	<polyline opacity="0.7" fill="url(#SVGID_9_)" points="557.263,620.113 481.17,498.658 371.167,553.819 	"/>
	<linearGradient id="SVGID_10_" gradientUnits="userSpaceOnUse" x1="602.0684" y1="566.7168" x2="497.6102" y2="479.0661">
		<stop  offset="0" style="stop-color:#FF7BAC"/>
		<stop  offset="1" style="stop-color:#9E005D"/>
	</linearGradient>
	<polyline opacity="0.7" fill="url(#SVGID_10_)" points="481.17,498.658 557.263,620.113 621.185,491.764 	"/>
	<linearGradient id="SVGID_11_" gradientUnits="userSpaceOnUse" x1="513.4863" y1="498.0898" x2="484.7679" y2="508.5425">
		<stop  offset="0" style="stop-color:#C12D79"/>
		<stop  offset="1" style="stop-color:#9E005D"/>
	</linearGradient>
	<linearGradient id="SVGID_12_" gradientUnits="userSpaceOnUse" x1="467.5059" y1="500.2764" x2="560.5332" y2="500.2764">
		<stop  offset="0" style="stop-color:#9E005D"/>
		<stop  offset="1" style="stop-color:#9E005D;stop-opacity:0.2"/>
	</linearGradient>
	<polyline opacity="0.4" fill="url(#SVGID_11_)" stroke="url(#SVGID_12_)" stroke-miterlimit="10" points="467.977,373.053 
		558.435,623.334 481.17,498.658 	"/>
	
		<polygon fill="none" stroke="#9E005D" stroke-width="16" stroke-linecap="round" stroke-linejoin="round" stroke-miterlimit="10" points="
		371.167,553.819 557.263,620.113 621.691,491.764 467.977,373.053 	"/>
	
		<line fill="#FFFFFF" stroke="#9E005D" stroke-width="16" stroke-linecap="round" stroke-linejoin="round" stroke-miterlimit="10" x1="467.977" y1="373.053" x2="557.263" y2="620.113"/>
	<linearGradient id="SVGID_13_" gradientUnits="userSpaceOnUse" x1="371.167" y1="526.2383" x2="481.1699" y2="526.2383">
		<stop  offset="0" style="stop-color:#FFFFFF"/>
		<stop  offset="1" style="stop-color:#000000"/>
	</linearGradient>
	<linearGradient id="SVGID_14_" gradientUnits="userSpaceOnUse" x1="366.0469" y1="560.9512" x2="486.2912" y2="491.5281">
		<stop  offset="0" style="stop-color:#9E005D"/>
		<stop  offset="1" style="stop-color:#9E005D;stop-opacity:0.2"/>
	</linearGradient>
	
		<line fill="url(#SVGID_13_)" stroke="url(#SVGID_14_)" stroke-width="16" stroke-linecap="round" stroke-linejoin="round" stroke-miterlimit="10" x1="371.167" y1="553.819" x2="481.17" y2="498.658"/>
	<linearGradient id="SVGID_15_" gradientUnits="userSpaceOnUse" x1="474.5732" y1="506.6582" x2="474.5732" y2="365.0527">
		<stop  offset="0" style="stop-color:#9E005D;stop-opacity:0.2"/>
		<stop  offset="1" style="stop-color:#9E005D"/>
	</linearGradient>
	
		<line fill="#FFFFFF" stroke="url(#SVGID_15_)" stroke-width="16" stroke-linecap="round" stroke-linejoin="round" stroke-miterlimit="10" x1="467.977" y1="373.053" x2="481.17" y2="498.658"/>
	<linearGradient id="SVGID_16_" gradientUnits="userSpaceOnUse" x1="473.1699" y1="495.2109" x2="629.1846" y2="495.2109">
		<stop  offset="0" style="stop-color:#9E005D;stop-opacity:0.2"/>
		<stop  offset="1" style="stop-color:#9E005D"/>
	</linearGradient>
	
		<line fill="#FFFFFF" stroke="url(#SVGID_16_)" stroke-width="16" stroke-linecap="round" stroke-linejoin="round" stroke-miterlimit="10" x1="621.185" y1="491.764" x2="481.17" y2="498.658"/>
	<linearGradient id="SVGID_17_" gradientUnits="userSpaceOnUse" x1="559.0234" y1="628.334" x2="479.4087" y2="490.4372">
		<stop  offset="0" style="stop-color:#9E005D"/>
		<stop  offset="1" style="stop-color:#9E005D;stop-opacity:0.2"/>
	</linearGradient>
	
		<line fill="#FFFFFF" stroke="url(#SVGID_17_)" stroke-width="16" stroke-linecap="round" stroke-linejoin="round" stroke-miterlimit="10" x1="481.17" y1="498.658" x2="557.263" y2="620.113"/>
</g>
</svg>
