<?xml version="1.0" encoding="utf-8"?>
<!-- Generator: Adobe Illustrator 16.0.4, SVG Export Plug-In . SVG Version: 6.00 Build 0)  -->
<!DOCTYPE svg PUBLIC "-//W3C//DTD SVG 1.1//EN" "http://www.w3.org/Graphics/SVG/1.1/DTD/svg11.dtd">
<svg version="1.1" id="Layer_1" xmlns="http://www.w3.org/2000/svg" xmlns:xlink="http://www.w3.org/1999/xlink" x="0px" y="0px"
	 width="640px" height="640px" viewBox="0 0 640 640" enable-background="new 0 0 640 640" xml:space="preserve">
<line fill="none" stroke="#004775" stroke-width="35" stroke-linecap="round" stroke-miterlimit="10" x1="339.287" y1="353.18" x2="554.119" y2="63.527"/>
<line fill="none" stroke="#004775" stroke-width="35" stroke-linecap="round" stroke-miterlimit="10" x1="613.336" y1="569.729" x2="339.287" y2="353.18"/>
<path fill="none" stroke="#004775" stroke-width="40" stroke-linecap="round" stroke-miterlimit="10" d="M339.287,353.18"/>
<path fill="none" stroke="#004775" stroke-width="40" stroke-linecap="round" stroke-miterlimit="10" d="M406.183,599.819"/>
<line fill="none" stroke="#004775" stroke-width="35" stroke-linecap="round" stroke-miterlimit="10" x1="28.055" y1="561.453" x2="339.287" y2="353.18"/>
<line fill="none" stroke="#004775" stroke-width="35" stroke-linecap="round" stroke-miterlimit="10" x1="339.287" y1="353.18" x2="107.93" y2="63.527"/>
<ellipse fill="#004775" stroke="#004878" stroke-miterlimit="10" cx="339.446" cy="353.339" rx="49.734" ry="49.814"/>
<path fill="none" stroke="#000000" stroke-miterlimit="10" d="M759,175"/>
<linearGradient id="SVGID_1_" gradientUnits="userSpaceOnUse" x1="166.4575" y1="248.9258" x2="492.5056" y2="161.5614" gradientTransform="matrix(1 0 0 -1 22.5 540)">
	<stop  offset="0" style="stop-color:#85082A"/>
	<stop  offset="0.2039" style="stop-color:#A22B4A"/>
	<stop  offset="0.5781" style="stop-color:#D36780"/>
	<stop  offset="0.8542" style="stop-color:#F18CA2"/>
	<stop  offset="1" style="stop-color:#FD9AAF"/>
</linearGradient>
<path fill="url(#SVGID_1_)" fill-opacity="0.7" stroke="#9E005D" stroke-width="10" stroke-miterlimit="10" d="M216.94,200.005
	c69.914-17.813,172.24-26.135,243.061-9.581c37.835,80.607,41.288,204.145,29.886,281.759
	c-91.384,31.341-215.708,28.253-306.215-14.866C171.509,380.766,183.671,284.215,216.94,200.005z"/>
</svg>
